<svg xmlns="http://www.w3.org/2000/svg" width="277.545" height="164.63" viewBox="0 0 277.545 164.63">
  <g id="Grupo_53939" data-name="Grupo 53939" transform="translate(-1238.781 -1622.679)">
    <path id="Trazado_100623" data-name="Trazado 100623" d="M1289.244,1787.3s4.913-14.066,20.978-14.994,24.992-13.408,41.592-10.49,17.847,15.174,24.837,18.555,42.167-4.387,55.511-.7,19.6-5.486,32.009-9.451,20.552,1.471,29.482,7.658,21.428-.7,20.88,9.135Z" fill="#449a90"/>
    <rect id="Rectángulo_5159" data-name="Rectángulo 5159" width="153.689" height="116.118" transform="translate(1349.423 1658.37)" fill="#fff" opacity="0.4"/>
    <g id="Grupo_53899" data-name="Grupo 53899">
      <path id="Trazado_100624" data-name="Trazado 100624" d="M1378.91,1648.323l-.027,3.906-.812,117.479c0,.283-.1.51-.225.51h-.061c-.243,0-.442-.446-.447-1l-1.124-113.4-.075-7.492Z" fill="#766abd"/>
      <path id="Trazado_100625" data-name="Trazado 100625" d="M1378.91,1648.323l-.027,3.906a8.362,8.362,0,0,0-2.669,3.586l-.075-7.492Z" fill="#5b5195"/>
    </g>
    <path id="Trazado_100626" data-name="Trazado 100626" d="M1503.112,1716.391v58.1H1349.423V1658.37h45.162C1408.438,1671.674,1457.036,1715.054,1503.112,1716.391Z" fill="#fff" opacity="0.4"/>
    <path id="Trazado_100627" data-name="Trazado 100627" d="M1246.935,1785.709c-.823-1.293-3.3-4.647-6.6-4.2-3.593.484,3.969,2.853,6.284,4.213a3.831,3.831,0,0,1-1.281-.15c-1.548-.552-4.2.506-5.046.878h14.734a2.328,2.328,0,0,0-1.053-1.348,2.629,2.629,0,0,0-1.356-.121c.876-1.032,1.484-4.332-.955-3.483-1.781.62-1.776,2.636-1.6,3.829-.379.059-.763.119-1.143.174-.733-3.739-3.328-14.7-8.587-14.988-5.332-.3,4.521,11.363,7.8,15.093C1247.714,1785.653,1247.309,1785.691,1246.935,1785.709Z" fill="#449a90"/>
    <g id="Grupo_53903" data-name="Grupo 53903">
      <g id="Grupo_53902" data-name="Grupo 53902">
        <g id="Grupo_53900" data-name="Grupo 53900">
          <path id="Trazado_100628" data-name="Trazado 100628" d="M1489.271,1755.865l-.088,3.873-.612,26.991a.309.309,0,0,1-.309.3h0a.539.539,0,0,1-.538-.518l-.993-25.556-.2-5.093Z" fill="#3d356c"/>
          <path id="Trazado_100629" data-name="Trazado 100629" d="M1489.271,1755.865l-.088,3.873a8.823,8.823,0,0,0-2.452,1.22l-.2-5.093Z" fill="#3d356c"/>
        </g>
        <g id="Grupo_53901" data-name="Grupo 53901">
          <path id="Trazado_100630" data-name="Trazado 100630" d="M1366.215,1755.865l-.088,3.873-.611,26.991a.311.311,0,0,1-.31.3h0a.539.539,0,0,1-.538-.518l-.993-25.556-.2-5.093Z" fill="#3d356c"/>
          <path id="Trazado_100631" data-name="Trazado 100631" d="M1366.215,1755.865l-.088,3.873a8.821,8.821,0,0,0-2.452,1.22l-.2-5.093Z" fill="#3d356c"/>
        </g>
      </g>
      <rect id="Rectángulo_5160" data-name="Rectángulo 5160" width="141.976" height="11.195" rx="0.787" transform="translate(1355.387 1745.969)" fill="#3d356c"/>
    </g>
    <g id="Grupo_53912" data-name="Grupo 53912">
      <path id="Trazado_100632" data-name="Trazado 100632" d="M1431.327,1681.857c-.893-1.355-4.436-.6-7.914,1.694s-5.575,5.246-4.682,6.6,4.435.6,7.914-1.694S1432.219,1683.212,1431.327,1681.857Z" fill="#3d356c"/>
      <g id="Grupo_53904" data-name="Grupo 53904">
        <path id="Trazado_100633" data-name="Trazado 100633" d="M1413.156,1732.2l.686.042c-.006-.016.267-11.993,1.318-16.839a47.705,47.705,0,0,1,7.129-16.156l-1.229-.394a40.015,40.015,0,0,0-2.405,4.341,44.577,44.577,0,0,0-4.2,11.769C1413.567,1719.863,1413.13,1732.141,1413.156,1732.2Z" fill="#3d356c"/>
      </g>
      <path id="Trazado_100634" data-name="Trazado 100634" d="M1425.566,1681.751s-4.488-.958-6.643,2.693-2.274,9.994-3.71,12.069-3.97,10.831-1.277,12.79,19.283-.072,20.214-.965-.055-10.089-1.676-12.753S1434.8,1680.394,1425.566,1681.751Z" fill="#12263f"/>
      <path id="Trazado_100635" data-name="Trazado 100635" d="M1433.2,1726.047c-3.164-10.114.4-16.112.061-21.172-.257-3.789.477-3.885-.182-4.925-.671-1.059-4.36-1.718-4.7-1.749-.263-.138-.326-1.32-.323-2.481,0-1.393.111-2.872.111-2.872l-4.7-.93-.279-.055c.012,3.267-.848,5.414-1.472,5.916a22.583,22.583,0,0,0-4.635.922,2.173,2.173,0,0,0-1.18.783c-1.29,2.546-2.579,8.971-3.484,13.554a47.749,47.749,0,0,1-1.091,4.957c-.56,1.172-2.272,7.622-3.734,10.805l1.613.063s6.416-8.733,6.976-11.119c.178-.755.606-2.244,1.11-3.926,1.11,3.052,1.682,4.337,1.654,5.525-.036,1.539-1.08,2.923-3.262,7.816C1414.48,1729.862,1436.43,1736.376,1433.2,1726.047Z" fill="#f5ab80"/>
      <path id="Trazado_100636" data-name="Trazado 100636" d="M1421.194,1774.11c.309,1.23.65,2.4,1,3.491.075.234.148.464.222.688.038.112.075.223.111.332q.109.324.217.634c.094.27.187.533.28.787q.1.283.2.555c1.03,2.762,1.892,4.513,1.892,4.513l2.052-.142a55.844,55.844,0,0,1-.924-8.914c-.005-.188-.01-.376-.014-.568q-.012-.61-.013-1.245c0-.174,0-.35,0-.527a47.169,47.169,0,0,1,2.388-14.966,97.808,97.808,0,0,0,3.267-11.536c2.457-11.321,1.88-18.758,1.88-18.758l-11.545,1.351-.538.063c-.049,5.3-.185,12.5-.3,18.129-.021.977-.04,1.907-.059,2.771-.08,3.614-.14,6.084-.14,6.084C1418.946,1761.632,1419.753,1768.378,1421.194,1774.11Z" fill="#f5ab80"/>
      <path id="Trazado_100637" data-name="Trazado 100637" d="M1428.169,1692.848s-.107,1.479-.111,2.872c-2.629-.074-4.019-2.473-4.589-3.8Z" fill="#f39a68"/>
      <path id="Trazado_100638" data-name="Trazado 100638" d="M1435.339,1721.651s-.548,7.632-.365,8.542-.06,4.162-1.307,4.76S1429.957,1719.839,1435.339,1721.651Z" fill="#f5ab80"/>
      <path id="Trazado_100639" data-name="Trazado 100639" d="M1429.047,1694.167s-6.222.1-6.226-3.772-.81-6.473,3.162-6.7,4.745,1.248,5.062,2.542S1430.665,1694.041,1429.047,1694.167Z" fill="#f5ab80"/>
      <path id="Trazado_100640" data-name="Trazado 100640" d="M1428.817,1683.6s-1.7,4.547-4.318,5.219-3.749-.028-3.749-.028a7.4,7.4,0,0,0,2.422-4.374S1427.532,1681.434,1428.817,1683.6Z" fill="#12263f"/>
      <path id="Trazado_100641" data-name="Trazado 100641" d="M1428.394,1683.967a5.5,5.5,0,0,1,1.583,2c.31.987.449,3.018,1.041,2.949,0,0,1.284-3.09-.158-4.838C1429.33,1682.226,1428.394,1683.967,1428.394,1683.967Z" fill="#12263f"/>
      <path id="Trazado_100642" data-name="Trazado 100642" d="M1433.169,1700.072s4.724,20.13,3.264,21.838-5.2,1.982-5.746,1.617S1433.169,1700.072,1433.169,1700.072Z" fill="#9cefe5"/>
      <path id="Trazado_100643" data-name="Trazado 100643" d="M1428.631,1684.121s-1.214,4.761-4.513,6.286c0,0,3.3-2.926,3.579-6.068S1428.631,1684.121,1428.631,1684.121Z" fill="#12263f"/>
      <path id="Trazado_100644" data-name="Trazado 100644" d="M1414.571,1773.116a28.412,28.412,0,0,0,3.587,11.665l1,.908s.909-5.187,1.565-11.125c.626-5.644,1.483-11.616,2.453-13.439,1.45-2.724,2.518-8.3,3.287-14.18,1.272-9.739,1.722-20.342,1.722-20.342l-11.7-.58c-1.177,1.979-1.69,5.225-1.811,8.916a89.779,89.779,0,0,0,.6,12.16c.591,5.471,1.416,10.031,1.607,11.055v.006a.607.607,0,0,1-.077.391C1414.47,1763.161,1414.134,1768.435,1414.571,1773.116Z" fill="#f5ab80"/>
      <path id="Trazado_100645" data-name="Trazado 100645" d="M1432.163,1771.639c-10.081,3.788-25.249-.6-25.249-.6s.558-3.134,1.379-7.687c2.061-11.427,5.772-31.792,6.425-33.952.912-3.017,4.228-10.059,4.228-10.059a19.542,19.542,0,0,0,4.7.9,28.879,28.879,0,0,0,8.229-.618s.618,2.07,1.939,6.4S1432.163,1771.639,1432.163,1771.639Z" fill="#bcfff7"/>
      <path id="Trazado_100646" data-name="Trazado 100646" d="M1433.759,1707.836c-.5,4.977-1.886,11.729-1.886,11.729a11.29,11.29,0,0,1-2.315.91c-5.35,1.453-10.61-1.193-10.61-1.193s-.008-.154-.021-.34c-.011-.154-.027-.327-.044-.454-.04-.282-1.31-3.3-1.31-3.3s-.048.236-.132.636c-.464,2.209-2.057,9.468-3.034,10.122-.566.377-2.377.383-4.076-.08-1.77-.481-3.416-1.471-3.416-3.081,0-2.061,3.747-11.381,6.447-17.766l0-.01c1.437-3.4,2.272-5.773,3.372-6.037,0,0,7.4,3.01,11.494,2.548a25.773,25.773,0,0,0,4.782-1.643c.023.024.046.049.066.074a.618.618,0,0,1,.047.059c.016.022.03.044.043.066a5.852,5.852,0,0,1,.536,2.912A25.621,25.621,0,0,1,1433.759,1707.836Z" fill="#bcfff7"/>
      <path id="Trazado_100647" data-name="Trazado 100647" d="M1417.572,1715.234s1.271,3.03,1.31,3.313c.018.127.034.3.045.455a6.255,6.255,0,0,0,2.113,1.111c2.148.651,3.082-3.467,2.953-5.521s-3.167-7.92-4.178-8.042S1417.572,1715.234,1417.572,1715.234Z" fill="#9cefe5"/>
      <path id="Trazado_100648" data-name="Trazado 100648" d="M1417.441,1715.87c.084-.4.131-.636.131-.636A3.345,3.345,0,0,0,1417.441,1715.87Z" fill="#f08435"/>
      <g id="Grupo_53905" data-name="Grupo 53905">
        <path id="Trazado_100649" data-name="Trazado 100649" d="M1426.311,1720.94c3.922,0,5.478-1.1,5.6-1.193l.253-1.846c-.037.027-5.3,3.187-13.443.161l.172,1.4A20.411,20.411,0,0,0,1426.311,1720.94Z" fill="#5b5195"/>
      </g>
      <path id="Trazado_100650" data-name="Trazado 100650" d="M1406.914,1722.852c0,1.616,1.648,2.608,3.416,3.091-2.437-2.9,2.9-20.462,3.032-20.911C1410.663,1711.438,1406.914,1720.786,1406.914,1722.852Z" fill="#449a90"/>
      <g id="Grupo_53906" data-name="Grupo 53906">
        <path id="Trazado_100651" data-name="Trazado 100651" d="M1423.934,1786.83h1.31c.439-.069.763-.2,1.213-.255a1.216,1.216,0,0,1,1.06.255l.013.013h5.564c.14-.2.005-.662-.126-1a.791.791,0,0,0-.521-.476,6,6,0,0,1-2.819-1.288c-.6-.541-2.894-1.991-2.894-1.991l-.012,0c-.05,0-.29.075-1.334.956-.54.455-1.459-.642-1.459-.642a1.311,1.311,0,0,0-.3.409,1.384,1.384,0,0,0-.119.854,5.54,5.54,0,0,1-.4,2.063c-.13.382-.239.653-.239.653S1422.807,1786.689,1423.934,1786.83Z" fill="#3d356c"/>
        <path id="Trazado_100652" data-name="Trazado 100652" d="M1423.627,1782.805a4.16,4.16,0,0,0,1.411.711c.591.078,1.7-1.431,1.7-1.431l-.012,0c-.05,0-.29.075-1.334.956-.54.455-1.459-.642-1.459-.642A1.311,1.311,0,0,0,1423.627,1782.805Z" fill="#3d356c"/>
        <path id="Trazado_100653" data-name="Trazado 100653" d="M1423.934,1786.83h1.31c.439-.069.763-.2,1.213-.255a1.216,1.216,0,0,1,1.06.255l.013.013h5.564c.14-.2.005-.662-.126-1-.169-.151-.217.653-.31.78a24.779,24.779,0,0,1-4.8-.14,2.693,2.693,0,0,0-2.1-.257,5.054,5.054,0,0,1-2.652-.5c-.13.382-.239.653-.239.653S1422.807,1786.689,1423.934,1786.83Z" fill="#3d356c"/>
      </g>
      <g id="Grupo_53907" data-name="Grupo 53907">
        <path id="Trazado_100654" data-name="Trazado 100654" d="M1416.945,1786.83h1.309c.439-.069.763-.2,1.213-.255a1.22,1.22,0,0,1,1.061.255l.012.013h5.564c.14-.2.006-.662-.126-1a.791.791,0,0,0-.521-.476,6,6,0,0,1-2.819-1.288c-.6-.541-2.894-1.991-2.894-1.991l-.012,0c-.05,0-.29.075-1.334.956-.54.455-1.459-.642-1.459-.642a1.311,1.311,0,0,0-.3.409,1.385,1.385,0,0,0-.119.854,5.537,5.537,0,0,1-.4,2.063c-.13.382-.239.653-.239.653S1415.818,1786.689,1416.945,1786.83Z" fill="#3d356c"/>
        <path id="Trazado_100655" data-name="Trazado 100655" d="M1416.637,1782.805a4.16,4.16,0,0,0,1.411.711c.591.078,1.7-1.431,1.7-1.431l-.012,0c-.05,0-.29.075-1.334.956-.54.455-1.459-.642-1.459-.642A1.311,1.311,0,0,0,1416.637,1782.805Z" fill="#3d356c"/>
        <path id="Trazado_100656" data-name="Trazado 100656" d="M1416.945,1786.83h1.309c.439-.069.763-.2,1.213-.255a1.22,1.22,0,0,1,1.061.255l.012.013h5.564c.14-.2.006-.662-.126-1-.169-.151-.217.653-.31.78a24.783,24.783,0,0,1-4.8-.14,2.69,2.69,0,0,0-2.1-.257,5.056,5.056,0,0,1-2.653-.5c-.13.382-.239.653-.239.653S1415.818,1786.689,1416.945,1786.83Z" fill="#3d356c"/>
      </g>
      <path id="Trazado_100657" data-name="Trazado 100657" d="M1408.293,1763.353c2.061-11.427,5.772-31.792,6.425-33.952.912-3.017,4.228-10.059,4.228-10.059,1.555.518,3.118,1.051,4.554,1.379C1423.677,1723.186,1425.118,1747.34,1408.293,1763.353Z" fill="#9cefe5"/>
      <g id="Grupo_53908" data-name="Grupo 53908">
        <path id="Trazado_100658" data-name="Trazado 100658" d="M1424.005,1732.261l-.686-.052c.008-.015,1.342-12.022.95-17.006a48.38,48.38,0,0,0-4.9-17.111l1.271-.228a40.587,40.587,0,0,1,1.8,4.664,45.317,45.317,0,0,1,2.585,12.329C1425.251,1719.87,1424.039,1732.2,1424.005,1732.261Z" fill="#3d356c"/>
      </g>
      <g id="Grupo_53911" data-name="Grupo 53911">
        <path id="Trazado_100659" data-name="Trazado 100659" d="M1415.692,1729.624s.666-1.64,1.726-2.049l5.411,1.019s-1.336,1.271-1.462,2.1Z" fill="#fff"/>
        <path id="Trazado_100869" data-name="Trazado 100869" d="M.8,0H7.039a.8.8,0,0,1,.8.8v9.411a.8.8,0,0,1-.8.8H.8a.8.8,0,0,1-.8-.8V.8A.8.8,0,0,1,.8,0Z" transform="translate(1412.451 1736.991) rotate(-79.327)" fill="#5b5195"/>
        <g id="Grupo_53909" data-name="Grupo 53909">
          <rect id="Rectángulo_5162" data-name="Rectángulo 5162" width="4.422" height="5.669" transform="matrix(1, 0.009, -0.009, 1, 1414.734, 1726.22)" fill="#ffe489"/>
          <rect id="Rectángulo_5163" data-name="Rectángulo 5163" width="4.422" height="5.669" transform="translate(1414.481 1726.218) rotate(0.502)" fill="#ffe489"/>
        </g>
        <g id="Grupo_53910" data-name="Grupo 53910">
          <rect id="Rectángulo_5164" data-name="Rectángulo 5164" width="4.422" height="5.669" transform="matrix(0.794, 0.608, -0.608, 0.794, 1418.082, 1726.956)" fill="#b59216"/>
          <rect id="Rectángulo_5165" data-name="Rectángulo 5165" width="4.422" height="5.669" transform="translate(1417.689 1726.656) rotate(37.43)" fill="#e0b318"/>
        </g>
        <rect id="Rectángulo_5166" data-name="Rectángulo 5166" width="7.84" height="11.012" rx="1.001" transform="translate(1410.388 1736.603) rotate(-79.327)" fill="#766abd"/>
      </g>
      <path id="Trazado_100660" data-name="Trazado 100660" d="M1418.133,1686.788s-2.831-5.634,1.124-7.861,6.851-1.353,9.027,1.371Z" fill="#3d356c"/>
      <path id="Trazado_100661" data-name="Trazado 100661" d="M1434.068,1679.679c-.814-1.3-3.663-1.094-7.1.313a28.3,28.3,0,0,0-4.212,2.179,27.144,27.144,0,0,0-4.564,3.527c-2.277,2.226-3.387,4.357-2.65,5.539a1.68,1.68,0,0,0,1.071.729c.5-1.085,1.951-2.1,2.36-2.948a12.923,12.923,0,0,1,4.724-5.034,13.2,13.2,0,0,1,5.515-2.131c.82-.052,1.424.119,1.69.545a1.42,1.42,0,0,1-.029,1.3,6.361,6.361,0,0,1,.617,1.445C1433.718,1682.947,1434.8,1680.848,1434.068,1679.679Z" fill="#5b5195"/>
      <path id="Trazado_100662" data-name="Trazado 100662" d="M1407.594,1728.8s-1.534,1.569-1.777,1.751a2.994,2.994,0,0,0-.3,1.975c.441.344.762-.45,1.459-.845s1.095-.949,1.095-.766-.884.882-.775,1.034,1.307-.684,1.581-.867.334-2.219.334-2.219Z" fill="#f5ab80"/>
      <path id="Trazado_100663" data-name="Trazado 100663" d="M1428.486,1689.943c-1.543.11-4.347,1.234-3.915,3.217a10.274,10.274,0,0,0,4.5,1.007c.889-.069,1.5-2.065,1.816-4.065A8.748,8.748,0,0,0,1428.486,1689.943Z" fill="#fff"/>
    </g>
    <g id="Grupo_53921" data-name="Grupo 53921">
      <path id="Trazado_100664" data-name="Trazado 100664" d="M1393.424,1690.549l.371-.026.45-1.452c1.735-4.3.183-5.867-.892-6.593a6.724,6.724,0,0,0-2.789-1.055,5.529,5.529,0,0,0-2.08.061h-.007c-6.475-1.334-7.093,10.6-6.13,11.329s3.3.644,3.3.644a1.944,1.944,0,0,1-.268-.408c.706.578,2.793.373,2.793.373a3.385,3.385,0,0,1-1.054-2.429l1.69-.119a6.617,6.617,0,0,0,1.7,2.634c1.117.844,3.353.632,3.353.632a1.446,1.446,0,0,1-.184-.465c.08.225.487.38.487.38a2.947,2.947,0,0,0,.854-.284S1393.7,1693.767,1393.424,1690.549Z" fill="#12263f"/>
      <path id="Trazado_100665" data-name="Trazado 100665" d="M1396.149,1721.313c5.079-1.293,10.661-9.172,10.661-9.172l-1.43-1.24c-1.48,1.745-7.636,4.752-7.636,4.752.033-1.6-.009-3.055-.11-4.381-.683-9.013-4.081-12.015-5.008-12.674a2.348,2.348,0,0,0-.235-.152s0,.065-.009.19c-.014.267-.038.807-.064,1.547C1392.13,1705.7,1391.905,1722.394,1396.149,1721.313Z" fill="#f5ab80"/>
      <path id="Trazado_100666" data-name="Trazado 100666" d="M1405.38,1710.9c.022-.213.165-3.309.78-3.9a5.1,5.1,0,0,1,2.179-1.327,3.48,3.48,0,0,1,.974,3.394,11.55,11.55,0,0,1-2.5,3.072Z" fill="#f5ab80"/>
      <g id="Grupo_53913" data-name="Grupo 53913">
        <rect id="Rectángulo_5167" data-name="Rectángulo 5167" width="6.786" height="3.75" rx="0.201" transform="translate(1403.917 1711.253) rotate(-87.608)" fill="#9cefe5"/>
        <rect id="Rectángulo_5168" data-name="Rectángulo 5168" width="3.75" height="6.786" rx="0.264" transform="matrix(-0.999, -0.042, 0.042, -0.999, 1408.378, 1711.439)" fill="#1c5c54"/>
      </g>
      <path id="Trazado_100667" data-name="Trazado 100667" d="M1408.592,1705.911s-.911-1.018-1.823-.24.06,2.439.851,2.894a6.473,6.473,0,0,1,1.045.69Z" fill="#f5ab80"/>
      <path id="Trazado_100668" data-name="Trazado 100668" d="M1385.09,1773.713c.309,1.23.65,2.4,1,3.491.075.234.148.464.223.688l.11.332q.109.324.217.634c.094.27.187.533.28.787q.1.283.2.555c1.03,2.762,1.893,4.512,1.893,4.512l2.052-.141a55.765,55.765,0,0,1-.925-8.914c-.005-.188-.01-.377-.014-.568q-.012-.61-.013-1.245c0-.174,0-.35,0-.527a47.141,47.141,0,0,1,2.387-14.966,97.8,97.8,0,0,0,3.267-11.536c2.458-11.321,1.88-18.758,1.88-18.758l-11.545,1.351-.538.063c-.048,5.3-.185,12.5-.3,18.129-.021.977-.04,1.907-.059,2.771-.08,3.614-.14,6.084-.14,6.084C1382.843,1761.235,1383.649,1767.982,1385.09,1773.713Z" fill="#e27e3e"/>
      <path id="Trazado_100669" data-name="Trazado 100669" d="M1379.581,1726.762c2.182-4.893,3.226-6.277,3.262-7.817.029-1.217-.571-2.531-1.737-5.751a12.062,12.062,0,0,1-.581-2.329c-.922-6.209,2.669-12.921,4.9-13.379.621-.164,1.674-2.407,1.661-6.02l.28.055,4.7.93s-.107,1.479-.11,2.872c0,1.161.059,2.343.322,2.481.339.031.646.092.646.092s3.977,2.793,4.234,6.582c.343,5.06-3.224,11.058-.061,21.172C1400.327,1735.979,1378.376,1729.465,1379.581,1726.762Z" fill="#f5ab80"/>
      <path id="Trazado_100670" data-name="Trazado 100670" d="M1392.065,1692.451s-.107,1.479-.11,2.872c-2.63-.074-4.02-2.473-4.589-3.8Z" fill="#f39a68"/>
      <path id="Trazado_100671" data-name="Trazado 100671" d="M1392.943,1693.77s-6.222.1-6.226-3.772-.81-6.473,3.162-6.7,4.746,1.248,5.062,2.542S1394.561,1693.644,1392.943,1693.77Z" fill="#f5ab80"/>
      <path id="Trazado_100672" data-name="Trazado 100672" d="M1392.713,1683.2s-1.7,4.547-4.318,5.219-3.748-.028-3.748-.028a7.4,7.4,0,0,0,2.421-4.374S1391.428,1681.037,1392.713,1683.2Z" fill="#12263f"/>
      <path id="Trazado_100673" data-name="Trazado 100673" d="M1392.29,1683.57a5.491,5.491,0,0,1,1.583,2c.31.987.449,3.018,1.042,2.949,0,0,1.283-3.09-.159-4.838C1393.226,1681.829,1392.29,1683.57,1392.29,1683.57Z" fill="#12263f"/>
      <path id="Trazado_100674" data-name="Trazado 100674" d="M1371.49,1731.959l1.868.56s6.161-10.223,6.721-12.883c.183-.866.631-2.6,1.154-4.541,1.082-4.021,2.478-8.941,2.478-8.941l.46-1.992,1.568-6.792a21.3,21.3,0,0,0-4.759,1.041,2.19,2.19,0,0,0-1.181.872c-1.29,2.838-2.579,10-3.484,15.107-.5,2.848-.89,5.058-1.091,5.526C1374.664,1721.222,1372.953,1728.411,1371.49,1731.959Z" fill="#f5ab80"/>
      <path id="Trazado_100675" data-name="Trazado 100675" d="M1392.527,1683.724s-1.214,4.761-4.512,6.286c0,0,3.3-2.926,3.578-6.069S1392.527,1683.724,1392.527,1683.724Z" fill="#12263f"/>
      <path id="Trazado_100676" data-name="Trazado 100676" d="M1378.468,1772.719a28.42,28.42,0,0,0,3.586,11.665l1,.908s.909-5.187,1.565-11.125c.626-5.644,1.484-11.616,2.453-13.439,1.45-2.724,2.518-8.3,3.287-14.18,1.272-9.739,1.722-20.342,1.722-20.342l-11.7-.58c-1.178,1.979-1.69,5.225-1.812,8.916a89.779,89.779,0,0,0,.6,12.16c.592,5.471,1.416,10.031,1.607,11.055l0,.006a.614.614,0,0,1-.077.391C1378.366,1762.764,1378.03,1768.038,1378.468,1772.719Z" fill="#ef9358"/>
      <path id="Trazado_100677" data-name="Trazado 100677" d="M1392.127,1710.5c.263,6.43,1.225,12.8,4.024,12.387,3.432-.5,4.325-3.7,4.508-6.084a13.692,13.692,0,0,0-.05-2.646,6.068,6.068,0,0,1-1.963-.259c-1.3-1.2-.911-12.948-1.553-14.168s-4.808-2-4.808-2S1391.865,1704.141,1392.127,1710.5Z" fill="#faf"/>
      <path id="Trazado_100678" data-name="Trazado 100678" d="M1392.127,1710.5c.263,6.43,1.225,12.8,4.024,12.387,3.432-.5,4.325-3.7,4.508-6.084-.843-.043-2.326-.248-2.915-1.147-.844-1.287-3.476-9.569-3.476-9.569S1393.233,1707.942,1392.127,1710.5Z" fill="#fa5dfa"/>
      <path id="Trazado_100679" data-name="Trazado 100679" d="M1385.09,1773.713c.309,1.23.65,2.4,1,3.491.075.234.148.464.223.688l.11.332q.109.324.217.634c.094.27.187.533.28.787q.1.283.2.555c1.03,2.762,1.893,4.512,1.893,4.512l2.052-.141a55.765,55.765,0,0,1-.925-8.914c-.005-.188-.01-.377-.014-.568q-.012-.61-.013-1.245c0-.174,0-.35,0-.527a47.141,47.141,0,0,1,2.387-14.966,97.8,97.8,0,0,0,3.267-11.536c-1.22.252-2.294,0-5.412-.267-.327-.027-1.894,1.912-3.441,4.479a8.309,8.309,0,0,1-1.853,5.428C1382.843,1761.235,1383.649,1767.982,1385.09,1773.713Z" fill="#a195e6"/>
      <path id="Trazado_100680" data-name="Trazado 100680" d="M1378.468,1772.719a28.42,28.42,0,0,0,3.586,11.665l1,.908s.909-5.187,1.565-11.125c.626-5.644,1.484-11.616,2.453-13.439,1.45-2.724,2.518-8.3,3.287-14.18-1.077.448-4.743,1.613-11.193.154.592,5.471,1.416,10.031,1.607,11.055l0,.006a.614.614,0,0,1-.077.391C1378.366,1762.764,1378.03,1768.038,1378.468,1772.719Z" fill="#c7beff"/>
      <path id="Trazado_100681" data-name="Trazado 100681" d="M1376.226,1738.25a42.21,42.21,0,0,0,6.056,1.256c4.467.617,10.711.84,16.288-1.256,0,0,.459-8.3-.862-12.624s-1.939-6.4-1.939-6.4a27.973,27.973,0,0,1-10.671.3,17.48,17.48,0,0,1-2.255-.583s-3.316,7.042-4.228,10.059S1376.226,1738.25,1376.226,1738.25Z" fill="#67cbc0"/>
      <path id="Trazado_100682" data-name="Trazado 100682" d="M1376.226,1738.25a42.21,42.21,0,0,0,6.056,1.256c6.615-3.751,3.39-19.536,3.39-19.536-.2-.159-.388-.307-.574-.442a17.48,17.48,0,0,1-2.255-.583s-3.316,7.042-4.228,10.059S1376.226,1738.25,1376.226,1738.25Z" fill="#449a90"/>
      <path id="Trazado_100683" data-name="Trazado 100683" d="M1370.811,1722.455c0,1.616,1.647,2.608,3.415,3.091,1.7.465,3.511.459,4.077.08.978-.655,2.57-7.936,3.035-10.153.083-.4.131-.636.131-.636s1.27,3.03,1.31,3.313c.018.127.033.3.044.456.013.186.021.34.021.34s6.892,3.478,12.925.284c0,0,2.453-14.175,1.388-16.615-.529-1.212-3.289-3.713-4.393-4.792a1.31,1.31,0,0,1-.127-1.162.508.508,0,0,0-.622-.6,6.532,6.532,0,0,1-3.356-.3,8.092,8.092,0,0,1-2.053-1,.313.313,0,0,0-.486.222c-.1.845-.36,2.389-.826,2.389-.642,0-5.023.534-5.344,1.076-.112.189-1.251,2.766-2.689,6.181l0,.009C1374.559,1711.041,1370.811,1720.389,1370.811,1722.455Z" fill="#faf"/>
      <path id="Trazado_100684" data-name="Trazado 100684" d="M1381.469,1714.837s1.27,3.03,1.31,3.313c.018.127.033.3.044.456a6.252,6.252,0,0,0,2.113,1.11c2.148.651,3.082-3.467,2.953-5.522s-3.166-7.919-4.178-8.041S1381.469,1714.837,1381.469,1714.837Z" fill="#fa5dfa"/>
      <path id="Trazado_100685" data-name="Trazado 100685" d="M1381.338,1715.473c.083-.4.131-.636.131-.636A3.2,3.2,0,0,0,1381.338,1715.473Z" fill="#f08435"/>
      <g id="Grupo_53914" data-name="Grupo 53914">
        <path id="Trazado_100686" data-name="Trazado 100686" d="M1390.147,1720.792c3.922,0,5.538-1.35,5.658-1.441l.254-1.847c-.038.027-5.3,3.187-13.444.161l.173,1.4A21.368,21.368,0,0,0,1390.147,1720.792Z" fill="#766abd"/>
      </g>
      <path id="Trazado_100687" data-name="Trazado 100687" d="M1370.811,1722.455c0,1.616,1.647,2.608,3.415,3.091-2.437-2.9,2.9-20.462,3.032-20.91C1374.559,1711.041,1370.811,1720.389,1370.811,1722.455Z" fill="#fa5dfa"/>
      <path id="Trazado_100688" data-name="Trazado 100688" d="M1385.294,1697.37s3.281,2.078,5.763,1.586c0,0,.6-.376-.226-.755-.771-.355-2.567-1.4-2.172-2.439a8.092,8.092,0,0,1-2.053-1,.313.313,0,0,0-.486.222C1386.016,1695.826,1385.76,1697.37,1385.294,1697.37Z" fill="#fa5dfa"/>
      <g id="Grupo_53915" data-name="Grupo 53915">
        <path id="Trazado_100689" data-name="Trazado 100689" d="M1387.831,1786.433h1.309c.439-.069.763-.2,1.213-.255a1.22,1.22,0,0,1,1.061.255l.012.014h5.564c.14-.2.005-.663-.126-1a.791.791,0,0,0-.521-.476,6,6,0,0,1-2.819-1.288c-.6-.541-2.894-1.991-2.894-1.991l-.012,0c-.05,0-.29.075-1.334.956-.54.455-1.459-.642-1.459-.642a1.311,1.311,0,0,0-.3.409,1.385,1.385,0,0,0-.119.854,5.537,5.537,0,0,1-.4,2.063c-.13.382-.239.653-.239.653S1386.7,1786.292,1387.831,1786.433Z" fill="#3d356c"/>
        <path id="Trazado_100690" data-name="Trazado 100690" d="M1387.523,1782.408a4.16,4.16,0,0,0,1.411.711c.591.078,1.7-1.431,1.7-1.431l-.012,0c-.05,0-.29.075-1.334.956-.54.455-1.459-.642-1.459-.642A1.311,1.311,0,0,0,1387.523,1782.408Z" fill="#3d356c"/>
        <path id="Trazado_100691" data-name="Trazado 100691" d="M1387.831,1786.433h1.309c.439-.069.763-.2,1.213-.255a1.22,1.22,0,0,1,1.061.255l.012.014h5.564c.14-.2.005-.663-.126-1-.169-.151-.217.652-.31.78a24.791,24.791,0,0,1-4.8-.14,2.686,2.686,0,0,0-2.1-.257,5.054,5.054,0,0,1-2.653-.5c-.13.382-.239.653-.239.653S1386.7,1786.292,1387.831,1786.433Z" fill="#3d356c"/>
      </g>
      <g id="Grupo_53916" data-name="Grupo 53916">
        <path id="Trazado_100692" data-name="Trazado 100692" d="M1380.841,1786.433h1.31c.438-.069.762-.2,1.212-.255a1.219,1.219,0,0,1,1.061.255l.012.014H1390c.14-.2.006-.663-.126-1a.791.791,0,0,0-.521-.476,6,6,0,0,1-2.818-1.288c-.6-.541-2.894-1.991-2.894-1.991l-.013,0c-.05,0-.29.075-1.334.956-.539.455-1.459-.642-1.459-.642a1.3,1.3,0,0,0-.3.409,1.377,1.377,0,0,0-.12.854,5.537,5.537,0,0,1-.4,2.063c-.129.382-.239.653-.239.653S1379.714,1786.292,1380.841,1786.433Z" fill="#3d356c"/>
        <path id="Trazado_100693" data-name="Trazado 100693" d="M1380.534,1782.408a4.143,4.143,0,0,0,1.41.711c.591.078,1.7-1.431,1.7-1.431l-.013,0c-.05,0-.29.075-1.334.956-.539.455-1.459-.642-1.459-.642A1.3,1.3,0,0,0,1380.534,1782.408Z" fill="#3d356c"/>
        <path id="Trazado_100694" data-name="Trazado 100694" d="M1380.841,1786.433h1.31c.438-.069.762-.2,1.212-.255a1.219,1.219,0,0,1,1.061.255l.012.014H1390c.14-.2.006-.663-.126-1-.169-.151-.217.652-.31.78a24.793,24.793,0,0,1-4.8-.14,2.684,2.684,0,0,0-2.1-.257,5.054,5.054,0,0,1-2.653-.5c-.129.382-.239.653-.239.653S1379.714,1786.292,1380.841,1786.433Z" fill="#3d356c"/>
      </g>
      <g id="Grupo_53920" data-name="Grupo 53920">
        <path id="Trazado_100695" data-name="Trazado 100695" d="M1366.862,1739.918a1.9,1.9,0,0,1,1.208-1.41,7.384,7.384,0,0,1,4.69-.115c3.426,1.008,3.761,3.114,3.535,4.629s.445,3.929.346,5.646-.591,6.034-3.128,5.807-10.715-2.425-10.715-2.425-1.412-2.688,1.49-6.583A14.017,14.017,0,0,0,1366.862,1739.918Z" fill="#b59216"/>
        <g id="Grupo_53919" data-name="Grupo 53919">
          <g id="Grupo_53917" data-name="Grupo 53917">
            <path id="Trazado_100696" data-name="Trazado 100696" d="M1368.432,1737.933l.679.061a1.527,1.527,0,0,1,.389-.764,1.106,1.106,0,0,1,.984-.241,1.025,1.025,0,0,1,.814.531,1.626,1.626,0,0,1,.088.935l.662.153a2.7,2.7,0,0,0-.147-1.6,1.624,1.624,0,0,0-1.254-.889,1.7,1.7,0,0,0-1.528.442A2.618,2.618,0,0,0,1368.432,1737.933Z" fill="#004f4e"/>
          </g>
          <g id="Grupo_53918" data-name="Grupo 53918">
            <path id="Trazado_100697" data-name="Trazado 100697" d="M1361.117,1751.667s8.179,2.2,10.718,2.425,3.031-4.085,3.124-5.808-.569-4.129-.346-5.647a4.171,4.171,0,0,0,.051-.926c-.065-1.351-.822-2.886-3.581-3.7a7.366,7.366,0,0,0-4.694.116,1.9,1.9,0,0,0-1.209,1.406c-.03.133-.057.294-.093.452a14.183,14.183,0,0,1-2.481,5.1C1359.7,1748.98,1361.117,1751.667,1361.117,1751.667Z" fill="#e0b318"/>
            <path id="Trazado_100698" data-name="Trazado 100698" d="M1373.724,1748.646a3.043,3.043,0,0,1-2.674.71,3.789,3.789,0,0,1-2.255-1.825Z" fill="#004f4e"/>
            <path id="Trazado_100699" data-name="Trazado 100699" d="M1367.794,1747.3a3.04,3.04,0,0,1-2.674.71,3.793,3.793,0,0,1-2.255-1.825Z" fill="#004f4e"/>
            <path id="Trazado_100700" data-name="Trazado 100700" d="M1365.18,1739.537c-.03.133-.057.294-.093.452a5.878,5.878,0,0,0,3.977,3.462,6.007,6.007,0,0,0,5.6-1.74c-.065-1.351-.822-2.886-3.581-3.7a7.366,7.366,0,0,0-4.694.116A1.9,1.9,0,0,0,1365.18,1739.537Z" fill="#ffce26"/>
            <path id="Trazado_100701" data-name="Trazado 100701" d="M1369.014,1744.2h0a.415.415,0,0,0,.5-.313l.084-.368a.416.416,0,0,0-.313-.5h0a.417.417,0,0,0-.5.313l-.083.368A.416.416,0,0,0,1369.014,1744.2Z" fill="#f49d3d"/>
          </g>
        </g>
      </g>
      <path id="Trazado_100702" data-name="Trazado 100702" d="M1371.622,1731.648a4.867,4.867,0,0,1-1.159,1.711,3.312,3.312,0,0,0-1.276,1.992,1.761,1.761,0,0,0,1.538,2.147c.746,0,1.46-1.018,1.9-3.45.025-.134.733-1.529.733-1.529Z" fill="#f5ab80"/>
      <path id="Trazado_100703" data-name="Trazado 100703" d="M1392.36,1689.546c-1.543.111-4.347,1.234-3.915,3.217a10.276,10.276,0,0,0,4.5,1.007c.889-.069,1.5-2.065,1.816-4.065A8.753,8.753,0,0,0,1392.36,1689.546Z" fill="#fff"/>
    </g>
    <g id="Grupo_53923" data-name="Grupo 53923">
      <g id="Grupo_53922" data-name="Grupo 53922">
        <path id="Trazado_100704" data-name="Trazado 100704" d="M1482.493,1787.032l.464-49.732s.4-3.581,3.526-3.581c3.334,0,3.525,3.581,3.525,3.581a.379.379,0,0,1-.39.31.4.4,0,0,1-.417-.31s-.148-2.761-2.718-2.761c-2.409,0-2.719,2.761-2.719,2.761v49.732Z" fill="#e0b318"/>
        <path id="Trazado_100705" data-name="Trazado 100705" d="M1484.193,1787.032h-2.074l.185-2.169s-.018-.3.4-.318c.39-.016,1.159-.071,1.232.164C1484,1784.916,1484.193,1787.032,1484.193,1787.032Z" fill="#e0b318"/>
      </g>
      <path id="Trazado_100706" data-name="Trazado 100706" d="M1486.508,1731.083l.142.711a4.558,4.558,0,0,1,4.338,3.755s.223,1.568-.907,1.233-.955-1.134-2.556-1.573-2.643-.774-2.886-1.939l-.262-1.3Z" fill="#f5ab80"/>
      <path id="Trazado_100707" data-name="Trazado 100707" d="M1474.075,1700.249s.93,3.659,1.733,7.005c.323,1.347.624,2.644.837,3.629a8.364,8.364,0,0,1,.294,1.775c-.7,1.132.577,8.036,1.584,10.542.089.223.212.483.359.772,1.409,2.764,5.162,8.187,5.162,8.187a4.706,4.706,0,0,0,1.751-.151,2.312,2.312,0,0,0,.972-.925c-.336-.54-1.694-6.92-3.44-10.5-.748-1.53-1.849-15.728-3.3-17.64C1478.823,1701.35,1474.075,1700.249,1474.075,1700.249Z" fill="#ffce26"/>
      <path id="Trazado_100708" data-name="Trazado 100708" d="M1476.939,1712.658c-.7,1.132.577,8.036,1.584,10.542.089.223.212.483.359.772,1.347-5.958-.885-14.4-.885-14.4a2.762,2.762,0,0,0-1.352,1.309A8.364,8.364,0,0,1,1476.939,1712.658Z" fill="#e0b318"/>
      <path id="Trazado_100709" data-name="Trazado 100709" d="M1467.18,1781.554s-.359,5.392.66,5.468c.135.01,5.165.01,5.165.01h6.487a2.217,2.217,0,0,0-1.986-1.911c-1.877-.327-5.018-1.646-6.155-4.126C1470.155,1778.385,1467.18,1781.554,1467.18,1781.554Z" fill="#b59216"/>
      <path id="Trazado_100710" data-name="Trazado 100710" d="M1457.422,1781.554s-.358,5.392.66,5.468c.136.01,5.165.01,5.165.01h6.488a2.219,2.219,0,0,0-1.986-1.911c-1.877-.327-5.018-1.646-6.155-4.126C1460.4,1778.385,1457.422,1781.554,1457.422,1781.554Z" fill="#b59216"/>
      <path id="Trazado_100711" data-name="Trazado 100711" d="M1466.872,1768.556a70.657,70.657,0,0,0-.369,7.856c.163,3.7.28,6.812.28,6.812,2.436.829,6.907-.177,6.907-.177s1.586-9.339,2.892-16.8c.586-3.34,1.072-6.23,1.254-7.595.588-4.411-.626-27.863-.626-27.863s-6.593-4.226-9.317-2.047-4.4,4.307-.011,28.171C1468.215,1758.728,1467.23,1763.449,1466.872,1768.556Z" fill="#1c5c54"/>
      <path id="Trazado_100712" data-name="Trazado 100712" d="M1466.872,1768.556a85.143,85.143,0,0,0-.338,8.573c2.293-2.426,6.81-7.544,10.048-10.877.586-3.34,1.072-6.23,1.254-7.595.588-4.411-.626-27.863-.626-27.863s-6.593-4.226-9.317-2.047-4.4,4.307-.011,28.171C1468.215,1758.728,1467.23,1763.449,1466.872,1768.556Z" fill="#1c5c54"/>
      <path id="Trazado_100713" data-name="Trazado 100713" d="M1471.252,1731.271s-.592,23.476-1.517,27.829-5.754,24.279-5.754,24.279-4.526.412-6.892-.6c0,0,.151-9.229.953-14.65.75-5.066,2.095-9.7,1.9-11.527-2.543-24.13-.707-26.124,2.176-28.087S1471.252,1731.271,1471.252,1731.271Z" fill="#449a90"/>
      <path id="Trazado_100714" data-name="Trazado 100714" d="M1462.3,1733.326a4.556,4.556,0,0,1-1.446,5.552s-1.307.894-1.508-.268.031-.757-.284-2.386a4.285,4.285,0,0,1,1.025-4.048Z" fill="#f5ab80"/>
      <path id="Trazado_100715" data-name="Trazado 100715" d="M1475.524,1694.929s-1.81,2.752-1.449,5.319l-2.679,6.454-4.833-7.388a16.963,16.963,0,0,0,3.506-6.567Z" fill="#f5ab80"/>
      <path id="Trazado_100716" data-name="Trazado 100716" d="M1476.318,1697.277s-6.592.285-6.712-3.672-1.9-6.59,3.029-6.938c4.055-.285,5.4,1.405,5.764,2.716S1478.761,1697.065,1476.318,1697.277Z" fill="#f5ab80"/>
      <path id="Trazado_100717" data-name="Trazado 100717" d="M1460.18,1732.4c1.417.132,3.366.3,5.732.444.473.029.961.059,1.466.087,7.143.4,9.982-.757,9.982-.757s.189-.153.129-.992c-.31-4.319-1.227-5.595-1.117-6.416.249-1.845,4.725-16.9,4.725-16.9a7.887,7.887,0,0,0-5.2-6.989,12.781,12.781,0,0,0-1.811-.6,2.183,2.183,0,0,1-2.491,1.455,8.495,8.495,0,0,1-4.844-2.422c-.133,0-.185,0-.185,0a14.549,14.549,0,0,0-.443,1.57c-.434,1.869-.688,3.836-1.835,5.306a40.314,40.314,0,0,0-2.928,4.283,35.654,35.654,0,0,0-1.783,3.424C1454.892,1724.246,1458.514,1732.246,1460.18,1732.4Z" fill="#ffce26"/>
      <path id="Trazado_100718" data-name="Trazado 100718" d="M1460.18,1732.4c1.417.132,3.366.3,5.732.444.69-11.626-4.047-22.793-4.047-22.793a4.111,4.111,0,0,0-.508.42,7.363,7.363,0,0,0-1.783,3.424C1458.163,1719.168,1459.344,1727.733,1460.18,1732.4Z" fill="#e0b318"/>
      <path id="Trazado_100719" data-name="Trazado 100719" d="M1466.563,1699.314s-4.607.1-7.042,3.271c-1.865,2.427-3.837,15.451-3.837,17.412s2.1,12.783,3.276,13.959a4.438,4.438,0,0,0,1.777,0,3.588,3.588,0,0,0,1.712-.831s-.585-12.049-.585-13.18c0-1.636,5.116-11.652,5.116-11.652S1469.633,1703.527,1466.563,1699.314Z" fill="#ffce26"/>
      <path id="Trazado_100720" data-name="Trazado 100720" d="M1469.916,1687.9a1.144,1.144,0,0,1,.609-.616,7.05,7.05,0,0,1,6.425.152c-2.276-3.054-7.768-2.413-8.924.342-1.889,4.5,1.566,5.435,1.566,5.435s3.449-1.449,1.452-3.267a3.248,3.248,0,0,1-1.088-1.6h0A1.6,1.6,0,0,1,1469.916,1687.9Z" fill="#12263f"/>
      <path id="Trazado_100721" data-name="Trazado 100721" d="M1475.885,1693.324a5.014,5.014,0,0,0-3.769,3.32,12.124,12.124,0,0,0,4.2.633c1.341-.117,1.944-2.088,2.157-4.059A9.917,9.917,0,0,0,1475.885,1693.324Z" fill="#fff"/>
    </g>
    <g id="Grupo_53930" data-name="Grupo 53930">
      <path id="Trazado_100722" data-name="Trazado 100722" d="M1325.079,1774.489l-.805,3.387-1.068,4.491h-3.338l-.2-4.3-.154-3.318Z" fill="#f5ab80"/>
      <path id="Trazado_100723" data-name="Trazado 100723" d="M1335.658,1700.773s2.641-2.826,4.359-.61a23.25,23.25,0,0,0,6.256,5.417c2.635,1.705-2.329,15.065-5.63,14.791S1323.871,1709.563,1335.658,1700.773Z" fill="#766abd"/>
      <path id="Trazado_100724" data-name="Trazado 100724" d="M1322.505,1699.429c.659-.493,6.731-2.577,12.649-.527s-4.584,7.76-4.584,7.76l-3.4.147Z" fill="#e0b318"/>
      <path id="Trazado_100725" data-name="Trazado 100725" d="M1326.369,1695.569a31.234,31.234,0,0,1-.583,5.27l-3.687,7.946,13.878-3.3-3.31-4.573s-1-4.879-.475-6.684S1326.369,1695.569,1326.369,1695.569Z" fill="#f5ab80"/>
      <path id="Trazado_100726" data-name="Trazado 100726" d="M1326.349,1696.072s1.1,2.641,3.165,2.583,2.537-2.4,2.537-2.4Z" fill="#f2955f"/>
      <path id="Trazado_100727" data-name="Trazado 100727" d="M1325.115,1693.933a33.124,33.124,0,0,0-1.133-4.342c-.466-1.009-.854-5.512,4.309-5.745a5.947,5.947,0,0,0,3.067-.427s0,.66-.272.893a3.432,3.432,0,0,1,3.183,1.125c1.4,1.553-.931,6.988-.815,8.269Z" fill="#12263f"/>
      <path id="Trazado_100728" data-name="Trazado 100728" d="M1329.277,1697.634c-1.5-.026-4.255-2.02-4.255-4.49v-3.854a1.538,1.538,0,0,1,1.4-1.64h5.714a1.538,1.538,0,0,1,1.4,1.64v3.636C1333.532,1695.515,1330.995,1697.665,1329.277,1697.634Z" fill="#f5ab80"/>
      <path id="Trazado_100729" data-name="Trazado 100729" d="M1325.022,1691.348s.008-2.316,1.842-2.672,5.94,1.129,6.522-.56-7.935-1.66-8.364-.582S1325.022,1691.348,1325.022,1691.348Z" fill="#12263f"/>
      <path id="Trazado_100730" data-name="Trazado 100730" d="M1339.824,1730.671l-8.124.507c-.047-.076-.1-.076-.157.01l-2.39.15-10.187-.637a108.21,108.21,0,0,0-1.555,27.278c.321,4.972.83,11.609.935,16.364h7.556c.905-5.888,2.165-11.972,2.728-14.495q.384-1.719.714-3.405a21.562,21.562,0,0,1,.329,2.966,26.432,26.432,0,0,0,.716,4.67c.587,2.8,1.4,6.266,1.92,9.634h7.666c.088-4.64,1.056-10.969,1.139-15.734A266.755,266.755,0,0,0,1339.824,1730.671Z" fill="#5b5195"/>
      <path id="Trazado_100731" data-name="Trazado 100731" d="M1317.942,1736.695s2.91,3.526,10.816,3.017,11.679-1.885,11.679-1.885Z" fill="#3d356c"/>
      <path id="Trazado_100732" data-name="Trazado 100732" d="M1340.437,1737.827c-2.583.352-20.153,1.264-22.495-1.132s3.823-35.09,3.823-35.09.7-.2,1.877-.424c.6-.113,1.325-.231,2.146-.33.009.255.213,4.11,3.413,5.7a5.692,5.692,0,0,0,3.466-5.639c0-.048-.01-.095-.016-.141.513.055,1.032.127,1.554.217a22,22,0,0,1,3.18.787S1343.019,1737.477,1340.437,1737.827Z" fill="#ffe489"/>
      <path id="Trazado_100733" data-name="Trazado 100733" d="M1318.09,1720.948a8.361,8.361,0,0,0,1.584,2.436c2.033,2.657,5.285,6.524,5.285,6.524a13.232,13.232,0,0,1-.227,2.157,48.9,48.9,0,0,1-9.489-5.671,14.733,14.733,0,0,1-3.622-3.693c4.514-19.091,10.3-21.08,10.3-21.08l1.889,11.505S1318.406,1720.535,1318.09,1720.948Z" fill="#ffe489"/>
      <path id="Trazado_100734" data-name="Trazado 100734" d="M1334.2,1700.99l-1.164,3.54-1.552,2.279-2.227,1.208-2.1-1.208-3.524-5.628c.6-.113,1.325-.231,2.146-.33.009.255.213,4.11,3.413,5.7a5.692,5.692,0,0,0,3.466-5.639c0-.048-.01-.095-.016-.141C1333.164,1700.828,1333.683,1700.9,1334.2,1700.99Z" fill="#766abd"/>
      <path id="Trazado_100735" data-name="Trazado 100735" d="M1324.96,1729.909c0,.037,0,.073-.005.11-.01.241-.024.467-.042.673a3.756,3.756,0,0,1-.371.437,3.94,3.94,0,0,1-.653.529c-.113-.054-.226-.11-.337-.165a46.814,46.814,0,0,1-8.309-5.1,9.977,9.977,0,0,0,4.431-3.011C1321.707,1726.041,1324.96,1729.909,1324.96,1729.909Z" fill="#f5ab80"/>
      <path id="Trazado_100736" data-name="Trazado 100736" d="M1347.143,1722a14.708,14.708,0,0,1-3.55,3.761,48.887,48.887,0,0,1-9.379,5.851,13.372,13.372,0,0,1-.268-2.152s3.177-3.928,5.159-6.624a8.379,8.379,0,0,0,1.538-2.465c-.252-.317-3.642-4.776-5.155-6.765l-.719-.947,1.915-11.311S1342.266,1703,1347.143,1722Z" fill="#ffe489"/>
      <path id="Trazado_100737" data-name="Trazado 100737" d="M1343.593,1725.761a47.124,47.124,0,0,1-8.248,5.278l-.287.147a5.3,5.3,0,0,1-.962-1.911c.064-.079.146-.183.247-.307.913-1.139,3.2-4.016,4.761-6.132A9.981,9.981,0,0,0,1343.593,1725.761Z" fill="#f5ab80"/>
      <path id="Trazado_100738" data-name="Trazado 100738" d="M1332.651,1700.773a30.82,30.82,0,0,0-6.863.078l0-.013S1332.139,1696.909,1332.651,1700.773Z" fill="#f5ab80"/>
      <g id="Grupo_53925" data-name="Grupo 53925">
        <g id="Grupo_53924" data-name="Grupo 53924">
          <path id="Trazado_100739" data-name="Trazado 100739" d="M1326.28,1711.885h-.13l-.1-6.123h.329Z" fill="#b3d2ef"/>
        </g>
        <path id="Trazado_100740" data-name="Trazado 100740" d="M1326.136,1711.726c-.119.179-.386.771-.208.834a.755.755,0,0,0,.571-.017C1326.582,1712.459,1326.36,1711.388,1326.136,1711.726Z" fill="#f29449"/>
      </g>
      <g id="Grupo_53927" data-name="Grupo 53927">
        <g id="Grupo_53926" data-name="Grupo 53926">
          <path id="Trazado_100741" data-name="Trazado 100741" d="M1332.293,1711.885h-.13l-.1-6.123h.329Z" fill="#b3d2ef"/>
        </g>
        <path id="Trazado_100742" data-name="Trazado 100742" d="M1332.15,1711.726c-.119.179-.386.771-.209.834a.758.758,0,0,0,.572-.017C1332.6,1712.459,1332.374,1711.388,1332.15,1711.726Z" fill="#f29449"/>
      </g>
      <path id="Trazado_100743" data-name="Trazado 100743" d="M1327.166,1706.809l-5.4-5.2s-1.215-.862.706-2.153S1327.166,1706.809,1327.166,1706.809Z" fill="#e0b318"/>
      <path id="Trazado_100744" data-name="Trazado 100744" d="M1331.489,1706.809l5.4-5.2s1.216-.862-.706-2.153S1331.489,1706.809,1331.489,1706.809Z" fill="#e0b318"/>
      <g id="Grupo_53928" data-name="Grupo 53928">
        <path id="Trazado_100745" data-name="Trazado 100745" d="M1338.267,1731.684a3.335,3.335,0,0,1-2.607-.78,3.125,3.125,0,0,1-.315-.325,5.149,5.149,0,0,1-1-2.071,7,7,0,0,1-.214-1.364l-.005-.152H1325.4l.006.162a4.883,4.883,0,0,1-.453,2.4,3.418,3.418,0,0,1-.635.886,3.634,3.634,0,0,1-.768.589,5.3,5.3,0,0,1-2.483.65l-.161-.006v3.686h17.529v-3.694Z" fill="#ffce26"/>
      </g>
      <path id="Trazado_100746" data-name="Trazado 100746" d="M1340.643,1720.371s-4.862-6.38-1.014-8.238c1.528-.737,3.679,8.018,2.526,8.841s-3.051,1.862-3.051,1.862Z" fill="#ffce26"/>
      <path id="Trazado_100747" data-name="Trazado 100747" d="M1318.649,1718.859s1.69-8.01.207-7.185-3.678,8.017-2.525,8.841,3.05,1.862,3.05,1.862Z" fill="#ffce26"/>
      <g id="Grupo_53929" data-name="Grupo 53929">
        <path id="Trazado_100748" data-name="Trazado 100748" d="M1339.961,1720.352c-2.22-2.756-3.05-7.232-2.936-11.851a54.039,54.039,0,0,1,.591-6.707l1.821,1.418a12.6,12.6,0,0,0-1.125,5.3,26.308,26.308,0,0,0,1.524,10.808Z" fill="#766abd"/>
      </g>
      <path id="Trazado_100749" data-name="Trazado 100749" d="M1323.1,1776.047l-3.912,0c-.347.039-.889-.468-.889-1.193a14.377,14.377,0,0,0-.123-2.046c-.5-1.355.246-1.428.97-1.428h7.138c.725,0-.385,2.24-.385,2.965l.257.95C1326.159,1776.018,1323.827,1776.047,1323.1,1776.047Z" fill="#a195e6"/>
      <path id="Trazado_100750" data-name="Trazado 100750" d="M1323.206,1782.367h0l1.068-4.491a6.968,6.968,0,0,1-4.605.188l.2,4.3h0s-.854,2.213-1.087,2.756a8.926,8.926,0,0,0-.232,2.178h5.318s.038-1.6,0-2.256A20.567,20.567,0,0,0,1323.206,1782.367Z" fill="#3d356c"/>
      <path id="Trazado_100751" data-name="Trazado 100751" d="M1333.219,1774.489l.805,3.387,1.068,4.491h3.338l.2-4.3.154-3.319Z" fill="#f5ab80"/>
      <path id="Trazado_100752" data-name="Trazado 100752" d="M1335.195,1776.047l3.912,0c.347.039.888-.468.888-1.193a14.524,14.524,0,0,1,.123-2.046c.5-1.355-.245-1.428-.97-1.428h-7.137c-.725,0,.385,2.24.385,2.965l-.257.95C1332.139,1776.018,1334.47,1776.047,1335.195,1776.047Z" fill="#a195e6"/>
      <path id="Trazado_100753" data-name="Trazado 100753" d="M1339.511,1785.123c-.233-.543-1.086-2.755-1.087-2.756h.006l.2-4.3a6.968,6.968,0,0,1-4.6-.188l1.068,4.491h-.006a20.515,20.515,0,0,0-.66,2.678c-.039.66,0,2.256,0,2.256h5.318A8.89,8.89,0,0,0,1339.511,1785.123Z" fill="#3d356c"/>
      <path id="Trazado_100754" data-name="Trazado 100754" d="M1331.719,1693.09a9.1,9.1,0,0,0-6.387,1.488,5.306,5.306,0,0,0,3.945,3.056c1.544.028,3.749-1.707,4.179-3.938A3.9,3.9,0,0,0,1331.719,1693.09Z" fill="#fff"/>
    </g>
    <g id="Grupo_53936" data-name="Grupo 53936">
      <g id="Grupo_53931" data-name="Grupo 53931">
        <path id="Trazado_100755" data-name="Trazado 100755" d="M1269.953,1787.309h-4.913l1.945-110.787.292-16.617h2.326l.042,14.948Z" fill="#766abd"/>
        <path id="Trazado_100756" data-name="Trazado 100756" d="M1269.645,1674.853a15.971,15.971,0,0,0-2.66,1.669l.292-16.617h2.326Z" fill="#5b5195"/>
      </g>
      <g id="Grupo_53934" data-name="Grupo 53934">
        <path id="Rectángulo_5169" data-name="Rectángulo 5169" d="M1.493,0h26.12A1.492,1.492,0,0,1,29.1,1.492V38.309A1.493,1.493,0,0,1,27.612,39.8H1.493A1.493,1.493,0,0,1,0,38.309V1.493A1.493,1.493,0,0,1,1.493,0Z" transform="translate(1252.944 1622.679)" fill="#d919d9"/>
        <rect id="Rectángulo_5170" data-name="Rectángulo 5170" width="25.716" height="36.166" rx="1.337" transform="translate(1254.639 1624.455)" fill="#fff"/>
        <g id="Grupo_53932" data-name="Grupo 53932">
          <path id="Trazado_100757" data-name="Trazado 100757" d="M1261.317,1636.863a1.837,1.837,0,1,0,1.5,1.5A1.838,1.838,0,0,0,1261.317,1636.863Zm-.311,2.627a.817.817,0,1,1,.817-.817A.817.817,0,0,1,1261.006,1639.49Z" fill="#3d356c"/>
          <path id="Trazado_100758" data-name="Trazado 100758" d="M1273.637,1636.864a1.836,1.836,0,1,0,1.5,1.5A1.837,1.837,0,0,0,1273.637,1636.864Zm-.184,2.616a.818.818,0,1,1,.677-.678A.818.818,0,0,1,1273.453,1639.48Z" fill="#3d356c"/>
          <path id="Trazado_100759" data-name="Trazado 100759" d="M1275.856,1630.619h-15.9a1.156,1.156,0,0,0-.963.517l-1.708,2.574a1.4,1.4,0,0,0-.233.772v3.237a.954.954,0,0,0,.954.954h0a.787.787,0,0,0,.755-.6,2.325,2.325,0,0,1,4.474-.071.941.941,0,0,0,.9.667h6.183a.787.787,0,0,0,.756-.6,2.325,2.325,0,0,1,4.48-.047.906.906,0,0,0,.874.644h.684a.829.829,0,0,0,.829-.83v-3.562a1.428,1.428,0,0,0-.088-.493l-.887-2.4A1.185,1.185,0,0,0,1275.856,1630.619Zm-14.365,2.892a.493.493,0,0,1-.493.493h-2.07a.418.418,0,0,1-.363-.625l.928-1.628a1.041,1.041,0,0,1,.9-.524h.6a.493.493,0,0,1,.493.493Zm4.7,0a.493.493,0,0,1-.493.493h-2.846a.493.493,0,0,1-.492-.493v-1.792a.492.492,0,0,1,.492-.492h2.846a.492.492,0,0,1,.493.492Zm4.712,0a.493.493,0,0,1-.493.493h-2.847a.493.493,0,0,1-.493-.493v-1.792a.492.492,0,0,1,.493-.492h2.847a.492.492,0,0,1,.493.492Zm4.741,0a.493.493,0,0,1-.493.493h-2.846a.493.493,0,0,1-.493-.493v-1.792a.493.493,0,0,1,.493-.492h2.846a.492.492,0,0,1,.493.492Z" fill="#3d356c"/>
        </g>
        <g id="Grupo_53933" data-name="Grupo 53933">
          <path id="Trazado_100760" data-name="Trazado 100760" d="M1261.956,1644.855h1.841a1.432,1.432,0,0,1,1.037.351.977.977,0,0,1-.249,1.541.974.974,0,0,1,.742.986c0,.725-.589,1.088-1.484,1.088h-1.887Zm1.655,1.6c.385,0,.628-.124.628-.43,0-.261-.2-.408-.572-.408h-.861v.838Zm.232,1.6c.385,0,.617-.136.617-.442,0-.266-.2-.43-.645-.43h-1.009v.872Z" fill="#3d356c"/>
          <path id="Trazado_100761" data-name="Trazado 100761" d="M1265.984,1647.121v-2.266h.873v2.243c0,.646.322.981.855.981s.855-.323.855-.952v-2.272h.873v2.238a1.6,1.6,0,0,1-1.739,1.79A1.574,1.574,0,0,1,1265.984,1647.121Z" fill="#3d356c"/>
          <path id="Trazado_100762" data-name="Trazado 100762" d="M1270.057,1648.243l.516-.618a1.818,1.818,0,0,0,1.184.482c.357,0,.572-.142.572-.385,0-.221-.136-.335-.8-.5-.8-.205-1.314-.425-1.314-1.224a1.24,1.24,0,0,1,1.388-1.2,2.3,2.3,0,0,1,1.473.5l-.454.657a1.855,1.855,0,0,0-1.031-.391c-.334,0-.509.153-.509.357,0,.26.17.345.855.521.8.21,1.258.5,1.258,1.2,0,.787-.6,1.229-1.456,1.229A2.523,2.523,0,0,1,1270.057,1648.243Z" fill="#3d356c"/>
          <path id="Trazado_100763" data-name="Trazado 100763" d="M1259.863,1655.041l.516-.618a1.818,1.818,0,0,0,1.184.482c.357,0,.572-.142.572-.386,0-.22-.136-.334-.8-.5-.8-.2-1.314-.424-1.314-1.223a1.24,1.24,0,0,1,1.388-1.195,2.3,2.3,0,0,1,1.473.5l-.454.658a1.855,1.855,0,0,0-1.031-.391c-.334,0-.509.153-.509.357,0,.26.17.345.855.521.8.21,1.258.5,1.258,1.2,0,.787-.6,1.229-1.456,1.229A2.523,2.523,0,0,1,1259.863,1655.041Z" fill="#3d356c"/>
          <path id="Trazado_100764" data-name="Trazado 100764" d="M1264.6,1652.458h-1.207v-.805h3.286v.805h-1.206v3.161h-.873Z" fill="#3d356c"/>
          <path id="Trazado_100765" data-name="Trazado 100765" d="M1267,1653.636a2.108,2.108,0,1,1,2.1,2.051A2.051,2.051,0,0,1,1267,1653.636Zm3.3,0a1.2,1.2,0,0,0-1.2-1.246,1.189,1.189,0,0,0-1.19,1.246,1.2,1.2,0,0,0,1.2,1.246A1.189,1.189,0,0,0,1270.3,1653.636Z" fill="#3d356c"/>
          <path id="Trazado_100766" data-name="Trazado 100766" d="M1271.992,1651.653h1.62a1.36,1.36,0,0,1,1.518,1.382,1.418,1.418,0,0,1-1.6,1.394h-.663v1.19h-.872Zm1.563,2a.616.616,0,0,0,.692-.612c0-.391-.272-.6-.709-.6h-.674v1.213Z" fill="#3d356c"/>
        </g>
      </g>
      <g id="Grupo_53935" data-name="Grupo 53935">
        <path id="Trazado_100767" data-name="Trazado 100767" d="M1272.331,1787.032h-9.668l.691-13.392a1.406,1.406,0,0,1,1.4-1.333h5.391a1.5,1.5,0,0,1,1.494,1.419Z" fill="#a195e6"/>
        <path id="Trazado_100768" data-name="Trazado 100768" d="M1267.122,1787.032h-4.459l.7-13.5a1.29,1.29,0,0,1,1.288-1.223h1.39a1.957,1.957,0,0,1,1.953,2.092Z" fill="#c7beff"/>
      </g>
    </g>
    <g id="Grupo_53937" data-name="Grupo 53937">
      <path id="Trazado_100769" data-name="Trazado 100769" d="M1307.729,1648.323l-.072,4.445-2.118,133.683a.591.591,0,0,1-.59.581h-.158a1.169,1.169,0,0,1-1.168-1.142l-2.936-129.041-.193-8.526Z" fill="#766abd"/>
      <path id="Trazado_100770" data-name="Trazado 100770" d="M1307.729,1648.323l-.072,4.445a17.093,17.093,0,0,0-6.97,4.081l-.193-8.526Z" fill="#5b5195"/>
    </g>
    <g id="Grupo_53938" data-name="Grupo 53938">
      <path id="Trazado_100771" data-name="Trazado 100771" d="M1516.326,1631.615v15.75a1.62,1.62,0,0,1-.228.827,1.9,1.9,0,0,1-1.634.9H1294.1a1.8,1.8,0,0,1-1.86-1.722v-15.75a1.8,1.8,0,0,1,1.86-1.722h220.361A1.8,1.8,0,0,1,1516.326,1631.615Z" fill="#e0b318"/>
      <path id="Trazado_100772" data-name="Trazado 100772" d="M1516.326,1631.615v15.75a1.62,1.62,0,0,1-.228.827q-.994.456-2.024.9h-93.048a599.768,599.768,0,0,1-62.188-19.194h155.626A1.8,1.8,0,0,1,1516.326,1631.615Z" fill="#ffce26"/>
    </g>
    <path id="Trazado_100773" data-name="Trazado 100773" d="M1299.277,1777.876s-6.2-9.474-10.033-7.658S1299.277,1777.876,1299.277,1777.876Z" fill="#449a90"/>
    <path id="Trazado_100774" data-name="Trazado 100774" d="M1301.01,1776.047s-.365-6.841-2.371-6.568S1301.01,1776.047,1301.01,1776.047Z" fill="#449a90"/>
  </g>
</svg>
