<svg xmlns="http://www.w3.org/2000/svg" width="417.114" height="174.345" viewBox="0 0 417.114 174.345">
  <g id="Grupo_53955" data-name="Grupo 53955" transform="translate(-1403.833 -1633.439)">
    <g id="Grupo_53940" data-name="Grupo 53940">
      <path id="Trazado_100871" data-name="Trazado 100871" d="M21.307,0A21.307,21.307,0,1,1,0,21.307,21.307,21.307,0,0,1,21.307,0Z" transform="translate(1475.818 1795.27) rotate(-80.783)" fill="#12263f"/>
      <circle id="Elipse_4056" data-name="Elipse 4056" cx="15.066" cy="15.066" r="15.066" transform="translate(1480.345 1770.083) rotate(-24.195)" fill="#3d356c"/>
    </g>
    <g id="Grupo_53941" data-name="Grupo 53941">
      <rect id="Rectángulo_5171" data-name="Rectángulo 5171" width="9.019" height="19.729" rx="1.419" transform="translate(1403.833 1690.218)" fill="#fff3c9"/>
      <path id="Trazado_100775" data-name="Trazado 100775" d="M1406.579,1693.588a.53.53,0,0,1-.53-.529v-5.615a3.065,3.065,0,0,1,3.061-3.061h16.428a.529.529,0,1,1,0,1.058H1409.11a2,2,0,0,0-2,2v5.615A.529.529,0,0,1,1406.579,1693.588Z" fill="#464880"/>
      <path id="Trazado_100776" data-name="Trazado 100776" d="M1426.474,1681.532l-2.684,2.684a1.178,1.178,0,0,0,0,1.666l2.606,2.606a1.179,1.179,0,0,0,.833.345h3.487a1.178,1.178,0,0,0,1.179-1.178v-5.29a1.178,1.178,0,0,0-1.179-1.178h-3.409A1.177,1.177,0,0,0,1426.474,1681.532Z" fill="#464880"/>
      <path id="Trazado_100777" data-name="Trazado 100777" d="M1426.3,1684.912a.757.757,0,1,1-.757-.757A.757.757,0,0,1,1426.3,1684.912Z" fill="#d8e1f3"/>
    </g>
    <path id="Trazado_100778" data-name="Trazado 100778" d="M1524.475,1644.221l-21.563,122.706v15.965h-80.034a14.449,14.449,0,0,1-14.132-17.449l17.862-108.891a14.713,14.713,0,0,1,14.519-12.331Z" fill="#766abd"/>
    <path id="Trazado_100779" data-name="Trazado 100779" d="M1414.021,1733.284h91.467v-60.841H1424Z" fill="#3d356c"/>
    <path id="Trazado_100780" data-name="Trazado 100780" d="M1451.269,1672.442h-25.854l68.387,60.842h11.686v-12.605Zm-33.08,35.435,28.547,25.407h11.5l-38.583-34.339Zm1.849-11.274,41.215,36.681h11.5l-51.251-45.612Z" fill="#5b5195"/>
    <path id="Trazado_100781" data-name="Trazado 100781" d="M1809.776,1658.669v109.776a14.447,14.447,0,0,1-14.448,14.447H1482.083a14.444,14.444,0,0,1-14.132-17.449l18.817-109.775a14.448,14.448,0,0,1,14.132-11.447h294.428A14.448,14.448,0,0,1,1809.776,1658.669Z" fill="#a195e6"/>
    <path id="Rectángulo_5172" data-name="Rectángulo 5172" d="M0,0H40.561a0,0,0,0,1,0,0V13.471a5.894,5.894,0,0,1-5.894,5.894H5.894A5.894,5.894,0,0,1,0,13.47V0A0,0,0,0,1,0,0Z" transform="translate(1488.295 1760.321)" fill="#3d356c"/>
    <path id="Rectángulo_5173" data-name="Rectángulo 5173" d="M0,0H40.561a0,0,0,0,1,0,0V13.471a5.894,5.894,0,0,1-5.894,5.894H5.894A5.894,5.894,0,0,1,0,13.47V0A0,0,0,0,1,0,0Z" transform="translate(1651.941 1760.321)" fill="#3d356c"/>
    <g id="Grupo_53942" data-name="Grupo 53942">
      <path id="Trazado_100782" data-name="Trazado 100782" d="M1537.976,1782.892h-1.058v-49.608h236.446v49.608h-1.058v-48.55H1537.976Z" fill="#3d356c"/>
      <rect id="Rectángulo_5174" data-name="Rectángulo 5174" width="1.058" height="49.079" transform="translate(1583.995 1733.813)" fill="#3d356c"/>
      <rect id="Rectángulo_5175" data-name="Rectángulo 5175" width="1.058" height="49.079" transform="translate(1631.073 1733.813)" fill="#3d356c"/>
      <rect id="Rectángulo_5176" data-name="Rectángulo 5176" width="1.058" height="49.079" transform="translate(1678.151 1733.813)" fill="#3d356c"/>
      <rect id="Rectángulo_5177" data-name="Rectángulo 5177" width="1.058" height="49.079" transform="translate(1725.228 1733.813)" fill="#3d356c"/>
    </g>
    <path id="Trazado_100783" data-name="Trazado 100783" d="M1765.8,1672.442H1501.2a8.169,8.169,0,0,0-7.99,6.472l-4.732,22.281a8.177,8.177,0,0,0-.165,2.162c-.016,0-.016,66.163-.016,66.163a4.561,4.561,0,0,0,4.562,4.562h31.437a4.561,4.561,0,0,0,4.562-4.562v-58.46h123.085v58.508a4.514,4.514,0,0,0,4.514,4.514h31.533a4.514,4.514,0,0,0,4.514-4.514V1711.06h73.3a8.168,8.168,0,0,0,8.168-8.168v-22.281A8.169,8.169,0,0,0,1765.8,1672.442Z" fill="#3d356c"/>
    <path id="Trazado_100784" data-name="Trazado 100784" d="M1602.844,1672.442l43.818,38.618h5.279v4.653l40.561,35.747v-11.081l-77.09-67.937ZM1488.3,1724.328l40.561,35.6V1748.9l-40.561-35.6Zm0,12.743,39.813,34.948a4.534,4.534,0,0,0,.748-2.5v-7.879l-40.561-35.6Zm.609-37.888,39.952,35.269V1711.06h.331l-36.057-31.777Zm276.9-26.741h-7.2l15.365,13.488v-5.319A8.169,8.169,0,0,0,1765.8,1672.442Zm-113.859,64.629,39.827,34.96a4.488,4.488,0,0,0,.734-2.463v-7.927l-40.561-35.6Zm0,31.07,6.774,5.941h26.925l-33.7-29.555Zm-2.06-95.7,44.033,38.618h26.924l-44.033-38.618Zm67.266,0,44,38.618h4.655a8.168,8.168,0,0,0,8.168-8.168v-4.206l-29.9-26.244Zm-228.852,95.7,6.775,5.942h26.924l-33.7-29.555Zm12.9-95.7a8.158,8.158,0,0,0-5.935,2.566l41.076,36.052h12.57l-44-38.618Zm202.413,0,44,38.618h12.57l-44-38.618Zm-198.247,0,44,38.618h12.57l-44-38.618Zm112,0,75.141,66.217v-11.081l-62.574-55.136Zm-75.809,0,44,38.618h50.637l-44-38.618Z" fill="#5b5195"/>
    <g id="Grupo_53943" data-name="Grupo 53943">
      <path id="Trazado_100785" data-name="Trazado 100785" d="M1497.6,1644.221h160.629l-5.34-5.44a17.834,17.834,0,0,0-12.728-5.342H1526.014a17.833,17.833,0,0,0-7.137,1.49Z" fill="#a195e6"/>
      <path id="Trazado_100786" data-name="Trazado 100786" d="M1544.078,1644.221h174.74l-5.34-5.44a17.837,17.837,0,0,0-12.729-5.342H1572.5a17.832,17.832,0,0,0-7.137,1.49Z" fill="#c7beff"/>
    </g>
    <g id="Grupo_53944" data-name="Grupo 53944">
      <path id="Trazado_100787" data-name="Trazado 100787" d="M1597.576,1666.18a2.984,2.984,0,1,0,0-5.968H1593.7a2.984,2.984,0,0,0,0,5.968Z" fill="#fff"/>
      <path id="Trazado_100788" data-name="Trazado 100788" d="M1593.7,1664.416h3.871a1.22,1.22,0,0,0,0-2.44H1593.7a1.22,1.22,0,0,0,0,2.44Z" fill="#d919d9"/>
    </g>
    <g id="Grupo_53945" data-name="Grupo 53945">
      <path id="Trazado_100789" data-name="Trazado 100789" d="M1637.594,1666.18a2.984,2.984,0,0,0,0-5.968h-3.87a2.984,2.984,0,1,0,0,5.968Z" fill="#fff"/>
      <path id="Trazado_100790" data-name="Trazado 100790" d="M1633.724,1664.416h3.87a1.22,1.22,0,0,0,0-2.44h-3.87a1.22,1.22,0,1,0,0,2.44Z" fill="#d919d9"/>
    </g>
    <g id="Grupo_53946" data-name="Grupo 53946">
      <path id="Trazado_100791" data-name="Trazado 100791" d="M1677.612,1666.18a2.984,2.984,0,0,0,0-5.968h-3.87a2.984,2.984,0,0,0,0,5.968Z" fill="#fff"/>
      <path id="Trazado_100792" data-name="Trazado 100792" d="M1673.742,1664.416h3.87a1.22,1.22,0,1,0,0-2.44h-3.87a1.22,1.22,0,1,0,0,2.44Z" fill="#d919d9"/>
    </g>
    <g id="Grupo_53947" data-name="Grupo 53947">
      <path id="Trazado_100793" data-name="Trazado 100793" d="M1788.97,1772.48a2.984,2.984,0,0,0,0-5.968H1785.1a2.984,2.984,0,1,0,0,5.968Z" fill="#faf"/>
      <path id="Trazado_100794" data-name="Trazado 100794" d="M1785.1,1770.716h3.871a1.22,1.22,0,1,0,0-2.44H1785.1a1.22,1.22,0,0,0,0,2.44Z" fill="#faf"/>
    </g>
    <g id="Grupo_53948" data-name="Grupo 53948">
      <rect id="Rectángulo_5178" data-name="Rectángulo 5178" width="1.058" height="7.614" transform="translate(1772.91 1721.536)" fill="#3d356c"/>
      <rect id="Rectángulo_5179" data-name="Rectángulo 5179" width="1.058" height="7.614" transform="translate(1770.549 1721.536)" fill="#3d356c"/>
      <rect id="Rectángulo_5180" data-name="Rectángulo 5180" width="1.058" height="7.614" transform="translate(1768.189 1721.536)" fill="#3d356c"/>
      <rect id="Rectángulo_5181" data-name="Rectángulo 5181" width="1.058" height="7.614" transform="translate(1765.828 1721.536)" fill="#3d356c"/>
      <rect id="Rectángulo_5182" data-name="Rectángulo 5182" width="1.058" height="7.614" transform="translate(1763.467 1721.536)" fill="#3d356c"/>
      <rect id="Rectángulo_5183" data-name="Rectángulo 5183" width="1.058" height="7.614" transform="translate(1761.107 1721.536)" fill="#3d356c"/>
      <rect id="Rectángulo_5184" data-name="Rectángulo 5184" width="1.058" height="7.614" transform="translate(1758.746 1721.536)" fill="#3d356c"/>
      <rect id="Rectángulo_5185" data-name="Rectángulo 5185" width="1.058" height="7.614" transform="translate(1756.386 1721.536)" fill="#3d356c"/>
      <rect id="Rectángulo_5186" data-name="Rectángulo 5186" width="1.058" height="7.614" transform="translate(1754.025 1721.536)" fill="#3d356c"/>
      <rect id="Rectángulo_5187" data-name="Rectángulo 5187" width="1.058" height="7.614" transform="translate(1751.664 1721.536)" fill="#3d356c"/>
      <rect id="Rectángulo_5188" data-name="Rectángulo 5188" width="1.058" height="7.614" transform="translate(1749.303 1721.536)" fill="#3d356c"/>
      <rect id="Rectángulo_5189" data-name="Rectángulo 5189" width="1.058" height="7.614" transform="translate(1746.943 1721.536)" fill="#3d356c"/>
      <rect id="Rectángulo_5190" data-name="Rectángulo 5190" width="1.058" height="7.614" transform="translate(1744.582 1721.536)" fill="#3d356c"/>
      <rect id="Rectángulo_5191" data-name="Rectángulo 5191" width="1.058" height="7.614" transform="translate(1742.222 1721.536)" fill="#3d356c"/>
      <rect id="Rectángulo_5192" data-name="Rectángulo 5192" width="1.058" height="7.614" transform="translate(1739.861 1721.536)" fill="#3d356c"/>
      <rect id="Rectángulo_5193" data-name="Rectángulo 5193" width="1.058" height="7.614" transform="translate(1737.5 1721.536)" fill="#3d356c"/>
      <rect id="Rectángulo_5194" data-name="Rectángulo 5194" width="1.058" height="7.614" transform="translate(1735.14 1721.536)" fill="#3d356c"/>
      <rect id="Rectángulo_5195" data-name="Rectángulo 5195" width="1.058" height="7.614" transform="translate(1732.779 1721.536)" fill="#3d356c"/>
      <rect id="Rectángulo_5196" data-name="Rectángulo 5196" width="1.058" height="7.614" transform="translate(1730.418 1721.536)" fill="#3d356c"/>
    </g>
    <g id="Grupo_53949" data-name="Grupo 53949">
      <circle id="Elipse_4057" data-name="Elipse 4057" cx="21.307" cy="21.307" r="21.307" transform="translate(1545.739 1766.12) rotate(-22.5)" fill="#12263f"/>
      <circle id="Elipse_4058" data-name="Elipse 4058" cx="15.066" cy="15.066" r="15.066" transform="translate(1552.271 1777.651) rotate(-45)" fill="#93a8d7"/>
      <path id="Trazado_100795" data-name="Trazado 100795" d="M1573.578,1767.983a9.668,9.668,0,1,0,9.668,9.668A9.679,9.679,0,0,0,1573.578,1767.983Zm0,18.279a8.61,8.61,0,1,1,8.61-8.611A8.621,8.621,0,0,1,1573.578,1786.262Zm0-15.618a7.007,7.007,0,1,0,7.007,7.007A7.007,7.007,0,0,0,1573.578,1770.644Z" fill="#d8e1f3"/>
    </g>
    <g id="Grupo_53950" data-name="Grupo 53950">
      <circle id="Elipse_4059" data-name="Elipse 4059" cx="21.307" cy="21.307" r="21.307" transform="translate(1712.618 1777.651) rotate(-45)" fill="#12263f"/>
      <circle id="Elipse_4060" data-name="Elipse 4060" cx="15.066" cy="15.066" r="15.066" transform="matrix(0.722, -0.691, 0.691, 0.722, 1721.449, 1777.186)" fill="#93a8d7"/>
      <path id="Trazado_100796" data-name="Trazado 100796" d="M1742.751,1767.983a9.668,9.668,0,1,0,9.668,9.668A9.68,9.68,0,0,0,1742.751,1767.983Zm0,18.279a8.61,8.61,0,1,1,8.61-8.611A8.62,8.62,0,0,1,1742.751,1786.262Zm0-15.618a7.007,7.007,0,1,0,7.007,7.007A7.007,7.007,0,0,0,1742.751,1770.644Z" fill="#d8e1f3"/>
    </g>
    <g id="Grupo_53951" data-name="Grupo 53951">
      <rect id="Rectángulo_5197" data-name="Rectángulo 5197" width="1.058" height="38.618" transform="translate(1569.531 1672.442)" fill="#a195e6"/>
      <rect id="Rectángulo_5198" data-name="Rectángulo 5198" width="1.058" height="38.618" transform="translate(1610.207 1672.442)" fill="#a195e6"/>
      <rect id="Rectángulo_5199" data-name="Rectángulo 5199" width="1.058" height="38.618" transform="translate(1528.856 1672.442)" fill="#a195e6"/>
      <rect id="Rectángulo_5200" data-name="Rectángulo 5200" width="1.058" height="101.652" transform="translate(1497.949 1672.442)" fill="#a195e6"/>
      <rect id="Rectángulo_5201" data-name="Rectángulo 5201" width="1.058" height="101.652" transform="translate(1661.61 1672.442)" fill="#a195e6"/>
      <rect id="Rectángulo_5202" data-name="Rectángulo 5202" width="1.058" height="38.618" transform="translate(1650.883 1672.442)" fill="#a195e6"/>
      <rect id="Rectángulo_5203" data-name="Rectángulo 5203" width="1.058" height="38.618" transform="translate(1692.502 1672.442)" fill="#a195e6"/>
      <rect id="Rectángulo_5204" data-name="Rectángulo 5204" width="1.058" height="38.618" transform="translate(1732.234 1672.442)" fill="#a195e6"/>
    </g>
    <rect id="Rectángulo_5205" data-name="Rectángulo 5205" width="71.839" height="11.437" rx="2.338" transform="translate(1498.479 1657.478)" fill="#fff"/>
    <rect id="Rectángulo_5206" data-name="Rectángulo 5206" width="71.839" height="11.437" rx="2.338" transform="translate(1702.13 1657.478)" fill="#fff"/>
    <g id="Grupo_53952" data-name="Grupo 53952">
      <rect id="Rectángulo_5207" data-name="Rectángulo 5207" width="9.019" height="19.729" rx="1.419" transform="translate(1456.494 1690.218)" fill="#fff3c9"/>
      <path id="Trazado_100797" data-name="Trazado 100797" d="M1459.24,1693.588a.529.529,0,0,1-.529-.529v-5.615a3.064,3.064,0,0,1,3.061-3.061H1478.2a.529.529,0,1,1,0,1.058h-16.427a2,2,0,0,0-2,2v5.615A.529.529,0,0,1,1459.24,1693.588Z" fill="#464880"/>
      <path id="Trazado_100798" data-name="Trazado 100798" d="M1479.135,1681.532l-2.684,2.684a1.178,1.178,0,0,0,0,1.666l2.606,2.606a1.179,1.179,0,0,0,.833.345h3.488a1.178,1.178,0,0,0,1.178-1.178v-5.29a1.178,1.178,0,0,0-1.178-1.178h-3.41A1.179,1.179,0,0,0,1479.135,1681.532Z" fill="#464880"/>
      <path id="Trazado_100799" data-name="Trazado 100799" d="M1478.956,1684.912a.757.757,0,1,1-.757-.757A.757.757,0,0,1,1478.956,1684.912Z" fill="#d8e1f3"/>
    </g>
    <path id="Trazado_100800" data-name="Trazado 100800" d="M1459.561,1761.495h-39.669a1.7,1.7,0,0,1,0-3.407h39.669a1.7,1.7,0,1,1,0,3.407Z" fill="#464880"/>
    <rect id="Rectángulo_5208" data-name="Rectángulo 5208" width="28.615" height="10.006" rx="1.959" transform="translate(1420.655 1766.767)" fill="#ffce26"/>
    <g id="Grupo_53953" data-name="Grupo 53953">
      <path id="Trazado_100801" data-name="Trazado 100801" d="M1416.937,1766.767h-8.405a14.373,14.373,0,0,0,1.046,7.327h7.359a1.87,1.87,0,0,0,1.87-1.869v-3.588A1.87,1.87,0,0,0,1416.937,1766.767Z" fill="#464880"/>
      <path id="Trazado_100802" data-name="Trazado 100802" d="M1417.092,1770.431a2.324,2.324,0,1,1-2.323-2.324A2.323,2.323,0,0,1,1417.092,1770.431Z" fill="#6c72b3"/>
      <path id="Trazado_100803" data-name="Trazado 100803" d="M1415.049,1770.114a.949.949,0,1,1-.949-.948A.949.949,0,0,1,1415.049,1770.114Z" fill="#fff"/>
      <path id="Trazado_100804" data-name="Trazado 100804" d="M1409.393,1768.107a2.321,2.321,0,0,0-.958.208c0,.043,0,.086,0,.13a14.408,14.408,0,0,0,.648,4.285,2.322,2.322,0,1,0,.314-4.623Z" fill="#6c72b3"/>
    </g>
    <g id="Grupo_53954" data-name="Grupo 53954">
      <rect id="Rectángulo_5209" data-name="Rectángulo 5209" width="20.751" height="7.327" rx="1.869" transform="translate(1452.003 1766.767)" fill="#464880"/>
      <path id="Trazado_100805" data-name="Trazado 100805" d="M1458.562,1770.431a2.323,2.323,0,1,1-2.323-2.324A2.323,2.323,0,0,1,1458.562,1770.431Z" fill="#6c72b3"/>
      <path id="Trazado_100806" data-name="Trazado 100806" d="M1456.519,1770.114a.949.949,0,1,1-.949-.948A.949.949,0,0,1,1456.519,1770.114Z" fill="#fff"/>
      <path id="Trazado_100807" data-name="Trazado 100807" d="M1464.528,1770.431a2.323,2.323,0,1,1-2.323-2.324A2.323,2.323,0,0,1,1464.528,1770.431Z" fill="#6c72b3"/>
      <path id="Trazado_100808" data-name="Trazado 100808" d="M1462.42,1770.114a.949.949,0,1,1-.949-.948A.949.949,0,0,1,1462.42,1770.114Z" fill="#fff"/>
      <path id="Trazado_100809" data-name="Trazado 100809" d="M1469.695,1769.335h-2.658a.614.614,0,1,1,0-1.228h2.658a.614.614,0,1,1,0,1.228Z" fill="#fff"/>
      <path id="Trazado_100810" data-name="Trazado 100810" d="M1469.695,1771.045h-2.658a.614.614,0,1,1,0-1.228h2.658a.614.614,0,1,1,0,1.228Z" fill="#6c72b3"/>
      <path id="Trazado_100811" data-name="Trazado 100811" d="M1469.695,1772.754h-2.658a.614.614,0,1,1,0-1.228h2.658a.614.614,0,1,1,0,1.228Z" fill="#6c72b3"/>
    </g>
    <path id="Rectángulo_5210" data-name="Rectángulo 5210" d="M1.869,0H18.882a1.869,1.869,0,0,1,1.869,1.869V7.327a0,0,0,0,1,0,0H0a0,0,0,0,1,0,0V1.869A1.869,1.869,0,0,1,1.869,0Z" transform="translate(1802.449 1754.035) rotate(-90)" fill="#faf"/>
    <path id="Trazado_100870" data-name="Trazado 100870" d="M1339.89,1844.291c-110.534,0-189.509,2.44-189.509,5.447s78.975,5.454,189.509,5.454,210.782-2.44,210.782-5.454S1450.428,1844.291,1339.89,1844.291Z" transform="translate(270.275 -53.096)" fill="#211f1f" opacity="0.3"/>
  </g>
</svg>
