<svg xmlns="http://www.w3.org/2000/svg" xmlns:xlink="http://www.w3.org/1999/xlink" width="433.333" height="433.333" viewBox="0 0 433.333 433.333">
  <defs>
    <clipPath id="clip-path">
      <circle id="Elipse_4069" data-name="Elipse 4069" cx="216.667" cy="216.667" r="216.667" transform="translate(0 433.333) rotate(-90)" fill="none"/>
    </clipPath>
  </defs>
  <g id="Grupo_125917" data-name="Grupo 125917" transform="translate(-216.334 -6182.333)">
    <g id="Grupo_112099" data-name="Grupo 112099" transform="translate(140.003 6044.957)">
      <g id="Grupo_112098" data-name="Grupo 112098" transform="translate(76.331 137.376)">
        <g id="Grupo_112097" data-name="Grupo 112097" transform="translate(0 0)">
          <circle id="Elipse_4068" data-name="Elipse 4068" cx="216.667" cy="216.667" r="216.667" transform="translate(0 433.333) rotate(-90)" fill="#766abd"/>
          <g id="Grupo_112096" data-name="Grupo 112096">
            <g id="Grupo_112095" data-name="Grupo 112095" clip-path="url(#clip-path)">
              <g id="Grupo_112091" data-name="Grupo 112091" transform="translate(12.803 81.429)">
                <g id="Grupo_112086" data-name="Grupo 112086">
                  <g id="Grupo_112085" data-name="Grupo 112085">
                    <g id="Grupo_112083" data-name="Grupo 112083">
                      <path id="Trazado_113206" data-name="Trazado 113206" d="M150.079,459.486,68.6,398.128s16.115-64.21,12.77-73.781S60.95,297.958,60.819,271.3c-.049-9.766-4.371-26.706-8.824-41.639-.625-2.114-1.26-4.175-1.875-6.172-3.12-10.025-6.021-18.41-7.242-21.872l-.01-.034a1.7,1.7,0,0,1,1.177-2.222c4.141-1.04,14.694-2.481,23.137,6.7C77.92,217.751,82.666,227.854,84.2,234.6c0,0,6.295,20.627,12.032,21.071,7.52.571,12.208-19.631,12.208-19.631,10.421-31.37,21.677-65.631,31.678-89.012,1.377-3.228,2.823-6.553,5.347-8.99s6.456-3.785,9.64-2.31c4.649,2.149,5.181,8.438,4.844,13.546-1.309,19.611-15.651,77.81-11.114,77.79,5.064-.107,20.417-69.923,35.159-99.145,1.929-3.814,9.976-12.037,16.955-9.62,9.835,3.413,5.938,21,4.747,26.877-5.752,28.362-25.173,92.025-20.915,93.348,4.312,1.343,23.283-53.931,33.1-76.779,1.709-3.994,3.506-8.111,6.612-11.168s7.886-4.834,11.92-3.189c3.755,1.533,5.948,5.65,6.348,9.684s-.654,8.067-1.709,11.988C234.76,192.583,213.1,252.28,219.026,252.8c5.684.488,18.605-31.751,28.806-47.3,2.935-4.478,10.768-10.592,15.27-7.711,3.521,2.246,4.576,9.249,2.759,15.495-3.726,12.828-11.4,27.092-16.632,39.383-18.986,44.6-37.581,82.918-73.517,115.44Z" transform="translate(-42.767 -117.867)" fill="#ffaf9f"/>
                    </g>
                    <g id="Grupo_112084" data-name="Grupo 112084" transform="translate(73.886 136.216)" opacity="0.6" style="mix-blend-mode: multiply;isolation: isolate">
                      <path id="Trazado_113207" data-name="Trazado 113207" d="M57.9,146.677a119.48,119.48,0,0,1,17.619,37.415c4.322,16.149,1.172,49.721,1.172,49.721s10.265-32.137,8.223-49.33C82.026,160.213,57.9,146.677,57.9,146.677Z" transform="translate(-57.898 -142.204)" fill="#ffb1a7"/>
                      <path id="Trazado_113208" data-name="Trazado 113208" d="M58.619,145.761s36.952,10.177,49.873,16.442,34.666,19.889,34.666,19.889-42.675-13.9-51.758-18.844C79.378,156.709,58.619,145.761,58.619,145.761Z" transform="translate(-55.098 -145.761)" fill="#ffb1a7"/>
                      <path id="Trazado_113209" data-name="Trazado 113209" d="M114.891,168.583s-19.509,8.907-32.884,6.993c-15.138-2.163-22.907-6.993-22.907-6.993s14.142,13.5,29.656,12.467C106.375,179.873,114.891,168.583,114.891,168.583Z" transform="translate(-53.23 -57.138)" fill="#ffb1a7"/>
                    </g>
                  </g>
                </g>
                <g id="Grupo_112090" data-name="Grupo 112090" transform="translate(190.687)">
                  <g id="Grupo_112089" data-name="Grupo 112089">
                    <g id="Grupo_112087" data-name="Grupo 112087">
                      <path id="Trazado_113210" data-name="Trazado 113210" d="M195.842,449.847l84.109-51.719s-16.115-64.21-12.77-73.781S287.6,297.958,287.735,271.3c.049-9.766,4.371-26.706,8.819-41.639.63-2.114,1.265-4.175,1.88-6.172,3.12-10.025,6.021-18.41,7.242-21.872l.01-.034a1.7,1.7,0,0,0-1.177-2.222c-4.141-1.04-14.694-2.481-23.137,6.7-10.738,11.691-15.485,21.794-17.018,28.543,0,0-6.295,20.627-12.032,21.071-7.52.571-12.208-19.631-12.208-19.631-10.421-31.37-21.677-65.631-31.678-89.012-1.377-3.228-2.823-6.553-5.347-8.99s-6.456-3.785-9.64-2.31c-4.649,2.149-5.181,8.438-4.844,13.546,1.309,19.611,15.651,77.81,11.114,77.79-5.064-.107-20.422-69.923-35.159-99.145-1.934-3.814-9.976-12.037-16.955-9.62-9.835,3.413-5.938,21-4.747,26.877,5.752,28.362,25.173,92.025,20.915,93.348-4.312,1.343-23.278-53.931-33.1-76.779-1.709-3.994-3.511-8.111-6.612-11.168s-7.886-4.834-11.92-3.189c-3.755,1.533-5.948,5.65-6.348,9.684s.654,8.067,1.709,11.988c6.295,23.518,27.952,83.215,22.028,83.738-5.684.488-18.6-31.751-28.806-47.3-2.935-4.478-10.768-10.592-15.27-7.711-3.521,2.246-4.576,9.249-2.759,15.495,3.726,12.828,11.4,27.092,16.632,39.383,18.986,44.6,37.581,82.918,73.517,115.44Z" transform="translate(-81.817 -117.867)" fill="#ffc0b1"/>
                    </g>
                    <g id="Grupo_112088" data-name="Grupo 112088" transform="translate(62.023 136.216)" opacity="0.6" style="mix-blend-mode: multiply;isolation: isolate">
                      <path id="Trazado_113211" data-name="Trazado 113211" d="M134.247,146.677a119.482,119.482,0,0,0-17.619,37.415c-4.322,16.149-1.172,49.721-1.172,49.721s-10.265-32.137-8.223-49.33C110.119,160.213,134.247,146.677,134.247,146.677Z" transform="translate(-46.187 -142.204)" fill="#ffb1a7"/>
                      <path id="Trazado_113212" data-name="Trazado 113212" d="M179.057,145.761s-36.952,10.177-49.873,16.442-34.666,19.889-34.666,19.889,42.675-13.9,51.758-18.844C158.3,156.709,179.057,145.761,179.057,145.761Z" transform="translate(-94.518 -145.761)" fill="#ffb1a7"/>
                      <path id="Trazado_113213" data-name="Trazado 113213" d="M99.924,168.583s19.509,8.907,32.884,6.993c15.138-2.163,22.907-6.993,22.907-6.993s-14.142,13.5-29.661,12.467C108.44,179.873,99.924,168.583,99.924,168.583Z" transform="translate(-73.525 -57.138)" fill="#ffb1a7"/>
                    </g>
                  </g>
                </g>
              </g>
              <g id="Grupo_112094" data-name="Grupo 112094" transform="translate(85.382 41.779)">
                <g id="Grupo_112092" data-name="Grupo 112092">
                  <path id="Trazado_113214" data-name="Trazado 113214" d="M78.763,155.7c-2.046,5.171-8.292,7.554-13.947,5.318s-8.58-8.248-6.534-13.419,20.324-21.437,20.324-21.437S80.809,150.525,78.763,155.7Z" transform="translate(-57.63 -46.003)" fill="#7daeff"/>
                  <path id="Trazado_113215" data-name="Trazado 113215" d="M73.227,138.151c-2.779,3.34-7.989,3.589-11.642.552S57.224,130.5,60,127.154s20.3-10.963,20.3-10.963S76.005,134.806,73.227,138.151Z" transform="translate(-55.009 -84.723)" fill="#7daeff"/>
                  <path id="Trazado_113216" data-name="Trazado 113216" d="M88.737,132.762c-1.343,4.131-6.094,6.295-10.611,4.83s-7.091-6.006-5.748-10.138,14.787-17.707,14.787-17.707S90.075,128.631,88.737,132.762Z" transform="translate(-1.744 -109.747)" fill="#7daeff"/>
                  <path id="Trazado_113217" data-name="Trazado 113217" d="M79.76,158.578c-1.05,4.214-5.635,6.7-10.245,5.552s-7.491-5.494-6.441-9.713S76.6,135.729,76.6,135.729,80.814,154.363,79.76,158.578Z" transform="translate(-37.331 -8.852)" fill="#7daeff"/>
                  <path id="Trazado_113218" data-name="Trazado 113218" d="M95.192,144.319c.317,4.336-3.267,8.131-8,8.477s-8.834-2.886-9.156-7.217,7.012-21.98,7.012-21.98S94.874,139.987,95.192,144.319Z" transform="translate(21.575 -55.956)" fill="#7daeff"/>
                  <path id="Trazado_113219" data-name="Trazado 113219" d="M89.325,148.98c-2.051,5.171-8.292,7.554-13.947,5.313s-8.58-8.243-6.534-13.414,20.319-21.437,20.319-21.437S91.371,143.8,89.325,148.98Z" transform="translate(-16.616 -72.103)" fill="#7daeff"/>
                  <path id="Trazado_113220" data-name="Trazado 113220" d="M92.081,157.653c.02,5.562-4.893,10.089-10.973,10.113s-11.026-4.473-11.046-10.035,10.914-27.449,10.914-27.449S92.061,152.091,92.081,157.653Z" transform="translate(-9.355 -30.005)" fill="#7daeff"/>
                </g>
                <g id="Grupo_112093" data-name="Grupo 112093" transform="translate(137.31)">
                  <path id="Trazado_113221" data-name="Trazado 113221" d="M106.029,155.7c2.051,5.171,8.292,7.554,13.947,5.318s8.58-8.248,6.534-13.419-20.324-21.437-20.324-21.437S103.983,150.525,106.029,155.7Z" transform="translate(-10.376 -46.003)" fill="#7daeff"/>
                  <path id="Trazado_113222" data-name="Trazado 113222" d="M111.553,138.151c2.779,3.34,7.989,3.589,11.642.552s4.366-8.2,1.587-11.549-20.295-10.963-20.295-10.963S108.779,134.806,111.553,138.151Z" transform="translate(-12.985 -84.723)" fill="#7daeff"/>
                  <path id="Trazado_113223" data-name="Trazado 113223" d="M92.133,132.762c1.338,4.131,6.089,6.295,10.606,4.83s7.09-6.006,5.748-10.138S93.7,109.747,93.7,109.747,90.79,128.631,92.133,132.762Z" transform="translate(-62.335 -109.747)" fill="#7daeff"/>
                  <path id="Trazado_113224" data-name="Trazado 113224" d="M85.769,144.319c-.317,4.336,3.267,8.131,8,8.477s8.834-2.886,9.151-7.217-7.012-21.98-7.012-21.98S86.086,139.987,85.769,144.319Z" transform="translate(-85.749 -55.956)" fill="#7daeff"/>
                  <path id="Trazado_113225" data-name="Trazado 113225" d="M95.468,148.98c2.046,5.171,8.292,7.554,13.947,5.313s8.575-8.243,6.529-13.414-20.319-21.437-20.319-21.437S93.422,143.8,95.468,148.98Z" transform="translate(-51.387 -72.103)" fill="#7daeff"/>
                  <path id="Trazado_113226" data-name="Trazado 113226" d="M92.724,157.653c-.019,5.562,4.893,10.089,10.978,10.113s11.026-4.473,11.046-10.035-10.914-27.449-10.914-27.449S92.744,152.091,92.724,157.653Z" transform="translate(-58.663 -30.005)" fill="#7daeff"/>
                  <path id="Trazado_113227" data-name="Trazado 113227" d="M119.717,149.85c2.212,3.74.689,8.731-3.4,11.153s-9.19,1.348-11.4-2.393-3.5-22.8-3.5-22.8S117.505,146.115,119.717,149.85Z" transform="translate(-24.914 -8.553)" fill="#7daeff"/>
                </g>
                <path id="Trazado_113228" data-name="Trazado 113228" d="M79.765,147.39c-.278,7.711,6.329,14.2,14.752,14.5s15.48-5.7,15.753-13.414-13.9-38.514-13.9-38.514S80.038,139.684,79.765,147.39Z" transform="translate(28.29 -108.9)" fill="#7daeff"/>
              </g>
            </g>
          </g>
        </g>
      </g>
    </g>
    <g id="Grupo_118942" data-name="Grupo 118942">
      <circle id="Elipse_4174" data-name="Elipse 4174" cx="39" cy="39" r="39" transform="translate(230 6188)" fill="#ffce26"/>
      <path id="Trazado_146934" data-name="Trazado 146934" d="M4.509,0H-1.763V-19.965l-6.16,1.8v-4.75l11.856-4.1h.575Z" transform="translate(269 6240)" fill="#12263f"/>
    </g>
  </g>
</svg>
