<svg xmlns="http://www.w3.org/2000/svg" xmlns:xlink="http://www.w3.org/1999/xlink" width="435" height="435.005" viewBox="0 0 435 435.005">
  <defs>
    <clipPath id="clip-path">
      <ellipse id="Elipse_4181" data-name="Elipse 4181" cx="217.503" cy="217.5" rx="217.503" ry="217.5" transform="translate(0 435.005) rotate(-90)" fill="none"/>
    </clipPath>
  </defs>
  <g id="Grupo_125920" data-name="Grupo 125920" transform="translate(1894 5536)">
    <g id="Grupo_119010" data-name="Grupo 119010" transform="translate(-2303.166 -5670.374)">
      <g id="Grupo_119009" data-name="Grupo 119009" transform="translate(409.166 134.374)">
        <g id="Grupo_119008" data-name="Grupo 119008" transform="translate(0)">
          <ellipse id="Elipse_4180" data-name="Elipse 4180" cx="217.503" cy="217.5" rx="217.503" ry="217.5" transform="translate(0 435.005) rotate(-90)" fill="#766abd"/>
          <g id="Grupo_118989" data-name="Grupo 118989" transform="translate(26.266 158.806)" style="isolation: isolate">
            <g id="Grupo_118985" data-name="Grupo 118985" transform="translate(0 15.568)">
              <g id="Grupo_118983" data-name="Grupo 118983">
                <path id="Trazado_143776" data-name="Trazado 143776" d="M399.474,149.12a1.829,1.829,0,0,1-1.59-.914l-4.659-8.026-6.585,6.013a1.836,1.836,0,1,1-2.477-2.712l8.271-7.548a1.834,1.834,0,0,1,2.823.436l5.8,10a1.831,1.831,0,0,1-1.583,2.754Z" transform="translate(-383.567 -135.455)" fill="#ffce26"/>
              </g>
              <g id="Grupo_118984" data-name="Grupo 118984" transform="translate(7.081 4.497)">
                <path id="Trazado_143777" data-name="Trazado 143777" d="M397.077,187.75a1.851,1.851,0,0,1-1.368-.61c-14.118-15.726-9.377-47.492-9.165-48.836a1.835,1.835,0,0,1,3.627.561c-.048.315-4.687,31.4,8.272,45.823a1.832,1.832,0,0,1-.142,2.591A1.813,1.813,0,0,1,397.077,187.75Z" transform="translate(-385.611 -136.753)" fill="#ffce26"/>
              </g>
            </g>
            <g id="Grupo_118988" data-name="Grupo 118988" transform="translate(25.533)">
              <g id="Grupo_118986" data-name="Grupo 118986" transform="translate(2.64 41.823)">
                <path id="Trazado_143778" data-name="Trazado 143778" d="M399.331,156.7a1.986,1.986,0,0,1-.281-.021,1.844,1.844,0,0,1-1.306-.894l-5.8-10a1.835,1.835,0,0,1,3.173-1.843l4.659,8.029,6.592-6.013a1.834,1.834,0,1,1,2.473,2.709l-8.271,7.548A1.845,1.845,0,0,1,399.331,156.7Z" transform="translate(-391.7 -143.035)" fill="#ffce26"/>
              </g>
              <g id="Grupo_118987" data-name="Grupo 118987">
                <path id="Trazado_143779" data-name="Trazado 143779" d="M401.493,181.96a2.007,2.007,0,0,1-.284-.024,1.832,1.832,0,0,1-1.531-2.092c.048-.315,4.683-31.4-8.272-45.823a1.836,1.836,0,0,1,2.733-2.452c14.115,15.722,9.373,47.492,9.165,48.836A1.839,1.839,0,0,1,401.493,181.96Z" transform="translate(-390.938 -130.96)" fill="#ffce26"/>
              </g>
            </g>
          </g>
          <g id="Grupo_119007" data-name="Grupo 119007" transform="translate(0 0)">
            <g id="Grupo_119006" data-name="Grupo 119006" clip-path="url(#clip-path)">
              <g id="Grupo_119005" data-name="Grupo 119005" transform="translate(110.168 76.527)">
                <g id="Grupo_118996" data-name="Grupo 118996" transform="translate(36.562)">
                  <path id="Trazado_143780" data-name="Trazado 143780" d="M405.916,482.222l89.075,14.628s31.6-127.258,38.334-134.773,28.2-15.844,39.054-40.781c3.98-9.138,14.52-23.133,24.363-35.192,1.392-1.711,2.77-3.368,4.1-4.971,6.721-8.039,12.6-14.638,15.039-17.349l.025-.029a1.853,1.853,0,0,0-.118-2.593c-3.142-2.779-11.642-8.731-22.608-3.789-13.951,6.28-22.1,13.687-26.142,19.344,0,0-13.721,16.6-18.839,14.515-6.7-2.74-2.6-23.721-2.6-23.721,3.672-33.947,7.785-70.968,8.6-97.238.113-3.632.211-7.378-.98-10.76s-4.029-6.363-7.363-6.363c-4.863-.015-7.858,5.657-9.628,10.589-6.775,18.951-17.873,79.757-21.77,77.767-4.314-2.3,10.6-74.443,9.686-108.258-.128-4.417-3.735-15.633-10.716-16.4-9.838-1.088-13.569,17.1-14.907,23.123-6.481,29.094-15.412,97.233-19.608,96.62-4.25-.618,1.691-60.693,2.446-86.394.132-4.49.245-9.133-1.191-13.348s-4.843-7.966-8.976-8.182c-3.848-.2-7.392,2.711-9.363,6.314s-2.686,7.848-3.358,11.981c-4.059,24.79-9.471,90.189-14.78,88.1-5.088-2.02-7.578-37.717-12.284-56.315-1.353-5.358-6.662-13.942-11.579-12.623-3.843,1.029-6.839,7.525-7.01,14.236-.363,13.785,7.2,57.247,6.75,71.041-1.627,50.08-2.873,64.477,14.946,110.62Z" transform="translate(-405.916 -116.802)" fill="#ffaf9f"/>
                  <g id="Grupo_118990" data-name="Grupo 118990" transform="translate(19.564 126.934)" opacity="0.5" style="mix-blend-mode: multiply;isolation: isolate">
                    <path id="Trazado_143781" data-name="Trazado 143781" d="M448.264,146.74c.157-.613-6.167,3.074-10.025,2.868-.186-.01-.338-.01-.574-.02-3.539-.191-9.186-4.329-9.093-3.716a10.161,10.161,0,0,0,2.275,5.074,9.909,9.909,0,0,0,6.814,3.216l.554.029a10.61,10.61,0,0,0,7.417-2.613A10,10,0,0,0,448.264,146.74Z" transform="translate(-337.076 -130.545)" fill="#ffb1a7"/>
                    <path id="Trazado_143782" data-name="Trazado 143782" d="M441.862,147.2c.206-.6-6.4,2.456-10.221,1.878-.181-.029-.333-.044-.569-.083-3.51-.534-8.789-5.206-8.745-4.593a10.311,10.311,0,0,0,1.843,5.28,10.084,10.084,0,0,0,6.52,3.873l.549.083a10.474,10.474,0,0,0,7.6-1.873A9.83,9.83,0,0,0,441.862,147.2Z" transform="translate(-361.444 -136.252)" fill="#ffb1a7"/>
                    <path id="Trazado_143783" data-name="Trazado 143783" d="M435.1,145.9c.2-.6-6.4,2.456-10.221,1.878-.181-.029-.338-.049-.569-.083-3.51-.534-8.789-5.211-8.75-4.593a10.365,10.365,0,0,0,1.848,5.28,10.061,10.061,0,0,0,6.52,3.873l.549.083a10.5,10.5,0,0,0,7.6-1.873A9.878,9.878,0,0,0,435.1,145.9Z" transform="translate(-387.857 -141.349)" fill="#ffb1a7"/>
                    <path id="Trazado_143784" data-name="Trazado 143784" d="M426.452,145.112c.171-.51-5.417,2.083-8.657,1.588-.152-.025-.284-.039-.48-.069-2.971-.456-7.441-4.412-7.407-3.887a8.7,8.7,0,0,0,1.564,4.466,8.518,8.518,0,0,0,5.52,3.279l.466.074a8.889,8.889,0,0,0,6.432-1.588A8.376,8.376,0,0,0,426.452,145.112Z" transform="translate(-409.907 -142.696)" fill="#ffb1a7"/>
                  </g>
                  <g id="Grupo_118991" data-name="Grupo 118991" transform="translate(97.16 5.386)">
                    <path id="Trazado_143785" data-name="Trazado 143785" d="M425.76,131.386a1.839,1.839,0,0,0,1.515,2.142l.049,0,13.922,1.672h0a1.772,1.772,0,0,0,1.912-1.726c.373-5.554.147-14.76-6.8-15.53C429.808,117.224,426.759,124.749,425.76,131.386Z" transform="translate(-425.736 -117.901)" fill="#ffb1a7" opacity="0.4" style="mix-blend-mode: multiply;isolation: isolate"/>
                    <path id="Trazado_143786" data-name="Trazado 143786" d="M426.06,123.45l13.922,1.672c-.667-2.294-3.309-4.206-6.628-4.574C430.1,120.185,427.2,121.425,426.06,123.45Z" transform="translate(-424.473 -107.818)" fill="#fff" opacity="0.5"/>
                  </g>
                  <g id="Grupo_118992" data-name="Grupo 118992" transform="translate(185.6 145.08)">
                    <path id="Trazado_143787" data-name="Trazado 143787" d="M444.867,162.3l.069.049,6.328,5.52c1.211-1.5,2.451-2.912,3.618-4.314,5.863-7.015,11.152-12.843,13.28-15.211-8.172-5.554-17.549,1.76-23.736,9.642A3.172,3.172,0,0,0,444.867,162.3Z" transform="translate(-443.778 -146.398)" fill="#ffb1a7" opacity="0.4" style="mix-blend-mode: multiply;isolation: isolate"/>
                    <path id="Trazado_143788" data-name="Trazado 143788" d="M444.014,150.347l6.333,5.525c1.216-1.49,2.525-3.02,3.691-4.417C450.4,149.259,446.607,148.887,444.014,150.347Z" transform="translate(-442.856 -134.396)" fill="#fff" opacity="0.5"/>
                  </g>
                  <g id="Grupo_118993" data-name="Grupo 118993" transform="translate(54.935 15.263)">
                    <path id="Trazado_143789" data-name="Trazado 143789" d="M417.145,133.4a1.848,1.848,0,0,0,1.515,2.147l.054,0,13.922,1.672h0a1.775,1.775,0,0,0,1.912-1.726c.372-5.554.147-14.76-6.8-15.53C421.193,119.239,418.149,126.764,417.145,133.4Z" transform="translate(-417.122 -119.916)" fill="#ffb1a7" opacity="0.4" style="mix-blend-mode: multiply;isolation: isolate"/>
                    <path id="Trazado_143790" data-name="Trazado 143790" d="M417.447,125.468l13.922,1.672c-.667-2.294-3.314-4.211-6.627-4.579C421.486,122.2,418.584,123.438,417.447,125.468Z" transform="translate(-415.857 -109.835)" fill="#fff" opacity="0.5"/>
                  </g>
                  <g id="Grupo_118994" data-name="Grupo 118994" transform="translate(10.225 51.945)">
                    <path id="Trazado_143791" data-name="Trazado 143791" d="M408.145,138.483a1.25,1.25,0,0,0,1.392,1.147l.034-.01,9.584-1.544h0a1.257,1.257,0,0,0,.971-1.52c-.74-3.789-2.529-9.9-7.3-9.084C408.326,128.242,407.635,133.855,408.145,138.483Z" transform="translate(-408.002 -127.399)" fill="#ffb1a7" opacity="0.4" style="mix-blend-mode: multiply;isolation: isolate"/>
                    <path id="Trazado_143792" data-name="Trazado 143792" d="M408.322,132.626l9.583-1.544c-.853-1.407-2.956-2.181-5.231-1.789C410.44,129.67,408.724,131.058,408.322,132.626Z" transform="translate(-406.752 -120.405)" fill="#fff" opacity="0.5"/>
                  </g>
                  <g id="Grupo_118995" data-name="Grupo 118995" transform="translate(132.169 40.516)">
                    <path id="Trazado_143793" data-name="Trazado 143793" d="M432.888,136.2a1.46,1.46,0,0,0,1.279,1.652h.039l11.147.784h0a1.421,1.421,0,0,0,1.466-1.446c.113-4.441-.372-11.765-5.931-12.108C435.643,124.761,433.466,130.874,432.888,136.2Z" transform="translate(-432.878 -125.068)" fill="#ffb1a7" opacity="0.4" style="mix-blend-mode: multiply;isolation: isolate"/>
                    <path id="Trazado_143794" data-name="Trazado 143794" d="M433.149,129.756l11.147.784c-.608-1.8-2.779-3.221-5.431-3.382C436.262,127,433.992,128.1,433.149,129.756Z" transform="translate(-431.821 -116.974)" fill="#fff" opacity="0.5"/>
                  </g>
                </g>
                <g id="Grupo_118997" data-name="Grupo 118997" transform="translate(27.022 7.422)">
                  <path id="Trazado_143795" data-name="Trazado 143795" d="M452.2,145.882c-1.931-1.6-4.858-1.27-6.917,1.593-2.5,3.485-.941,9.221,3.927,8.672C453.8,155.627,455.77,148.838,452.2,145.882Z" transform="translate(-247.364 -14.479)" fill="#fff"/>
                  <path id="Trazado_143796" data-name="Trazado 143796" d="M443.586,129.458c-1.931-1.6-4.858-1.27-6.922,1.593-2.505,3.485-.936,9.221,3.931,8.672C445.179,139.2,447.155,132.414,443.586,129.458Z" transform="translate(-280.994 -78.567)" fill="#fff"/>
                  <path id="Trazado_143797" data-name="Trazado 143797" d="M418.657,120.565c-2.99.9-4.667,4.162-3.118,8.27,1.882,5.005,8.917,7.334,11.7,1.907C429.863,125.629,424.181,118.9,418.657,120.565Z" transform="translate(-361.12 -110.548)" fill="#fff"/>
                  <path id="Trazado_143798" data-name="Trazado 143798" d="M447.034,118.319A9.1,9.1,0,0,1,456,127.01c1.211-6.054,9.593-9.245,14.52-5.525s4.162,12.652-1.329,15.481a9.744,9.744,0,0,1,12.579,3.951,10.481,10.481,0,0,1-3.108,13.025,11.342,11.342,0,0,1-13.554-.676c1.186,5.549,2.074,11.927-1.426,16.393a9.965,9.965,0,1,1-14.819-13.265,19.655,19.655,0,0,1-10.128,2.245,8.649,8.649,0,0,1-5.059-1.6c-2.265-1.828-2.7-5.343-1.451-7.976a10.741,10.741,0,0,1,6.657-5.284c-3.647-.314-7.485-.691-10.485-2.789s-4.7-6.534-2.6-9.535c1.48-2.118,4.377-2.858,6.936-2.476a20.809,20.809,0,0,1,6.922,2.829C435,126.824,441.117,118.461,447.034,118.319Z" transform="translate(-322.448 -118.317)" fill="#fff"/>
                  <path id="Trazado_143799" data-name="Trazado 143799" d="M450.988,131a6.091,6.091,0,0,1-3.794,7.441c4.108-.417,7.789,4.319,6.377,8.2s-7.275,5.142-10.157,2.181a6.522,6.522,0,0,1-.059,8.824,7.009,7.009,0,0,1-8.937.564,7.575,7.575,0,0,1-2.225-8.8c-3.319,1.848-7.221,3.667-10.765,2.3a6.666,6.666,0,1,1,5.578-12.079,13.108,13.108,0,0,1-3.427-6.034,5.81,5.81,0,0,1,.034-3.549,4.513,4.513,0,0,1,4.814-2.49,7.172,7.172,0,0,1,4.686,3.221c-.515-2.4-1.024-4.922-.274-7.255s3.255-4.284,5.583-3.534a4.791,4.791,0,0,1,2.946,3.951,13.919,13.919,0,0,1-.451,4.98C443.194,124.977,449.738,127.242,450.988,131Z" transform="translate(-352.236 -112.416)" fill="#fff"/>
                  <path id="Trazado_143800" data-name="Trazado 143800" d="M427.7,125.772a8.206,8.206,0,0,1,8.079,7.829c1.093-5.451,8.642-8.324,13.079-4.971s3.75,11.4-1.2,13.942a8.779,8.779,0,0,1,11.333,3.564,9.443,9.443,0,0,1-2.8,11.726,10.215,10.215,0,0,1-12.211-.608c1.064,5,1.868,10.745-1.289,14.77a8.977,8.977,0,1,1-13.348-11.951,17.656,17.656,0,0,1-9.123,2.02,7.814,7.814,0,0,1-4.559-1.441,6.087,6.087,0,0,1-1.3-7.187,9.677,9.677,0,0,1,6-4.76c-3.284-.279-6.74-.623-9.446-2.51s-4.235-5.887-2.343-8.588c1.334-1.912,3.941-2.579,6.25-2.23a18.659,18.659,0,0,1,6.235,2.549C416.863,133.434,422.368,125.9,427.7,125.772Z" transform="translate(-389.322 -89.23)" fill="#fff"/>
                  <path id="Trazado_143801" data-name="Trazado 143801" d="M450.627,145.45a8.2,8.2,0,0,1,8.079,7.829c1.088-5.456,8.637-8.329,13.078-4.976s3.75,11.4-1.2,13.942a8.792,8.792,0,0,1,11.339,3.564,9.446,9.446,0,0,1-2.8,11.731,10.216,10.216,0,0,1-12.211-.613c1.068,5,1.872,10.75-1.284,14.77a8.977,8.977,0,1,1-13.348-11.951,17.671,17.671,0,0,1-9.123,2.025,7.836,7.836,0,0,1-4.559-1.441,6.089,6.089,0,0,1-1.3-7.186,9.664,9.664,0,0,1,6-4.76c-3.289-.284-6.745-.627-9.446-2.515s-4.235-5.883-2.348-8.589c1.338-1.912,3.946-2.574,6.25-2.23a18.848,18.848,0,0,1,6.24,2.549C439.793,153.112,445.3,145.577,450.627,145.45Z" transform="translate(-299.854 -12.449)" fill="#fff"/>
                  <path id="Trazado_143802" data-name="Trazado 143802" d="M423.942,144.008a8.2,8.2,0,0,1,8.083,7.829c1.088-5.456,8.637-8.329,13.078-4.98s3.745,11.4-1.2,13.946a8.779,8.779,0,0,1,11.334,3.564,9.442,9.442,0,0,1-2.8,11.726,10.215,10.215,0,0,1-12.211-.608c1.069,5,1.868,10.745-1.289,14.77A8.975,8.975,0,1,1,425.594,178.3a17.685,17.685,0,0,1-9.128,2.02,7.752,7.752,0,0,1-4.554-1.441,6.08,6.08,0,0,1-1.309-7.186,9.682,9.682,0,0,1,6-4.755c-3.284-.284-6.74-.627-9.446-2.515s-4.235-5.887-2.343-8.588c1.333-1.912,3.946-2.579,6.25-2.23a18.761,18.761,0,0,1,6.235,2.549C413.108,151.67,418.613,144.135,423.942,144.008Z" transform="translate(-403.97 -18.076)" fill="#fff"/>
                </g>
                <g id="Grupo_119004" data-name="Grupo 119004" transform="translate(0 0.691)">
                  <path id="Trazado_143803" data-name="Trazado 143803" d="M591.149,486.069l-89.614,10.853s-17.887-128-24.3-135.788c-6.417-7.809-27.51-17.025-37.3-42.4-3.588-9.294-13.53-23.726-22.853-36.187-1.318-1.77-2.623-3.48-3.887-5.142-6.378-8.314-11.971-15.157-14.294-17.971l-.025-.025a1.862,1.862,0,0,1,.23-2.593c3.255-2.642,12-8.226,22.745-2.829,13.672,6.868,21.505,14.608,25.3,20.432,0,0,13.005,17.162,18.206,15.3,6.814-2.456,3.6-23.594,3.6-23.594-2.235-34.07-4.784-71.227-4.49-97.512.044-3.632.1-7.378,1.436-10.706s4.294-6.186,7.628-6.049c4.858.191,7.613,5.981,9.167,10.986,5.971,19.226,14.5,80.443,18.466,78.615,4.407-2.118-7.441-74.821-5.1-108.567.314-4.407,4.392-15.461,11.4-15.932,9.878-.672,12.838,17.657,13.922,23.736,5.245,29.339,11.289,97.8,15.51,97.36,4.27-.441.873-60.712,1.206-86.419.054-4.5.137-9.138,1.75-13.29s5.172-7.755,9.314-7.794c3.853-.034,7.275,3.02,9.088,6.7s2.353,7.956,2.848,12.113c3.005,24.937,5.652,90.507,11.044,88.645,5.167-1.8,9.167-37.364,14.657-55.751,1.578-5.294,7.24-13.647,12.1-12.118,3.794,1.186,6.515,7.8,6.4,14.52-.221,13.785-9.613,56.889-9.745,70.693-.49,50.1.147,64.541-19.608,109.89Z" transform="translate(-398.457 -116.943)" fill="#ffc0b1"/>
                  <g id="Grupo_118998" data-name="Grupo 118998" transform="translate(79.747 130.507)" opacity="0.5" style="mix-blend-mode: multiply;isolation: isolate">
                    <path id="Trazado_143804" data-name="Trazado 143804" d="M414.727,145.988c-.123-.623,6.034,3.333,9.9,3.289.186,0,.338,0,.574,0,3.549-.039,9.363-3.932,9.245-3.324a10.19,10.19,0,0,1-2.485,4.971,9.921,9.921,0,0,1-6.946,2.927l-.559,0a10.632,10.632,0,0,1-7.3-2.922A10.075,10.075,0,0,1,414.727,145.988Z" transform="translate(-414.726 -134.502)" fill="#ffb1a7"/>
                    <path id="Trazado_143805" data-name="Trazado 143805" d="M421.046,146.72c-.177-.608,6.289,2.726,10.132,2.3.186-.02.338-.029.574-.054,3.53-.387,9-4.833,8.932-4.221a10.336,10.336,0,0,1-2.064,5.2,10.069,10.069,0,0,1-6.676,3.593l-.554.059a10.485,10.485,0,0,1-7.515-2.191A9.841,9.841,0,0,1,421.046,146.72Z" transform="translate(-390.078 -139.175)" fill="#ffb1a7"/>
                    <path id="Trazado_143806" data-name="Trazado 143806" d="M427.863,145.7c-.176-.608,6.289,2.726,10.133,2.3.186-.02.338-.029.574-.054,3.529-.387,9-4.833,8.936-4.221a10.341,10.341,0,0,1-2.069,5.2,10.059,10.059,0,0,1-6.677,3.593l-.554.059a10.492,10.492,0,0,1-7.515-2.191A9.881,9.881,0,0,1,427.863,145.7Z" transform="translate(-363.478 -143.151)" fill="#ffb1a7"/>
                    <path id="Trazado_143807" data-name="Trazado 143807" d="M434.138,145.282c-.152-.515,5.324,2.309,8.579,1.951.152-.02.284-.024.485-.049,2.985-.323,7.623-4.088,7.564-3.569a8.761,8.761,0,0,1-1.75,4.4,8.534,8.534,0,0,1-5.652,3.044l-.471.049a8.873,8.873,0,0,1-6.363-1.858A8.322,8.322,0,0,1,434.138,145.282Z" transform="translate(-338.988 -143.566)" fill="#ffb1a7"/>
                  </g>
                  <g id="Grupo_118999" data-name="Grupo 118999" transform="translate(101.052 5.372)">
                    <path id="Trazado_143808" data-name="Trazado 143808" d="M436.564,131.926a1.843,1.843,0,0,1-1.6,2.078l-.054,0-13.98,1.078h0a1.768,1.768,0,0,1-1.838-1.8c-.137-5.569.48-14.755,7.451-15.231C433.117,117.612,435.838,125.254,436.564,131.926Z" transform="translate(-419.072 -118.039)" fill="#ffb1a7" opacity="0.4" style="mix-blend-mode: multiply;isolation: isolate"/>
                    <path id="Trazado_143809" data-name="Trazado 143809" d="M433.431,123.871l-13.98,1.078c.765-2.26,3.485-4.059,6.814-4.289C429.529,120.44,432.377,121.8,433.431,123.871Z" transform="translate(-417.596 -107.901)" fill="#fff" opacity="0.5"/>
                  </g>
                  <g id="Grupo_119000" data-name="Grupo 119000" transform="translate(0.424 140.845)">
                    <path id="Trazado_143810" data-name="Trazado 143810" d="M421.231,162.293l-.069.049-6.554,5.245c-1.152-1.544-2.328-3.01-3.436-4.461-5.559-7.255-10.6-13.3-12.628-15.755,8.4-5.206,17.461,2.5,23.309,10.633A3.167,3.167,0,0,1,421.231,162.293Z" transform="translate(-398.544 -145.675)" fill="#ffb1a7" opacity="0.4" style="mix-blend-mode: multiply;isolation: isolate"/>
                    <path id="Trazado_143811" data-name="Trazado 143811" d="M411.169,149.9l-6.564,5.25c-1.147-1.539-2.4-3.118-3.5-4.569C404.83,148.543,408.639,148.327,411.169,149.9Z" transform="translate(-388.551 -133.229)" fill="#fff" opacity="0.5"/>
                  </g>
                  <g id="Grupo_119001" data-name="Grupo 119001" transform="translate(142.822 17.024)">
                    <path id="Trazado_143812" data-name="Trazado 143812" d="M445.079,134.3a1.836,1.836,0,0,1-1.6,2.078l-.054,0-13.976,1.078h0a1.768,1.768,0,0,1-1.838-1.8c-.137-5.569.475-14.755,7.446-15.231C441.633,119.984,444.359,127.631,445.079,134.3Z" transform="translate(-427.593 -120.416)" fill="#ffb1a7" opacity="0.4" style="mix-blend-mode: multiply;isolation: isolate"/>
                    <path id="Trazado_143813" data-name="Trazado 143813" d="M441.947,126.249l-13.976,1.078c.76-2.26,3.485-4.064,6.814-4.289C438.05,122.817,440.9,124.175,441.947,126.249Z" transform="translate(-426.117 -110.278)" fill="#fff" opacity="0.5"/>
                  </g>
                  <g id="Grupo_119002" data-name="Grupo 119002" transform="translate(191.486 55.738)">
                    <path id="Trazado_143814" data-name="Trazado 143814" d="M449.446,139.624a1.245,1.245,0,0,1-1.436,1.083l-.039,0-9.51-1.951h0a1.258,1.258,0,0,1-.9-1.559c.9-3.755,2.946-9.785,7.676-8.765C449.7,129.384,450.152,135.021,449.446,139.624Z" transform="translate(-437.52 -128.314)" fill="#ffb1a7" opacity="0.4" style="mix-blend-mode: multiply;isolation: isolate"/>
                    <path id="Trazado_143815" data-name="Trazado 143815" d="M447.222,133.766l-9.51-1.951c.912-1.368,3.049-2.054,5.309-1.569C445.237,130.722,446.893,132.178,447.222,133.766Z" transform="translate(-436.771 -121.377)" fill="#fff" opacity="0.5"/>
                  </g>
                  <g id="Grupo_119003" data-name="Grupo 119003" transform="translate(68.229 39.086)">
                    <path id="Trazado_143816" data-name="Trazado 143816" d="M426.337,136.359a1.456,1.456,0,0,1-1.343,1.6h-.044l-11.167.309h0a1.423,1.423,0,0,1-1.407-1.5c.074-4.441.868-11.74,6.436-11.843C424.067,124.82,425.984,131.016,426.337,136.359Z" transform="translate(-412.376 -124.917)" fill="#ffb1a7" opacity="0.4" style="mix-blend-mode: multiply;isolation: isolate"/>
                    <path id="Trazado_143817" data-name="Trazado 143817" d="M423.83,129.837l-11.167.309c.681-1.77,2.907-3.1,5.569-3.147C420.84,126.95,423.06,128.141,423.83,129.837Z" transform="translate(-411.256 -116.797)" fill="#fff" opacity="0.5"/>
                  </g>
                </g>
              </g>
            </g>
          </g>
        </g>
      </g>
    </g>
    <g id="Grupo_118947" data-name="Grupo 118947" transform="translate(-2109 -11700)">
      <circle id="Elipse_4174" data-name="Elipse 4174" cx="39" cy="39" r="39" transform="translate(230 6188)" fill="#ffce26"/>
      <path id="Trazado_146937" data-name="Trazado 146937" d="M7.162-10.558H9.908v4.824H7.162V0H.909V-5.733H-9.537l-.371-3.822L.909-26.96v-.056H7.162Zm-11.114,0H.909V-18.87l-.39.631Z" transform="translate(269 6240)" fill="#12263f"/>
    </g>
  </g>
</svg>
