<svg xmlns="http://www.w3.org/2000/svg" xmlns:xlink="http://www.w3.org/1999/xlink" width="435" height="435" viewBox="0 0 435 435">
  <defs>
    <clipPath id="clip-path">
      <circle id="Elipse_4189" data-name="Elipse 4189" cx="217.5" cy="217.5" r="217.5" fill="none"/>
    </clipPath>
  </defs>
  <g id="Grupo_125924" data-name="Grupo 125924" transform="translate(-244 5536)">
    <g id="Grupo_119106" data-name="Grupo 119106" transform="translate(-196.1 -5825.022)">
      <g id="Grupo_119105" data-name="Grupo 119105" transform="translate(440.1 289.022)" clip-path="url(#clip-path)">
        <g id="Grupo_119104" data-name="Grupo 119104">
          <g id="Grupo_119103" data-name="Grupo 119103">
            <g id="Grupo_119099" data-name="Grupo 119099">
              <circle id="Elipse_4188" data-name="Elipse 4188" cx="217.5" cy="217.5" r="217.5" fill="#766abd"/>
              <g id="Grupo_119098" data-name="Grupo 119098" transform="translate(7.114 44.218)">
                <g id="Grupo_119097" data-name="Grupo 119097">
                  <g id="Grupo_119087" data-name="Grupo 119087">
                    <g id="Grupo_119086" data-name="Grupo 119086">
                      <g id="Grupo_119084" data-name="Grupo 119084">
                        <path id="Trazado_143889" data-name="Trazado 143889" d="M467.4,618.914l-89.305-75.879S498.823,394.474,499.333,384.312c.52-10.182-9-32.265.975-57.1,3.652-9.1,6.049-26.486,7.564-42.054.216-2.2.407-4.358.593-6.451.892-10.5,1.373-19.392,1.549-23.074v-.034a1.7,1.7,0,0,1,1.936-1.623c4.24.6,14.6,3.255,18.971,15,5.559,14.932,6.147,26.123,5.02,32.976,0,0-1.961,21.559,3.206,24.147,6.775,3.378,18.785-13.633,18.785-13.633,21.559-25.221,45-52.81,63.148-70.761,2.5-2.48,5.1-5.029,8.378-6.333s7.432-1.078,9.834,1.5c3.51,3.76,1.622,9.814-.623,14.432-8.642,17.74-44.006,66.418-39.785,68.114,4.745,1.819,45.457-57.275,70.222-78.864,3.24-2.814,13.833-7.417,19.407-2.525,7.853,6.892-2.431,21.775-5.765,26.78-16.083,24.2-58.241,76.035-54.78,78.874,3.5,2.882,42.059-41.324,59.839-58.849,3.108-3.069,6.333-6.216,10.378-7.882s9.162-1.51,12.289,1.544c2.912,2.853,3.392,7.51,2.24,11.412s-3.667,7.25-6.128,10.5c-14.76,19.481-57.5,66.79-52.182,69.516,5.1,2.6,29.314-22.476,44.687-33.074,4.427-3.054,14.02-5.775,17.118-1.392,2.422,3.427.755,10.338-3.3,15.456-8.324,10.515-20.863,20.873-30.378,30.314-34.535,34.28-66.329,62.869-112.051,79.5Z" transform="translate(-378.091 -234.583)" fill="#ffaf9f"/>
                      </g>
                      <g id="Grupo_119085" data-name="Grupo 119085" transform="translate(143.919 99.092)" opacity="0.6" style="mix-blend-mode: multiply;isolation: isolate">
                        <path id="Trazado_143890" data-name="Trazado 143890" d="M426.947,255.373a119.916,119.916,0,0,1,2.216,41.456c-2.093,16.652-17.731,46.672-17.731,46.672s21.711-26,26.319-42.751C444.256,277.094,426.947,255.373,426.947,255.373Z" transform="translate(-391.912 -252.549)" fill="#ffb1a7"/>
                        <path id="Trazado_143891" data-name="Trazado 143891" d="M415.611,254.8s30.5,23.451,40.138,34.167,24.7,31.613,24.7,31.613-34.408-29.079-40.986-37.113C430.763,272.832,415.611,254.8,415.611,254.8Z" transform="translate(-375.606 -254.797)" fill="#ffb1a7"/>
                        <path id="Trazado_143892" data-name="Trazado 143892" d="M459.318,297.238s-21.51.892-33.226-5.951c-13.25-7.74-18.642-15.172-18.642-15.172s8.034,17.907,22.853,22.819C447.127,304.512,459.318,297.238,459.318,297.238Z" transform="translate(-407.45 -171.613)" fill="#ffb1a7"/>
                      </g>
                    </g>
                  </g>
                  <g id="Grupo_119089" data-name="Grupo 119089" transform="translate(123.774 65.124)">
                    <path id="Trazado_143893" data-name="Trazado 143893" d="M411.677,265.414c-4.333-.392-8.2,2.951-8.333,9.074-.172,7.451,7.711,14.128,14.142,8.554C423.535,277.791,419.691,266.134,411.677,265.414Z" transform="translate(-403.34 -179.524)" fill="#fff"/>
                    <g id="Grupo_119088" data-name="Grupo 119088" transform="translate(39.692)">
                      <path id="Trazado_143894" data-name="Trazado 143894" d="M460.241,264.595c-2.294-4.373-8.279-4.314-13.878-2.358-8.044,2.809-8.853,16.049.476,18.741C455.623,283.516,464.481,272.673,460.241,264.595Z" transform="translate(-299.652 -196.774)" fill="#fff"/>
                      <path id="Trazado_143895" data-name="Trazado 143895" d="M441.239,253.741c.931-2.015-.025-4.436-2.961-5.529-3.574-1.328-8.152,1.343-6.559,5.368C433.224,257.369,439.519,257.472,441.239,253.741Z" transform="translate(-333.569 -247.868)" fill="#fff"/>
                      <path id="Trazado_143896" data-name="Trazado 143896" d="M428.968,251c-1.466-2.338-4.657-3.015-7.838-.74-3.868,2.77-4.26,9.309,1.054,10.422C427.189,261.734,431.669,255.327,428.968,251Z" transform="translate(-385.014 -243.983)" fill="#fff"/>
                      <path id="Trazado_143897" data-name="Trazado 143897" d="M480.23,361.5c3.9,11.78,21.7,10.716,27.868,6.461,10.559-7.279,9.912-17.471,5.745-29.853.123.088.255.157.382.24,6.113,5.064,15.387,6.412,22.324,2.456,7.078-4.039,10.593-13.691,6.99-20.927a16.646,16.646,0,0,0-9-7.917,14.355,14.355,0,0,0-3.642-2.324c10.726-2.368,18.608-14.505,15.2-24.844-5.6-16.961-21.4-8.819-32.7-6.25,5.255-4.833,7.427-12.976,4.534-19.451s-11.064-10.343-17.765-7.833c-7.686,2.877-10.588,11.672-11.157,20.1a16.925,16.925,0,0,0-15.093-14.319,13.125,13.125,0,0,0-8.417.113c-5.3,1.985-8.289,6.8-9.843,12.353a17.712,17.712,0,0,0-1,3.681,18.306,18.306,0,0,0-.123,2.26c-.069.6-.147,1.206-.186,1.814-.9-7.412-7.725-14.015-15.427-14.358-9.1-.407-17.613,7.226-18.932,16.182s4.078,18.216,12.186,22.314c-6.436.48-12.9,3.191-16.932,8.2s-5.167,12.471-1.887,17.966c3.059,5.128,9.27,7.745,15.28,8.059s11.931-1.324,17.736-2.941c-4.451,2.931-15.883,22.559-1.75,34.28C460.245,379.933,476.51,372.835,480.23,361.5Z" transform="translate(-411.438 -237.646)" fill="#fff"/>
                      <path id="Trazado_143898" data-name="Trazado 143898" d="M456.708,252.187c-2-3.8-7.2-3.755-12.069-2.054-7,2.441-7.7,13.956.417,16.3C452.693,268.638,460.395,259.211,456.708,252.187Z" transform="translate(-303.179 -243.352)" fill="#fff"/>
                    </g>
                    <path id="Trazado_143899" data-name="Trazado 143899" d="M439.034,300.928a9.484,9.484,0,0,1-13.593,1.863c1.265,4.48-3.142,8.765-7.662,9.883-3.073.755-6.706.461-8.858-1.863a8.082,8.082,0,0,1-1.451-7.49,19.737,19.737,0,0,1,3.887-6.882,11.456,11.456,0,0,1,7.53-21.5c3.23.76,6.392,4.054,5.059,7.1.922-3.074,9.726-6.069,13.525-.848C443.294,289.2,441.76,296.756,439.034,300.928Z" transform="translate(-397.33 -143.297)" fill="#fff"/>
                  </g>
                  <g id="Grupo_119096" data-name="Grupo 119096" transform="translate(135.933 60.058)">
                    <path id="Trazado_143900" data-name="Trazado 143900" d="M692.218,576.044l-80.305,53.736S530.26,491.131,521.137,486.818,489,483.151,469.322,464.376c-7.206-6.882-22.353-15.691-36.1-22.991-1.946-1.039-3.853-2.029-5.711-2.99-9.309-4.8-17.285-8.608-20.589-10.157l-.034-.02a1.863,1.863,0,0,1-.9-2.441c1.819-3.775,7.348-12.554,19.373-12.26,15.294.382,25.677,4.044,31.594,7.691,0,0,19.088,9.981,23,6.079,5.113-5.128-6.8-22.878-6.8-22.878-16.549-29.858-34.7-62.388-45.638-86.286-1.51-3.3-3.054-6.721-3.27-10.3s1.245-7.427,4.319-8.721c4.48-1.9,9.441,2.162,12.98,6.025,13.593,14.843,47.412,66.584,50.226,63.236,3.083-3.794-38.638-64.506-50.913-96.026-1.593-4.118-2.618-15.858,3.52-19.27,8.647-4.819,19.138,10.5,22.711,15.53,17.255,24.309,51.913,83.648,55.54,81.452,3.681-2.216-25.094-55.285-35.755-78.678-1.868-4.093-3.77-8.324-4.083-12.77s1.373-9.221,5.1-11.02c3.475-1.672,7.868-.372,11.083,2.186s5.52,6.191,7.74,9.74c13.353,21.275,43.707,79.457,47.79,75.472,3.9-3.838-7.647-37.707-10.52-56.677-.829-5.461.735-15.432,5.775-16.123,3.941-.539,9.221,4.284,11.985,10.4,5.677,12.569,15.559,55.56,21.329,68.1,20.922,45.525,27.652,58.315,29.123,107.752Z" transform="translate(-405.821 -246.834)" fill="#ffc0b1"/>
                    <g id="Grupo_119090" data-name="Grupo 119090" transform="translate(72.605 89.091)" opacity="0.5" style="mix-blend-mode: multiply;isolation: isolate">
                      <path id="Trazado_143901" data-name="Trazado 143901" d="M420.646,283.6c-.377-.51,6.882.441,10.353-1.245.167-.078.309-.137.524-.24,3.191-1.549,6.789-7.554,6.941-6.951a10.218,10.218,0,0,1-.127,5.559,9.911,9.911,0,0,1-5.039,5.608l-.5.24a10.616,10.616,0,0,1-7.848.47A10.066,10.066,0,0,1,420.646,283.6Z" transform="translate(-420.632 -225.559)" fill="#ffb1a7"/>
                      <path id="Trazado_143902" data-name="Trazado 143902" d="M426.02,281.539c-.417-.471,6.848-.216,10.147-2.235.157-.1.294-.172.5-.294,3.029-1.853,6.083-8.211,6.284-7.623a10.3,10.3,0,0,1,.343,5.578,10.069,10.069,0,0,1-4.505,6.1l-.475.289a10.5,10.5,0,0,1-7.73,1.221A9.873,9.873,0,0,1,426.02,281.539Z" transform="translate(-399.677 -240.271)" fill="#ffb1a7"/>
                      <path id="Trazado_143903" data-name="Trazado 143903" d="M431.752,277.714c-.417-.475,6.848-.216,10.147-2.235.157-.1.294-.172.5-.294,3.029-1.858,6.083-8.211,6.284-7.628a10.3,10.3,0,0,1,.343,5.579,10.069,10.069,0,0,1-4.5,6.1l-.476.289a10.478,10.478,0,0,1-7.73,1.221A9.86,9.86,0,0,1,431.752,277.714Z" transform="translate(-377.31 -255.211)" fill="#ffb1a7"/>
                      <path id="Trazado_143904" data-name="Trazado 143904" d="M437.353,273.639c-.353-.4,5.8-.181,8.593-1.892.137-.083.25-.147.422-.25,2.564-1.569,5.147-6.951,5.319-6.456a8.745,8.745,0,0,1,.294,4.725,8.554,8.554,0,0,1-3.819,5.162l-.4.245a8.9,8.9,0,0,1-6.544,1.034A8.4,8.4,0,0,1,437.353,273.639Z" transform="translate(-355.445 -265.008)" fill="#ffb1a7"/>
                    </g>
                    <g id="Grupo_119091" data-name="Grupo 119091" transform="translate(36.947 10.381)">
                      <path id="Trazado_143905" data-name="Trazado 143905" d="M431.785,258.144a1.84,1.84,0,0,1-.564,2.564l-.044.029-12.187,6.936h0a1.772,1.772,0,0,1-2.431-.848c-2.5-4.976-5.858-13.549.245-16.951C422.564,246.664,428.29,252.419,431.785,258.144Z" transform="translate(-413.358 -248.952)" fill="#ffb1a7" opacity="0.4" style="mix-blend-mode: multiply;isolation: isolate"/>
                      <path id="Trazado_143906" data-name="Trazado 143906" d="M426.716,252.2l-12.187,6.936c-.27-2.373,1.422-5.162,4.333-6.784C421.726,250.753,424.878,250.772,426.716,252.2Z" transform="translate(-408.897 -240.413)" fill="#fff" opacity="0.5"/>
                    </g>
                    <g id="Grupo_119092" data-name="Grupo 119092" transform="translate(1.103 176.302)">
                      <path id="Trazado_143907" data-name="Trazado 143907" d="M432.929,291.774l-.039.074-3.7,7.539c-1.7-.907-3.392-1.731-5.01-2.569-8.123-4.191-15.255-7.515-18.138-8.868,5.378-8.294,16.858-5.191,25.618-.324A3.172,3.172,0,0,1,432.929,291.774Z" transform="translate(-406.046 -282.799)" fill="#ffb1a7" opacity="0.4" style="mix-blend-mode: multiply;isolation: isolate"/>
                      <path id="Trazado_143908" data-name="Trazado 143908" d="M418.538,284.678l-3.7,7.549c-1.7-.907-3.5-1.8-5.113-2.642C412.224,286.153,415.577,284.335,418.538,284.678Z" transform="translate(-391.694 -275.629)" fill="#fff" opacity="0.5"/>
                    </g>
                    <g id="Grupo_119093" data-name="Grupo 119093" transform="translate(79.696 3.111)">
                      <path id="Trazado_143909" data-name="Trazado 143909" d="M440.507,256.661a1.842,1.842,0,0,1-.564,2.564l-.049.024-12.182,6.941h0a1.773,1.773,0,0,1-2.431-.848c-2.5-4.976-5.858-13.549.245-16.951C431.281,245.18,437.007,250.935,440.507,256.661Z" transform="translate(-422.079 -247.469)" fill="#ffb1a7" opacity="0.4" style="mix-blend-mode: multiply;isolation: isolate"/>
                      <path id="Trazado_143910" data-name="Trazado 143910" d="M435.433,250.713l-12.182,6.941c-.275-2.373,1.422-5.162,4.333-6.789C430.442,249.272,433.6,249.287,435.433,250.713Z" transform="translate(-417.617 -238.933)" fill="#fff" opacity="0.5"/>
                    </g>
                    <g id="Grupo_119094" data-name="Grupo 119094" transform="translate(140.156 18.138)">
                      <path id="Trazado_143911" data-name="Trazado 143911" d="M446.779,259.009a1.246,1.246,0,0,1-.838,1.593l-.039.01L436.47,262.9h0a1.26,1.26,0,0,1-1.485-1.025c-.784-3.78-1.5-10.1,3.206-11.2C442.637,249.636,445.456,254.543,446.779,259.009Z" transform="translate(-434.412 -250.534)" fill="#ffb1a7" opacity="0.4" style="mix-blend-mode: multiply;isolation: isolate"/>
                      <path id="Trazado_143912" data-name="Trazado 143912" d="M444.264,253.843l-9.432,2.289c.24-1.628,1.882-3.157,4.128-3.681C441.17,251.936,443.288,252.549,444.264,253.843Z" transform="translate(-432.774 -243.766)" fill="#fff" opacity="0.5"/>
                    </g>
                    <g id="Grupo_119095" data-name="Grupo 119095" transform="translate(21.166 55.608)">
                      <path id="Trazado_143913" data-name="Trazado 143913" d="M424.8,265.933a1.458,1.458,0,0,1-.539,2.015l-.039.02-9.971,5.044h0a1.43,1.43,0,0,1-1.912-.765c-1.824-4.054-4.216-10.99.774-13.461C417.827,256.457,422.2,261.246,424.8,265.933Z" transform="translate(-410.139 -258.178)" fill="#ffb1a7" opacity="0.4" style="mix-blend-mode: multiply;isolation: isolate"/>
                      <path id="Trazado_143914" data-name="Trazado 143914" d="M420.956,260.956,410.985,266c-.137-1.9,1.314-4.049,3.7-5.226C417.02,259.617,419.539,259.75,420.956,260.956Z" transform="translate(-406.871 -251.167)" fill="#fff" opacity="0.5"/>
                    </g>
                  </g>
                </g>
              </g>
            </g>
            <g id="Grupo_119102" data-name="Grupo 119102" transform="translate(247.796 253.403)">
              <g id="Grupo_119100" data-name="Grupo 119100" transform="translate(0 4.046)">
                <path id="Trazado_143915" data-name="Trazado 143915" d="M454.315,340.263a38.244,38.244,0,0,1-5.034-.333c-7.946-1.069-14.657-4.75-18.412-10.1-4.667-6.662-4.917-16.28-.623-23.937a2.6,2.6,0,0,1,4.53,2.534c-3.338,5.961-3.2,13.363.348,18.422,2.922,4.172,8.333,7.064,14.848,7.932,9.907,1.348,20.775-1.985,29.064-8.853,7.642-6.343,15.172-13.6,15.966-26.314.093-1.5.436-14.755-15.736-16.255-7.838-.74-15.863,3.417-22.677,7.559a2.594,2.594,0,1,1-2.7-4.431c7.539-4.593,16.525-9.167,25.853-8.294,17.088,1.583,20.892,14.412,20.436,21.74-.917,14.789-9.686,23.231-17.838,29.991A44.585,44.585,0,0,1,454.315,340.263Z" transform="translate(-427.189 -278.081)" fill="#d919d9"/>
              </g>
              <g id="Grupo_119101" data-name="Grupo 119101" transform="translate(21.831)">
                <path id="Trazado_143916" data-name="Trazado 143916" d="M434.242,298.66a2.6,2.6,0,0,1-2.578-2.941l2.167-16.211a2.6,2.6,0,0,1,5.152.686l-1.74,13.025,12.589-1.029a2.6,2.6,0,1,1,.417,5.176l-15.794,1.289C434.379,298.66,434.311,298.66,434.242,298.66Z" transform="translate(-431.643 -277.256)" fill="#d919d9"/>
              </g>
            </g>
          </g>
        </g>
      </g>
    </g>
    <g id="Grupo_119017" data-name="Grupo 119017" transform="translate(29 -11700)">
      <circle id="Elipse_4174" data-name="Elipse 4174" cx="39" cy="39" r="39" transform="translate(230 6188)" fill="#ffce26"/>
      <path id="Trazado_146941" data-name="Trazado 146941" d="M8.869-19.8a6.237,6.237,0,0,1-.974,3.47,7.1,7.1,0,0,1-2.681,2.412,7.807,7.807,0,0,1,3.062,2.588A6.679,6.679,0,0,1,9.407-7.44a7.07,7.07,0,0,1-2.5,5.715A10.363,10.363,0,0,1,.037.371,10.553,10.553,0,0,1-6.9-1.735,7.02,7.02,0,0,1-9.444-7.44a6.763,6.763,0,0,1,1.113-3.841,7.57,7.57,0,0,1,3.154-2.635,7.135,7.135,0,0,1-2.709-2.412,6.193,6.193,0,0,1-.983-3.47,6.932,6.932,0,0,1,2.394-5.566A9.622,9.622,0,0,1-.019-27.405a9.681,9.681,0,0,1,6.494,2.041A6.932,6.932,0,0,1,8.869-19.8ZM3.136-7.941a3.567,3.567,0,0,0-.863-2.57A3,3,0,0,0,0-11.411a3.035,3.035,0,0,0-2.282.9,3.543,3.543,0,0,0-.872,2.57A3.574,3.574,0,0,0-2.273-5.39a3.025,3.025,0,0,0,2.31.937,2.907,2.907,0,0,0,2.245-.928A3.638,3.638,0,0,0,3.136-7.941ZM-.019-22.581a2.311,2.311,0,0,0-1.92.826A3.583,3.583,0,0,0-2.6-19.464a3.8,3.8,0,0,0,.668,2.338,2.3,2.3,0,0,0,1.967.891,2.21,2.21,0,0,0,1.92-.891,3.918,3.918,0,0,0,.64-2.338,3.591,3.591,0,0,0-.659-2.282A2.342,2.342,0,0,0-.019-22.581Z" transform="translate(269 6240)" fill="#12263f"/>
    </g>
  </g>
</svg>
