<?xml version="1.0" encoding="UTF-8" standalone="no"?><!DOCTYPE svg PUBLIC "-//W3C//DTD SVG 1.1//EN" "http://www.w3.org/Graphics/SVG/1.1/DTD/svg11.dtd"><svg width="100%" height="100%" viewBox="0 0 2250 2250" version="1.1" xmlns="http://www.w3.org/2000/svg" xmlns:xlink="http://www.w3.org/1999/xlink" xml:space="preserve" xmlns:serif="http://www.serif.com/" style="fill-rule:evenodd;clip-rule:evenodd;stroke-linejoin:round;stroke-miterlimit:2;"><rect id="Mesa-de-trabajo1" serif:id="Mesa de trabajo1" x="0" y="0" width="2250" height="2250" style="fill:none;"/><g id="Mesa-de-trabajo11" serif:id="Mesa de trabajo1"><g><path d="M2000.14,932.486c-0,-455.206 -369.018,-824.223 -824.224,-824.223l-11.068,-0c-455.206,-0 -824.223,369.017 -824.223,824.223l-0,449.117c-0,455.206 369.017,824.224 824.223,824.224l11.068,-0c455.206,-0 824.224,-369.018 824.224,-824.224l-0,-449.117Zm-167.557,49.763c0,-365.724 -296.477,-662.201 -662.201,-662.201c0,-0 0,-0 0,-0c-365.723,-0 -662.201,296.477 -662.201,662.201c0,114.995 0,234.597 0,349.592c0,365.723 296.478,662.2 662.201,662.2l0,0c365.724,0 662.201,-296.477 662.201,-662.2c0,-114.995 0,-234.597 0,-349.592Z"/><path d="M850.561,915.024l319.823,-319.699l319.824,319.699l-213.77,-0l0,198.09l213.77,-0l-319.824,319.699l-319.823,-319.699l213.769,-0l0,-198.09l-213.769,-0Z"/></g></g></svg>