<svg xmlns="http://www.w3.org/2000/svg" width="1240" height="1369" viewBox="0 0 1240 1369">
  <g id="Grupo_119181" data-name="Grupo 119181" transform="translate(-180 -9110)" opacity="0.35">
    <rect id="Rectángulo_37571" data-name="Rectángulo 37571" width="1030" height="1369" transform="translate(285 9110)" fill="#fff3c9"/>
    <rect id="Rectángulo_37572" data-name="Rectángulo 37572" width="928" height="1324" transform="translate(332 9155)" fill="#fff"/>
    <g id="Grupo_119173" data-name="Grupo 119173" transform="translate(-636.941 9071.036)">
      <g id="Grupo_119170" data-name="Grupo 119170" transform="translate(816.941 38.964)">
        <g id="Grupo_119167" data-name="Grupo 119167">
          <path id="Trazado_143973" data-name="Trazado 143973" d="M977.547,1378.964H817.43l0-3.156L816.941,38.964l1.339.4L977.547,87.941Zm-157.726-6.31H975.153V93.549L819.338,46.035Z" transform="translate(-816.941 -38.964)" fill="#282353"/>
        </g>
        <g id="Grupo_119169" data-name="Grupo 119169" transform="translate(1.219 592.565)">
          <g id="Grupo_119168" data-name="Grupo 119168">
            <path id="Trazado_143974" data-name="Trazado 143974" d="M974.684,342.592l-157.212-39,.228-6.281,157.212,39Z" transform="translate(-817.473 -297.309)" fill="#282353"/>
          </g>
        </g>
      </g>
      <path id="Trazado_143975" data-name="Trazado 143975" d="M960.2,59.631S912.518,501.449,870.7,561.3c0,0,28.714,27.255,31.172,59.58,9.68,127.338,50.333,732,50.333,732h-81.59l.053-1293.247Z" transform="translate(105.072 26.086)" fill="#c7beff"/>
      <g id="Grupo_119171" data-name="Grupo 119171" transform="translate(961.347 85.716)">
        <rect id="Rectángulo_37566" data-name="Rectángulo 37566" width="1.864" height="1290.331" fill="#282353"/>
      </g>
      <g id="Grupo_119172" data-name="Grupo 119172" transform="translate(969.635 86.886)">
        <rect id="Rectángulo_37567" data-name="Rectángulo 37567" width="6.049" height="1288.739" fill="#282353"/>
      </g>
    </g>
    <g id="Grupo_119180" data-name="Grupo 119180" transform="translate(393.059 9071.036)">
      <g id="Grupo_119177" data-name="Grupo 119177" transform="translate(866.335 38.964)">
        <g id="Grupo_119174" data-name="Grupo 119174">
          <path id="Trazado_143976" data-name="Trazado 143976" d="M838.476,87.941,997.744,39.368l1.338-.4L998.6,1375.808l0,3.156H838.476ZM996.685,46.035,840.87,93.549v1279.1H996.2Z" transform="translate(-838.476 -38.964)" fill="#282353"/>
        </g>
        <g id="Grupo_119176" data-name="Grupo 119176" transform="translate(1.947 592.565)">
          <g id="Grupo_119175" data-name="Grupo 119175">
            <path id="Trazado_143977" data-name="Trazado 143977" d="M839.553,342.592l157.212-39-.228-6.281-157.212,39Z" transform="translate(-839.325 -297.309)" fill="#282353"/>
          </g>
        </g>
      </g>
      <path id="Trazado_143978" data-name="Trazado 143978" d="M773.941,59.631S826.292,501.449,868.113,561.3c0,0-44.929,35.711-51.172,86.914-17.681,145.02-11,451.833-11,704.667H868.2L868.145,59.631Z" transform="translate(0 26.086)" fill="#c7beff"/>
      <g id="Grupo_119178" data-name="Grupo 119178" transform="translate(880.671 85.716)">
        <rect id="Rectángulo_37568" data-name="Rectángulo 37568" width="1.864" height="1290.331" fill="#282353"/>
      </g>
      <g id="Grupo_119179" data-name="Grupo 119179" transform="translate(865.173 90.225)">
        <rect id="Rectángulo_37569" data-name="Rectángulo 37569" width="6.049" height="1288.739" fill="#282353"/>
      </g>
    </g>
    <rect id="Rectángulo_37570" data-name="Rectángulo 37570" width="1030" height="29" transform="translate(285 10450)" fill="#afafaf"/>
  </g>
</svg>
