<svg xmlns="http://www.w3.org/2000/svg" xmlns:xlink="http://www.w3.org/1999/xlink" width="1240" height="583" viewBox="0 0 1240 583">
  <defs>
    <linearGradient id="linear-gradient" x1="0.5" x2="0.5" y2="1" gradientUnits="objectBoundingBox">
      <stop offset="0" stop-color="#766abd"/>
      <stop offset="1" stop-color="#aba2de"/>
    </linearGradient>
    <clipPath id="clip-path">
      <rect id="Rectángulo_35734" data-name="Rectángulo 35734" width="1240" height="583" rx="20" transform="translate(180 949.998)" stroke="#707070" stroke-width="1" opacity="0.249" fill="url(#linear-gradient)"/>
    </clipPath>
    <filter id="Trazado_113169" x="-327.155" y="-71.492" width="632.366" height="611.15" filterUnits="userSpaceOnUse">
      <feOffset dx="6" dy="3" input="SourceAlpha"/>
      <feGaussianBlur stdDeviation="5" result="blur"/>
      <feFlood flood-opacity="0.161"/>
      <feComposite operator="in" in2="blur"/>
      <feComposite in="SourceGraphic"/>
    </filter>
    <filter id="Trazado_113170" x="964.847" y="56.507" width="632.366" height="611.15" filterUnits="userSpaceOnUse">
      <feOffset dx="6" dy="3" input="SourceAlpha"/>
      <feGaussianBlur stdDeviation="5" result="blur-2"/>
      <feFlood flood-opacity="0.161"/>
      <feComposite operator="in" in2="blur-2"/>
      <feComposite in="SourceGraphic"/>
    </filter>
  </defs>
  <g id="Enmascarar_grupo_50" data-name="Enmascarar grupo 50" transform="translate(-180 -949.998)" clip-path="url(#clip-path)">
    <g id="Grupo_81686" data-name="Grupo 81686" transform="matrix(0.766, -0.643, 0.643, 0.766, -1064.307, 663.466)">
      <g transform="matrix(0.77, 0.64, -0.64, 0.77, 769.02, 1019.32)" filter="url(#Trazado_113169)">
        <path id="Trazado_113169-2" data-name="Trazado 113169" d="M568.555,1035.446l29.137-5.871a3.05,3.05,0,0,0,1.388-.037q5.755-.992,11.511-1.979c.25-.043.5-.088.752-.12,4.283-.545,8.539-1.261,12.812-1.864q7.04-.994,14.1-1.862c5.629-.692,11.273-1.274,16.918-1.847q10.366-1.054,20.765-1.76c12.136-.817,24.291-1.394,36.473-1.577,16.942-.255,33.882.07,50.834,1.38a327.873,327.873,0,0,1,38.957,5.068,150.438,150.438,0,0,1,28.629,8.223,63.748,63.748,0,0,1,14.89,8.255,28.115,28.115,0,0,1,7.952,9.065,68.683,68.683,0,0,1,3.633,7.856,47.176,47.176,0,0,1,3.2,14.778,32.854,32.854,0,0,1-5.719,19.939,43.206,43.206,0,0,1-8.182,9.1,65.432,65.432,0,0,1-15.883,9.793,103.433,103.433,0,0,1-14.646,5.045,90.22,90.22,0,0,1-12.088,2.264,78.252,78.252,0,0,1-14.484.418,68.155,68.155,0,0,0-16.444,1.23,50.379,50.379,0,0,0-6.255,1.646,55.62,55.62,0,0,0-24.237,16.117,98.1,98.1,0,0,0-13.724,20.476,197.612,197.612,0,0,0-9.323,21.084,65.45,65.45,0,0,1-9.1,16.8,46.9,46.9,0,0,1-16.914,13.71c-6.276,3.053-12.958,4.789-19.664,6.392-5.349,1.278-10.747,2.344-16.045,3.843a94.457,94.457,0,0,0-9.876,3.31,58.237,58.237,0,0,0-19.228,13.056,138.278,138.278,0,0,0-19.523,24.83c-3.887,6.217-7.691,12.5-11.319,18.905-1.813,3.2-3.817,6.267-5.789,9.356q-2.709,4.245-5.614,8.324a133.715,133.715,0,0,1-16.744,19.38,121.6,121.6,0,0,1-15.822,12.86,117.851,117.851,0,0,1-36.436,16.143,3.5,3.5,0,0,0-1.292.514l-14.942,3.011a2.812,2.812,0,0,0-1.139,0,155.087,155.087,0,0,1-16.052,1.514,169.847,169.847,0,0,1-21.515-.309,165.8,165.8,0,0,1-31.561-5.4,113.711,113.711,0,0,1-26.812-10.867,60.56,60.56,0,0,1-14.086-10.8,128.584,128.584,0,0,1-30.644-55.144,15.76,15.76,0,0,0-1.113-3.251l-2.4-11.922a11.653,11.653,0,0,0-.162-3.017c-.555-3.645-.851-7.311-1.058-10.981a150.192,150.192,0,0,1,7.466-55.762,164.914,164.914,0,0,1,17.213-36.439q4.975-7.915,10.627-15.256A197.165,197.165,0,0,1,406.1,1114.7a223.917,223.917,0,0,1,23.164-20.285,250.976,250.976,0,0,1,30.547-20.077,301.431,301.431,0,0,1,35.079-16.448c11.8-4.668,23.781-8.76,35.915-12.39,6.57-1.966,13.167-3.828,19.8-5.539,5.488-1.415,10.982-2.826,16.532-3.988A3.183,3.183,0,0,0,568.555,1035.446Z" transform="matrix(0.77, -0.64, 0.64, 0.77, -1244.31, -286.53)" fill="url(#linear-gradient)"/>
      </g>
    </g>
    <g id="Grupo_81687" data-name="Grupo 81687" transform="translate(1756.213 1274.341) rotate(140)">
      <g transform="matrix(-0.77, -0.64, 0.64, -0.77, 998.97, 1261.63)" filter="url(#Trazado_113170)">
        <path id="Trazado_113170-2" data-name="Trazado 113170" d="M214.128,17l29.137-5.871a3.05,3.05,0,0,0,1.388-.037q5.755-.992,11.511-1.979c.25-.043.5-.088.752-.12,4.283-.545,8.539-1.261,12.812-1.864q7.04-.994,14.1-1.862c5.629-.692,11.273-1.273,16.918-1.847q10.366-1.054,20.765-1.76C333.644.841,345.8.264,357.981.08c16.942-.255,33.882.07,50.834,1.38a327.862,327.862,0,0,1,38.957,5.068A150.435,150.435,0,0,1,476.4,14.751a63.748,63.748,0,0,1,14.89,8.255,28.115,28.115,0,0,1,7.952,9.065,68.683,68.683,0,0,1,3.633,7.856,47.176,47.176,0,0,1,3.2,14.778,32.854,32.854,0,0,1-5.719,19.939,43.206,43.206,0,0,1-8.182,9.1,65.433,65.433,0,0,1-15.883,9.794,103.431,103.431,0,0,1-14.646,5.045,90.219,90.219,0,0,1-12.088,2.264,78.253,78.253,0,0,1-14.484.418,68.155,68.155,0,0,0-16.444,1.23,50.378,50.378,0,0,0-6.255,1.646,55.618,55.618,0,0,0-24.237,16.116,98.1,98.1,0,0,0-13.724,20.476,197.618,197.618,0,0,0-9.323,21.084,65.45,65.45,0,0,1-9.1,16.8,46.9,46.9,0,0,1-16.914,13.71c-6.276,3.053-12.958,4.789-19.664,6.392-5.349,1.278-10.747,2.344-16.045,3.843a94.457,94.457,0,0,0-9.876,3.31,58.238,58.238,0,0,0-19.228,13.056,138.28,138.28,0,0,0-19.523,24.83c-3.887,6.217-7.691,12.5-11.319,18.905-1.813,3.2-3.817,6.267-5.789,9.356q-2.709,4.245-5.614,8.324a133.715,133.715,0,0,1-16.744,19.38,121.6,121.6,0,0,1-15.822,12.86,117.852,117.852,0,0,1-36.436,16.143,3.5,3.5,0,0,0-1.292.514l-14.942,3.011a2.812,2.812,0,0,0-1.139,0,155.088,155.088,0,0,1-16.052,1.514,169.853,169.853,0,0,1-21.515-.309,165.8,165.8,0,0,1-31.561-5.4A113.716,113.716,0,0,1,49.7,317.184a60.559,60.559,0,0,1-14.086-10.8A128.583,128.583,0,0,1,4.972,251.24a15.76,15.76,0,0,0-1.113-3.251l-2.4-11.922a11.653,11.653,0,0,0-.162-3.017C.74,229.405.444,225.74.237,222.069A150.192,150.192,0,0,1,7.7,166.307a164.915,164.915,0,0,1,17.213-36.439q4.975-7.915,10.627-15.256A197.167,197.167,0,0,1,51.671,96.256,223.886,223.886,0,0,1,74.836,75.971a250.975,250.975,0,0,1,30.547-20.077,301.426,301.426,0,0,1,35.079-16.449c11.8-4.668,23.781-8.76,35.915-12.39,6.57-1.966,13.167-3.829,19.8-5.539,5.488-1.415,10.982-2.826,16.532-3.988A3.183,3.183,0,0,0,214.128,17Z" transform="translate(1576.21 324.34) rotate(140)" fill="url(#linear-gradient)"/>
      </g>
    </g>
  </g>
</svg>
