<svg xmlns="http://www.w3.org/2000/svg" width="77.263" height="66.647" viewBox="0 0 77.263 66.647">
  <g id="Grupo_53976" data-name="Grupo 53976" transform="translate(-1724.403 -1724.875)">
    <g id="Grupo_53963" data-name="Grupo 53963" transform="translate(1724.403 1724.875)">
      <path id="Trazado_100861" data-name="Trazado 100861" d="M1764.323,1744.851a14.172,14.172,0,0,1,4.908,1.437l10.047-16.9a2.817,2.817,0,0,1-.369-.973,3.176,3.176,0,1,1,3.641,2.375,3.136,3.136,0,0,1-.443.049l-10.219,17.195a13.717,13.717,0,0,1,2.458,2.668l9.651-5.47a2.947,2.947,0,0,1,1.461-2.648,3.176,3.176,0,0,1,3.126,5.515,2.948,2.948,0,0,1-3.022-.108l-9.714,5.506a13.1,13.1,0,0,1,.791,3.071l19.207-.472a2.787,2.787,0,0,1,.628-.829,3.176,3.176,0,1,1-.075,4.345,3.431,3.431,0,0,1-.278-.35l-19.451.479a13.113,13.113,0,0,1-.682,2.966l9.616,5.307a2.945,2.945,0,0,1,3.02-.141,3.176,3.176,0,0,1-3.062,5.551,2.947,2.947,0,0,1-1.49-2.632l-9.5-5.242a13.715,13.715,0,0,1-2.486,2.834l10.256,16.82a3.2,3.2,0,0,1,.445.044,2.981,2.981,0,1,1-3.614,2.415,2.807,2.807,0,0,1,.357-.978l-10.068-16.509a14.171,14.171,0,0,1-5.059,1.55l.065,11.488a2.944,2.944,0,0,1,1.6,2.566,3.176,3.176,0,0,1-6.339.037,2.948,2.948,0,0,1,1.569-2.584l-.065-11.5a14.142,14.142,0,0,1-4.634-1.329l-9.876,16.616a2.827,2.827,0,0,1,.367.974,3.176,3.176,0,1,1-3.639-2.375,3.414,3.414,0,0,1,.443-.05l10.022-16.864a13.744,13.744,0,0,1-2.622-2.794l-9.292,5.266a2.943,2.943,0,0,1-1.459,2.648,3.176,3.176,0,0,1-3.125-5.515,2.945,2.945,0,0,1,3.021.107l9.351-5.3a13.134,13.134,0,0,1-.832-3.374l-18.993-.251a3.333,3.333,0,0,1-.272.353,2.981,2.981,0,1,1-.125-4.345,2.8,2.8,0,0,1,.639.822l18.786.248a13.025,13.025,0,0,1,.862-3.249l-9.458-5.22a2.943,2.943,0,0,1-3.021.142,3.176,3.176,0,0,1,3.064-5.551,2.95,2.95,0,0,1,1.49,2.632l9.467,5.225a13.8,13.8,0,0,1,2.584-2.707l-10.325-16.931a2.968,2.968,0,1,1,3.168-2.46,2.807,2.807,0,0,1-.356.977l10.2,16.731a14.169,14.169,0,0,1,4.48-1.287l-.067-11.825a2.949,2.949,0,0,1-1.6-2.567,3.176,3.176,0,0,1,6.339-.036,2.943,2.943,0,0,1-1.567,2.584Z" transform="translate(-1724.403 -1724.875)" fill="#d919d9" fill-rule="evenodd"/>
    </g>
  </g>
</svg>
