<svg xmlns="http://www.w3.org/2000/svg" xmlns:xlink="http://www.w3.org/1999/xlink" width="435" height="435" viewBox="0 0 435 435">
  <defs>
    <clipPath id="clip-path">
      <circle id="Elipse_4176" data-name="Elipse 4176" cx="213.801" cy="213.801" r="213.801" transform="translate(0 427.537) rotate(-89)" fill="none"/>
    </clipPath>
    <clipPath id="clip-path-2">
      <circle id="Elipse_4177" data-name="Elipse 4177" cx="214.939" cy="214.939" r="214.939" transform="translate(0 429.879) rotate(-90)" fill="none"/>
    </clipPath>
  </defs>
  <g id="Grupo_125918" data-name="Grupo 125918" transform="translate(2946 5536)">
    <g id="Grupo_118961" data-name="Grupo 118961" transform="translate(-3121.154 -5659.982)">
      <g id="Grupo_118959" data-name="Grupo 118959" transform="translate(175.154 123.982)">
        <g id="Grupo_118949" data-name="Grupo 118949" transform="translate(2.561 2.561)">
          <circle id="Elipse_4175" data-name="Elipse 4175" cx="214.939" cy="214.939" r="214.939" transform="translate(0 429.879) rotate(-90)" fill="#766abd"/>
        </g>
        <g id="Grupo_118953" data-name="Grupo 118953" transform="translate(0 0)">
          <g id="Grupo_118952" data-name="Grupo 118952" clip-path="url(#clip-path)">
            <g id="Grupo_118951" data-name="Grupo 118951" transform="translate(154.715 -37.402)">
              <g id="Grupo_118950" data-name="Grupo 118950" transform="translate(0 31.577)">
                <path id="Trazado_143736" data-name="Trazado 143736" d="M360.693,99.215l-1.224,103.91a49.525,49.525,0,0,1-3.147,16.8L351.422,233,247.309,253.036a26.461,26.461,0,0,1-13.878-1.585l-44.115-22.113L183.7,102.3" transform="translate(-183.703 -99.215)" fill="#a5b7ff"/>
                <path id="Trazado_143737" data-name="Trazado 143737" d="M193.592,138.5,205.35,182.23a4.781,4.781,0,0,0,5.773,3.392l34.285-8.572a4.778,4.778,0,0,0,3.368-6.168l-9.628-28.4" transform="translate(-145.94 50.821)" fill="#d4e0fa"/>
                <path id="Trazado_143738" data-name="Trazado 143738" d="M254.585,136.274l5.705,11.16c4.395,8.081.573,14.784-8.312,17.154-.617.164-29.828,8.2-29.828,8.2-12.957,1.807-24.9-11.174-24.9-24.257" transform="translate(-131.96 42.301)" fill="#a5b7ff"/>
                <path id="Trazado_143739" data-name="Trazado 143739" d="M254.585,136.274l5.705,11.16c4.395,8.081.573,14.784-8.312,17.154-.617.164-29.828,8.2-29.828,8.2-12.957,1.807-24.9-11.174-24.9-24.257" transform="translate(-131.96 42.301)" fill="#8e9edc" opacity="0.4" style="mix-blend-mode: multiply;isolation: isolate"/>
              </g>
              <path id="Trazado_143740" data-name="Trazado 143740" d="M346.847,129.576v27.712a13.982,13.982,0,0,1-11.372,13.733l-85.57,18.59a35.619,35.619,0,0,1-21.641-2.689l-32.531-17.887a18.766,18.766,0,0,1-10.861-17.024V125.933l44.39,21a26.75,26.75,0,0,0,14.576,1.691Z" transform="translate(-179.239 34.389)" fill="#a5b7ff"/>
              <path id="Trazado_143741" data-name="Trazado 143741" d="M196.139,92.662V248.9a15.209,15.209,0,0,0,17.824,14.981l76.289-12.524a14.766,14.766,0,0,0,11.362-9.2l1.9-4.872a28.579,28.579,0,0,0,1.947-11.1l-3.079-125.155Z" transform="translate(-136.214 -92.662)" fill="#8e9edc" opacity="0.4" style="mix-blend-mode: multiply;isolation: isolate"/>
            </g>
          </g>
        </g>
        <g id="Grupo_118958" data-name="Grupo 118958" transform="translate(2.561 2.561)">
          <g id="Grupo_118957" data-name="Grupo 118957" clip-path="url(#clip-path-2)">
            <g id="Grupo_118956" data-name="Grupo 118956" transform="translate(57.728 213.577)">
              <g id="Grupo_118954" data-name="Grupo 118954">
                <path id="Trazado_143742" data-name="Trazado 143742" d="M519.093,258.227l-50.73,74.331s-72.5-20.458-84.514-18.631-29.8,20.845-61.344,18.137c-11.554-.993-38.183-5.445-56.766-3.255-2.63.31-5.2.63-7.693.94-12.508,1.584-23.03,3.159-27.38,3.827l-.039,0c-1.192.189-2.3-.383-2.378-1.235-.359-3.619.16-12.726,12.8-18.917,16.078-7.867,29.022-10.822,37.321-11.408,0,0,25.709-3.149,27.443-7.969,2.262-6.317-20.632-12.44-20.632-12.44-9.819-3.42-27.758-6.608-40.7-8.628a74.506,74.506,0,0,1-28.6-10.919c-9.451-6.041-21.756-13.559-29.231-16.766-3.527-1.516-7.15-3.091-9.5-5.493s-3.115-5.881-.7-8.424c3.517-3.716,11.069-3.5,17.033-2.669,5.246.731,17.149,6.031,26.469,10.478a74,74,0,0,0,28.189,7.17c14.693.751,34.593,1.492,34.942.044.349-1.584-23.5-5.552-38.522-7.887a73.853,73.853,0,0,1-22.875-7.528c-14.228-7.422-38.4-19.988-48.375-24.943-4.1-2.044-12.125-9.747-7.794-15.41,6.1-7.979,26.077-2.8,32.767-1.163,7.853,1.918,24.134,9.97,35.1,15.662a73.958,73.958,0,0,0,24.318,7.678c17.3,2.3,45.464,5.8,46.51,4.326.974-1.376-18.413-6.055-32.35-9.214a74.369,74.369,0,0,1-25.287-11.006c-8.86-6-20.5-13.588-26.135-16.02-4.36-1.88-8.846-3.842-11.81-6.8s-4.045-7.2-1.255-10.454c2.606-3.018,7.94-4.442,12.789-4.355s9.393,1.419,13.806,2.727c6.036,1.792,18.844,9.035,28.441,14.741a74.086,74.086,0,0,0,27.23,9.66c15.671,2.277,37.931,5.15,38.663,3.192.712-1.909-11.181-5.15-20.24-7.32a74.654,74.654,0,0,1-19.973-8.027c-8.095-4.684-18.665-10.832-22.08-13-4.675-2.965-10.251-10.255-5.9-13.768,3.4-2.747,11.9-2.9,18.9-.693,3.958,1.245,13.225,5.828,20.758,9.694a74.933,74.933,0,0,0,23.538,7.5c9.5,1.371,21.635,3.347,25.53,5.014,48.71,20.84,75.755,35.654,106.619,69.569Z" transform="translate(-164.28 -145.279)" fill="#ffc0b1"/>
              </g>
              <g id="Grupo_118955" data-name="Grupo 118955" transform="translate(144.701 60.469)" opacity="0.6" style="mix-blend-mode: multiply;isolation: isolate">
                <path id="Trazado_143743" data-name="Trazado 143743" d="M195.088,187.475A193.669,193.669,0,0,1,243.027,176.5c20-1.952,59.018,4.277,59.018,4.277s-35.824-12.111-56.572-12.2C216.175,168.452,195.088,187.475,195.088,187.475Z" transform="translate(-190.544 -116.186)" fill="#ffb1a7"/>
                <path id="Trazado_143744" data-name="Trazado 143744" d="M194.15,225.587s19.818-30.253,29.948-40.542,30.815-27.283,30.815-27.283-25.423,34.7-33.183,41.884C211.468,209.146,194.15,225.587,194.15,225.587Z" transform="translate(-194.15 -157.762)" fill="#ffb1a7"/>
                <path id="Trazado_143745" data-name="Trazado 143745" d="M233.21,164.028s6.409,17.483,1.332,28.62c-5.745,12.6-13.1,18.675-13.1,18.675s18.941-10.561,20.99-23.82C244.759,172.443,233.21,164.028,233.21,164.028Z" transform="translate(-89.227 -133.673)" fill="#ffb1a7"/>
              </g>
            </g>
          </g>
        </g>
      </g>
      <g id="Grupo_118960" data-name="Grupo 118960" transform="translate(409.135 357.92)">
        <path id="Trazado_143746" data-name="Trazado 143746" d="M211.05,187.527a5.308,5.308,0,0,1-2.819-6.185,8.026,8.026,0,1,1-1.765-14.9,8.1,8.1,0,0,1,2.075-10.008,9.262,9.262,0,0,1,10.432-.407,7.074,7.074,0,0,1,3.329,4.53,6.893,6.893,0,0,1-.9,4.537c1.775-1.251,4.237-.774,6.238.073a11.943,11.943,0,0,1,5.831,4.68,6.55,6.55,0,0,1-.153,7.166c-1.565,2-4.954,2.445-6.662.567a7.915,7.915,0,0,1,2.916,8.217,7.16,7.16,0,0,1-6.866,5.164c-3.006-.1-5.274-4.947-5.274-4.947S213.258,188.508,211.05,187.527Z" transform="translate(-196.545 -122.3)" fill="#fff"/>
        <path id="Trazado_143747" data-name="Trazado 143747" d="M212.964,165.561a4.336,4.336,0,0,1-5.344-.31,5.264,5.264,0,0,1-1.408-5.314,4.267,4.267,0,1,1-3.106-6.579,4.472,4.472,0,1,1,6.839-4.47,5.679,5.679,0,0,1,5.228-3.96,5.322,5.322,0,0,1,5.1,4.02,5.017,5.017,0,0,1-3.093,5.631,3.45,3.45,0,0,1,4.464,2.652,4.236,4.236,0,0,1-3.1,4.5,5.59,5.59,0,0,1-5.181-1.531C214.552,161.885,214.819,164.137,212.964,165.561Z" transform="translate(-192.237 -144.928)" fill="#fff"/>
        <path id="Trazado_143748" data-name="Trazado 143748" d="M208.633,170.432a6.236,6.236,0,0,1,2.025-7.4,3.475,3.475,0,0,1-3.379-1.922,7.086,7.086,0,0,1-.6-4.033,10.51,10.51,0,0,1,2.9-6.655,6.49,6.49,0,0,1,6.829-1.511c2.669,1.151,3.9,4.177,4.857,6.916,1.084-2.846,4.624-4.287,7.569-3.5a9.231,9.231,0,0,1,6.068,6.308c.734,2.369.544,5.288-1.364,6.872-2.152,1.788-5.087,1.011-7.5.444C225.2,173.351,212.2,178.822,208.633,170.432Z" transform="translate(-172.995 -136.614)" fill="#fff"/>
      </g>
    </g>
    <g id="Grupo_118943" data-name="Grupo 118943" transform="translate(-3161 -11700)">
      <circle id="Elipse_4174" data-name="Elipse 4174" cx="39" cy="39" r="39" transform="translate(230 6188)" fill="#ffce26"/>
      <path id="Trazado_146935" data-name="Trazado 146935" d="M9.5,0H-9.352V-4.082l8.684-9.129q3.21-3.655,3.21-5.808a4.04,4.04,0,0,0-.761-2.653,2.716,2.716,0,0,0-2.208-.909,2.75,2.75,0,0,0-2.319,1.215,5,5,0,0,0-.891,3.034H-9.908a8.872,8.872,0,0,1,1.243-4.592,8.718,8.718,0,0,1,3.451-3.293A10.252,10.252,0,0,1-.278-27.405q4.379,0,6.745,2.022a7.22,7.22,0,0,1,2.366,5.808,8.433,8.433,0,0,1-.594,3.108,13.63,13.63,0,0,1-1.846,3.173A46.506,46.506,0,0,1,2.356-8.851L-1.132-4.824H9.5Z" transform="translate(269 6240)" fill="#12263f"/>
    </g>
  </g>
</svg>
