<svg xmlns="http://www.w3.org/2000/svg" xmlns:xlink="http://www.w3.org/1999/xlink" width="435" height="435" viewBox="0 0 435 435">
  <defs>
    <clipPath id="clip-path">
      <circle id="Elipse_4179" data-name="Elipse 4179" cx="217.5" cy="217.5" r="217.5" transform="translate(0 435) rotate(-90)" fill="none"/>
    </clipPath>
  </defs>
  <g id="Grupo_125919" data-name="Grupo 125919" transform="translate(2420 5536)">
    <g id="Grupo_118982" data-name="Grupo 118982" transform="translate(-2729.75 -5683.176)">
      <g id="Grupo_118981" data-name="Grupo 118981" transform="translate(309.75 147.176)">
        <g id="Grupo_118980" data-name="Grupo 118980" transform="translate(0)">
          <circle id="Elipse_4178" data-name="Elipse 4178" cx="217.5" cy="217.5" r="217.5" transform="translate(0 435) rotate(-90)" fill="#766abd"/>
          <g id="Grupo_118979" data-name="Grupo 118979">
            <g id="Grupo_118978" data-name="Grupo 118978" clip-path="url(#clip-path)">
              <g id="Grupo_118974" data-name="Grupo 118974" transform="translate(10.309 55.523)">
                <g id="Grupo_118965" data-name="Grupo 118965">
                  <g id="Grupo_118964" data-name="Grupo 118964">
                    <g id="Grupo_118962" data-name="Grupo 118962">
                      <path id="Trazado_143749" data-name="Trazado 143749" d="M350.659,486.676l-84.79-80.893s129.08-141.365,130.178-151.487-7.123-32.726,4.26-56.952c4.167-8.878,7.559-26.094,9.971-41.545.343-2.186.657-4.329.961-6.407,1.5-10.432,2.485-19.285,2.872-22.946l0-.039a1.7,1.7,0,0,1,2.029-1.5c4.2.843,14.388,4.088,18.074,16.059,4.691,15.231,4.633,26.437,3.113,33.216,0,0-3.2,21.407,1.809,24.29,6.574,3.76,19.539-12.525,19.539-12.525C481.656,162,506.642,135.8,525.794,118.925c2.647-2.333,5.387-4.721,8.731-5.843s7.48-.647,9.73,2.064c3.289,3.956,1.059,9.887-1.451,14.373-9.647,17.211-47.756,63.775-43.638,65.712,4.633,2.088,48.677-54.569,74.643-74.7,3.4-2.623,14.236-6.6,19.515-1.4,7.446,7.338-3.677,21.6-7.289,26.407-17.451,23.231-62.52,72.555-59.231,75.589,3.328,3.079,44.368-38.839,63.128-55.31,3.275-2.882,6.682-5.838,10.814-7.27s9.231-.98,12.182,2.25c2.74,3.015,2.951,7.691,1.574,11.52s-4.074,7.029-6.721,10.123c-15.853,18.6-61.241,63.374-56.094,66.4,4.942,2.892,30.559-20.755,46.516-30.447,4.6-2.794,14.333-4.961,17.172-.407,2.221,3.559.157,10.363-4.187,15.24-8.912,10.015-22.025,19.633-32.069,28.515-36.452,32.236-69.835,58.942-116.443,72.918Z" transform="translate(-265.869 -112.518)" fill="#ffc0b1"/>
                    </g>
                    <g id="Grupo_118963" data-name="Grupo 118963" transform="translate(149.713 94.83)" opacity="0.6" style="mix-blend-mode: multiply;isolation: isolate">
                      <path id="Trazado_143750" data-name="Trazado 143750" d="M321.108,132.381a119.867,119.867,0,0,1-.177,41.515c-3.044,16.5-20.388,45.574-20.388,45.574s23.172-24.7,28.736-41.167C337.138,155.058,321.108,132.381,321.108,132.381Z" transform="translate(-280.279 -129.842)" fill="#ffb1a7"/>
                      <path id="Trazado_143751" data-name="Trazado 143751" d="M305.784,131.863s29.1,25.172,38.109,36.422,22.843,32.986,22.843,32.986-32.682-31.01-38.785-39.412C319.877,150.746,305.784,131.863,305.784,131.863Z" transform="translate(-259.832 -131.863)" fill="#ffb1a7"/>
                      <path id="Trazado_143752" data-name="Trazado 143752" d="M346.979,176.746s-21.53-.343-32.829-7.848c-12.784-8.49-17.74-16.221-17.74-16.221s7,18.339,21.5,24.093C334.386,183.31,346.979,176.746,346.979,176.746Z" transform="translate(-296.41 -50.646)" fill="#ffb1a7"/>
                    </g>
                  </g>
                </g>
                <g id="Grupo_118966" data-name="Grupo 118966" transform="translate(110.419 57.375)">
                  <path id="Trazado_143753" data-name="Trazado 143753" d="M329.466,131.18c-3.294.73-4.328,4.662-4.034,8.677.422,5.77,9.034,8.637,12.476,3C341.153,137.552,335.564,129.832,329.466,131.18Z" transform="translate(-144.057 -97.68)" fill="#fff"/>
                  <path id="Trazado_143754" data-name="Trazado 143754" d="M305.138,137.609c-1.931-1.6-4.853-1.27-6.917,1.588-2.505,3.485-.941,9.226,3.931,8.672C306.736,147.349,308.707,140.56,305.138,137.609Z" transform="translate(-254.652 -75.712)" fill="#fff"/>
                  <path id="Trazado_143755" data-name="Trazado 143755" d="M327.355,125.177c-1.931-1.6-4.858-1.27-6.917,1.593-2.51,3.48-.941,9.221,3.926,8.667C328.948,134.917,330.923,128.128,327.355,125.177Z" transform="translate(-167.971 -124.222)" fill="#fff"/>
                  <path id="Trazado_143756" data-name="Trazado 143756" d="M299.171,143.143c-2.99.9-4.667,4.162-3.117,8.27,1.882,5.005,8.912,7.333,11.7,1.907C310.373,148.207,304.691,141.476,299.171,143.143Z" transform="translate(-260.799 -51.403)" fill="#fff"/>
                  <path id="Trazado_143757" data-name="Trazado 143757" d="M419.907,219.867c14.02-.775,18.108-20.373,15.275-28.295-4.843-13.564-16.172-15.843-30.927-14.951.127-.108.245-.23.372-.343,7.338-5.142,11.544-14.794,9.27-23.461-2.324-8.853-11.838-15.481-20.814-13.691a18.856,18.856,0,0,0-11.3,7.436,16.187,16.187,0,0,0-3.613,3.265c.569-12.309-10.368-24.393-22.672-23.721-20.186,1.108-15.951,20.6-16.476,33.6-3.73-7.108-11.986-11.838-19.917-10.6s-14.564,8.956-13.8,16.951c.877,9.167,9.637,14.878,18.687,17.961-8.245-1.181-17.309,4.113-20.1,12.162a14.646,14.646,0,0,0-2.358,9.147c.6,6.324,4.99,10.971,10.6,14.275a20.152,20.152,0,0,0,3.726,2.162,21.307,21.307,0,0,0,2.431.794c.642.25,1.279.515,1.926.73-8.363-1.2-17.593,4.27-20.236,12.515-3.128,9.745,2.706,21.191,12.1,25.231s21.108.907,27.976-6.672c-1.368,7.108-.314,14.9,3.971,20.736s12.1,9.245,19.079,7.3c6.505-1.814,11.2-7.779,13.309-14.2s2.078-13.314,2.02-20.069c1.887,5.672,19.971,23.794,36.947,11.912C434.152,246.9,431.2,227.215,419.907,219.867Z" transform="translate(-246.527 -116.979)" fill="#fff"/>
                  <path id="Trazado_143758" data-name="Trazado 143758" d="M318.781,154.211a12.474,12.474,0,0,1,12.294,11.907c1.662-8.3,13.147-12.667,19.9-7.569s5.7,17.343-1.824,21.216c5.912-3.113,14.054-.451,17.245,5.422s1.157,13.936-4.265,17.843-13.486,3.4-18.574-.927c1.623,7.608,2.838,16.353-1.961,22.471-4.6,5.853-14.309,6.706-19.853,1.74s-5.77-14.711-.456-19.927a26.85,26.85,0,0,1-13.882,3.078,11.877,11.877,0,0,1-6.931-2.191c-3.108-2.515-3.706-7.329-1.985-10.936s5.3-6.054,9.118-7.24c-5-.431-10.255-.951-14.373-3.824s-6.441-8.956-3.569-13.069c2.034-2.9,6-3.917,9.51-3.387,3.392.51,6.544,2.206,9.49,3.873C302.3,165.868,310.673,154.407,318.781,154.211Z" transform="translate(-288.394 -7.22)" fill="#fff"/>
                </g>
                <g id="Grupo_118973" data-name="Grupo 118973" transform="translate(138.106 74.129)">
                  <path id="Trazado_143759" data-name="Trazado 143759" d="M530.03,406.9l-91.771,34.535s-26.6-63.05-35.309-68.874-33.27-9.1-49.952-31.045c-6.113-8.034-20.211-19.343-33.167-28.907-1.828-1.358-3.637-2.667-5.387-3.931-8.8-6.343-16.417-11.466-19.574-13.564l-.029-.02a1.761,1.761,0,0,1-.412-2.574c2.775-3.431,10.593-11.182,23.28-8.838,16.137,2.98,26.334,8.378,31.795,13,0,0,18.02,13.128,23.035,9.927,6.569-4.2-2.118-23.8-2.118-23.8-10.892-32.383-22.887-67.677-29.162-93.2-.868-3.529-1.74-7.172-1.167-10.755s2.975-7.137,6.52-7.9c5.176-1.118,9.529,3.75,12.422,8.177,11.113,17.01,35.437,74,39.172,71.158,4.113-3.235-26.594-70.442-32.584-103.737-.775-4.353.755-16.147,8.024-18.486,10.245-3.3,17.956,13.657,20.623,19.245,12.883,27,36.412,91.658,40.751,90.1,4.392-1.569-14.294-59.011-20.383-83.986-1.069-4.368-2.142-8.882-1.48-13.339s3.51-8.892,7.863-10.044c4.054-1.059,8.427.976,11.265,4.054s4.471,7.074,6.039,10.966c9.417,23.334,28.637,86.109,33.853,82.854,5-3.132-4.372-37.79-5.608-56.971-.363-5.525,2.3-15.446,7.814-15.863,4.309-.333,9.534,4.794,11.917,11.083,4.892,12.912,7.417,29.466,10.735,42.863,12.039,48.638,20.5,91.844,11.034,141.046Z" transform="translate(-294.042 -127.64)" fill="#ffc0b1"/>
                  <g id="Grupo_118967" data-name="Grupo 118967" transform="translate(84.316 104.635)" opacity="0.5" style="mix-blend-mode: multiply;isolation: isolate">
                    <path id="Trazado_143760" data-name="Trazado 143760" d="M311.25,161.644c-.289-.569,7.2,1.608,11.26.529.2-.049.358-.088.608-.152,3.725-.99,8.882-6.319,8.912-5.7a9.891,9.891,0,0,1-1.378,5.485,11.213,11.213,0,0,1-6.588,4.691l-.588.157a12.166,12.166,0,0,1-8.427-.873A9.85,9.85,0,0,1,311.25,161.644Z" transform="translate(-311.242 -120.556)" fill="#ffb1a7"/>
                    <path id="Trazado_143761" data-name="Trazado 143761" d="M317.712,160.639c-.338-.539,7.314.956,11.26-.485.191-.069.353-.118.593-.206,3.623-1.319,8.28-7.093,8.363-6.48a9.874,9.874,0,0,1-.877,5.583,11.2,11.2,0,0,1-6.142,5.27l-.569.206a12.156,12.156,0,0,1-8.471-.108A9.779,9.779,0,0,1,317.712,160.639Z" transform="translate(-286.041 -131.673)" fill="#ffb1a7"/>
                    <path id="Trazado_143762" data-name="Trazado 143762" d="M324.645,157.824c-.338-.539,7.314.956,11.26-.485.191-.064.353-.118.593-.206,3.623-1.319,8.28-7.093,8.363-6.48a9.875,9.875,0,0,1-.877,5.583,11.205,11.205,0,0,1-6.142,5.27l-.568.206a12.156,12.156,0,0,1-8.471-.108A9.778,9.778,0,0,1,324.645,157.824Z" transform="translate(-258.989 -142.658)" fill="#ffb1a7"/>
                    <path id="Trazado_143763" data-name="Trazado 143763" d="M331.217,155.1c-.289-.456,6.191.8,9.534-.412.162-.059.294-.1.5-.177,3.069-1.118,7.01-6,7.079-5.485a8.353,8.353,0,0,1-.74,4.726,9.488,9.488,0,0,1-5.2,4.466l-.48.172a10.3,10.3,0,0,1-7.172-.088A8.283,8.283,0,0,1,331.217,155.1Z" transform="translate(-233.336 -148.985)" fill="#ffb1a7"/>
                  </g>
                  <g id="Grupo_118968" data-name="Grupo 118968" transform="translate(75.059 5.328)">
                    <path id="Trazado_143764" data-name="Trazado 143764" d="M328.771,139.895a1.871,1.871,0,0,1-1.172,2.441l-.054.02-14.471,4.794h0a1.87,1.87,0,0,1-2.387-1.25c-1.539-5.353-3.191-14.412,4.039-16.745C321.545,126.958,326.334,133.63,328.771,139.895Z" transform="translate(-309.354 -128.727)" fill="#ffb1a7" opacity="0.4" style="mix-blend-mode: multiply;isolation: isolate"/>
                    <path id="Trazado_143765" data-name="Trazado 143765" d="M324.584,132.9l-14.471,4.794c.24-2.392,2.662-4.868,6.113-5.98C319.613,130.62,322.956,131.174,324.584,132.9Z" transform="translate(-306.393 -119.271)" fill="#fff" opacity="0.5"/>
                  </g>
                  <g id="Grupo_118969" data-name="Grupo 118969" transform="translate(0.823 163.924)">
                    <path id="Trazado_143766" data-name="Trazado 143766" d="M321.867,173.046l-.059.064-5.6,6.838c-1.6-1.186-3.211-2.289-4.74-3.4-7.681-5.534-14.5-10.034-17.26-11.868,7.549-7.294,19.035-2.265,27.241,4.044A2.991,2.991,0,0,1,321.867,173.046Z" transform="translate(-294.21 -161.08)" fill="#ffb1a7" opacity="0.4" style="mix-blend-mode: multiply;isolation: isolate"/>
                    <path id="Trazado_143767" data-name="Trazado 143767" d="M308.151,163.739l-5.6,6.848c-1.6-1.186-3.309-2.382-4.838-3.485C301.127,164.131,305.088,162.9,308.151,163.739Z" transform="translate(-280.553 -151.709)" fill="#fff" opacity="0.5"/>
                  </g>
                  <g id="Grupo_118970" data-name="Grupo 118970" transform="translate(122.016 5.409)">
                    <path id="Trazado_143768" data-name="Trazado 143768" d="M338.35,139.908a1.868,1.868,0,0,1-1.167,2.441l-.059.02-14.466,4.794h0a1.874,1.874,0,0,1-2.392-1.25c-1.539-5.353-3.191-14.412,4.039-16.74C331.129,126.972,335.918,133.643,338.35,139.908Z" transform="translate(-318.933 -128.743)" fill="#ffb1a7" opacity="0.4" style="mix-blend-mode: multiply;isolation: isolate"/>
                    <path id="Trazado_143769" data-name="Trazado 143769" d="M334.159,132.914l-14.466,4.794c.24-2.4,2.657-4.868,6.108-5.98C329.188,130.639,332.531,131.188,334.159,132.914Z" transform="translate(-315.968 -119.288)" fill="#fff" opacity="0.5"/>
                  </g>
                  <g id="Grupo_118971" data-name="Grupo 118971" transform="translate(176.11 30.698)">
                    <path id="Trazado_143770" data-name="Trazado 143770" d="M343.257,142.543a1.3,1.3,0,0,1-1,1.588l-.039,0-10.343,2.142h0a1.3,1.3,0,0,1-1.544-1.054c-.627-3.809-1.039-10.177,4.123-11.2C339.325,133.058,342.085,138.033,343.257,142.543Z" transform="translate(-329.968 -133.902)" fill="#ffb1a7" opacity="0.4" style="mix-blend-mode: multiply;isolation: isolate"/>
                    <path id="Trazado_143771" data-name="Trazado 143771" d="M340.7,137.3l-10.343,2.142c.358-1.628,2.221-3.137,4.686-3.628C337.46,135.332,339.72,135.984,340.7,137.3Z" transform="translate(-328.451 -127.064)" fill="#fff" opacity="0.5"/>
                  </g>
                  <g id="Grupo_118972" data-name="Grupo 118972" transform="translate(48.572 47.204)">
                    <path id="Trazado_143772" data-name="Trazado 143772" d="M319.359,146.586a1.489,1.489,0,0,1-1.02,1.9l-.044.015L306.6,151.8h0a1.49,1.49,0,0,1-1.863-1.083c-1.034-4.319-2.02-11.593,3.824-13.191C314.075,136.018,317.649,141.5,319.359,146.586Z" transform="translate(-303.951 -137.269)" fill="#ffb1a7" opacity="0.4" style="mix-blend-mode: multiply;isolation: isolate"/>
                    <path id="Trazado_143773" data-name="Trazado 143773" d="M316.187,140.819l-11.7,3.294c.275-1.9,2.289-3.779,5.079-4.544C312.31,138.824,314.952,139.382,316.187,140.819Z" transform="translate(-301.842 -129.585)" fill="#fff" opacity="0.5"/>
                  </g>
                </g>
              </g>
              <g id="Grupo_118977" data-name="Grupo 118977" transform="translate(263.117 303.885)" style="isolation: isolate">
                <g id="Grupo_118975" data-name="Grupo 118975" transform="translate(0 4.045)">
                  <path id="Trazado_143774" data-name="Trazado 143774" d="M344.569,226.184a38.253,38.253,0,0,1-5.034-.328c-7.946-1.059-14.657-4.74-18.412-10.1-4.667-6.652-4.922-16.275-.622-23.932a2.6,2.6,0,0,1,4.53,2.539c-3.338,5.956-3.2,13.358.348,18.417,2.922,4.172,8.334,7.059,14.848,7.932,9.907,1.314,20.77-1.99,29.064-8.858,7.642-6.338,15.172-13.593,15.961-26.309.093-1.5.456-14.755-15.731-16.255-7.858-.7-15.863,3.417-22.677,7.559a2.6,2.6,0,0,1-2.7-4.436c7.539-4.583,16.505-9.162,25.853-8.294,17.1,1.588,20.892,14.417,20.432,21.75-.912,14.785-9.686,23.226-17.833,29.981A44.578,44.578,0,0,1,344.569,226.184Z" transform="translate(-317.441 -164.008)" fill="#d919d9"/>
                </g>
                <g id="Grupo_118976" data-name="Grupo 118976" transform="translate(21.833)">
                  <path id="Trazado_143775" data-name="Trazado 143775" d="M324.494,184.59a2.593,2.593,0,0,1-1.882-.809,2.626,2.626,0,0,1-.7-2.132l2.167-16.211a2.6,2.6,0,0,1,5.152.686l-1.74,13.02,12.584-1.025a2.6,2.6,0,1,1,.422,5.177L324.7,184.58C324.631,184.585,324.562,184.59,324.494,184.59Z" transform="translate(-321.895 -163.183)" fill="#d919d9"/>
                </g>
              </g>
            </g>
          </g>
        </g>
      </g>
    </g>
    <g id="Grupo_118945" data-name="Grupo 118945" transform="translate(-2635 -11700)">
      <circle id="Elipse_4174" data-name="Elipse 4174" cx="39" cy="39" r="39" transform="translate(230 6188)" fill="#ffce26"/>
      <path id="Trazado_146936" data-name="Trazado 146936" d="M-3.637-16.124h2.95q3.507,0,3.507-3.433a2.968,2.968,0,0,0-.835-2.18,3.166,3.166,0,0,0-2.356-.844,3.39,3.39,0,0,0-2.162.724,2.208,2.208,0,0,0-.918,1.8H-9.7a6.4,6.4,0,0,1,1.188-3.8,7.842,7.842,0,0,1,3.293-2.607,11.26,11.26,0,0,1,4.629-.937,11.064,11.064,0,0,1,7.088,2.06,6.847,6.847,0,0,1,2.579,5.659,5.707,5.707,0,0,1-1.067,3.293A7.6,7.6,0,0,1,4.9-13.879a7.263,7.263,0,0,1,3.377,2.366A6.23,6.23,0,0,1,9.5-7.589,6.971,6.971,0,0,1,6.717-1.8,11.553,11.553,0,0,1-.594.371,11.981,11.981,0,0,1-5.52-.64a7.718,7.718,0,0,1-3.442-2.8,7.284,7.284,0,0,1-1.169-4.073h6.29a2.815,2.815,0,0,0,1,2.152,3.537,3.537,0,0,0,2.468.909,3.705,3.705,0,0,0,2.635-.918,3.07,3.07,0,0,0,.983-2.347,3.589,3.589,0,0,0-1.021-2.895,4.266,4.266,0,0,0-2.82-.854H-3.637Z" transform="translate(269 6240)" fill="#12263f"/>
    </g>
  </g>
</svg>
