<svg xmlns="http://www.w3.org/2000/svg" xmlns:xlink="http://www.w3.org/1999/xlink" width="435" height="434.999" viewBox="0 0 435 434.999">
  <defs>
    <clipPath id="clip-path">
      <ellipse id="Elipse_4185" data-name="Elipse 4185" cx="217.5" cy="217.5" rx="217.5" ry="217.5" transform="translate(0 434.999) rotate(-90)" fill="none"/>
    </clipPath>
  </defs>
  <g id="Grupo_125922" data-name="Grupo 125922" transform="translate(820 5536)">
    <g id="Grupo_119039" data-name="Grupo 119039" transform="translate(-1028.72 -5817.261)">
      <g id="Grupo_119061" data-name="Grupo 119061" transform="translate(208.72 281.261)" clip-path="url(#clip-path)">
        <g id="Grupo_119060" data-name="Grupo 119060" transform="translate(-5.346)">
          <g id="Grupo_119059" data-name="Grupo 119059">
            <g id="Grupo_119039-2" data-name="Grupo 119039" transform="translate(5.346)">
              <ellipse id="Elipse_4184" data-name="Elipse 4184" cx="217.5" cy="217.5" rx="217.5" ry="217.5" transform="translate(0 434.999) rotate(-90)" fill="#766abd"/>
            </g>
            <g id="Grupo_119049" data-name="Grupo 119049" transform="translate(0 91.333)">
              <g id="Grupo_119043" data-name="Grupo 119043" transform="translate(0 15.243)">
                <g id="Grupo_119042" data-name="Grupo 119042">
                  <g id="Grupo_119040" data-name="Grupo 119040">
                    <path id="Trazado_143839" data-name="Trazado 143839" d="M211.391,515.206l-59.462-76.756s91.374-61.716,95.055-71.207,1.6-33.456,18.878-53.9c6.329-7.49,14.064-23.24,20.4-37.54.9-2.025,1.76-4.01,2.588-5.941,4.152-9.686,7.4-17.981,8.726-21.417l.01-.034a1.705,1.705,0,0,1,2.353-.927c3.838,1.9,12.834,7.677,13.294,20.2.583,15.922-2.377,26.731-5.6,32.883,0,0-8.637,19.848-4.544,23.932,5.368,5.333,22.118-7.034,22.118-7.034,28.392-17.167,33.216,16.525,36.692,19.466,3.931,3.216,17.589,28.392,19.981,32.172,2.417,3.838,12.662,28.961,16.848,33.221,4.024,4.074,35.672,8.985,23.672,14.961-43.56,21.687-83.251,43.442-131.884,44.858Z" transform="translate(-151.929 -247.304)" fill="#ffaf9f"/>
                  </g>
                  <g id="Grupo_119041" data-name="Grupo 119041" transform="translate(99.649 91.572)" opacity="0.6" style="mix-blend-mode: multiply;isolation: isolate">
                    <path id="Trazado_143840" data-name="Trazado 143840" d="M219.338,266.213a119.911,119.911,0,0,1-10.927,40.05C201.191,321.41,176.906,345,176.906,345s28.78-17.853,38.422-32.314C228.941,292.272,219.338,266.213,219.338,266.213Z" transform="translate(-154.116 -265.09)" fill="#ffb1a7"/>
                    <path id="Trazado_143841" data-name="Trazado 143841" d="M186.706,265.984s21.579,31.853,27.363,45.054,13.51,37.775,13.51,37.775S204.054,310.4,200.339,300.7C195.422,287.872,186.706,265.984,186.706,265.984Z" transform="translate(-115.877 -265.984)" fill="#ffb1a7"/>
                    <path id="Trazado_143842" data-name="Trazado 143842" d="M214.856,320.01s-20.7-5.912-29.667-16.089c-10.147-11.515-12.932-20.265-12.932-20.265s2,19.525,14.52,28.843C201,323.084,214.856,320.01,214.856,320.01Z" transform="translate(-172.257 -197.024)" fill="#ffb1a7"/>
                  </g>
                </g>
              </g>
              <g id="Grupo_119044" data-name="Grupo 119044" transform="translate(157.244 54.214)">
                <path id="Trazado_143843" data-name="Trazado 143843" d="M196.19,284.368c-3.3.73-4.333,4.662-4.039,8.677.422,5.77,9.035,8.642,12.481,3C207.872,290.741,202.283,283.02,196.19,284.368Z" transform="translate(-152.411 -142.256)" fill="#fff"/>
                <path id="Trazado_143844" data-name="Trazado 143844" d="M193.681,267.578c-1.931-1.593-4.858-1.27-6.917,1.593-2.51,3.485-.941,9.221,3.926,8.672C195.274,277.323,197.25,270.534,193.681,267.578Z" transform="translate(-177.858 -210.879)" fill="#fff"/>
                <path id="Trazado_143845" data-name="Trazado 143845" d="M187.711,273.115c-2.985.9-4.667,4.157-3.118,8.27,1.882,5,8.917,7.333,11.7,1.907C198.917,278.179,193.236,271.448,187.711,273.115Z" transform="translate(-184.006 -186.567)" fill="#fff"/>
                <path id="Trazado_143846" data-name="Trazado 143846" d="M308.445,349.042c14.025-.774,18.108-20.373,15.28-28.294C318.882,307.178,307.553,304.9,292.8,305.8c.127-.108.245-.23.368-.343,7.343-5.142,11.549-14.794,9.27-23.466-2.324-8.848-11.839-15.476-20.809-13.686a18.852,18.852,0,0,0-11.3,7.436,16.162,16.162,0,0,0-3.613,3.26c.574-12.309-10.363-24.392-22.667-23.716-20.191,1.108-15.951,20.6-16.476,33.594-3.735-7.108-11.99-11.838-19.922-10.593s-14.564,8.956-13.8,16.946c.877,9.172,9.638,14.883,18.682,17.961-8.24-1.176-17.309,4.118-20.1,12.167a14.644,14.644,0,0,0-2.353,9.147c.6,6.324,4.986,10.966,10.593,14.275a19.9,19.9,0,0,0,3.73,2.157,20.422,20.422,0,0,0,2.431.8c.642.245,1.28.51,1.926.73-8.363-1.2-17.593,4.27-20.24,12.515-3.123,9.74,2.706,21.191,12.108,25.231s21.1.907,27.976-6.672c-1.372,7.108-.319,14.9,3.971,20.736s12.1,9.24,19.074,7.294c6.51-1.814,11.2-7.775,13.314-14.191s2.078-13.314,2.02-20.074c1.887,5.677,19.966,23.8,36.947,11.917C322.7,376.076,319.734,356.39,308.445,349.042Z" transform="translate(-169.733 -255.254)" fill="#fff"/>
              </g>
              <g id="Grupo_119048" data-name="Grupo 119048" transform="translate(182.776)">
                <g id="Grupo_119045" data-name="Grupo 119045">
                  <path id="Trazado_143847" data-name="Trazado 143847" d="M194.544,345.676c2.936,3.368,6.829,3.275,8.711,8.142,1.26,3.255-1.5,9.265-1.745,12.75a14.708,14.708,0,0,0,3.784,10.809c2.451,2.681,7.383,4.8,9.142,7.975,1.711,3.088-3.123,10.456.319,19.167,3.28,8.294,11.858,9.667,12.711,11.054,1.627,2.647-3.211,14.858,3.162,23.187l.039.068c5.559,8.593,22.211-.078,26.25-1.75,5.181-2.147,10.343-4.294,15.432-6.4,0,0,18.981-9.848,23.5-4.186,3.441,4.324-8.623,22.162-8.623,22.162-4.289,5.471-9.1,15.378-11.2,30.53-1.652,11.917,6.451,18.4,10,20.628a1.854,1.854,0,0,0,2.524-.617l.02-.029c1.917-3.108,6.593-10.6,12.412-19.319,1.167-1.73,2.367-3.52,3.613-5.333,8.8-12.843,19.26-26.9,26.907-33.29,20.873-17.436,22.8-40.373,28.133-48.956,5.314-8.579,120.737-66.716,120.737-66.716l-39.118-81.354L338.546,294.17a28.182,28.182,0,0,1-14.333,2.721c-46.1-3.27-86.364-.333-128.875,25.167-7.039,4.226-6.51,9.064-5.6,13.628A21.507,21.507,0,0,0,194.544,345.676Z" transform="translate(-189.215 -244.194)" fill="#ffc0b1"/>
                </g>
                <g id="Grupo_119046" data-name="Grupo 119046" transform="translate(11.002 87.552)" opacity="0.5" style="mix-blend-mode: multiply;isolation: isolate">
                  <path id="Trazado_143848" data-name="Trazado 143848" d="M204.445,298.439c-.564.294,1.529-6.721.416-10.417-.049-.181-.088-.328-.157-.554-1.02-3.4-6.372-7.907-5.76-7.961a10.2,10.2,0,0,1,5.471,1.01,9.906,9.906,0,0,1,4.736,5.863l.157.534a10.592,10.592,0,0,1-.784,7.824A10.031,10.031,0,0,1,204.445,298.439Z" transform="translate(-162.441 -194.091)" fill="#ffb1a7"/>
                  <path id="Trazado_143849" data-name="Trazado 143849" d="M203.378,292.2c-.534.338.877-6.8-.593-10.378-.074-.167-.123-.314-.216-.534-1.348-3.284-7.137-7.309-6.525-7.412a10.331,10.331,0,0,1,5.564.544,10.05,10.05,0,0,1,5.3,5.422l.211.51a10.469,10.469,0,0,1-.025,7.828A9.816,9.816,0,0,1,203.378,292.2Z" transform="translate(-173.742 -216.508)" fill="#ffb1a7"/>
                  <path id="Trazado_143850" data-name="Trazado 143850" d="M200.509,285.93c-.534.338.878-6.8-.593-10.373-.069-.172-.122-.319-.211-.539-1.348-3.284-7.137-7.309-6.53-7.412a10.327,10.327,0,0,1,5.564.544,10.059,10.059,0,0,1,5.3,5.422l.211.515a10.457,10.457,0,0,1-.024,7.824A9.863,9.863,0,0,1,200.509,285.93Z" transform="translate(-184.937 -240.966)" fill="#ffb1a7"/>
                  <path id="Trazado_143851" data-name="Trazado 143851" d="M197.708,277.7c-.451.284.74-5.755-.5-8.784-.059-.147-.1-.27-.177-.456-1.142-2.779-6.044-6.186-5.529-6.275a8.741,8.741,0,0,1,4.711.461,8.518,8.518,0,0,1,4.49,4.588l.177.436a8.856,8.856,0,0,1-.02,6.628A8.4,8.4,0,0,1,197.708,277.7Z" transform="translate(-191.459 -262.054)" fill="#ffb1a7"/>
                </g>
                <g id="Grupo_119047" data-name="Grupo 119047" transform="translate(95.326 228.185)">
                  <path id="Trazado_143852" data-name="Trazado 143852" d="M219.568,291.248l.064.049,7.078,4.52c-1.088,1.583-2.1,3.171-3.117,4.686-5.078,7.6-9.182,14.314-10.853,17.025-7.633-6.275-3.255-17.334,2.564-25.491A3.169,3.169,0,0,1,219.568,291.248Z" transform="translate(-208.661 -290.743)" fill="#ffb1a7" opacity="0.4" style="mix-blend-mode: multiply;isolation: isolate"/>
                  <path id="Trazado_143853" data-name="Trazado 143853" d="M211.028,290.856l7.088,4.525c-1.088,1.583-2.182,3.27-3.2,4.784C211.788,297.292,210.357,293.758,211.028,290.856Z" transform="translate(-200.058 -290.303)" fill="#fff" opacity="0.5"/>
                </g>
              </g>
            </g>
            <g id="Grupo_119058" data-name="Grupo 119058" transform="translate(111.487 171.973)">
              <g id="Grupo_119053" data-name="Grupo 119053" transform="translate(0 53.117)">
                <g id="Grupo_119050" data-name="Grupo 119050">
                  <path id="Trazado_143854" data-name="Trazado 143854" d="M177.265,289.6a2.551,2.551,0,0,1-1.5-.48,2.593,2.593,0,0,1-.613-3.618l9.181-12.927a2.583,2.583,0,0,1,1.956-1.088,2.616,2.616,0,0,1,2.078.843l11.015,12.093a2.6,2.6,0,1,1-3.838,3.5l-8.848-9.706L179.382,288.5A2.58,2.58,0,0,1,177.265,289.6Z" transform="translate(-174.672 -271.48)" fill="#d919d9"/>
                </g>
                <g id="Grupo_119051" data-name="Grupo 119051" transform="translate(22.174 56.839)">
                  <path id="Trazado_143855" data-name="Trazado 143855" d="M198.135,303.889h-.123l-16.338-.755a2.6,2.6,0,0,1-2.476-2.716,2.7,2.7,0,0,1,2.716-2.476l13.123.608L192.929,286.1a2.6,2.6,0,0,1,5.123-.868l2.642,15.623a2.59,2.59,0,0,1-2.559,3.03Z" transform="translate(-179.195 -283.075)" fill="#d919d9"/>
                </g>
                <g id="Grupo_119052" data-name="Grupo 119052" transform="translate(8.961 5.321)">
                  <path id="Trazado_143856" data-name="Trazado 143856" d="M205.343,340.609a2.6,2.6,0,0,1-1.52-.485c-24.241-17.525-27.2-62.878-27.319-64.8a2.6,2.6,0,0,1,5.186-.309c.024.446,2.936,44.829,25.172,60.9a2.595,2.595,0,0,1-1.52,4.7Z" transform="translate(-176.5 -272.565)" fill="#d919d9"/>
                </g>
              </g>
              <g id="Grupo_119057" data-name="Grupo 119057" transform="translate(114.403)">
                <g id="Grupo_119054" data-name="Grupo 119054">
                  <path id="Trazado_143857" data-name="Trazado 143857" d="M202.309,282.1a2.6,2.6,0,0,1-2.578-2.319l-1.706-16.27a2.568,2.568,0,0,1,.75-2.108,2.617,2.617,0,0,1,2.118-.745l15.75,1.735a2.6,2.6,0,0,1-.569,5.162l-12.549-1.382,1.372,13.064a2.56,2.56,0,0,1-2.588,2.863Z" transform="translate(-198.01 -260.644)" fill="#d919d9"/>
                </g>
                <g id="Grupo_119055" data-name="Grupo 119055" transform="translate(22.44 56.914)">
                  <path id="Trazado_143858" data-name="Trazado 143858" d="M216.187,291.046a2.616,2.616,0,0,1-1.868-.789l-11.005-11.4a2.6,2.6,0,0,1,3.735-3.613l8.77,9.088,7.294-10.922a2.6,2.6,0,0,1,4.319,2.883l-9.084,13.6a2.6,2.6,0,0,1-1.926,1.142A1.879,1.879,0,0,1,216.187,291.046Z" transform="translate(-202.588 -272.255)" fill="#d919d9"/>
                </g>
                <g id="Grupo_119056" data-name="Grupo 119056" transform="translate(3.366 3.632)">
                  <path id="Trazado_143859" data-name="Trazado 143859" d="M230.8,327.963c-.088,0-.181-.005-.269-.01a2.6,2.6,0,0,1-2.319-2.848c2.784-27.3-28.437-58.971-28.755-59.29a2.6,2.6,0,1,1,3.677-3.667c1.358,1.363,33.28,33.731,30.245,63.481A2.6,2.6,0,0,1,230.8,327.963Z" transform="translate(-198.697 -261.385)" fill="#d919d9"/>
                </g>
              </g>
            </g>
          </g>
        </g>
      </g>
    </g>
    <g id="Grupo_119014" data-name="Grupo 119014" transform="translate(-1035 -11700)">
      <circle id="Elipse_4174" data-name="Elipse 4174" cx="39" cy="39" r="39" transform="translate(230 6188)" fill="#ffce26"/>
      <path id="Trazado_146939" data-name="Trazado 146939" d="M5.752-27.405v4.917H5.474A9.387,9.387,0,0,0-.288-20.809a7.09,7.09,0,0,0-2.774,4.667,7.312,7.312,0,0,1,5.344-2.078A6.82,6.82,0,0,1,7.867-15.66,10.328,10.328,0,0,1,9.945-8.943,9.457,9.457,0,0,1,8.73-4.212a8.672,8.672,0,0,1-3.4,3.368A9.757,9.757,0,0,1,.5.371,10.084,10.084,0,0,1-4.639-.937,8.994,8.994,0,0,1-8.164-4.676a12.311,12.311,0,0,1-1.3-5.6v-2.5A15.6,15.6,0,0,1-7.672-20.29a12.981,12.981,0,0,1,5.112-5.223,14.615,14.615,0,0,1,7.366-1.893ZM.111-13.4a3.588,3.588,0,0,0-2.078.573,3.642,3.642,0,0,0-1.243,1.4v1.866q0,5.1,3.544,5.1A2.878,2.878,0,0,0,2.718-5.728a5.181,5.181,0,0,0,.956-3.2A5.086,5.086,0,0,0,2.7-12.149,3.12,3.12,0,0,0,.111-13.4Z" transform="translate(269 6240)" fill="#12263f"/>
    </g>
  </g>
</svg>
