<svg xmlns="http://www.w3.org/2000/svg" xmlns:xlink="http://www.w3.org/1999/xlink" width="435" height="435" viewBox="0 0 435 435">
  <defs>
    <clipPath id="clip-path">
      <circle id="Elipse_4187" data-name="Elipse 4187" cx="217.5" cy="217.5" r="217.5" transform="translate(0 0)" fill="none"/>
    </clipPath>
  </defs>
  <g id="Grupo_125923" data-name="Grupo 125923" transform="translate(294 5536)">
    <g id="Grupo_119083" data-name="Grupo 119083" transform="translate(-626.666 -5829.806)">
      <g id="Grupo_119082" data-name="Grupo 119082" transform="translate(332.666 293.806)" clip-path="url(#clip-path)">
        <g id="Grupo_119081" data-name="Grupo 119081" transform="translate(0 0)">
          <g id="Grupo_119080" data-name="Grupo 119080">
            <circle id="Elipse_4186" data-name="Elipse 4186" cx="217.5" cy="217.5" r="217.5" fill="#766abd"/>
            <g id="Grupo_119075" data-name="Grupo 119075" transform="translate(39.936 43.317)">
              <g id="Grupo_119068" data-name="Grupo 119068" transform="translate(104.979)">
                <path id="Trazado_143860" data-name="Trazado 143860" d="M534.246,609.126,443.1,641.2s-44.6-154.6-52.359-161.051-30.216-11.544-44.6-34.623c-5.27-8.456-17.75-20.76-29.25-31.25-1.628-1.485-3.23-2.927-4.784-4.319-7.829-6.966-14.6-12.633-17.417-14.961l-.029-.02a1.863,1.863,0,0,1-.265-2.588c2.706-3.211,10.245-10.339,21.814-7.059,14.721,4.176,23.868,10.309,28.692,15.314,0,0,16,14.407,20.76,11.6,6.23-3.7-.9-23.849-.9-23.849-8.6-33.04-18.088-69.06-22.736-94.933-.642-3.574-1.289-7.265-.6-10.785s3.054-6.882,6.348-7.373c4.814-.725,8.6,4.441,11.074,9.064,9.476,17.76,29.358,76.286,32.917,73.741,3.931-2.907-21.378-72.089-25.422-105.668-.52-4.387,1.407-16.01,8.2-17.794,9.574-2.515,15.927,14.932,18.137,20.7,10.667,27.834,29.476,93.933,33.535,92.707,4.113-1.23-10.554-59.79-15.064-85.1-.789-4.422-1.578-9-.774-13.378s3.623-8.588,7.676-9.412c3.78-.75,7.716,1.6,10.191,4.878s3.8,7.373,5.074,11.363c7.642,23.927,22.564,87.83,27.51,84.982,4.74-2.74,1.976-38.417,3.912-57.506.559-5.5,4.549-14.765,9.608-14.182,3.951.456,7.863,6.441,9.02,13.059,2.373,13.584,1.25,57.682,3.716,71.261,8.941,49.3,12.28,63.364,1.4,111.614Z" transform="translate(-293.984 -234.399)" fill="#ffc0b1"/>
                <g id="Grupo_119062" data-name="Grupo 119062" transform="translate(78.493 112.902)" opacity="0.5" style="mix-blend-mode: multiply;isolation: isolate">
                  <path id="Trazado_143861" data-name="Trazado 143861" d="M310,267.037c-.245-.588,6.549,2.142,10.334,1.373.181-.034.338-.059.569-.108,3.476-.706,8.456-5.623,8.451-5a10.22,10.22,0,0,1-1.5,5.353,9.9,9.9,0,0,1-6.275,4.177l-.544.108a10.586,10.586,0,0,1-7.716-1.5A10.039,10.039,0,0,1,310,267.037Z" transform="translate(-309.997 -234.75)" fill="#ffb1a7"/>
                  <path id="Trazado_143862" data-name="Trazado 143862" d="M316.058,266.559c-.289-.564,6.686,1.5,10.383.358.176-.054.328-.093.554-.162,3.392-1.044,7.932-6.441,7.981-5.824a10.337,10.337,0,0,1-1.054,5.49,10.033,10.033,0,0,1-5.883,4.784l-.529.167a10.478,10.478,0,0,1-7.794-.745A9.822,9.822,0,0,1,316.058,266.559Z" transform="translate(-286.379 -243.963)" fill="#ffb1a7"/>
                  <path id="Trazado_143863" data-name="Trazado 143863" d="M322.562,264.272c-.289-.559,6.687,1.5,10.383.363.177-.054.328-.093.554-.162,3.392-1.044,7.931-6.441,7.98-5.824a10.336,10.336,0,0,1-1.049,5.49,10.093,10.093,0,0,1-5.887,4.784l-.529.162a10.478,10.478,0,0,1-7.794-.74A9.868,9.868,0,0,1,322.562,264.272Z" transform="translate(-261 -252.867)" fill="#ffb1a7"/>
                  <path id="Trazado_143864" data-name="Trazado 143864" d="M328.692,262.237c-.245-.476,5.662,1.265,8.794.3.147-.049.274-.078.466-.137,2.873-.887,6.716-5.456,6.76-4.932a8.759,8.759,0,0,1-.892,4.647,8.528,8.528,0,0,1-4.98,4.054l-.451.137a8.873,8.873,0,0,1-6.6-.627A8.371,8.371,0,0,1,328.692,262.237Z" transform="translate(-237.076 -257.43)" fill="#ffb1a7"/>
                </g>
                <g id="Grupo_119063" data-name="Grupo 119063" transform="translate(75.725 5.367)">
                  <path id="Trazado_143865" data-name="Trazado 143865" d="M327.231,247.481a1.837,1.837,0,0,1-1.181,2.343l-.054.015-13.525,3.686h0a1.769,1.769,0,0,1-2.147-1.422c-1.182-5.441-2.3-14.579,4.456-16.358C321.153,234.069,325.27,241.064,327.231,247.481Z" transform="translate(-309.432 -235.494)" fill="#ffb1a7" opacity="0.4" style="mix-blend-mode: multiply;isolation: isolate"/>
                  <path id="Trazado_143866" data-name="Trazado 143866" d="M323.577,240.118,310.052,243.8c.324-2.363,2.657-4.642,5.883-5.49C319.1,237.481,322.155,238.28,323.577,240.118Z" transform="translate(-307.013 -225.773)" fill="#fff" opacity="0.5"/>
                </g>
                <g id="Grupo_119064" data-name="Grupo 119064" transform="translate(0.689 157.694)">
                  <path id="Trazado_143867" data-name="Trazado 143867" d="M319.209,279.912l-.054.054-5.456,6.387c-1.417-1.3-2.853-2.52-4.211-3.735-6.824-6.079-12.907-11.074-15.363-13.1,7.27-6.691,17.623-.829,24.893,6.064A3.168,3.168,0,0,1,319.209,279.912Z" transform="translate(-294.125 -266.568)" fill="#ffb1a7" opacity="0.4" style="mix-blend-mode: multiply;isolation: isolate"/>
                  <path id="Trazado_143868" data-name="Trazado 143868" d="M307,269.644l-5.461,6.4c-1.417-1.3-2.941-2.618-4.3-3.833C300.519,269.507,304.22,268.58,307,269.644Z" transform="translate(-281.97 -256.246)" fill="#fff" opacity="0.5"/>
                </g>
                <g id="Grupo_119065" data-name="Grupo 119065" transform="translate(118.941 8.959)">
                  <path id="Trazado_143869" data-name="Trazado 143869" d="M336.042,248.215a1.841,1.841,0,0,1-1.181,2.343l-.054.015-13.525,3.686h0a1.77,1.77,0,0,1-2.142-1.422c-1.181-5.446-2.3-14.584,4.451-16.358C329.969,234.8,334.082,241.8,336.042,248.215Z" transform="translate(-318.248 -236.226)" fill="#ffb1a7" opacity="0.4" style="mix-blend-mode: multiply;isolation: isolate"/>
                  <path id="Trazado_143870" data-name="Trazado 143870" d="M332.392,240.855l-13.525,3.686c.323-2.368,2.662-4.647,5.887-5.5C327.921,238.212,330.97,239.016,332.392,240.855Z" transform="translate(-315.833 -226.508)" fill="#fff" opacity="0.5"/>
                </g>
                <g id="Grupo_119066" data-name="Grupo 119066" transform="translate(173.73 38.128)">
                  <path id="Trazado_143871" data-name="Trazado 143871" d="M341.564,252.389a1.251,1.251,0,0,1-1.211,1.333h-.039l-9.706-.127h0a1.263,1.263,0,0,1-1.181-1.363c.181-3.853,1.054-10.162,5.892-10.054C339.882,242.281,341.392,247.732,341.564,252.389Z" transform="translate(-329.425 -242.177)" fill="#ffb1a7" opacity="0.4" style="mix-blend-mode: multiply;isolation: isolate"/>
                  <path id="Trazado_143872" data-name="Trazado 143872" d="M339.372,246.656l-9.706-.127c.637-1.52,2.608-2.593,4.917-2.539C336.848,244.038,338.75,245.156,339.372,246.656Z" transform="translate(-328.483 -235.111)" fill="#fff" opacity="0.5"/>
                </g>
                <g id="Grupo_119067" data-name="Grupo 119067" transform="translate(49.576 44.942)">
                  <path id="Trazado_143873" data-name="Trazado 143873" d="M318.222,253.529a1.459,1.459,0,0,1-1.02,1.819l-.044,0-10.912,2.407h0a1.425,1.425,0,0,1-1.662-1.216c-.76-4.378-1.353-11.691,4.1-12.843C313.825,242.617,316.869,248.342,318.222,253.529Z" transform="translate(-304.098 -243.567)" fill="#ffb1a7" opacity="0.4" style="mix-blend-mode: multiply;isolation: isolate"/>
                  <path id="Trazado_143874" data-name="Trazado 143874" d="M315.448,247.488,304.536,249.9c.338-1.868,2.279-3.593,4.878-4.142C311.967,245.219,314.374,245.974,315.448,247.488Z" transform="translate(-302.387 -235.703)" fill="#fff" opacity="0.5"/>
                </g>
              </g>
              <g id="Grupo_119070" data-name="Grupo 119070" transform="translate(145.077 116.537)">
                <g id="Grupo_119069" data-name="Grupo 119069">
                  <path id="Trazado_143875" data-name="Trazado 143875" d="M320.9,259.722c-3.824.848-5.02,5.407-4.681,10.064.49,6.7,10.481,10.02,14.476,3.485C334.461,267.115,327.976,258.154,320.9,259.722Z" transform="translate(-247.53 -252.829)" fill="#fff"/>
                  <path id="Trazado_143876" data-name="Trazado 143876" d="M309.732,265.726c-1.358-1.122-3.412-.892-4.858,1.118-1.76,2.446-.657,6.471,2.76,6.083C310.85,272.564,312.237,267.8,309.732,265.726Z" transform="translate(-294.821 -231.313)" fill="#fff"/>
                  <path id="Trazado_143877" data-name="Trazado 143877" d="M304.766,275.266c-2.1.632-3.275,2.921-2.191,5.809,1.324,3.5,6.26,5.142,8.211,1.333C312.629,278.82,308.643,274.1,304.766,275.266Z" transform="translate(-302.164 -192.176)" fill="#fff"/>
                  <path id="Trazado_143878" data-name="Trazado 143878" d="M389.5,328.559c9.843-.544,12.711-14.3,10.726-19.858-3.4-9.525-11.348-11.123-21.706-10.5.088-.079.172-.162.26-.24,5.152-3.608,8.1-10.387,6.5-16.471-1.632-6.206-8.309-10.863-14.608-9.6a13.24,13.24,0,0,0-7.931,5.216,11.452,11.452,0,0,0-2.534,2.289c.4-8.637-7.275-17.118-15.912-16.647-14.167.779-11.2,14.461-11.564,23.584-2.618-4.99-8.412-8.309-13.98-7.441s-10.221,6.289-9.687,11.9c.618,6.436,6.765,10.446,13.113,12.608a13.461,13.461,0,0,0-14.108,8.534,10.25,10.25,0,0,0-1.652,6.422c.422,4.441,3.5,7.7,7.436,10.02a11.612,11.612,0,0,0,4.324,2.074c.451.176.9.363,1.353.515a13.455,13.455,0,0,0-14.206,8.785c-2.2,6.833,1.9,14.873,8.5,17.706s14.814.637,19.638-4.686c-.966,5-.226,10.461,2.784,14.559s8.5,6.486,13.387,5.123c4.569-1.275,7.863-5.461,9.343-9.966s1.461-9.343,1.417-14.084c1.328,3.98,14.02,16.7,25.932,8.358C399.5,347.534,397.428,333.716,389.5,328.559Z" transform="translate(-292.148 -240.385)" fill="#fff"/>
                  <path id="Trazado_143879" data-name="Trazado 143879" d="M310.886,258.329c-3.334.735-4.368,4.7-4.074,8.75.426,5.823,9.113,8.716,12.588,3.029C322.675,264.756,317.033,256.966,310.886,258.329Z" transform="translate(-284.215 -258.172)" fill="#fff"/>
                </g>
              </g>
              <g id="Grupo_119074" data-name="Grupo 119074" transform="translate(0 124.4)">
                <g id="Grupo_119071" data-name="Grupo 119071">
                  <path id="Trazado_143880" data-name="Trazado 143880" d="M360.34,264.026c3.583,2.671,3.794,6.554,8.794,8.059,3.343,1.005,9.123-2.221,12.574-2.726a14.716,14.716,0,0,1,11.074,2.936c2.863,2.235,5.353,6.986,8.657,8.5,3.211,1.466,10.186-3.922,19.133-1.167,8.525,2.632,10.554,11.074,12.005,11.819,2.765,1.417,14.564-4.348,23.358,1.358l.073.034c9,4.878,1.642,22.152.284,26.309-1.74,5.333-3.476,10.647-5.191,15.883,0,0-8.348,19.682-2.358,23.745,4.578,3.093,21.432-10.309,21.432-10.309,5.123-4.7,14.628-10.26,29.579-13.525,11.745-2.569,18.839,5.01,21.334,8.378a1.853,1.853,0,0,1-.417,2.564l-.029.024c-2.951,2.147-10.064,7.387-18.3,13.868q-2.463,1.941-5.044,4.015c-12.123,9.765-25.329,21.28-31.108,29.4-15.77,22.157-38.486,25.858-46.638,31.834S362.369,550.56,362.369,550.56l-89.8-35.888L310.486,414.19a44.5,44.5,0,0,0,1.779-18.662c-5.613-45.128,2.681-84.977,24.594-128.884,3.667-7.343,8.534-7.186,13.152-6.637A21.549,21.549,0,0,1,360.34,264.026Z" transform="translate(-272.569 -259.776)" fill="#ffc0b1"/>
                </g>
                <g id="Grupo_119072" data-name="Grupo 119072" transform="translate(74.417 10.973)" opacity="0.5" style="mix-blend-mode: multiply;isolation: isolate">
                  <path id="Trazado_143881" data-name="Trazado 143881" d="M324.979,272.152c.25-.583-6.579,2.049-10.353,1.226-.181-.039-.333-.069-.564-.118-3.466-.755-8.378-5.74-8.383-5.123a10.2,10.2,0,0,0,1.432,5.373,9.9,9.9,0,0,0,6.211,4.265l.544.118a10.606,10.606,0,0,0,7.74-1.387A10.008,10.008,0,0,0,324.979,272.152Z" transform="translate(-217.79 -238.331)" fill="#ffb1a7"/>
                  <path id="Trazado_143882" data-name="Trazado 143882" d="M318.616,271.584c.3-.559-6.706,1.4-10.388.211-.176-.059-.323-.1-.549-.172-3.377-1.093-7.838-6.554-7.9-5.936a10.308,10.308,0,0,0,.976,5.5,10.072,10.072,0,0,0,5.809,4.868l.534.172a10.481,10.481,0,0,0,7.8-.632A9.814,9.814,0,0,0,318.616,271.584Z" transform="translate(-240.957 -247.876)" fill="#ffb1a7"/>
                  <path id="Trazado_143883" data-name="Trazado 143883" d="M312.145,269.2c.3-.554-6.706,1.4-10.387.211-.177-.054-.324-.093-.549-.167-3.378-1.093-7.838-6.554-7.9-5.936a10.307,10.307,0,0,0,.976,5.5,10.067,10.067,0,0,0,5.814,4.868l.529.172a10.481,10.481,0,0,0,7.8-.632A9.829,9.829,0,0,0,312.145,269.2Z" transform="translate(-266.207 -257.143)" fill="#ffb1a7"/>
                  <path id="Trazado_143884" data-name="Trazado 143884" d="M303.732,267.046c.25-.47-5.682,1.186-8.794.176-.152-.044-.279-.078-.466-.142-2.863-.922-6.642-5.549-6.686-5.025a8.73,8.73,0,0,0,.823,4.662,8.537,8.537,0,0,0,4.922,4.123l.446.142a8.887,8.887,0,0,0,6.608-.534A8.311,8.311,0,0,0,303.732,267.046Z" transform="translate(-287.75 -262.015)" fill="#ffb1a7"/>
                </g>
                <g id="Grupo_119073" data-name="Grupo 119073" transform="translate(221.76 82.757)">
                  <path id="Trazado_143885" data-name="Trazado 143885" d="M318.448,288.922l.054.059,5.054,6.706c1.5-1.206,3-2.338,4.431-3.466,7.186-5.652,13.564-10.265,16.137-12.138-6.848-7.127-17.535-1.907-25.216,4.525A3.174,3.174,0,0,0,318.448,288.922Z" transform="translate(-317.807 -276.658)" fill="#ffb1a7" opacity="0.4" style="mix-blend-mode: multiply;isolation: isolate"/>
                  <path id="Trazado_143886" data-name="Trazado 143886" d="M317.949,279.407l5.059,6.716c1.5-1.206,3.093-2.427,4.525-3.559C324.424,279.667,320.792,278.515,317.949,279.407Z" transform="translate(-317.255 -267.084)" fill="#fff" opacity="0.5"/>
                </g>
              </g>
            </g>
            <g id="Grupo_119079" data-name="Grupo 119079" transform="translate(114.945 231.606)">
              <g id="Grupo_119077" data-name="Grupo 119077" transform="translate(49.675 14.548)">
                <g id="Grupo_119076" data-name="Grupo 119076">
                  <path id="Trazado_143887" data-name="Trazado 143887" d="M300.6,296.175a2.617,2.617,0,0,1-2.49-3.338l4.485-15.2a2.6,2.6,0,0,1,3.74-1.539l14.348,7.858a2.6,2.6,0,1,1-2.5,4.559l-11.52-6.314-3.574,12.113A2.6,2.6,0,0,1,300.6,296.175Z" transform="translate(-298.004 -275.777)" fill="#d919d9"/>
                </g>
              </g>
              <g id="Grupo_119078" data-name="Grupo 119078">
                <path id="Trazado_143888" data-name="Trazado 143888" d="M327.486,339.77c-9.667,0-20.079-4.4-28.1-12.814a40.536,40.536,0,0,1-11.4-24.4c-.735-8.981,2.088-17,7.956-22.589,6.936-6.613,16.98-8.775,27.549-5.946a2.6,2.6,0,1,1-1.343,5.015c-8.784-2.353-17.03-.642-22.628,4.691-4.706,4.48-6.961,11.02-6.358,18.407a35.369,35.369,0,0,0,9.985,21.241c11.873,12.451,29.564,14.941,39.432,5.52,8.431-8.039,8.6-22.618.407-34.667a2.595,2.595,0,1,1,4.289-2.921c9.637,14.162,9.162,31.55-1.113,41.354A26.663,26.663,0,0,1,327.486,339.77Z" transform="translate(-287.871 -272.809)" fill="#d919d9"/>
              </g>
            </g>
          </g>
        </g>
      </g>
    </g>
    <g id="Grupo_119016" data-name="Grupo 119016" transform="translate(-509 -11700)">
      <circle id="Elipse_4174" data-name="Elipse 4174" cx="39" cy="39" r="39" transform="translate(230 6188)" fill="#ffce26"/>
      <path id="Trazado_146940" data-name="Trazado 146940" d="M9.426-23.676-.668,0H-7.273L2.839-22.191H-10.038v-4.824H9.426Z" transform="translate(269 6240)" fill="#12263f"/>
    </g>
  </g>
</svg>
