<svg xmlns="http://www.w3.org/2000/svg" xmlns:xlink="http://www.w3.org/1999/xlink" width="521" height="422.917" viewBox="0 0 521 422.917">
  <defs>
    <clipPath id="clip-path">
      <rect id="Rectángulo_37551" data-name="Rectángulo 37551" width="521" height="395" transform="translate(-2395 -9057)" fill="#fff" stroke="#707070" stroke-width="1"/>
    </clipPath>
  </defs>
  <g id="Grupo_125922" data-name="Grupo 125922" transform="translate(2395 9057)">
    <rect id="generic-semi-trucks-at-parking-lot" width="521" height="422.704" rx="15" transform="translate(-2395 -9056.787)" fill="#fff3c9"/>
    <g id="Enmascarar_grupo_85" data-name="Enmascarar grupo 85" clip-path="url(#clip-path)">
      <g id="Grupo_116738" data-name="Grupo 116738" transform="translate(-2580.262 -9137.546)">
        <path id="Trazado_142941" data-name="Trazado 142941" d="M394.742,294.578l6.415,8.3-64.434,48.586a18.827,18.827,0,0,1-19.983.458L280.8,331.656s19.482-20.694,20.81-33.359l30.166,24.533Z" transform="translate(1.244 1.821)" fill="#f28888"/>
        <path id="Trazado_142942" data-name="Trazado 142942" d="M588.018,359.952c-18.058,20.63-22.311,18.646-55.264,27.338-3.952,1.412-7.348,2.691-10.324,3.816l-6.137-10.088,32.483-14.93.167-.067.017-.017a24.7,24.7,0,0,0,8.591-5.817c17.469-24.514,33.9-75.878,47.144-79.476C620.1,276.457,624.032,317.969,588.018,359.952Z" transform="translate(3.331 1.695)" fill="#f28888"/>
        <path id="Trazado_142943" data-name="Trazado 142943" d="M567.746,368.241c0,69.653-52.573,81.9-117.414,81.9s-117.394-12.249-117.394-81.9c0-17.694,3.391-37.387,9.512-56.923,13.281-42.387,43.555-77.046,82.757-97.93,34.8-18.541,39.3-41.224,39.6-42.971a.356.356,0,0,0,.019-.1c4.673-12.031,2.128-26.068-.576-38.953-2.924-13.958-4.1-28.295-7.02-42.253,5.29,16.842,19.606,30.283,36.924,33.763-16.742,14.337-20.858,39.768-14.137,60.746q1.1,3.49,2.5,6.86c5.071,12.427,13.342,23.224,23.165,32.35a145.872,145.872,0,0,1,13.1,13.9v.02h.02C548.438,272.44,567.746,326.027,567.746,368.241Z" transform="translate(1.706)" fill="#daf2f8"/>
        <path id="Trazado_142944" data-name="Trazado 142944" d="M506.3,167.993a55.619,55.619,0,0,0-19.8-1.906c3.278-5.5,13.291-8.193,18.558-9.4,3.741-.855,2.158-6.608-1.586-5.753-6.919,1.581-17.679,4.964-21.975,11.762a2.94,2.94,0,0,0-3.34-1.666,19.066,19.066,0,0,1-13.133-1.94c-3.254-1.753-6.152,2.944-3.346,4.924a3.318,3.318,0,0,0-.812,5.65c.475.367.971.7,1.461,1.032-.281-.194-.571-.367-.849-.573-3.077-2.3-6.054,2.877-3.01,5.15a27.228,27.228,0,0,0,22.213,4.688c2.17-.458,2.547-2.569,1.761-4.119a3.1,3.1,0,0,0,1.171-3.443,49.343,49.343,0,0,1,21.1,1.341C508.414,174.785,509.994,169.032,506.3,167.993Z" transform="translate(2.807 0.547)" fill="#2f335b"/>
        <path id="Trazado_142945" data-name="Trazado 142945" d="M756.929,665.318c0,4.571-138.009,8.277-308.252,8.277s-308.25-3.706-308.25-8.277,138.008-8.278,308.25-8.278S756.929,660.746,756.929,665.318Z" transform="translate(0 5.032)" fill="#bed0db"/>
        <path id="Trazado_142946" data-name="Trazado 142946" d="M691.644,608.942c5.283,3,8.026,9.375,7.9,15.448s-2.715,11.849-6.007,16.954-7.305,9.7-10.743,14.711c-1.739,2.534-3.273,6.151-1.211,8.431a4.92,4.92,0,0,0,4.836,1.139A14.484,14.484,0,0,0,691,663.174c14.036-9.846,30.415-21,44.45-30.845a118.094,118.094,0,0,1-24.7-31.241C705.237,603.176,697.158,606.854,691.644,608.942Z" transform="translate(4.787 4.537)" fill="#16162b"/>
        <path id="Trazado_142947" data-name="Trazado 142947" d="M532.765,623.247A42.253,42.253,0,0,1,492.3,644.626c-2.96-.3-6-.924-8.868-.143s-5.491,3.581-4.809,6.477c.726,3.089,4.408,4.281,7.512,4.938L540.3,667.381q5.239-18.117,10.477-36.235C544.661,629.243,538.88,625.151,532.765,623.247Z" transform="translate(2.996 4.733)" fill="#16162b"/>
        <path id="Trazado_142948" data-name="Trazado 142948" d="M639.5,395.135l6.4,110.955,74.984,105.658-24.54,12.27-83.164-97.478L592.04,442.014Z" transform="translate(4.002 2.712)" fill="#364f8a"/>
        <path id="Trazado_142949" data-name="Trazado 142949" d="M640.743,390.355c-.127,1.276-.326,2.908-.609,4.836a.02.02,0,0,1,0,.028c-2.411,17.247-10.623,58.181-36.565,90.391q-2.276,2.851-4.766,5.6L552.55,638.877l-32.04-6.028s45.557-142.431,61.5-243.474Q611.37,389.865,640.743,390.355Z" transform="translate(3.368 2.661)" fill="#364f8a"/>
        <path id="Trazado_142950" data-name="Trazado 142950" d="M588.448,462.886c3.391.594,6.388,2.87,9.852,3,3.16.12,3.175,5.047,0,4.926-4.019-.153-7.28-2.5-11.162-3.178C584.022,467.09,585.343,462.342,588.448,462.886Z" transform="translate(3.943 3.312)" fill="#223c70"/>
        <path id="Trazado_142951" data-name="Trazado 142951" d="M596.9,283.411s-15.629,25.784-24.449,50.251c0,0,3.628,6.855,15.558,10.923Z" transform="translate(3.828 1.722)" fill="#a0d1cd"/>
        <path id="Trazado_142952" data-name="Trazado 142952" d="M645.347,422.107c-25.885,7.446-69.656-6.028-69.656-6.028l9.8-74.505c-2.056-5.4-3.191-8.935-3.191-8.935.653-36.451,15.842-51.471,15.842-51.471l18.808-5.035c19.615,2.424,23.6,50.918,24.069,83.214Z" transform="translate(3.857 1.657)" fill="#a0d1cd"/>
        <path id="Trazado_142953" data-name="Trazado 142953" d="M597.084,284.684A1.306,1.306,0,0,0,599,286.1c5.3-2.945,17.206-9.259,21.514-8.861a21.3,21.3,0,0,1-1.826-4.977,18.969,18.969,0,0,1-.424-6.931c-2.418-6.417-5.4-9.555-8.372-10.853-3.485-1.5-6.969-.463-9.464.848a17.7,17.7,0,0,0-3.717,2.611.041.041,0,0,1-.025.012c2.327,5.273,2.353,12.32,1.748,18.21a.82.82,0,0,0-.013.18c-.025.283-.063.566-.1.848v.039C597.971,280.21,597.483,282.819,597.084,284.684Z" transform="translate(4.043 1.459)" fill="#ffa59d"/>
        <path id="Trazado_142954" data-name="Trazado 142954" d="M594.458,440.714c3.588,10.609,4.926,21.739,7.079,32.683,2.124,10.795,7.069,20.778,8.99,31.594.55,3.1-4.2,4.431-4.751,1.309-1.921-10.816-6.865-20.8-8.989-31.593-2.154-10.944-3.492-22.074-7.08-32.683C588.689,439.014,593.446,437.723,594.458,440.714Z" transform="translate(3.98 3.101)" fill="#223c70"/>
        <path id="Trazado_142955" data-name="Trazado 142955" d="M291.523,287.5l28.206,24.871a77.45,77.45,0,0,1-16.281,34.484S277.024,323.728,291.523,287.5Z" transform="translate(1.3 1.758)" fill="#4d7ac0"/>
        <path id="Trazado_142956" data-name="Trazado 142956" d="M190.736,613.076c-5.97,6.8-5.492,17.313-2.037,25.679s9.367,15.46,13.733,23.39c1.162,2.111,2.189,4.861.473,6.73a4.007,4.007,0,0,1-3.151,1.184c-2.124-.1-3.853-1.335-5.51-2.537l-38.8-28.132a4.393,4.393,0,0,1-.142-6.992A57.591,57.591,0,0,0,174,605.911C178.4,609.593,185.38,611.012,190.736,613.076Z" transform="translate(0.117 4.579)" fill="#1b1b30"/>
        <path id="Trazado_142957" data-name="Trazado 142957" d="M334.83,624.58a91.669,91.669,0,0,1,6.661,42.8,385.377,385.377,0,0,0,54.681-8.148,12.858,12.858,0,0,0,5.265-2.028c1.5-1.168,2.443-3.263,1.7-5.01-.985-2.328-4.053-2.707-6.575-2.883a66.4,66.4,0,0,1-47.483-25.6C344.408,624.384,339.507,623.9,334.83,624.58Z" transform="translate(1.723 4.737)" fill="#1b1b30"/>
        <path id="Trazado_142958" data-name="Trazado 142958" d="M248.2,397.548,241.8,508.5,166.818,614.162l24.54,12.27,83.164-97.479,21.132-84.527Z" transform="translate(0.234 2.733)" fill="#3e3e63"/>
        <path id="Trazado_142959" data-name="Trazado 142959" d="M367.111,635.245l-32.04,6.014L288.8,493.6q-2.468-2.724-4.752-5.574c-25.914-32.169-34.154-73.074-36.565-90.35-.113-.694-.2-1.347-.284-1.957l58.8-1.4C322.32,495.183,367.111,635.245,367.111,635.245Z" transform="translate(0.946 2.704)" fill="#3e3e63"/>
        <path id="Trazado_142960" data-name="Trazado 142960" d="M275.821,507.311c8.024-23.5,9.459-48.439,15.14-72.491.571-2.414,4.292-1.392,3.721,1.026-2.372,10.04-4,20.235-5.684,30.415a24.3,24.3,0,0,0,6.343-8.184c1.079-2.235,4.408-.28,3.331,1.947A27.75,27.75,0,0,1,288.2,471.569c-.033.021-.067.031-.1.049-2.1,12.409-4.476,24.751-8.562,36.717C278.744,510.672,275.016,509.669,275.821,507.311Z" transform="translate(1.199 3.051)" fill="#1b1b30"/>
        <path id="Trazado_142961" data-name="Trazado 142961" d="M316.264,433.745a160.949,160.949,0,0,1-30.536,2.879,156.43,156.43,0,0,1-43.5-6l4.141-77.853.014-.2c.568-16.269,2.142-34.862,5.986-49.359V303.2c3.631-13.6,9.22-23.573,17.857-24.65l18.794,5.035s5.2,5.134,9.659,16.68c3.149,8.2,5.928,19.645,6.2,34.792,0,0-1.248,3.887-3.5,9.745Z" transform="translate(0.902 1.679)" fill="#4d7ac0"/>
        <path id="Trazado_142962" data-name="Trazado 142962" d="M287.768,288.514c-5.3-2.953-17.208-9.26-21.507-8.86a20.65,20.65,0,0,0,2.245-11.911c7.781-20.695,21.581-7.388,21.581-7.388-3.683,8.334-1.616,21.071-.4,26.741A1.308,1.308,0,0,1,287.768,288.514Z" transform="translate(1.115 1.48)" fill="#fca2a2"/>
        <path id="Trazado_142963" data-name="Trazado 142963" d="M258.844,229.9c2.5,11.43,11.11,25.889,19.6,33.942,5.778,9.407,17.362,12.952,23.922,8.612,4.076-2.694,4.62-6.727,3.67-12.31-.111-.684-.251-1.381-.4-2.107-.39-1.856-.907-3.866-1.479-6.029l2.108-.684a1.67,1.67,0,0,0,.907-2.485l-6.909-11.221a71.2,71.2,0,0,1-1.619-13.343c0-1.716.558-3.754-.474-5.247a2.911,2.911,0,0,0-5.206,2.457A67.92,67.92,0,0,0,258.844,229.9Z" transform="translate(1.049 1.14)" fill="#fca2a2"/>
        <path id="Trazado_142964" data-name="Trazado 142964" d="M282.953,245.532a4.75,4.75,0,0,0-7.677-.928,6.261,6.261,0,0,0-1.47,4.087,9.159,9.159,0,0,0,6.173,8.686A22.828,22.828,0,0,1,268.716,268.3c-5.977-7.168-11.733-15.175-14.107-24.21-1.281-4.879-3.321-12.4-1.444-17.079,3.556-8.875,14.726-12.209,24.826-13.572,6.62-4.635,15.2-6.941,22.178-9.268,1.388,5.58,4.094,13.837,0,17.875a16.926,16.926,0,0,1-10.261,4.634c-2.968.282-1.573,8.643-2.419,11.5A17.738,17.738,0,0,1,282.953,245.532Z" transform="translate(0.992 1.02)" fill="#8a4632"/>
        <path id="Trazado_142965" data-name="Trazado 142965" d="M289.469,271.248c-2.034-1.425-5.155-1.817-6.575-3.99-.769-1.174-2.664-.079-1.891,1.106,1.735,2.655,4.909,3.058,7.361,4.775C289.521,273.949,290.616,272.051,289.469,271.248Z" transform="translate(1.244 1.574)" fill="#f17785"/>
        <path id="Trazado_142966" data-name="Trazado 142966" d="M633.623,229.79c-4.2,10.922-14.892,23.915-24.5,30.594-7.133,8.427-19.119,10.181-24.948,4.9-3.622-3.278-3.551-7.348-1.769-12.723.214-.66.457-1.329.718-2.023.667-1.776,1.481-3.684,2.373-5.736l-1.979-.995a1.668,1.668,0,0,1-.522-2.593l8.524-10.049a71.242,71.242,0,0,0,3.615-12.945c.259-1.7.016-3.8,1.262-5.116a2.911,2.911,0,0,1,4.775,3.214A67.933,67.933,0,0,1,633.623,229.79Z" transform="translate(3.906 1.09)" fill="#ffa59d"/>
        <path id="Trazado_142967" data-name="Trazado 142967" d="M387.316,305.982l6.456,8.272-64.194,48.9a18.826,18.826,0,0,1-19.981.555l-36.043-20.09s18.064-18.656,19.329-31.328l31.694,23.855Z" transform="translate(1.18 1.922)" fill="#fca2a2"/>
        <path id="Trazado_142968" data-name="Trazado 142968" d="M409.421,294.847a46.059,46.059,0,0,1-1.513,12.026c-.539,2.128-1.306,4.331-3.044,5.69a11.236,11.236,0,0,1-4.524,1.8c-2.49.588-9.8-.064-12.3.523L384.368,309c.557-5.018,4.136-13.04,6.212-17.584a.648.648,0,0,1,1.064-.172c1.651,1.834,1.551,3.3.343,8.815q6.928-4.078,13.828-8.148a3,3,0,0,1,1.578-.581C408.9,291.368,409.411,293.349,409.421,294.847Z" transform="translate(2.162 1.789)" fill="#fca2a2"/>
        <path id="Trazado_142969" data-name="Trazado 142969" d="M296.284,355.615a260,260,0,0,1-30.13-19.52c-1.647-1.237-3.421,1.417-1.784,2.646a259.933,259.933,0,0,0,30.129,19.52C296.286,359.251,298.081,356.611,296.284,355.615Z" transform="translate(1.092 2.186)" fill="#3665a8"/>
        <path id="Trazado_142970" data-name="Trazado 142970" d="M635.571,236.667a52.358,52.358,0,0,1-17.355,29.325,33.834,33.834,0,0,1-8.233-16.464,22.319,22.319,0,0,0,3.894-3.334,7.515,7.515,0,0,0,2-4.611,4.577,4.577,0,0,0-2.347-4.236,4.218,4.218,0,0,0-3.832.146,5.461,5.461,0,0,0-2.453,3.027A28.461,28.461,0,0,1,605.8,223.9c-1.971-.308-4.38-1.73-6.581-3.354-6.17-4.553-7.1-13.675-1.448-18.863l.11-.1a8.685,8.685,0,0,1,5.694-2.531c2.308.029,4.347,1.378,6.259,2.673q7.579,5.163,15.175,10.33c1.523,1.048,3.137,2.179,3.842,3.9a7.669,7.669,0,0,1,.5,1.878,9.2,9.2,0,0,1-.9,3.434c3.233.1,5.953,2.78,7,5.832C636.514,230.161,636.189,233.514,635.571,236.667Z" transform="translate(4.019 0.974)" fill="#c94b5a"/>
        <path id="Trazado_142971" data-name="Trazado 142971" d="M596.188,266.6c2.227-1.1,5.371-1.018,7.1-2.951.936-1.045,2.645.325,1.7,1.378-2.118,2.363-5.315,2.282-8,3.609C595.73,269.266,594.933,267.225,596.188,266.6Z" transform="translate(4.033 1.543)" fill="#f17785"/>
        <path id="Trazado_142972" data-name="Trazado 142972" d="M423.839,379.174c-1.7,2.937-5.684,3.725-8.67,4.671-3.426,1.088-6.952,2.318-9.577,4.884-2.961,2.894-3.855,6.837-3.945,10.849-.079,3.543,1.362,8.907-1.022,11.933-2.9,3.679-9.851,1.412-12.634-1.276-3.962-3.827-2.364-10.007-1.306-14.732,2.5-11.192,7.373-21.371,16.484-28.629,3.393-2.7-.387-8.326-3.8-5.605a52.142,52.142,0,0,0-17.191,25.124c-2.764,8.453-6.425,20.419.363,27.91,5.473,6.038,17.353,8.588,23.192,1.667,2.578-3.056,2.9-7.147,2.832-10.973-.067-3.557-1.073-8.411,1.62-11.3,2.5-2.678,6.937-3.275,10.248-4.433,3.962-1.386,7.342-3.387,9.487-7.1C432.1,378.389,426.011,375.419,423.839,379.174Z" transform="translate(2.111 2.405)" fill="#8fb9bc"/>
        <path id="Trazado_142973" data-name="Trazado 142973" d="M484.662,241.41c4.015-9.246-1.547-20.823-11.707-22.631a16.888,16.888,0,0,0-13.078,3.35c-4.7,3.668-5.508,8.71-6.973,14.138-1.656,6.139-7.054,9.559-10.193,14.833-2.7,4.542-3.371,9.66-.777,14.363,2.108,3.821,7.7-.012,5.605-3.8-2.345-4.249,2.28-9.057,4.856-11.928,3.315-3.7,5.921-7.314,7.162-12.192,1.161-4.563,1.7-9.058,6.425-11.266a9.018,9.018,0,0,1,10.577,1.828c7.252,7.791-1.69,15.069-6.051,21.289-5.657,8.066-3.907,16.192.7,24.311,2.154,3.8,7.745-.031,5.6-3.8-2.975-5.244-4.785-10.638-1.2-16.049C478.448,249.563,482.577,246.209,484.662,241.41Z" transform="translate(2.657 1.147)" fill="#8fb9bc"/>
        <path id="Trazado_142974" data-name="Trazado 142974" d="M477.962,269.5c5.818,8.337,9.586,18.781,10.633,30.682a82.965,82.965,0,0,1-34.314,74.748c-9.708,6.964-20.084,10.914-30.2,11.937a90.6,90.6,0,0,1-30.058-22.478c8.913-11.354,19.259-28.795,28.685-49.2,9.332-20.452,15.813-39.666,18.612-53.827A90.6,90.6,0,0,1,477.962,269.5Z" transform="translate(2.247 1.526)" fill="#fff"/>
        <g id="Grupo_116735" data-name="Grupo 116735" transform="translate(406.518 269.861)">
          <path id="Trazado_142975" data-name="Trazado 142975" d="M448.893,268.275c.482.075.1,6.191-2.117,15.808a201.839,201.839,0,0,1-31.951,69.6c-5.849,7.949-10.237,12.227-10.607,11.91-.45-.371,3.154-5.232,8.339-13.455a288.725,288.725,0,0,0,31.568-68.765C446.982,274.078,448.318,268.177,448.893,268.275Z" transform="translate(-404.18 -268.274)" fill="#b6d8dd"/>
        </g>
        <g id="Grupo_116736" data-name="Grupo 116736" transform="translate(418.816 276.399)">
          <path id="Trazado_142976" data-name="Trazado 142976" d="M460.013,274.754c.251-.028.694,1.47,1.1,4.245a71.162,71.162,0,0,1,.644,11.862,93.9,93.9,0,0,1-2.115,17.546c-.733,3.253-1.627,6.643-2.768,10.092a101.729,101.729,0,0,1-9.362,20.4c-1.872,3.113-3.86,6-5.849,8.678a93.848,93.848,0,0,1-11.927,13.042,71.338,71.338,0,0,1-9.416,7.245c-2.372,1.5-3.8,2.138-3.939,1.93-.161-.234.971-1.294,3.027-3.135s5.013-4.5,8.421-8.015a115.283,115.283,0,0,0,10.947-13.18c1.843-2.643,3.7-5.47,5.461-8.5,1.746-3.038,3.426-6.254,4.992-9.625,1.534-3.384,2.878-6.754,4.044-10.058,1.149-3.311,2.083-6.561,2.886-9.682a115.412,115.412,0,0,0,2.858-16.891c.441-4.874.552-8.854.588-11.612C459.665,276.333,459.732,274.784,460.013,274.754Z" transform="translate(-416.371 -274.754)" fill="#b6d8dd"/>
        </g>
        <g id="Grupo_116737" data-name="Grupo 116737" transform="translate(430.506 280.858)">
          <path id="Trazado_142977" data-name="Trazado 142977" d="M472.638,279.177c.242-.079,1,1.422,2.03,4.278a71.434,71.434,0,0,1,3.061,12.487,78.479,78.479,0,0,1,.873,8.886,75.606,75.606,0,0,1-.326,10.278,71.025,71.025,0,0,1-19.391,42.24,75.835,75.835,0,0,1-7.582,6.948,78.669,78.669,0,0,1-7.308,5.13,71.3,71.3,0,0,1-11.465,5.818c-2.833,1.082-4.468,1.484-4.566,1.25-.111-.259,1.322-1.13,3.911-2.611s6.294-3.676,10.6-6.74c2.165-1.512,4.418-3.322,6.773-5.323a82.43,82.43,0,0,0,7.016-6.9A73.143,73.143,0,0,0,474.722,314.7a82.463,82.463,0,0,0,.662-9.821c-.019-3.089-.115-5.978-.379-8.606-.48-5.259-1.245-9.5-1.8-12.429S472.37,279.262,472.638,279.177Z" transform="translate(-427.958 -279.174)" fill="#b6d8dd"/>
        </g>
        <path id="Trazado_142978" data-name="Trazado 142978" d="M430.277,262.781c-.6-.083-.836.278-1.1.792-.567.064-2.7.134-7.355-1.439a12.757,12.757,0,0,0,.108-2.618,8.3,8.3,0,0,1,2.632-.1c.157.365.3.625.719.6.532-.036.7-.48.666-1.012s-.263-.949-.795-.913c-.42.028-.526.3-.633.688a8.353,8.353,0,0,1-2.63.248q-.042-.41-.11-.823a12.811,12.811,0,0,0-.524-2.065,12.764,12.764,0,0,1,4.255-1.751.8.8,0,0,0,.649.345.874.874,0,0,0,.235-.041.791.791,0,0,0,.557-.542,1.249,1.249,0,0,0-.034-.725c-.159-.517-.485-.807-.895-.8a.974.974,0,0,0-.251.043.769.769,0,0,0-.559.749,13.175,13.175,0,0,1-4.711.965,12.734,12.734,0,0,0-2.7-3.5,9.711,9.711,0,0,1,2.66-2.9c.259.13.461.209.682-.005.28-.27.166-.6-.1-.878s-.594-.407-.874-.136c-.221.213-.15.418-.03.682a9.9,9.9,0,0,1-3.085,2.608,12.8,12.8,0,0,0-4.114-2.146c1.031-3.739,2.022-5.2,2.341-5.6.575.049,1,.045,1.256-.509.319-.7-.132-1.226-.836-1.544s-1.393-.314-1.712.389c-.251.556.029.882.446,1.28-.091.514-.549,2.281-2.792,5.653a12.809,12.809,0,0,0-6.626.472,11.324,11.324,0,0,1-1.451-3.512.8.8,0,0,0,.329-.657.881.881,0,0,0-.046-.235.791.791,0,0,0-.555-.543,1.257,1.257,0,0,0-.725.051c-.513.173-.794.505-.774.915a.934.934,0,0,0,.048.249.772.772,0,0,0,.763.541,11.518,11.518,0,0,1,.975,3.788,12.722,12.722,0,0,0-1.192.668c-1.992-2.634-2.408-4.011-2.491-4.392.277-.286.462-.518.274-.894-.237-.476-.713-.462-1.189-.224s-.775.608-.537,1.086c.188.376.484.367.879.319.258.3,1.136,1.5,2.059,4.81a12.816,12.816,0,0,0-1.066.928c-4.022-2.035-5.328-3.467-5.643-3.873.162-.484.248-.856-.178-1.186-.54-.421-1.083-.141-1.5.4s-.56,1.134-.02,1.555c.426.332.765.158,1.195-.118.466.2,2.147,1.107,5.053,4.434a12.79,12.79,0,0,0-2.113,3.881,11.512,11.512,0,0,1-4.5-.543c-.062-.361-.133-.625-.514-.691-.484-.083-.733.278-.816.763s.031.908.516.991c.381.066.537-.159.715-.48a11.323,11.323,0,0,1,4.315.948,12.7,12.7,0,0,0-.34,2.125,8.466,8.466,0,0,1-2.686-.291c-.1-.385-.2-.664-.621-.7-.531-.045-.765.369-.809.9s.118.978.649,1.023c.419.034.566-.223.728-.586a8.556,8.556,0,0,1,2.713.162,12.912,12.912,0,0,0,.057,1.7c-4.426,1.6-6.483,1.594-7.041,1.547-.277-.5-.521-.86-1.122-.76-.762.127-.944.792-.817,1.555s.515,1.332,1.277,1.2c.6-.1.715-.514.815-1.083.511-.225,2.454-.9,7.162-.819a12.67,12.67,0,0,0,2.132,4.634c-2.142,2.507-3.383,3.181-3.723,3.332-.31-.2-.553-.32-.858-.08-.386.3-.284.73.02,1.116s.694.585,1.081.281c.3-.24.241-.506.123-.853.226-.3,1.175-1.347,4.126-2.848a12.818,12.818,0,0,0,4.826,3.367,10.208,10.208,0,0,1-1.233,3,.8.8,0,0,0-.692.248.9.9,0,0,0-.128.2.79.79,0,0,0,.026.777,1.246,1.246,0,0,0,.56.463.951.951,0,0,0,1.191-.126.972.972,0,0,0,.137-.214.769.769,0,0,0-.179-.917,10.583,10.583,0,0,1,1.617-3,12.8,12.8,0,0,0,1.671.342c.445,4.107-.023,5.758-.174,6.16-.387.091-.669.186-.714.6-.058.53.35.774.88.832s.981-.094,1.038-.623c.045-.418-.208-.571-.567-.744-.061-.428-.162-2.157,1.176-6.115a12.825,12.825,0,0,0,1.516-.083c2.164,5.446,2.156,7.891,2.1,8.507-.505.278-.861.521-.76,1.123.126.762.792.943,1.554.816s1.333-.515,1.206-1.276c-.1-.6-.515-.716-1.082-.815-.25-.569-1.057-2.9-.763-8.819a12.687,12.687,0,0,0,5.023-2.9c3.178,1.692,4.159,2.844,4.385,3.158-.129.344-.2.607.1.857.376.316.773.129,1.089-.248s.43-.8.053-1.115c-.3-.249-.544-.133-.86.054-.346-.166-1.632-.919-3.819-3.693a12.816,12.816,0,0,0,2.57-4.712c5.015-.276,7.08.376,7.614.593.116.565.242.977.845,1.059.766.1,1.137-.476,1.243-1.241S431.043,262.886,430.277,262.781Z" transform="translate(2.189 1.339)" fill="#70a052"/>
        <path id="Trazado_142979" data-name="Trazado 142979" d="M527.883,342.774c-.256-.749-.81-.807-1.559-.814-.4-.619-1.726-3.045-2.619-9.36a16.447,16.447,0,0,0,3.1-1.4,10.826,10.826,0,0,1,1.655,2.989c-.332.4-.55.712-.273,1.181.351.6.965.534,1.561.183s.946-.86.6-1.454c-.277-.47-.66-.432-1.166-.333a10.822,10.822,0,0,1-1.82-2.9q.451-.288.889-.607a16.585,16.585,0,0,0,2.089-1.81,16.586,16.586,0,0,1,4.509,3.91,1.038,1.038,0,0,0-.021.952,1.149,1.149,0,0,0,.184.249,1.03,1.03,0,0,0,.953.33,1.631,1.631,0,0,0,.82-.463,1.235,1.235,0,0,0,.4-1.5,1.205,1.205,0,0,0-.2-.266,1,1,0,0,0-1.194-.211c-.5-.365-1.854-1.568-3.864-4.9a16.5,16.5,0,0,0,2.483-5.166c3.335.478,4.6,1.179,4.916,1.39,0,.377.027.657.4.789.476.167.79-.156.958-.633s.124-.925-.352-1.093c-.375-.132-.572.07-.807.363-.384-.034-1.842-.282-4.821-2.056a16.568,16.568,0,0,0,.09-6.018c4.933-.984,7.2-.685,7.849-.548.276.7.532,1.191,1.322,1.159,1-.041,1.343-.869,1.3-1.869s-.448-1.8-1.45-1.756c-.79.032-1,.548-1.223,1.262-.649.194-2.963.693-8.178.059a16.61,16.61,0,0,0-4.409-7.4,14.679,14.679,0,0,1,3.225-3.728,1.04,1.04,0,0,0,.952,0,1.117,1.117,0,0,0,.245-.191,1.025,1.025,0,0,0,.306-.96,1.61,1.61,0,0,0-.482-.809,1.236,1.236,0,0,0-1.511-.365,1.211,1.211,0,0,0-.26.2,1,1,0,0,0-.182,1.2,14.973,14.973,0,0,1-3.823,3.337,16.235,16.235,0,0,0-1.469-.994c1.891-3.844,3.246-5.128,3.638-5.445.492.154.869.234,1.2-.2.414-.553.12-1.1-.434-1.51s-1.156-.543-1.571.011c-.327.437-.144.775.143,1.2-.2.475-1.074,2.19-4.375,5.191a16.7,16.7,0,0,0-1.7-.7c.014-5.846.913-8.194,1.2-8.8.656-.094,1.136-.21,1.272-.9.172-.871-.468-1.336-1.338-1.509s-1.641.013-1.814.883c-.136.687.262.978.832,1.316.035.659-.03,3.133-2.192,8.439a16.6,16.6,0,0,0-5.728-.186c-1.763-3.409-1.974-5.077-2-5.536.382-.281.647-.519.5-1-.187-.61-.75-.687-1.359-.5s-1.034.564-.849,1.173c.147.481.5.53.974.55.235.386.974,1.854,1.416,5.553a16.485,16.485,0,0,0-2.661.844,10.988,10.988,0,0,1-1.228-3.282c.387-.341.651-.622.447-1.127-.257-.642-.874-.672-1.515-.414s-1.064.706-.806,1.348c.2.505.587.526,1.1.5a11.052,11.052,0,0,1,1.393,3.238,16.54,16.54,0,0,0-1.942,1.06c-4.439-4.194-5.625-6.585-5.9-7.258.424-.616.693-1.1.227-1.743-.591-.809-1.468-.633-2.277-.041s-1.244,1.373-.653,2.182c.466.639,1.013.53,1.729.314.56.462,2.476,2.319,5.123,7.823a16.425,16.425,0,0,0-4.127,5.17c-4.154-1.022-5.659-2.066-6.031-2.372.047-.473.048-.828-.408-1.041-.577-.27-1.012.1-1.281.674s-.273,1.146.3,1.415c.456.213.727-.015,1.06-.354.474.09,2.246.577,5.705,3.122a16.627,16.627,0,0,0-1.09,7.554,13.285,13.285,0,0,1-4.2.321,1.039,1.039,0,0,0-.689-.658,1.167,1.167,0,0,0-.309-.031,1.026,1.026,0,0,0-.885.482,1.633,1.633,0,0,0-.211.919,1.14,1.14,0,0,0,1.168,1.342,1,1,0,0,0,.96-.741,13.7,13.7,0,0,1,4.415.127,16.507,16.507,0,0,0,.577,2.136c-4.5,2.909-6.686,3.328-7.241,3.389-.331-.4-.6-.666-1.116-.475-.647.241-.693.857-.451,1.5s.68,1.081,1.327.84c.511-.191.541-.575.531-1.091.461-.32,2.406-1.446,7.772-2.2a16.5,16.5,0,0,0,.979,1.708c-5.049,5.682-7.887,7.1-8.631,7.4-.617-.424-1.106-.694-1.744-.227-.808.591-.633,1.468-.041,2.277s1.373,1.244,2.182.653c.639-.466.53-1.013.314-1.73.514-.62,2.745-2.914,9.777-6.022a16.44,16.44,0,0,0,6.288,4.131c-.109,4.668-.874,6.476-1.106,6.921-.473.05-.82.121-.936.611-.146.619.3.97.922,1.117s1.177.033,1.324-.587c.115-.489-.163-.708-.564-.965-.008-.5.114-2.427,2.055-6.577a16.6,16.6,0,0,0,6.958.231c3.243,5.652,3.69,8.425,3.749,9.171-.587.463-.991.848-.734,1.6.324.948,1.214,1.04,2.162.716S528.207,343.723,527.883,342.774Z" transform="translate(3.13 1.78)" fill="#70a052"/>
        <path id="Trazado_142980" data-name="Trazado 142980" d="M373.341,368.973c-.484.074-.581.407-.668.863a12.941,12.941,0,0,1-4.778.6,9.567,9.567,0,0,0-1.863-3.328c1.756-3.122,2.92-4.056,3.23-4.264.321.131.569.207.812-.068.31-.347.144-.727-.2-1.036s-.744-.43-1.053-.084c-.244.274-.141.512.026.815-.171.33-.952,1.576-3.8,3.649a9.661,9.661,0,0,0-3.4-1.909,9.4,9.4,0,0,1,.567-3.757c.276-.035.479-.081.541-.368.079-.364-.187-.565-.551-.644s-.689-.006-.769.358c-.062.288.1.413.341.559a9.316,9.316,0,0,1-1.019,3.617,9.548,9.548,0,0,0-3.231-.129c-1.128-3.353-1.1-4.921-1.054-5.355.41-.219.7-.41.624-.895-.094-.614-.627-.769-1.242-.675s-1.078.4-.985,1.014c.074.485.407.582.863.668.17.4.671,1.9.587,5.477a9.541,9.541,0,0,0-4,2.161,9.36,9.36,0,0,1-2.593-2.217c.132-.322.207-.569-.067-.813-.347-.309-.727-.143-1.037.2s-.43.743-.083,1.053c.273.243.51.14.815-.027a9.272,9.272,0,0,1,2.468,2.283,9.624,9.624,0,0,0-2.548,5.095c-3.39.94-4.852.779-5.216.708-.134-.321-.256-.549-.622-.528-.464.027-.615.413-.589.877s.222.83.686.8c.366-.021.461-.261.558-.594.347-.11,1.731-.428,5.06.074a9.756,9.756,0,0,0,.129,1.794,9.578,9.578,0,0,0,1.179,3.267,9.57,9.57,0,0,1-2.4,2.359l-.027-.015a.591.591,0,0,0-.73.045.6.6,0,0,0-.222.548,1,1,0,0,0,.262.521,1.171,1.171,0,0,0,.336.276.608.608,0,0,0,.715-.088.6.6,0,0,0,.137-.746,9.27,9.27,0,0,1,2.546-1.974,9.661,9.661,0,0,0,3.648,2.948,8.312,8.312,0,0,1-1.078,3c-.278-.012-.485,0-.6.27-.14.345.088.588.433.728s.678.124.818-.221c.111-.273-.031-.425-.24-.609a8.323,8.323,0,0,1,1.308-2.893,9.541,9.541,0,0,0,4.355.568,13.622,13.622,0,0,1,.971,5.1c-.411.219-.7.41-.624.895.094.615.626.769,1.242.675s1.078-.4.984-1.014c-.074-.485-.406-.581-.863-.668a13.658,13.658,0,0,1-.592-5.171,9.561,9.561,0,0,0,4.459-2.345,8.933,8.933,0,0,1,2.4,2.616c-.144.238-.234.425-.047.653.236.288.558.2.846-.033s.433-.536.2-.824c-.187-.227-.387-.175-.649-.08a9.094,9.094,0,0,1-2.146-2.939,9.652,9.652,0,0,0,2.028-3.552,7.724,7.724,0,0,1,2.28.713v.031a.589.589,0,0,0,.41.606.6.6,0,0,0,.585-.086,1.019,1.019,0,0,0,.315-.489,1.186,1.186,0,0,0,.069-.43.611.611,0,0,0-.439-.573.6.6,0,0,0-.712.26,7.843,7.843,0,0,1-2.3-.83,9.57,9.57,0,0,0,.095-3.656c-.022-.132-.047-.264-.075-.394a12.736,12.736,0,0,1,4.637-.821c.218.41.41.7.895.625.614-.094.769-.628.675-1.242S373.956,368.879,373.341,368.973Z" transform="translate(1.794 2.373)" fill="#70a052"/>
        <path id="Trazado_142981" data-name="Trazado 142981" d="M478.847,404.457a1.7,1.7,0,0,0-.226-.591.886.886,0,0,0-.97-.4.875.875,0,0,0-.709.846,13.533,13.533,0,0,1-4.644.669,14.016,14.016,0,0,0-.84-3.283,7.918,7.918,0,0,1,2.178-.844c.274.3.5.494.891.325.494-.217.505-.7.289-1.193s-.576-.816-1.071-.6c-.391.17-.4.471-.368.874a7.861,7.861,0,0,1-2.094,1.02,14.091,14.091,0,0,0-1.482-2.651,12.093,12.093,0,0,1,3.519-3.019c.343.217.612.353.948.087.426-.337.312-.807-.025-1.233s-.769-.645-1.195-.308c-.336.265-.265.559-.134.942a12.052,12.052,0,0,1-3.736,2.723,13.9,13.9,0,0,0-5.106-3.848c.965-4.778,2.082-6.655,2.439-7.162.676.018,1.178-.016,1.434-.684.323-.845-.241-1.424-1.088-1.746s-1.652-.269-1.974.576c-.255.667.1,1.028.611,1.466-.072.615-.493,2.763-2.967,6.974a13.9,13.9,0,0,0-3.324-.589,7.977,7.977,0,0,1,.227-2.369c.387-.113.667-.224.691-.65.03-.539-.4-.765-.935-.795s-.988.146-1.018.686c-.024.426.241.567.613.722a7.957,7.957,0,0,1-.039,2.382,13.921,13.921,0,0,0-3.545.374c-1.182-3.168-1.185-4.639-1.154-5.034.353-.2.6-.37.529-.792-.093-.535-.561-.66-1.1-.567s-.933.368-.84.9c.073.422.364.5.764.567.164.367.668,1.787.6,5.264a14.039,14.039,0,0,0-5.12,3.04,11.255,11.255,0,0,1-2.374-2.542l.02-.04a.856.856,0,0,0-.082-1.062.877.877,0,0,0-.8-.312,1.468,1.468,0,0,0-.752.395,1.684,1.684,0,0,0-.394.494.887.887,0,0,0,.142,1.04.874.874,0,0,0,1.09.183,11.418,11.418,0,0,1,2.309,2.7,13.943,13.943,0,0,0-2.747,4.561c-.068.184-.13.368-.19.554-4.263-.93-5.981-1.954-6.461-2.293.018-.676-.017-1.178-.684-1.434-.845-.323-1.424.241-1.747,1.088s-.269,1.651.577,1.974c.667.255,1.028-.1,1.465-.611.591.069,2.594.46,6.479,2.679a13.877,13.877,0,0,0-.032,5.553c-4.468,2.691-6.612,3.036-7.156,3.078-.312-.4-.571-.671-1.076-.5-.642.217-.705.818-.488,1.459s.633,1.078,1.273.862c.506-.172.547-.546.553-1.05.453-.295,2.339-1.31,7.431-1.891a14.09,14.09,0,0,0,1.035,2.237,7.828,7.828,0,0,1-2.1.972c-.293-.277-.531-.461-.909-.266-.48.248-.459.73-.211,1.211s.628.776,1.108.529c.379-.2.366-.5.311-.9a7.876,7.876,0,0,1,2.021-1.153,14.019,14.019,0,0,0,1.684,2.231c-1.855,3.146-3.078,4.12-3.419,4.35-.374-.155-.664-.243-.949.077-.361.4-.168.848.236,1.211s.868.5,1.23.1c.285-.319.165-.6-.03-.951.189-.363,1.013-1.675,3.89-3.848a13.9,13.9,0,0,0,4,2.487c-.983,5.055-2.148,7.019-2.514,7.537-.676-.017-1.178.017-1.434.684-.323.846.241,1.424,1.088,1.747s1.651.269,1.974-.576c.255-.668-.1-1.029-.611-1.466.074-.634.519-2.891,3.193-7.356a13.955,13.955,0,0,0,2.965.454,5.983,5.983,0,0,1-.377,1.358c-.4.064-.689.14-.766.56-.1.532.3.808.831.9s1-.024,1.095-.556c.076-.42-.171-.593-.521-.792a6.082,6.082,0,0,1,.131-1.456,13.879,13.879,0,0,0,3.264-.331,13.587,13.587,0,0,1,1.689,4.672c-.4.312-.67.571-.5,1.077.217.641.817.705,1.458.487s1.08-.632.863-1.273c-.172-.505-.546-.546-1.051-.552a13.485,13.485,0,0,1-1.484-4.664,14.067,14.067,0,0,0,3.543-1.633c3.4,2.86,4.242,4.48,4.416,4.893-.223.336-.364.6-.108.941.325.432.8.329,1.228,0s.66-.751.334-1.181c-.256-.341-.551-.277-.935-.155-.349-.279-1.67-1.534-3.484-5.57a13.906,13.906,0,0,0,1.895-1.918c4.969,1.247,6.7,2.5,7.112,2.853-.061.5-.07.878.409,1.115.607.3,1.076-.081,1.376-.687s.316-1.21-.291-1.51c-.478-.236-.772,0-1.134.353-.517-.11-2.5-.7-6.354-3.731a14.073,14.073,0,0,0,1.981-7.348,13.907,13.907,0,0,1,4.736-1.26l.024.037a.856.856,0,0,0,.957.468.877.877,0,0,0,.675-.534A1.462,1.462,0,0,0,478.847,404.457Z" transform="translate(2.618 2.615)" fill="#70a052"/>
        <path id="Trazado_142982" data-name="Trazado 142982" d="M512.965,247.811c-7-10.654-24.22-.7-17.17,10.036,29.674,45.191,48,104.768,14.9,153.358-7.223,10.6,10,20.563,17.169,10.036C564.845,366.958,546.361,298.672,512.965,247.811Z" transform="translate(3.134 1.366)" fill="#daf2f8" opacity="0.5" style="mix-blend-mode: screen;isolation: isolate"/>
        <path id="Trazado_142983" data-name="Trazado 142983" d="M550.3,395.092c32.771-9.413,37.051-7.528,54.671-28.553,35.08-42.745,30.245-84.156,14.934-79.58-13.157,3.888-28.46,55.592-45.4,80.487-7.693,8.488-18.274,8.122-43.375,18.93-4.823,4.042-10.264,14.51-10.308,20.817C520.8,409.576,521.76,405.926,550.3,395.092Z" transform="translate(3.371 1.75)" fill="#ffa59d"/>
        <path id="Trazado_142984" data-name="Trazado 142984" d="M589.8,335.877a73.316,73.316,0,0,0,25.573,18.773c13.219-19.862,27.419-64.871,10.268-70.127C608.805,279.364,596.267,324.271,589.8,335.877Z" transform="translate(3.982 1.728)" fill="#a0d1cd"/>
        <path id="Trazado_142985" data-name="Trazado 142985" d="M531.832,385.252c-6.448-.052-15.388,1.517-21.725,4.811a1.784,1.784,0,0,0,.5,3.338c3.744.65,8.361.727,10.984-.053-2.529,5.958-9.8,8.856-12.325,14.814,4.864-.15,9.065,3.836,18.847,1.254,4.375-2.13,8.134-5.925,9.286-10.654S536.7,385.29,531.832,385.252Z" transform="translate(3.267 2.624)" fill="#ffa59d"/>
        <path id="Trazado_142986" data-name="Trazado 142986" d="M632.093,321.355c-5.87,10.236-9.811,21.745-18.642,29.966-1.032.961.518,2.506,1.547,1.548,8.98-8.359,13.016-20,18.984-30.409A1.1,1.1,0,0,0,632.093,321.355Z" transform="translate(4.188 2.053)" fill="#79b5af"/>
      </g>
    </g>
  </g>
</svg>
