<svg xmlns="http://www.w3.org/2000/svg" width="1240" height="752" viewBox="0 0 1240 752">
  <g id="Grupo_125918" data-name="Grupo 125918" transform="translate(-180 -12081)">
    <rect id="Rectángulo_37372" data-name="Rectángulo 37372" width="1240" height="752" transform="translate(180 12081)" fill="#bcfff7"/>
    <g id="Grupo_112632" data-name="Grupo 112632" transform="translate(238.113 12087.373)">
      <path id="Trazado_113658" data-name="Trazado 113658" d="M114.842,627.79S2,430.425,67.138,361.276c77.785-82.571,182.923-29.794,213.5-35.066s79.064-202.148,175.9-209.744S664.024,267.294,727.923,237.444,920.479,141.29,963.261,206.11s-42.106,193.708,16.173,225.2,127.2,78.33,69.455,196.482Z" transform="translate(0 43.417)" fill="#9cefe5"/>
      <ellipse id="Elipse_4091" data-name="Elipse 4091" cx="504.874" cy="26.058" rx="504.874" ry="26.058" transform="translate(67.139 647.164)" fill="#67cbc0"/>
      <g id="Grupo_112601" data-name="Grupo 112601" transform="translate(844.547 372.306)">
        <path id="Trazado_113659" data-name="Trazado 113659" d="M576.815,417.349c-23.368,0-34.7-33.022,1.556-66.4,22.925-21.109,45.347-39.842,35.774-62.815s-21.775-21.9-18.545-28.715,16.51-.359,25.126-5.743,42.355,1.435,40.561,6.82-24.049,21.177-22.614,33.022S655.9,333,675.644,345.562s32.664,37.329,31.588,47.379-2.872,24.408-23.332,24.408Z" transform="translate(-555.087 -251.707)" fill="#b2dbc2"/>
        <path id="Trazado_113660" data-name="Trazado 113660" d="M580.9,257.576c4.357,3.136,12.783,4.911,18.151,4.943,5.592.031,11.585-.053,16.173-3.249,2.215-1.541,4.12-3.808,6.781-4.254,2.817-.471,5.462,1.253,8.063,2.433,5.137,2.331,13.508,2.907,16.52,1.2" transform="translate(-540.385 -249.868)" fill="none" stroke="#38051c" stroke-linecap="round" stroke-linejoin="round" stroke-width="0.75"/>
        <path id="Trazado_113661" data-name="Trazado 113661" d="M594.067,280.136a25.979,25.979,0,0,0,22.944,0" transform="translate(-532.884 -235.514)" fill="none" stroke="#38051c" stroke-linecap="round" stroke-linejoin="round" stroke-width="0.75"/>
        <path id="Trazado_113662" data-name="Trazado 113662" d="M594.067,284.89s11.255,2.075,22.4-6.547" transform="translate(-532.884 -236.536)" fill="none" stroke="#38051c" stroke-linecap="round" stroke-linejoin="round" stroke-width="0.75"/>
        <path id="Trazado_113663" data-name="Trazado 113663" d="M614.183,314.593a10.487,10.487,0,0,1,.965-6c4.765,4.389,5.677,11.458,8.587,17.247,4.079,8.113,11.959,13.47,18.563,19.7s12.461,14.942,10.485,23.806" transform="translate(-521.48 -219.304)" fill="none" stroke="#fff" stroke-linecap="round" stroke-linejoin="round" stroke-width="0.75"/>
        <path id="Trazado_113664" data-name="Trazado 113664" d="M589.88,375.422a22.35,22.35,0,0,1,1.4-20.026,81.955,81.955,0,0,1,5.591-7.332,47.769,47.769,0,0,0,9.669-32.716" transform="translate(-536.254 -215.458)" fill="none" stroke="#fff" stroke-linecap="round" stroke-linejoin="round" stroke-width="0.75"/>
        <path id="Trazado_113665" data-name="Trazado 113665" d="M598.067,299.76a18.838,18.838,0,0,1,1.311,10.959" transform="translate(-530.606 -224.337)" fill="none" stroke="#fff" stroke-linecap="round" stroke-linejoin="round" stroke-width="0.75"/>
        <path id="Trazado_113666" data-name="Trazado 113666" d="M592.349,310.756c.732.6,10.439-3.039,6.156,2.532-11.142,14.484-26.962,25.536-34.962,41.964-2.613,5.366-4.189,12.1-.86,17.06,1.624,2.42,4.183,4.021,6.664,5.55" transform="translate(-551.836 -218.426)" fill="none" stroke="#fff" stroke-linecap="round" stroke-linejoin="round" stroke-width="0.75"/>
      </g>
      <g id="Grupo_112603" data-name="Grupo 112603" transform="translate(930.694 375.136)">
        <path id="Trazado_113667" data-name="Trazado 113667" d="M612.3,297.128c-.358-2.009,38.575-.562,47.665,0s22.266,6.256,22.266,6.256-53.563-.014-57.7-.135S612.76,299.679,612.3,297.128Z" transform="translate(-608.645 -229.254)" fill="#38051c"/>
        <g id="Grupo_112602" data-name="Grupo 112602" transform="translate(7.193 0)">
          <rect id="Rectángulo_37315" data-name="Rectángulo 37315" width="1.058" height="29.361" transform="translate(0 0.302) rotate(-16.591)" fill="#38051c"/>
          <path id="Trazado_113668" data-name="Trazado 113668" d="M644.866,320.515l-14.534,4.33L616.879,279.7a4.165,4.165,0,0,1,1.353-4.414h0a13.017,13.017,0,0,1,9.631-2.871h0a4.167,4.167,0,0,1,3.55,2.954Z" transform="translate(-613.33 -242.785)" fill="#ebeae8"/>
          <path id="Trazado_113669" data-name="Trazado 113669" d="M624.574,275.25c3.087,10.361,4.4,19.114,2.929,19.552s-5.166-7.606-8.253-17.967a73.216,73.216,0,0,1-2.643-13.888,1.372,1.372,0,0,1,2.577-.769A73.136,73.136,0,0,1,624.574,275.25Z" transform="translate(-613.39 -248.99)" fill="#519fd6"/>
          <path id="Trazado_113670" data-name="Trazado 113670" d="M636.161,291.3l-14.534,4.332L616.879,279.7a4.165,4.165,0,0,1,1.353-4.414h0a13.017,13.017,0,0,1,9.631-2.871h0a4.167,4.167,0,0,1,3.55,2.954Z" transform="translate(-613.33 -242.785)" fill="#60d0d9"/>
          <rect id="Rectángulo_37316" data-name="Rectángulo 37316" width="15.166" height="4.585" transform="matrix(0.958, -0.286, 0.286, 0.958, 8.297, 52.848)" fill="#38051c"/>
          <rect id="Rectángulo_37317" data-name="Rectángulo 37317" width="4.805" height="1.058" transform="translate(16.993 45.751) rotate(-16.593)" fill="#38051c"/>
          <rect id="Rectángulo_37318" data-name="Rectángulo 37318" width="4.805" height="1.058" transform="translate(18.731 51.581) rotate(-16.593)" fill="#2c1817"/>
          <rect id="Rectángulo_37319" data-name="Rectángulo 37319" width="4.805" height="1.058" transform="translate(20.468 57.412) rotate(-16.595)" fill="#38051c"/>
          <rect id="Rectángulo_37320" data-name="Rectángulo 37320" width="4.805" height="1.058" transform="translate(22.206 63.243) rotate(-16.595)" fill="#38051c"/>
          <rect id="Rectángulo_37321" data-name="Rectángulo 37321" width="4.805" height="1.058" transform="translate(23.943 69.074) rotate(-16.593)" fill="#38051c"/>
          <rect id="Rectángulo_37322" data-name="Rectángulo 37322" width="4.805" height="1.058" transform="translate(25.681 74.904) rotate(-16.593)" fill="#38051c"/>
          <path id="Trazado_113671" data-name="Trazado 113671" d="M643.71,305.032l-18.59,5.541a1.234,1.234,0,0,1-1.535-.83h0a1.235,1.235,0,0,1,.83-1.537l18.59-5.539a1.236,1.236,0,0,1,1.537.83h0A1.234,1.234,0,0,1,643.71,305.032Z" transform="translate(-609.441 -225.541)" fill="#ebeae8"/>
          <path id="Trazado_113672" data-name="Trazado 113672" d="M647.818,318.815l-18.592,5.541a1.234,1.234,0,0,1-1.535-.83h0a1.235,1.235,0,0,1,.83-1.537l18.59-5.539a1.233,1.233,0,0,1,1.537.83h0A1.234,1.234,0,0,1,647.818,318.815Z" transform="translate(-607.101 -217.691)" fill="#ebeae8"/>
          <rect id="Rectángulo_37323" data-name="Rectángulo 37323" width="9.126" height="20.104" transform="translate(20.602 83.565) rotate(-16.594)" fill="#38051c"/>
        </g>
        <path id="Trazado_113673" data-name="Trazado 113673" d="M649.057,329.03s17.91-26.865,16.284-30.687-7.689,3.542-7.689,3.542,8.248-15.027,6.026-16.832-11.8,12.134-11.8,12.134,10.133-20.287,5.668-21.177c-2.977-.592-11.988,18.934-11.988,18.934s2.513-14.464-.055-14.051-6.542,21.221-6.542,21.221-5.95-5.977-8.728-5.7,5.34,12.728,5.038,14.341-4.935,11.916-4.935,11.916S633.261,330.164,649.057,329.03Z" transform="translate(-598.76 -240.702)" fill="#60d0d9"/>
        <path id="Trazado_113674" data-name="Trazado 113674" d="M625.861,298.9s-10.345-2.2-12.229-2.142-1.413,48.084-3.05,56.119.413,38.16,1.491,39.217,22.235,1.948,25.2,2.257S625.861,298.9,625.861,298.9Z" transform="translate(-609.972 -228.88)" fill="#ba9c89"/>
        <path id="Trazado_113675" data-name="Trazado 113675" d="M677.8,302.233s-.314,14.9,0,17.41,12.464,63.8,13.164,67.588-55.136,7.892-59.457,6.34-11.409-95.451-11.409-95.451S668.138,300.866,677.8,302.233Z" transform="translate(-604.206 -228.102)" fill="#d9b7a0"/>
        <path id="Trazado_113676" data-name="Trazado 113676" d="M625.727,339.9a38.144,38.144,0,0,1-12.141-11.662" transform="translate(-607.913 -210.946)" fill="none" stroke="#38051c" stroke-linecap="round" stroke-linejoin="round" stroke-width="0.75"/>
        <path id="Trazado_113677" data-name="Trazado 113677" d="M614.011,335.307q.932,2,1.863,4.007" transform="translate(-607.671 -206.921)" fill="none" stroke="#38051c" stroke-linecap="round" stroke-linejoin="round" stroke-width="0.75"/>
        <path id="Trazado_113678" data-name="Trazado 113678" d="M666.432,356.694c-3.58-.213-10.974-8.146-14.373-9.391" transform="translate(-586 -200.088)" fill="none" stroke="#38051c" stroke-linecap="round" stroke-linejoin="round" stroke-width="0.75"/>
        <path id="Trazado_113679" data-name="Trazado 113679" d="M667.035,311.832c-3.356,4.877-22.266,25.754-28.045,33.178" transform="translate(-593.444 -220.291)" fill="none" stroke="#38051c" stroke-linecap="round" stroke-linejoin="round" stroke-width="0.75"/>
      </g>
      <g id="Grupo_112604" data-name="Grupo 112604" transform="translate(146.89 428.587)">
        <path id="Trazado_113680" data-name="Trazado 113680" d="M162.629,397.278V287.565H263.484V397.072Z" transform="translate(-80.965 -287.565)" fill="#ba9c89"/>
        <path id="Trazado_113681" data-name="Trazado 113681" d="M110.6,397.278V287.565H214.617V397.072Z" transform="translate(-110.6 -287.565)" fill="#d9b7a0"/>
        <rect id="Rectángulo_37324" data-name="Rectángulo 37324" width="53.466" height="9.778" transform="translate(28.198 20.12)" fill="#38051c"/>
      </g>
      <g id="Grupo_112605" data-name="Grupo 112605" transform="translate(114.843 538.3)">
        <rect id="Rectángulo_37325" data-name="Rectángulo 37325" width="143.358" height="132.907" transform="translate(74.679)" fill="#bd9175"/>
        <path id="Trazado_113682" data-name="Trazado 113682" d="M90.182,490.371V357.464H231.968l1.572,132.907Z" transform="translate(-90.182 -357.464)" fill="#d4a383"/>
        <rect id="Rectángulo_37326" data-name="Rectángulo 37326" width="53.466" height="9.778" transform="translate(39.774 16.243)" fill="#38051c"/>
      </g>
      <g id="Grupo_112606" data-name="Grupo 112606" transform="translate(841.509 538.3)">
        <rect id="Rectángulo_37327" data-name="Rectángulo 37327" width="123.394" height="132.907" fill="#bd9175"/>
        <path id="Trazado_113683" data-name="Trazado 113683" d="M717.5,490.371V357.464H595.458L594.1,490.371Z" transform="translate(-529.825 -357.464)" fill="#d4a383"/>
        <rect id="Rectángulo_37328" data-name="Rectángulo 37328" width="46.02" height="9.778" transform="translate(107.419 16.243)" fill="#38051c"/>
      </g>
      <g id="Grupo_112616" data-name="Grupo 112616" transform="translate(287.743 304.069)">
        <g id="Grupo_112607" data-name="Grupo 112607" transform="translate(570.264 286.851)">
          <path id="Trazado_113684" data-name="Trazado 113684" d="M569.835,390.989h18.518v80.287H569.835c-3.409,0-6.173-17.973-6.173-40.144s2.764-40.143,6.173-40.143" transform="translate(-563.662 -390.989)" fill="#38051c"/>
          <ellipse id="Elipse_4092" data-name="Elipse 4092" cx="6.173" cy="40.144" rx="6.173" ry="40.144" transform="translate(18.518)" fill="#38051c"/>
          <path id="Trazado_113685" data-name="Trazado 113685" d="M581.633,390.989c-3.409,0-6.173,17.973-6.173,40.143s2.764,40.144,6.173,40.144" transform="translate(-556.942 -390.989)" fill="none" stroke="#fff" stroke-linecap="round" stroke-linejoin="round" stroke-width="0.75"/>
        </g>
        <g id="Grupo_112608" data-name="Grupo 112608" transform="translate(9.061 286.851)">
          <path id="Trazado_113686" data-name="Trazado 113686" d="M228.564,390.989h-18.52v80.287h18.52c3.409,0,6.173-17.973,6.173-40.144s-2.764-40.143-6.173-40.143" transform="translate(-203.872 -390.989)" fill="#38051c"/>
          <ellipse id="Elipse_4093" data-name="Elipse 4093" cx="6.173" cy="40.144" rx="6.173" ry="40.144" fill="#38051c"/>
          <path id="Trazado_113687" data-name="Trazado 113687" d="M210.045,390.989c3.411,0,6.175,17.973,6.175,40.143s-2.764,40.144-6.175,40.144" transform="translate(-203.872 -390.989)" fill="none" stroke="#fff" stroke-linecap="round" stroke-linejoin="round" stroke-width="0.75"/>
        </g>
        <g id="Grupo_112615" data-name="Grupo 112615">
          <path id="Trazado_113688" data-name="Trazado 113688" d="M774.078,545.421H227.763L208.384,233.655H793.457Z" transform="translate(-195.757 -193.752)" fill="#5fd18c"/>
          <g id="Grupo_112609" data-name="Grupo 112609" transform="translate(105.552 39.903)">
            <line id="Línea_139" data-name="Línea 139" y2="311.766" fill="none" stroke="#479d69" stroke-linecap="round" stroke-linejoin="round" stroke-width="0.75"/>
            <line id="Línea_140" data-name="Línea 140" y2="311.766" transform="translate(399.223)" fill="none" stroke="#479d69" stroke-linecap="round" stroke-linejoin="round" stroke-width="0.75"/>
          </g>
          <rect id="Rectángulo_37329" data-name="Rectángulo 37329" width="610.328" height="39.903" fill="#5fd18c"/>
          <line id="Línea_141" data-name="Línea 141" x2="610.328" transform="translate(0 19.951)" fill="none" stroke="#38051c" stroke-linecap="round" stroke-linejoin="round" stroke-width="0.75"/>
          <path id="Trazado_113689" data-name="Trazado 113689" d="M208.384,233.655H793.457l-1.267,20.382H208.384Z" transform="translate(-195.757 -193.752)" fill="#38051c"/>
          <g id="Grupo_112610" data-name="Grupo 112610" transform="translate(69.42 39.903)">
            <rect id="Rectángulo_37330" data-name="Rectángulo 37330" width="12.978" height="30.71" fill="#479d69"/>
            <rect id="Rectángulo_37331" data-name="Rectángulo 37331" width="12.978" height="30.71" transform="translate(152.837)" fill="#479d69"/>
            <rect id="Rectángulo_37332" data-name="Rectángulo 37332" width="12.978" height="30.71" transform="translate(305.673)" fill="#479d69"/>
            <rect id="Rectángulo_37333" data-name="Rectángulo 37333" width="12.978" height="30.71" transform="translate(458.509)" fill="#479d69"/>
          </g>
          <line id="Línea_142" data-name="Línea 142" x2="550.101" transform="translate(30.113 321.21)" fill="none" stroke="#38051c" stroke-linecap="round" stroke-linejoin="round" stroke-width="0.75"/>
          <line id="Línea_143" data-name="Línea 143" x2="552.576" transform="translate(28.876 301.309)" fill="none" stroke="#38051c" stroke-linecap="round" stroke-linejoin="round" stroke-width="0.75"/>
          <rect id="Rectángulo_37334" data-name="Rectángulo 37334" width="313.752" height="114.508" transform="translate(148.288 138.532)" fill="none" stroke="#38051c" stroke-linecap="round" stroke-linejoin="round" stroke-width="0.75"/>
          <g id="Grupo_112614" data-name="Grupo 112614" transform="translate(163.038 156.591)">
            <g id="Grupo_112613" data-name="Grupo 112613">
              <g id="Grupo_112611" data-name="Grupo 112611" transform="translate(22.985 19.551)">
                <path id="Trazado_113690" data-name="Trazado 113690" d="M337.786,346.71a16.161,16.161,0,0,0,6.988-9.832,16.307,16.307,0,0,1,5.078-2.158,20.855,20.855,0,0,1-12.425,17.5A16.194,16.194,0,0,1,337.786,346.71Z" transform="translate(-308.332 -312.33)" fill="#211835"/>
                <path id="Trazado_113691" data-name="Trazado 113691" d="M318.857,334.65a16.254,16.254,0,0,1,5.068,2.185,16.15,16.15,0,0,0,6.936,9.87,16.275,16.275,0,0,1,.333,5.511A20.867,20.867,0,0,1,318.857,334.65Z" transform="translate(-318.857 -312.37)" fill="#211835"/>
                <path id="Trazado_113692" data-name="Trazado 113692" d="M346.044,328.143a16.069,16.069,0,0,0-18.607-.049,16.364,16.364,0,0,1-3.458-3.288,20.787,20.787,0,0,1,25.539.067A16.309,16.309,0,0,1,346.044,328.143Z" transform="translate(-315.94 -320.455)" fill="#211835"/>
              </g>
              <g id="Grupo_112612" data-name="Grupo 112612">
                <path id="Trazado_113693" data-name="Trazado 113693" d="M328.838,364.921a19.457,19.457,0,0,0,5.828-25.583l3.758-2.042a4.992,4.992,0,0,0,7.743.02l3.748,2.062a19.457,19.457,0,0,0,20.379,28.828,24.068,24.068,0,0,1-28.056-8.766,24.064,24.064,0,0,1-28.1,8.617A19.369,19.369,0,0,0,328.838,364.921Z" transform="translate(-298.561 -291.312)" fill="#211835"/>
                <path id="Trazado_113694" data-name="Trazado 113694" d="M340.92,353.418l-4.428-2.436c0-.052,0-.1,0-.152a5,5,0,0,0-3.4-4.746l.013-4.808a19.458,19.458,0,0,0,12.155-33.231,24.054,24.054,0,0,1,7.892,30.323,24.045,24.045,0,0,1,22.023,24.16,19.457,19.457,0,0,0-34.262-9.11Z" transform="translate(-287.76 -307.973)" fill="#211835"/>
                <path id="Trazado_113695" data-name="Trazado 113695" d="M314.542,342.5a23.953,23.953,0,0,1,11.825-4.222A24.056,24.056,0,0,1,334.421,308,19.458,19.458,0,0,0,346.4,341.293l-.013,4.809a5,5,0,0,0-3.422,4.728c0,.05,0,.1,0,.152l-4.439,2.412a19.462,19.462,0,0,0-34.316,8.928A24.025,24.025,0,0,1,314.542,342.5Z" transform="translate(-304.213 -307.999)" fill="#211835"/>
              </g>
            </g>
          </g>
          <text id="COVID_-_19_WASTE" data-name="COVID - 19
WASTE" transform="translate(343.445 188.457)" fill="#fff" font-size="30" font-family="Montserrat-Black, Montserrat" font-weight="800"><tspan x="-83.52" y="0">COVID - 19</tspan><tspan x="-59.19" y="36">WASTE</tspan></text>
        </g>
        <path id="Trazado_113696" data-name="Trazado 113696" d="M247.228,418.546l-2.735,37.035H222.176l-2.3-37.035Z" transform="translate(-189.212 -88.443)" fill="#5fd18c"/>
        <path id="Trazado_113697" data-name="Trazado 113697" d="M579.485,418.546l-2.3,37.035H554.867l-2.735-37.035Z" transform="translate(0.035 -88.443)" fill="#5fd18c"/>
      </g>
      <g id="Grupo_112631" data-name="Grupo 112631" transform="translate(224.725 39.974)">
        <g id="Grupo_112617" data-name="Grupo 112617" transform="translate(0 119.936)">
          <path id="Trazado_113698" data-name="Trazado 113698" d="M218.447,127.206a84.14,84.14,0,0,0-12.419,14.624c-2,2.954-23.85,43.689-26.427,50.065-3.4,8.363-16.347,25.78-19.411,32.464.157,7.222,19.124,28.5,38.643,19.477L215.927,212.8s6.286,7.168,24.815-4.183c9.242-5.663,24.556-17.884,27.19-22.538,2.623-4.633-6.843-8.714-19.257,1.041s-3.483-7.019-.366-10.992c2.009-2.557,13.065-10.871,19.342-18.392,3.48-4.178,5.49-8.119,3.709-10.708a.337.337,0,0,0-.1-.11c-.946-1.157-3.161-.443-5.975,1.235a86.708,86.708,0,0,0-8.667,6.3c-6.517,5.194-12.969,10.869-14.318,10.147-1.753-.939,12.748-16.033,21.858-27.8.615-.774,1.183-1.54,1.736-2.3,3.871-5.231,6.256-9.491,4.977-11-1.833-2.15-5.47-.634-9.766,2.587a125.641,125.641,0,0,0-13.39,12.406c-6.5,6.685-12.119,12.949-13.552,13.037-2.048.113,6.124-11,12.142-20.668,1.7-2.759,3.255-5.4,4.334-7.634,1.394-2.9,2.017-5.1,1.243-5.988-1.99-2.234-5.567.179-9.593,4.42-8.43,8.879-18.821,25.763-20.8,24.813-1.943-.937,5.112-10.869,8.914-18.362,1.9-3.747,3-6.878,1.786-8.006C230.617,118.622,225.12,121.064,218.447,127.206Z" transform="translate(-160.19 -116.387)" fill="#60d0d9"/>
          <path id="Trazado_113699" data-name="Trazado 113699" d="M172.594,164.494s-.546,6.3.9,9.783" transform="translate(-153.183 -88.986)" fill="none" stroke="#38051c" stroke-linecap="round" stroke-linejoin="round" stroke-width="0.75"/>
          <path id="Trazado_113700" data-name="Trazado 113700" d="M201,200.629s-21.147,6.432-38.368-19.711" transform="translate(-158.8 -79.631)" fill="none" stroke="#38051c" stroke-linecap="round" stroke-linejoin="round" stroke-width="0.75"/>
        </g>
        <g id="Grupo_112618" data-name="Grupo 112618" transform="translate(632.375 84.274)">
          <path id="Trazado_113701" data-name="Trazado 113701" d="M618.581,214.9a84.12,84.12,0,0,0,10.932-15.766c1.706-3.134,19.469-45.808,21.411-52.405,2.563-8.655,13.751-27.254,16.149-34.2-.862-7.171-21.816-26.493-40.362-15.611L612.73,129.47s-6.955-6.52-24.288,6.588c-8.645,6.537-22.691,20.2-24.86,25.083-2.157,4.869,7.663,8.006,19.066-2.916s4.152,6.647,1.436,10.905c-1.75,2.74-11.941,12.094-17.454,20.193-3.056,4.5-4.671,8.615-2.645,11.018a.339.339,0,0,0,.108.1c1.055,1.059,3.189.132,5.826-1.813a86.806,86.806,0,0,0,8.011-7.11c5.98-5.806,11.846-12.084,13.26-11.5,1.835.763-11.124,17.2-19.041,29.8-.537.83-1.026,1.646-1.5,2.461-3.342,5.585-5.3,10.056-3.88,11.438,2.036,1.962,5.506.1,9.468-3.528a125.7,125.7,0,0,0,12.114-13.654c5.817-7.289,10.8-14.071,12.214-14.3,2.026-.314-5.023,11.541-10.067,21.754-1.427,2.913-2.712,5.688-3.566,8.021-1.1,3.018-1.508,5.275-.653,6.081,2.2,2.029,5.523-.722,9.116-5.335,7.523-9.659,16.215-27.477,18.276-26.727,2.025.744-4.028,11.317-7.077,19.146-1.526,3.915-2.314,7.138-1,8.143C607.307,224.638,612.54,221.671,618.581,214.9Z" transform="translate(-563.084 -93.666)" fill="#60d0d9"/>
          <path id="Trazado_113702" data-name="Trazado 113702" d="M619.721,130.977s-.071-6.327-1.854-9.648" transform="translate(-531.881 -77.91)" fill="none" stroke="#38051c" stroke-miterlimit="10" stroke-width="0.75"/>
          <path id="Trazado_113703" data-name="Trazado 113703" d="M601.77,100.567s20.417-8.466,40.109,15.87" transform="translate(-541.05 -90.547)" fill="none" stroke="#38051c" stroke-miterlimit="10" stroke-width="0.75"/>
        </g>
        <g id="Grupo_112619" data-name="Grupo 112619" transform="translate(427.062 141.399)">
          <path id="Trazado_113704" data-name="Trazado 113704" d="M566.656,140.762c.669-6.084-6.859-8.013-11.968-9.574-5.034-1.541-10.457-1.3-15.655-.466-3.754.6-7.451,1.54-11.205,2.149a65.525,65.525,0,0,1-23.757-.523c-4.134-.859-8.749-2.045-12.332.188a10.842,10.842,0,0,0-4.247,6.2,20.082,20.082,0,0,0,5.137,19.874,29.144,29.144,0,0,0,6.624,4.6,56.242,56.242,0,0,0,29.139,6.5c7.372-.375,14.7-2.207,22.054-1.576a33.841,33.841,0,0,1,27.775,20.356" transform="translate(-401.293 -130.061)" fill="none" stroke="#38051c" stroke-linecap="round" stroke-linejoin="round" stroke-width="0.75"/>
          <path id="Trazado_113705" data-name="Trazado 113705" d="M501.5,152.575c-3.814-.989-7.97.355-11.047,2.819a25.311,25.311,0,0,0-6.828,9.518c-1.381,3.043-2.456,6.231-4.082,9.152-5.227,9.389-15.6,14.927-26.1,17.221-4.128.9-8.385,1.4-12.291,3s-7.539,4.6-8.583,8.692c-1.231,4.823,1.537,10,5.594,12.883s9.146,3.88,14.1,4.346a28.364,28.364,0,0,0,8.579-.215c12.357-2.642,19.221-17.97,31.74-19.7,4.31-.595,8.692.574,13.028.212s9.119-3.166,9.224-7.515" transform="translate(-432.277 -117.424)" fill="none" stroke="#38051c" stroke-linecap="round" stroke-linejoin="round" stroke-width="0.75"/>
          <path id="Trazado_113706" data-name="Trazado 113706" d="M585.01,186.5c3.955-9.165,1-19.686-1.99-29.21-1.877-5.982-8.382-20.831-10.11-20.891l-19.2-.659a161.4,161.4,0,0,0-16.581,0c-21.919,1.5-42.788,14.633-61.529,26.1l9.752,16.09a31.808,31.808,0,0,1,3.483,6.975c1.882,6.106-.024,12.841,1.559,19.03,13.406-3.86,25.716-9.507,39.122-13.367a151.137,151.137,0,0,1,17.989-4.389C559.033,184.356,573.368,185.629,585.01,186.5Z" transform="translate(-407.602 -126.949)" fill="#519fd6"/>
          <path id="Trazado_113707" data-name="Trazado 113707" d="M481.037,165.932c-3.6,2.433,32.206-18.807,47.467-21.627,14.839-2.742,45.9-1.419,45.9-1.419" transform="translate(-404.649 -122.938)" fill="none" stroke="#38051c" stroke-linecap="round" stroke-linejoin="round" stroke-width="0.75"/>
          <path id="Trazado_113708" data-name="Trazado 113708" d="M484.847,172.35s32.8-17.182,47.222-20.475c10.9-2.489,45.953.289,45.953.289" transform="translate(-402.334 -118.226)" fill="none" stroke="#38051c" stroke-linecap="round" stroke-linejoin="round" stroke-width="0.75"/>
          <path id="Trazado_113709" data-name="Trazado 113709" d="M485.268,181.275s34.444-16.434,55.8-20.483c17.619-3.34,38.381,2.858,38.381,2.858" transform="translate(-402.095 -113.12)" fill="none" stroke="#38051c" stroke-linecap="round" stroke-linejoin="round" stroke-width="0.75"/>
          <g id="Trazado_113710" data-name="Trazado 113710" transform="translate(-407.602 -126.949)" fill="none" stroke-miterlimit="10">
            <path d="M585.01,186.5c3.955-9.165,1-19.686-1.99-29.21-1.877-5.982-8.382-20.831-10.11-20.891l-19.2-.659a161.4,161.4,0,0,0-16.581,0c-21.919,1.5-42.788,14.633-61.529,26.1l9.752,16.09a31.808,31.808,0,0,1,3.483,6.975c1.882,6.106-.024,12.841,1.559,19.03,13.406-3.86,25.716-9.507,39.122-13.367a151.137,151.137,0,0,1,17.989-4.389C559.033,184.356,573.368,185.629,585.01,186.5Z" stroke="none"/>
            <path d="M 492.804931640625 200.0824127197266 C 498.2838745117188 198.3716888427734 503.6730651855469 196.37939453125 508.9126892089844 194.4423675537109 C 515.2852172851562 192.0865020751953 521.8746948242188 189.6504364013672 528.6846923828125 187.6898193359375 C 534.6161499023438 185.9834747314453 540.74951171875 184.2190551757812 547.0330810546875 183.2213592529297 C 551.1497802734375 182.5685119628906 555.8190307617188 182.2511444091797 561.3077392578125 182.2511444091797 C 568.6582641601562 182.2511444091797 576.2638549804688 182.8296356201172 582.9791259765625 183.3417358398438 C 583.9452514648438 180.1770477294922 584.161376953125 176.5765533447266 583.64208984375 172.4049682617188 C 583.0498657226562 167.6474304199219 581.5957641601562 162.7755584716797 580.1571044921875 158.1930236816406 C 579.3382568359375 155.5838623046875 577.557373046875 151.1116638183594 575.7255249023438 147.0645446777344 C 573.7304077148438 142.6565704345703 572.4041748046875 140.3353271484375 571.7371215820312 139.3650970458984 L 553.6060791015625 138.7425842285156 C 550.5033569335938 138.6359558105469 547.294921875 138.5257110595703 544.1380004882812 138.5257110595703 C 541.6358642578125 138.5257110595703 539.4100341796875 138.5949249267578 537.3330078125 138.7373352050781 C 528.197998046875 139.3626861572266 518.3836669921875 142.181884765625 507.3291015625 147.3560180664062 C 497.7881164550781 151.8217163085938 488.6029663085938 157.4005126953125 479.7124938964844 162.8438720703125 L 487.9156494140625 176.3784332275391 C 489.2755126953125 178.6196899414062 490.8168640136719 181.1600189208984 491.7006530761719 184.0262145996094 C 492.8197021484375 187.6568908691406 492.7688293457031 191.3048706054688 492.7196350097656 194.8327484130859 C 492.6943054199219 196.64892578125 492.6698303222656 198.4036407470703 492.804931640625 200.0824127197266 M 490.3922729492188 203.9394226074219 C 488.8101196289062 197.7505798339844 490.7156372070312 191.0155181884766 488.833740234375 184.9098358154297 C 488.066162109375 182.4205017089844 486.7022094726562 180.1618804931641 485.350830078125 177.9346313476562 C 482.1001586914062 172.5713806152344 478.849609375 167.2081298828125 475.5989990234375 161.8448791503906 C 494.3397827148438 150.3775329589844 515.2089233398438 137.2448577880859 537.1281127929688 135.7443389892578 C 542.6452026367188 135.3660888671875 548.1826171875 135.554443359375 553.7091064453125 135.7443389892578 C 560.1082153320312 135.9640808105469 566.5089721679688 136.183837890625 572.9097290039062 136.4035797119141 C 574.637939453125 136.4632110595703 581.1421508789062 151.31298828125 583.0194702148438 157.2946929931641 C 586.009521484375 166.8188629150391 588.9650268554688 177.3397827148438 585.009765625 186.5045318603516 C 573.3681640625 185.6287231445312 559.0330810546875 184.3558044433594 547.5029907226562 186.1843414306641 C 541.4036254882812 187.1527709960938 535.4502563476562 188.8651885986328 529.5140991210938 190.5728912353516 C 516.1082153320312 194.4324798583984 503.7980346679688 200.0798492431641 490.3922729492188 203.9394226074219 Z" stroke="none" fill="#ebeae8"/>
          </g>
        </g>
        <g id="Grupo_112621" data-name="Grupo 112621" transform="translate(283.997 94.603)">
          <rect id="Rectángulo_37335" data-name="Rectángulo 37335" width="31.593" height="6.466" transform="translate(57.456 43.134) rotate(-74.063)" fill="#38051c"/>
          <path id="Rectángulo_37336" data-name="Rectángulo 37336" d="M8.449,0H56.02a8.449,8.449,0,0,1,8.449,8.449v91.935a8.448,8.448,0,0,1-8.448,8.448H8.449A8.449,8.449,0,0,1,0,100.383V8.449A8.449,8.449,0,0,1,8.449,0Z" transform="matrix(0.962, 0.275, -0.275, 0.962, 29.883, 37.192)" fill="#60d0d9"/>
          <rect id="Rectángulo_37337" data-name="Rectángulo 37337" width="14.697" height="37.654" transform="translate(42.774 40.873) rotate(-74.063)" fill="#ebeae8"/>
          <rect id="Rectángulo_37338" data-name="Rectángulo 37338" width="7.292" height="37.274" transform="matrix(0.275, -0.962, 0.962, 0.275, 46.016, 7.011)" fill="#ebeae8"/>
          <rect id="Rectángulo_37339" data-name="Rectángulo 37339" width="3.646" height="11.173" transform="translate(48.345 5.781) rotate(-74.063)" fill="#38051c"/>
          <g id="Grupo_112620" data-name="Grupo 112620" transform="translate(46.728 27.872)">
            <rect id="Rectángulo_37340" data-name="Rectángulo 37340" width="14.697" height="0.329" transform="matrix(0.275, -0.961, 0.961, 0.275, 0, 14.131)" fill="#38051c"/>
            <rect id="Rectángulo_37341" data-name="Rectángulo 37341" width="14.697" height="0.329" transform="translate(4.666 15.463) rotate(-74.066)" fill="#38051c"/>
            <rect id="Rectángulo_37342" data-name="Rectángulo 37342" width="14.697" height="0.329" transform="matrix(0.274, -0.962, 0.962, 0.274, 9.33, 16.795)" fill="#38051c"/>
            <rect id="Rectángulo_37343" data-name="Rectángulo 37343" width="14.697" height="0.329" transform="matrix(0.274, -0.962, 0.962, 0.274, 13.994, 18.127)" fill="#38051c"/>
            <rect id="Rectángulo_37344" data-name="Rectángulo 37344" width="14.697" height="0.329" transform="matrix(0.274, -0.962, 0.962, 0.274, 18.657, 19.458)" fill="#38051c"/>
            <rect id="Rectángulo_37345" data-name="Rectángulo 37345" width="14.697" height="0.329" transform="matrix(0.274, -0.962, 0.962, 0.274, 23.319, 20.79)" fill="#38051c"/>
            <rect id="Rectángulo_37346" data-name="Rectángulo 37346" width="14.697" height="0.329" transform="translate(27.979 22.12) rotate(-74.046)" fill="#38051c"/>
          </g>
          <rect id="Rectángulo_37347" data-name="Rectángulo 37347" width="64.388" height="39.937" transform="translate(6.635 118.604) rotate(-74.063)" fill="#dbfcff"/>
          <rect id="Rectángulo_37348" data-name="Rectángulo 37348" width="64.388" height="8.938" transform="translate(60.032 133.851) rotate(-74.063)" fill="#dbfcff"/>
        </g>
        <g id="Grupo_112622" data-name="Grupo 112622" transform="translate(374.663 24.928)">
          <rect id="Rectángulo_37349" data-name="Rectángulo 37349" width="1.424" height="39.514" transform="matrix(0.654, -0.757, 0.757, 0.654, 88.826, 80.388)" fill="#38051c"/>
          <path id="Trazado_113711" data-name="Trazado 113711" d="M416.587,87.078l13.34-15.448,47.984,41.438a5.605,5.605,0,0,1,1.664,5.986h0a17.513,17.513,0,0,1-8.84,10.237h0a5.609,5.609,0,0,1-6.165-.775Z" transform="translate(-388.814 -46.871)" fill="#ebeae8"/>
          <path id="Trazado_113712" data-name="Trazado 113712" d="M461.466,116.615c-11.012-9.51-18.844-18.487-17.5-20.048s11.37,4.88,22.382,14.39a98.44,98.44,0,0,1,13.067,13.831,1.846,1.846,0,0,1-2.365,2.739A98.407,98.407,0,0,1,461.466,116.615Z" transform="translate(-373.304 -32.801)" fill="#519fd6"/>
          <path id="Trazado_113713" data-name="Trazado 113713" d="M436.368,104.161l13.34-15.448,16.936,14.625a5.605,5.605,0,0,1,1.664,5.986h0a17.513,17.513,0,0,1-8.84,10.237h0a5.609,5.609,0,0,1-6.165-.775Z" transform="translate(-377.547 -37.141)" fill="#60d0d9"/>
          <rect id="Rectángulo_37350" data-name="Rectángulo 37350" width="20.411" height="6.171" transform="translate(72.161 51.572) rotate(130.814)" fill="#38051c"/>
          <rect id="Rectángulo_37351" data-name="Rectángulo 37351" width="6.467" height="1.424" transform="matrix(0.654, -0.757, 0.757, 0.654, 62.142, 69.888)" fill="#38051c"/>
          <rect id="Rectángulo_37352" data-name="Rectángulo 37352" width="6.466" height="1.424" transform="translate(55.945 64.536) rotate(-49.186)" fill="#2c1817"/>
          <rect id="Rectángulo_37353" data-name="Rectángulo 37353" width="6.466" height="1.424" transform="matrix(0.654, -0.757, 0.757, 0.654, 49.747, 59.184)" fill="#38051c"/>
          <rect id="Rectángulo_37354" data-name="Rectángulo 37354" width="6.467" height="1.424" transform="matrix(0.654, -0.757, 0.757, 0.654, 43.55, 53.832)" fill="#38051c"/>
          <rect id="Rectángulo_37355" data-name="Rectángulo 37355" width="6.467" height="1.424" transform="matrix(0.654, -0.757, 0.757, 0.654, 37.353, 48.48)" fill="#38051c"/>
          <rect id="Rectángulo_37356" data-name="Rectángulo 37356" width="6.466" height="1.424" transform="matrix(0.654, -0.757, 0.757, 0.654, 31.156, 43.129)" fill="#38051c"/>
          <path id="Trazado_113714" data-name="Trazado 113714" d="M413.945,88.841l17.065-19.759a1.662,1.662,0,0,1,2.343-.171h0a1.662,1.662,0,0,1,.171,2.343L416.461,91.013a1.662,1.662,0,0,1-2.343.171h0A1.661,1.661,0,0,1,413.945,88.841Z" transform="translate(-390.549 -48.65)" fill="#ebeae8"/>
          <path id="Trazado_113715" data-name="Trazado 113715" d="M399.3,76.192l17.063-19.759a1.659,1.659,0,0,1,2.343-.171h0a1.66,1.66,0,0,1,.171,2.342L401.811,78.362a1.659,1.659,0,0,1-2.343.171h0A1.66,1.66,0,0,1,399.3,76.192Z" transform="translate(-398.893 -55.856)" fill="#ebeae8"/>
          <rect id="Rectángulo_37357" data-name="Rectángulo 37357" width="12.282" height="27.056" transform="matrix(-0.654, 0.757, -0.757, -0.654, 35.941, 25.663)" fill="#38051c"/>
        </g>
        <g id="Grupo_112624" data-name="Grupo 112624" transform="translate(124.746 25.691)">
          <path id="Trazado_113716" data-name="Trazado 113716" d="M272.559,80.623c-8.936-2.059-19.442-3.869-26.317,1.022a14.162,14.162,0,0,0-5.629,12.511c.253,4.687,2.274,9.239,4.637,13.556,3.72,6.8,8.352,13.282,11.39,20.3s4.378,14.872,1.312,21.66c-2.96,6.556-9.554,11.246-14.676,16.705-2.788,2.97-5.15,7.332-2.356,10.5a10,10,0,0,0,4.762,2.593c9.311,2.695,19.543-.071,27.147-4.919,7.333-4.674,11.315-6.773,11.1-14.715-.192-7.033-2.26-10.659,1.009-17,2.235-4.338,6.228-4.985,5.282-9.76" transform="translate(-239.668 -43.709)" fill="none" stroke="#38051c" stroke-linecap="round" stroke-linejoin="round" stroke-width="0.75"/>
          <path id="Trazado_113717" data-name="Trazado 113717" d="M320.289,72.413c3.279-5.355,10.537-8.471,16.068-6.153,2.072.868,3.718,2.485,5.514,3.834a25.271,25.271,0,0,0,29.8-.235c3.138-2.434,5.632-5.589,8.54-8.294s6.467-5.038,10.435-5.216,8.248,2.482,8.716,6.426c.664,5.594-5.635,9.058-9.4,13.243a17.416,17.416,0,0,0-4.312,13.395c.567,5.12,3.422,9.97,2.9,15.095-.678,6.685-6.829,11.441-12.944,14.225-12.043,5.481-24.426,6.12-37.138,2.453" transform="translate(-193.747 -56.342)" fill="none" stroke="#38051c" stroke-linecap="round" stroke-linejoin="round" stroke-width="0.75"/>
          <g id="Grupo_112623" data-name="Grupo 112623" transform="translate(28.518 14.547)">
            <path id="Trazado_113718" data-name="Trazado 113718" d="M279.6,144.138a37.262,37.262,0,0,1,34.386-15.848c5.244.6,10.5,2.339,15.691,1.38,6.1-1.129,10.846-5.718,15.762-9.5s23.748-5.308,29.587-3.221c-.782-2.348-2.169-14.037-2.169-16.512.006-13.977-10.942-21.883-16.207-34.831-3.875,3.641-9.957,3.28-15.165,2.2s-10.752-2.624-15.686-.644c-6.107,2.45-9.342,9.587-15.448,12.036-7.531,3.02-15.669-2.193-23.738-3.048-10.469-1.108-20.131,5.186-28.774,11.2C264.975,105.615,274.572,125.183,279.6,144.138Z" transform="translate(-257.837 -65.61)" fill="#60d0d9"/>
            <path id="Trazado_113719" data-name="Trazado 113719" d="M359.685,73.334c-3.846,3.58-9.89,3.218-15.065,2.147s-10.686-2.6-15.586-.653c-6.065,2.4-9.27,9.425-15.333,11.828-7.477,2.963-15.57-2.179-23.588-3.029-10.4-1.1-19.995,5.079-28.574,10.989" transform="translate(-255.728 -61.211)" fill="none" stroke="#38051c" stroke-linecap="round" stroke-linejoin="round" stroke-width="0.75"/>
            <path id="Trazado_113720" data-name="Trazado 113720" d="M364.146,81.545c-3.875,3.641-9.959,3.28-15.165,2.2s-10.752-2.624-15.688-.645c-6.106,2.45-9.341,9.589-15.446,12.037-7.531,3.02-15.671-2.194-23.738-3.048-10.469-1.11-20.131,5.184-28.774,11.2" transform="translate(-253.566 -56.534)" fill="none" stroke="#38051c" stroke-linecap="round" stroke-linejoin="round" stroke-width="0.75"/>
            <path id="Trazado_113721" data-name="Trazado 113721" d="M366.248,90.33c-3.841,3.646-9.863,3.293-15.016,2.219s-10.639-2.612-15.528-.625c-6.046,2.458-9.257,9.6-15.3,12.054-7.459,3.029-15.509-2.174-23.493-3.017-10.362-1.1-19.935,5.209-28.5,11.233" transform="translate(-251.816 -51.53)" fill="none" stroke="#38051c" stroke-linecap="round" stroke-linejoin="round" stroke-width="0.75"/>
            <g id="Trazado_113722" data-name="Trazado 113722" transform="translate(-257.837 -65.61)" fill="none" stroke-miterlimit="10">
              <path d="M279.6,144.138a37.262,37.262,0,0,1,34.386-15.848c5.244.6,10.5,2.339,15.691,1.38,6.1-1.129,10.846-5.718,15.762-9.5s23.748-5.308,29.587-3.221c-.782-2.348-2.169-14.037-2.169-16.512.006-13.977-10.942-21.883-16.207-34.831-3.875,3.641-9.957,3.28-15.165,2.2s-10.752-2.624-15.686-.644c-6.107,2.45-9.342,9.587-15.448,12.036-7.531,3.02-15.669-2.193-23.738-3.048-10.469-1.108-20.131,5.186-28.774,11.2C264.975,105.615,274.572,125.183,279.6,144.138Z" stroke="none"/>
              <path d="M 280.8837890625 137.7336730957031 C 288.3087158203125 129.8113403320312 299.0345458984375 125.069206237793 310.0997619628906 125.069206237793 C 311.514892578125 125.069206237793 312.9371032714844 125.14990234375 314.3272094726562 125.3090972900391 C 315.9780578613281 125.4983367919922 317.6094360351562 125.7901000976562 319.1870727539062 126.0722503662109 C 321.7172546386719 126.5247497558594 324.1070861816406 126.9521636962891 326.4177856445312 126.9521636962891 C 327.3955383300781 126.9521636962891 328.2831726074219 126.8759460449219 329.1307067871094 126.7193145751953 C 333.4356689453125 125.9225997924805 337.1231994628906 122.9663162231445 341.0272216796875 119.8364639282227 C 341.8685913085938 119.1619415283203 342.7385864257812 118.464485168457 343.6102600097656 117.7945785522461 C 345.607666015625 116.2595520019531 349.0759582519531 115.0362091064453 353.9187622070312 114.1584854125977 C 357.9347839355469 113.4306411743164 362.6214599609375 113.01318359375 366.7770385742188 113.01318359375 C 368.1061096191406 113.01318359375 369.677734375 113.0566787719727 371.2380065917969 113.2007904052734 C 370.518310546875 108.5221557617188 369.8557434082031 102.1756591796875 369.8557434082031 100.4391860961914 C 369.8573303222656 96.91559600830078 369.0917053222656 93.61607360839844 367.4462890625 90.05540466308594 C 365.9210205078125 86.75479125976562 363.834716796875 83.64066314697266 361.6258850097656 80.34368133544922 C 359.4601745605469 77.11106872558594 357.2372131347656 73.79299163818359 355.369384765625 70.04993438720703 C 353.2428894042969 71.047607421875 350.7360534667969 71.55095672607422 347.8746337890625 71.55101013183594 C 345.77099609375 71.55103302001953 343.4807434082031 71.28781127929688 340.873779296875 70.74644470214844 C 340.32421875 70.63246917724609 339.7659912109375 70.51233673095703 339.2261352539062 70.39616394042969 C 336.5163879394531 69.81305694580078 333.71435546875 69.21007537841797 331.1687316894531 69.21007537841797 C 329.5454711914062 69.21007537841797 328.15380859375 69.45194244384766 326.9136657714844 69.94975280761719 C 324.4488525390625 70.9385986328125 322.3950805664062 73.04618072509766 320.2207336425781 75.27751159667969 C 317.7068481445312 77.85731506347656 315.1073608398438 80.52494812011719 311.4654235839844 81.98542022705078 C 309.54052734375 82.75731658935547 307.5182189941406 83.13262176513672 305.2828979492188 83.13278961181641 C 301.5159912109375 83.13309478759766 297.8134155273438 82.04396820068359 294.2327880859375 80.99070739746094 C 291.4639587402344 80.17624664306641 288.8486633300781 79.40694427490234 286.2947692871094 79.13620758056641 C 285.5977172851562 79.06244659423828 284.8846130371094 79.02503204345703 284.1752624511719 79.02503204345703 C 276.4262084960938 79.02503204345703 269.0055236816406 83.34725189208984 261.5030517578125 88.46749877929688 C 263.4312744140625 93.30253601074219 265.4929504394531 98.17794036865234 267.6589050292969 103.2999877929688 C 272.4342346191406 114.5926971435547 277.3493957519531 126.2161636352539 280.8837890625 137.7336730957031 M 279.5992126464844 144.1376342773438 C 274.5718078613281 125.1833801269531 264.9754638671875 105.6154251098633 257.8370056152344 87.35181427001953 C 266.4790954589844 81.3387451171875 276.1414489746094 75.04477691650391 286.6105346679688 76.15287780761719 C 294.6797180175781 77.00829315185547 302.8179931640625 82.22084808349609 310.3488464355469 79.20096588134766 C 316.4545288085938 76.75244140625 319.6893920898438 69.61557769775391 325.7966613769531 67.16544342041016 C 330.7313537597656 65.18466186523438 336.2767333984375 66.72911834716797 341.4830322265625 67.80896759033203 C 346.6908874511719 68.89041900634766 352.77294921875 69.25144958496094 356.6482543945312 65.61000823974609 C 361.9142150878906 78.55746459960938 372.862060546875 86.46344757080078 372.8557434082031 100.4405288696289 C 372.8557434082031 102.9157485961914 374.2432861328125 114.6044235229492 375.02490234375 116.952507019043 C 369.1861572265625 114.8649826049805 350.354248046875 116.3953170776367 345.4383239746094 120.1732711791992 C 340.5224304199219 123.9512710571289 335.7744445800781 128.5407104492188 329.6766357421875 129.6692199707031 C 324.4877319335938 130.6282196044922 319.2294921875 128.8907318115234 313.9855346679688 128.2895812988281 C 300.8009948730469 126.779655456543 287.0154724121094 133.1332855224609 279.5992126464844 144.1376342773438 Z" stroke="none" fill="#ebeae8"/>
            </g>
          </g>
        </g>
        <g id="Grupo_112627" data-name="Grupo 112627" transform="translate(544.6 15.945)">
          <rect id="Rectángulo_37358" data-name="Rectángulo 37358" width="32.51" height="88.679" rx="1.629" transform="translate(61.157 0) rotate(43.601)" fill="#ebeae8"/>
          <rect id="Rectángulo_37359" data-name="Rectángulo 37359" width="10.837" height="39.105" transform="translate(54.811 22.377) rotate(43.602)" fill="#fff"/>
          <rect id="Rectángulo_37360" data-name="Rectángulo 37360" width="8.802" height="9.419" transform="matrix(0.724, 0.69, -0.69, 0.724, 24.654, 55.518)" fill="#fff"/>
          <rect id="Rectángulo_37361" data-name="Rectángulo 37361" width="14.5" height="15.517" transform="translate(24.694 51.346) rotate(43.602)" fill="none" stroke="#38051c" stroke-linecap="round" stroke-linejoin="round" stroke-width="0.75"/>
          <rect id="Rectángulo_37362" data-name="Rectángulo 37362" width="4.144" height="4.435" transform="translate(24.622 58.929) rotate(43.601)" fill="#f56217"/>
          <rect id="Rectángulo_37363" data-name="Rectángulo 37363" width="10.837" height="2.46" transform="translate(48.235 29.282) rotate(43.601)" fill="#f56217"/>
          <rect id="Rectángulo_37364" data-name="Rectángulo 37364" width="10.837" height="2.46" transform="translate(36.115 42.008) rotate(43.602)" fill="#f56217"/>
          <text id="C" transform="translate(42.569 24.865) rotate(133.602)" font-size="4" font-family="Montserrat-Regular, Montserrat"><tspan x="-1.438" y="0">C</tspan></text>
          <text id="T" transform="translate(29.726 36.901) rotate(133.602)" font-size="5" font-family="Montserrat-Regular, Montserrat"><tspan x="-1.435" y="0">T</tspan></text>
          <text id="COVID-19" transform="translate(60.974 18.562) rotate(43.602)" font-size="4" font-family="Montserrat-Regular, Montserrat"><tspan x="-9.352" y="0">COVID-19</tspan></text>
          <g id="Grupo_112625" data-name="Grupo 112625" transform="translate(59.916 2.803)">
            <line id="Línea_144" data-name="Línea 144" x1="4.183" y2="4.392" fill="none" stroke="#38051c" stroke-miterlimit="10" stroke-width="0.75"/>
            <line id="Línea_145" data-name="Línea 145" x1="4.183" y2="4.392" transform="translate(3.531 3.363)" fill="none" stroke="#38051c" stroke-miterlimit="10" stroke-width="0.75"/>
            <line id="Línea_146" data-name="Línea 146" x1="4.183" y2="4.392" transform="translate(7.063 6.726)" fill="none" stroke="#38051c" stroke-miterlimit="10" stroke-width="0.75"/>
            <line id="Línea_147" data-name="Línea 147" x1="4.183" y2="4.392" transform="translate(10.594 10.089)" fill="none" stroke="#38051c" stroke-miterlimit="10" stroke-width="0.75"/>
            <line id="Línea_148" data-name="Línea 148" x1="4.183" y2="4.392" transform="translate(14.125 13.452)" fill="none" stroke="#38051c" stroke-miterlimit="10" stroke-width="0.75"/>
            <line id="Línea_149" data-name="Línea 149" x1="4.183" y2="4.392" transform="translate(17.657 16.815)" fill="none" stroke="#38051c" stroke-miterlimit="10" stroke-width="0.75"/>
          </g>
          <g id="Grupo_112626" data-name="Grupo 112626" transform="translate(2.943 62.627)">
            <line id="Línea_150" data-name="Línea 150" x1="4.183" y2="4.392" fill="none" stroke="#38051c" stroke-miterlimit="10" stroke-width="0.75"/>
            <line id="Línea_151" data-name="Línea 151" x1="4.183" y2="4.392" transform="translate(3.531 3.363)" fill="none" stroke="#38051c" stroke-miterlimit="10" stroke-width="0.75"/>
            <line id="Línea_152" data-name="Línea 152" x1="4.183" y2="4.392" transform="translate(7.063 6.726)" fill="none" stroke="#38051c" stroke-miterlimit="10" stroke-width="0.75"/>
            <line id="Línea_153" data-name="Línea 153" x1="4.183" y2="4.392" transform="translate(10.594 10.089)" fill="none" stroke="#38051c" stroke-miterlimit="10" stroke-width="0.75"/>
            <line id="Línea_154" data-name="Línea 154" x1="4.183" y2="4.392" transform="translate(14.125 13.452)" fill="none" stroke="#38051c" stroke-miterlimit="10" stroke-width="0.75"/>
            <line id="Línea_155" data-name="Línea 155" x1="4.183" y2="4.392" transform="translate(17.657 16.815)" fill="none" stroke="#38051c" stroke-miterlimit="10" stroke-width="0.75"/>
          </g>
        </g>
        <g id="Grupo_112630" data-name="Grupo 112630" transform="translate(161.39 184.789)">
          <rect id="Rectángulo_37365" data-name="Rectángulo 37365" width="32.51" height="88.679" rx="1.629" transform="matrix(0.42, -0.907, 0.907, 0.42, 0, 29.502)" fill="#ebeae8"/>
          <rect id="Rectángulo_37366" data-name="Rectángulo 37366" width="10.837" height="39.105" transform="translate(23.229 28.315) rotate(-65.157)" fill="#fff"/>
          <rect id="Rectángulo_37367" data-name="Rectángulo 37367" width="8.802" height="9.419" transform="translate(64.308 46.212) rotate(-65.157)" fill="#fff"/>
          <rect id="Rectángulo_37368" data-name="Rectángulo 37368" width="14.5" height="15.517" transform="translate(60.344 47.516) rotate(-65.157)" fill="none" stroke="#38051c" stroke-linecap="round" stroke-linejoin="round" stroke-width="0.75"/>
          <rect id="Rectángulo_37369" data-name="Rectángulo 37369" width="4.145" height="4.435" transform="translate(67.548 45.146) rotate(-65.157)" fill="#e62e27"/>
          <rect id="Rectángulo_37370" data-name="Rectángulo 37370" width="10.837" height="2.46" transform="translate(31.882 32.321) rotate(-65.157)" fill="#e62e27"/>
          <rect id="Rectángulo_37371" data-name="Rectángulo 37371" width="10.837" height="2.46" transform="translate(47.83 39.704) rotate(-65.158)" fill="#e62e27"/>
          <text id="C-2" data-name="C" transform="translate(29.472 38.989) rotate(24.843)" font-size="4" font-family="Montserrat-Regular, Montserrat"><tspan x="-1.438" y="0">C</tspan></text>
          <text id="T-2" data-name="T" transform="translate(44.999 47.28) rotate(24.843)" font-size="5" font-family="Montserrat-Regular, Montserrat"><tspan x="-1.435" y="0">T</tspan></text>
          <text id="COVID-19-2" data-name="COVID-19" transform="translate(17.585 23.589) rotate(-65.157)" font-size="4" font-family="Montserrat-Regular, Montserrat"><tspan x="-9.352" y="0">COVID-19</tspan></text>
          <g id="Grupo_112628" data-name="Grupo 112628" transform="translate(1.707 3.688)">
            <line id="Línea_156" data-name="Línea 156" x2="5.504" y2="2.548" transform="translate(0 22.126)" fill="none" stroke="#38051c" stroke-miterlimit="10" stroke-width="0.75"/>
            <line id="Línea_157" data-name="Línea 157" x2="5.504" y2="2.548" transform="translate(2.049 17.701)" fill="none" stroke="#38051c" stroke-miterlimit="10" stroke-width="0.75"/>
            <line id="Línea_158" data-name="Línea 158" x2="5.504" y2="2.548" transform="translate(4.098 13.276)" fill="none" stroke="#38051c" stroke-miterlimit="10" stroke-width="0.75"/>
            <line id="Línea_159" data-name="Línea 159" x2="5.504" y2="2.548" transform="translate(6.146 8.851)" fill="none" stroke="#38051c" stroke-miterlimit="10" stroke-width="0.75"/>
            <line id="Línea_160" data-name="Línea 160" x2="5.504" y2="2.548" transform="translate(8.195 4.425)" fill="none" stroke="#38051c" stroke-miterlimit="10" stroke-width="0.75"/>
            <line id="Línea_161" data-name="Línea 161" x2="5.504" y2="2.548" transform="translate(10.244)" fill="none" stroke="#38051c" stroke-miterlimit="10" stroke-width="0.75"/>
          </g>
          <g id="Grupo_112629" data-name="Grupo 112629" transform="translate(76.676 38.396)">
            <line id="Línea_162" data-name="Línea 162" x2="5.504" y2="2.548" transform="translate(0 22.126)" fill="none" stroke="#38051c" stroke-miterlimit="10" stroke-width="0.75"/>
            <line id="Línea_163" data-name="Línea 163" x2="5.504" y2="2.548" transform="translate(2.049 17.701)" fill="none" stroke="#38051c" stroke-miterlimit="10" stroke-width="0.75"/>
            <line id="Línea_164" data-name="Línea 164" x2="5.504" y2="2.548" transform="translate(4.098 13.276)" fill="none" stroke="#38051c" stroke-miterlimit="10" stroke-width="0.75"/>
            <line id="Línea_165" data-name="Línea 165" x2="5.504" y2="2.548" transform="translate(6.146 8.851)" fill="none" stroke="#38051c" stroke-miterlimit="10" stroke-width="0.75"/>
            <line id="Línea_166" data-name="Línea 166" x2="5.504" y2="2.548" transform="translate(8.195 4.425)" fill="none" stroke="#38051c" stroke-miterlimit="10" stroke-width="0.75"/>
            <line id="Línea_167" data-name="Línea 167" x2="5.504" y2="2.548" transform="translate(10.244)" fill="none" stroke="#38051c" stroke-miterlimit="10" stroke-width="0.75"/>
          </g>
        </g>
        <path id="Trazado_113723" data-name="Trazado 113723" d="M636.3,67.538a2.994,2.994,0,0,1-2.422-1.033,12.515,12.515,0,0,0,.4-2.507,4.976,4.976,0,0,1,1.764-.1c.653.047,3.133,2.232,3.411-.044.254-2.067-1.841-1.246-3.328-.854a2.26,2.26,0,0,1-1.849-.518,12.1,12.1,0,0,0-1.027-4.246,2.87,2.87,0,0,1,1.242-1.053c.417-.226,2.8.185,2.066-1.362-.669-1.4-1.621-.066-2.372.763a1.763,1.763,0,0,1-1.573.372,12.61,12.61,0,0,0-1.281-1.84,6.485,6.485,0,0,1,1.5-2.252c.529-.578,4.279-1.431,2.507-3.21-1.607-1.615-2.456.885-3.225,2.533a3.167,3.167,0,0,1-2.183,1.483,12.78,12.78,0,0,0-3.83-2.281,7.172,7.172,0,0,1,.111-2.416c.13-.772,2.817-3.524.364-4.057-2.227-.483-1.584,2.078-1.336,3.878a2.865,2.865,0,0,1-.747,2.1,12.523,12.523,0,0,0-2.29-.326,5.091,5.091,0,0,1-.159-1.149c-.031-.562,1.615-2.912-.417-2.9-1.844.008-.89,1.7-.38,2.929a1.576,1.576,0,0,1-.024,1.127,12.671,12.671,0,0,0-2.257.278,7.272,7.272,0,0,1-.912-2.139c-.223-.752.535-4.308-1.394-3.817-1.752.446-.262,2.508.643,4.04a3.589,3.589,0,0,1,.322,2.277,12.633,12.633,0,0,0-5.6,3.7,10.4,10.4,0,0,1-.976-1.226c-.51-.716-.665-4.971-2.919-3.511-2.047,1.325.45,2.871,2.051,4.114a3,3,0,0,1,1,1.723,12.75,12.75,0,0,0-1.849,3.984,7.142,7.142,0,0,1-1.617-.217c-.747-.162-3.279-3.017-3.948-.521-.606,2.265,1.938,1.7,3.714,1.51a2.344,2.344,0,0,1,1.577.5,12.589,12.589,0,0,0-.149,2.3,2.864,2.864,0,0,1-1.606.267c-.474-.02-2.309-1.6-2.472.108-.148,1.549,1.356.89,2.427.563a2,2,0,0,1,1.786.7q.1.633.264,1.267c.016.057.036.108.052.165a9.174,9.174,0,0,1-2.3.56c-.844.121-4.575-1.557-4.327.942.226,2.268,2.671.844,4.458.038a3.641,3.641,0,0,1,2.789.174,12.629,12.629,0,0,0,3.136,4.357A7.656,7.656,0,0,1,612,74.653c-.46.634-4.09,1.907-2.128,3.473,1.78,1.424,2.34-1.158,2.918-2.882a2.857,2.857,0,0,1,1.588-1.541,12.791,12.791,0,0,0,2.813,1.468,9.668,9.668,0,0,1-.25,2.951c-.179.913-3.064,4.206-.622,4.793,2.216.532,1.728-2.478,1.59-4.6a4.125,4.125,0,0,1,1-2.646,12.7,12.7,0,0,0,2.1.287,7.216,7.216,0,0,1,.253,2.012c.017.75-1.686,3.847.345,3.883,1.843.033.932-2.252.454-3.9a3.109,3.109,0,0,1,.218-2,12.821,12.821,0,0,0,2.047-.3,7,7,0,0,1,.921,2.227c.207.755-.625,4.3,1.315,3.844,1.76-.408.312-2.5-.56-4.051a3.7,3.7,0,0,1-.257-2.416,12.615,12.615,0,0,0,5.005-3.2,10.381,10.381,0,0,1,1.731,1.306c.713.623,2.161,4.819,3.9,2.987,1.577-1.664-1.312-2.772-3.244-3.732a3.711,3.711,0,0,1-1.51-1.576,12.766,12.766,0,0,0,1.334-2.12l-.041.381c.851-1.242,2.555-.953,3.251-.865s3.247,2.444,3.646.163C640.181,66.534,637.908,67.234,636.3,67.538Z" transform="translate(91.863 -37.2)" fill="#479d69"/>
        <path id="Trazado_113724" data-name="Trazado 113724" d="M196.495,91.735a2.478,2.478,0,0,1-2-.854,10.511,10.511,0,0,0,.334-2.07,4.04,4.04,0,0,1,1.457-.085c.54.039,2.588,1.844,2.819-.038.209-1.708-1.521-1.028-2.75-.7a1.864,1.864,0,0,1-1.529-.429,10.411,10.411,0,0,0-.319-2.007,10.537,10.537,0,0,0-.529-1.5,2.382,2.382,0,0,1,1.026-.87c.345-.187,2.315.152,1.706-1.125-.553-1.161-1.339-.055-1.96.629a1.453,1.453,0,0,1-1.3.308,10.369,10.369,0,0,0-1.058-1.519,5.342,5.342,0,0,1,1.235-1.862c.436-.477,3.536-1.182,2.072-2.653-1.329-1.334-2.031.731-2.665,2.094a2.621,2.621,0,0,1-1.805,1.226,10.542,10.542,0,0,0-3.164-1.885,5.861,5.861,0,0,1,.093-1.995c.107-.639,2.328-2.913.3-3.353-1.841-.4-1.307,1.716-1.1,3.2a2.366,2.366,0,0,1-.617,1.734,10.419,10.419,0,0,0-1.893-.27,4.253,4.253,0,0,1-.13-.95c-.025-.465,1.334-2.406-.345-2.4-1.524.006-.735,1.408-.314,2.42a1.292,1.292,0,0,1-.02.929,10.568,10.568,0,0,0-1.863.231,5.926,5.926,0,0,1-.753-1.769c-.185-.62.441-3.558-1.154-3.153-1.447.369-.215,2.073.532,3.338a2.958,2.958,0,0,1,.265,1.882,10.444,10.444,0,0,0-4.624,3.056,8.527,8.527,0,0,1-.807-1.011c-.422-.592-.551-4.108-2.414-2.9-1.69,1.094.372,2.372,1.7,3.4a2.484,2.484,0,0,1,.821,1.422,10.56,10.56,0,0,0-1.527,3.293,5.864,5.864,0,0,1-1.336-.179c-.618-.133-2.709-2.493-3.262-.43-.5,1.871,1.6,1.4,3.069,1.248a1.927,1.927,0,0,1,1.3.411,10.488,10.488,0,0,0-.122,1.9,2.374,2.374,0,0,1-1.328.22c-.391-.017-1.907-1.32-2.042.089-.122,1.281,1.121.735,2.006.466a1.657,1.657,0,0,1,1.475.582q.082.523.218,1.047c.013.046.03.089.042.135a7.5,7.5,0,0,1-1.9.463c-.7.1-3.781-1.285-3.575.78.187,1.873,2.207.7,3.684.03a3.009,3.009,0,0,1,2.3.144,10.425,10.425,0,0,0,2.591,3.6,6.35,6.35,0,0,1-.918,1.607c-.38.524-3.379,1.574-1.758,2.869,1.471,1.176,1.935-.956,2.411-2.381a2.356,2.356,0,0,1,1.314-1.273,10.587,10.587,0,0,0,2.323,1.212,8,8,0,0,1-.206,2.439c-.149.755-2.532,3.475-.515,3.96,1.832.439,1.428-2.048,1.315-3.8a3.4,3.4,0,0,1,.824-2.186,10.376,10.376,0,0,0,1.738.237,5.889,5.889,0,0,1,.209,1.662c.014.62-1.392,3.178.286,3.21,1.524.027.771-1.863.375-3.222a2.563,2.563,0,0,1,.181-1.654,10.516,10.516,0,0,0,1.692-.243,5.78,5.78,0,0,1,.76,1.84c.171.625-.516,3.549,1.086,3.177,1.455-.339.259-2.067-.461-3.348a3.056,3.056,0,0,1-.212-2,10.411,10.411,0,0,0,4.134-2.645,8.672,8.672,0,0,1,1.431,1.08c.589.515,1.785,3.982,3.222,2.467,1.3-1.375-1.085-2.29-2.681-3.084a3.07,3.07,0,0,1-1.248-1.3,10.477,10.477,0,0,0,1.1-1.753l-.033.315c.7-1.025,2.111-.786,2.686-.714s2.684,2.018,3.014.135C199.7,90.9,197.821,91.484,196.495,91.735Z" transform="translate(-155.319 -21.173)" fill="#479d69"/>
        <path id="Trazado_113725" data-name="Trazado 113725" d="M460.59,158.174a3.763,3.763,0,0,1-3.047-1.3,15.889,15.889,0,0,0,.507-3.152,6.212,6.212,0,0,1,2.218-.129c.822.058,3.941,2.808,4.293-.057.317-2.6-2.317-1.566-4.188-1.074a2.839,2.839,0,0,1-2.326-.651,15.206,15.206,0,0,0-1.29-5.341,3.6,3.6,0,0,1,1.562-1.323c.524-.286,3.525.231,2.6-1.716-.841-1.766-2.039-.083-2.984.959a2.2,2.2,0,0,1-1.978.468,15.95,15.95,0,0,0-1.61-2.312,8.137,8.137,0,0,1,1.88-2.833c.665-.728,5.384-1.8,3.155-4.039-2.025-2.033-3.092,1.114-4.059,3.186a3.981,3.981,0,0,1-2.747,1.866,16.078,16.078,0,0,0-4.817-2.869,8.961,8.961,0,0,1,.14-3.037c.163-.973,3.544-4.434.457-5.106-2.8-.607-1.992,2.615-1.68,4.88a3.588,3.588,0,0,1-.94,2.638,15.861,15.861,0,0,0-2.88-.41,6.366,6.366,0,0,1-.2-1.446c-.041-.708,2.029-3.663-.526-3.652-2.32.009-1.121,2.144-.48,3.684a1.971,1.971,0,0,1-.028,1.417,15.9,15.9,0,0,0-2.838.35,9.063,9.063,0,0,1-1.147-2.692c-.281-.945.672-5.418-1.755-4.8-2.2.56-.328,3.155.81,5.082a4.514,4.514,0,0,1,.4,2.866,15.875,15.875,0,0,0-7.041,4.652,12.989,12.989,0,0,1-1.229-1.541c-.642-.9-.837-6.253-3.673-4.417-2.574,1.667.567,3.612,2.582,5.176a3.77,3.77,0,0,1,1.251,2.166,16.035,16.035,0,0,0-2.326,5.012,8.857,8.857,0,0,1-2.033-.273c-.942-.2-4.125-3.794-4.966-.655-.763,2.849,2.438,2.136,4.671,1.9a2.939,2.939,0,0,1,1.984.628,15.972,15.972,0,0,0-.187,2.894,3.61,3.61,0,0,1-2.02.334c-.6-.027-2.905-2.011-3.109.137-.187,1.948,1.706,1.119,3.053.709a2.515,2.515,0,0,1,2.246.885,15.986,15.986,0,0,0,.333,1.593c.017.071.046.137.064.207a11.484,11.484,0,0,1-2.9.7c-1.063.154-5.756-1.957-5.443,1.187.284,2.852,3.36,1.061,5.608.046a4.583,4.583,0,0,1,3.508.221,15.884,15.884,0,0,0,3.946,5.481,9.589,9.589,0,0,1-1.4,2.445c-.578.8-5.144,2.4-2.676,4.37,2.24,1.789,2.945-1.457,3.671-3.626a3.589,3.589,0,0,1,2-1.938,16.037,16.037,0,0,0,3.538,1.844,12.158,12.158,0,0,1-.314,3.714c-.226,1.15-3.853,5.291-.782,6.029,2.788.67,2.174-3.117,2-5.784a5.177,5.177,0,0,1,1.256-3.329,15.956,15.956,0,0,0,2.645.363,8.959,8.959,0,0,1,.317,2.529c.022.945-2.121,4.841.435,4.886,2.32.042,1.172-2.835.571-4.9a3.91,3.91,0,0,1,.275-2.518,16.1,16.1,0,0,0,2.576-.372,8.778,8.778,0,0,1,1.157,2.8c.262.95-.785,5.4,1.654,4.836,2.215-.515.394-3.147-.7-5.1a4.661,4.661,0,0,1-.323-3.039,15.88,15.88,0,0,0,6.3-4.026,13.13,13.13,0,0,1,2.179,1.642c.9.785,2.719,6.063,4.9,3.758,1.986-2.094-1.65-3.488-4.079-4.7a4.657,4.657,0,0,1-1.9-1.981,15.907,15.907,0,0,0,1.678-2.668l-.05.479c1.069-1.56,3.213-1.2,4.089-1.088s4.086,3.076,4.586.207C465.468,156.909,462.608,157.791,460.59,158.174Z" transform="translate(-13.155 11.09)" fill="#479d69"/>
        <path id="Trazado_113726" data-name="Trazado 113726" d="M475.924,94.2c-.289-1.522.788-2.993,1.668-3.911a20.3,20.3,0,0,0,4.046.651,7.952,7.952,0,0,1,.165,2.847c-.075,1.056-3.6,5.059.072,5.509,3.337.408,2.012-2.974,1.38-5.374a3.643,3.643,0,0,1,.835-2.985,19.57,19.57,0,0,0,6.856-1.656,4.634,4.634,0,0,1,1.7,2c.364.675-.3,4.525,2.2,3.335,2.268-1.08.108-2.616-1.231-3.83a2.837,2.837,0,0,1-.6-2.538,20.352,20.352,0,0,0,2.968-2.067A10.481,10.481,0,0,1,499.62,88.6c.932.854,2.312,6.909,5.184,4.048,2.607-2.6-1.431-3.968-4.09-5.208a5.116,5.116,0,0,1-2.4-3.525A20.62,20.62,0,0,0,502,77.733a11.589,11.589,0,0,1,3.9.179c1.248.21,5.691,4.55,6.551.589.78-3.6-3.354-2.557-6.263-2.157a4.621,4.621,0,0,1-3.387-1.207,20.312,20.312,0,0,0,.527-3.7,8.162,8.162,0,0,1,1.855-.256c.907-.05,4.7,2.605,4.687-.675-.013-2.976-2.751-1.436-4.729-.614a2.531,2.531,0,0,1-1.818-.038,20.482,20.482,0,0,0-.449-3.643,11.625,11.625,0,0,1,3.455-1.472c1.213-.361,6.955.863,6.162-2.252-.719-2.828-4.049-.422-6.522,1.039a5.8,5.8,0,0,1-3.679.52,20.391,20.391,0,0,0-5.972-9.038,16.613,16.613,0,0,1,1.978-1.577c1.155-.824,8.027-1.075,5.671-4.715-2.139-3.3-4.635.727-6.644,3.315a4.865,4.865,0,0,1-2.781,1.606,20.587,20.587,0,0,0-6.432-2.987,11.466,11.466,0,0,1,.35-2.61c.261-1.207,4.87-5.293.841-6.372-3.657-.979-2.744,3.128-2.439,6a3.762,3.762,0,0,1-.805,2.546,20.42,20.42,0,0,0-3.714-.24,4.639,4.639,0,0,1-.43-2.593c.033-.766,2.58-3.729-.174-3.991-2.5-.237-1.436,2.191-.912,3.919.337,1.108-.523,2.243-1.136,2.885a20.15,20.15,0,0,0-2.045.425c-.091.024-.176.058-.265.083a14.8,14.8,0,0,1-.906-3.721c-.2-1.362,2.513-7.388-1.521-6.986-3.662.364-1.362,4.313-.06,7.2a5.889,5.889,0,0,1-.282,4.5,20.376,20.376,0,0,0-7.036,5.063,12.379,12.379,0,0,1-3.139-1.794c-1.023-.742-3.078-6.6-5.608-3.436-2.3,2.875,1.869,3.781,4.652,4.713a4.6,4.6,0,0,1,2.489,2.565,20.65,20.65,0,0,0-2.368,4.539,15.6,15.6,0,0,1-4.765-.4c-1.475-.29-6.792-4.946-7.738-1-.859,3.579,4,2.791,7.422,2.568a6.662,6.662,0,0,1,4.274,1.614,20.354,20.354,0,0,0-.465,3.4,11.514,11.514,0,0,1-3.247.407c-1.212.028-6.211-2.722-6.271.557-.053,2.977,3.638,1.505,6.3.733a5.017,5.017,0,0,1,3.232.353,20.608,20.608,0,0,0,.477,3.306,11.287,11.287,0,0,1-3.6,1.486c-1.22.334-6.934-1.008-6.206,2.122.659,2.843,4.04.507,6.542-.9a5.972,5.972,0,0,1,3.9-.414,20.359,20.359,0,0,0,5.169,8.079,16.751,16.751,0,0,1-2.11,2.8c-1,1.151-7.78,3.489-4.822,6.3,2.687,2.549,4.477-2.119,6.027-5.238a6,6,0,0,1,2.543-2.439,20.528,20.528,0,0,0,3.425,2.155l-.615-.066c2,1.372,1.537,4.125,1.4,5.249s-3.947,5.244-.265,5.886C477.547,100.466,476.416,96.8,475.924,94.2Z" transform="translate(5.448 -39.974)" fill="#479d69"/>
        <circle id="Elipse_4094" data-name="Elipse 4094" cx="5.589" cy="5.589" r="5.589" transform="translate(530.347 36.37)" fill="#479d69"/>
        <circle id="Elipse_4095" data-name="Elipse 4095" cx="5.589" cy="5.589" r="5.589" transform="translate(714.625 203.964)" fill="#479d69"/>
        <circle id="Elipse_4096" data-name="Elipse 4096" cx="5.589" cy="5.589" r="5.589" transform="translate(668.864 62.277)" fill="#479d69"/>
        <path id="Trazado_113727" data-name="Trazado 113727" d="M317.243,158.751A3.947,3.947,0,1,1,313.3,154.8,3.947,3.947,0,0,1,317.243,158.751Z" transform="translate(-75.232 25.432)" fill="#479d69"/>
        <path id="Trazado_113728" data-name="Trazado 113728" d="M608.094,193.682a3.947,3.947,0,1,1-3.947-3.946A3.947,3.947,0,0,1,608.094,193.682Z" transform="translate(90.431 45.328)" fill="#479d69"/>
        <path id="Trazado_113729" data-name="Trazado 113729" d="M352.425,43.963a3.947,3.947,0,1,1-3.948-3.946A3.947,3.947,0,0,1,352.425,43.963Z" transform="translate(-55.193 -39.949)" fill="#479d69"/>
        <circle id="Elipse_4097" data-name="Elipse 4097" cx="3.947" cy="3.947" r="3.947" transform="translate(82.321 52.234)" fill="#479d69"/>
        <path id="Trazado_113730" data-name="Trazado 113730" d="M243.886,61.978a6.848,6.848,0,1,1-6.848-6.848A6.848,6.848,0,0,1,243.886,61.978Z" transform="translate(-120.319 -31.341)" fill="#479d69"/>
        <path id="Trazado_113731" data-name="Trazado 113731" d="M408.225,177.979a6.848,6.848,0,1,1-6.848-6.848A6.847,6.847,0,0,1,408.225,177.979Z" transform="translate(-26.715 34.731)" fill="#479d69"/>
        <path id="Trazado_113732" data-name="Trazado 113732" d="M301.982,134.9a4.648,4.648,0,1,1-4.648-4.648A4.647,4.647,0,0,1,301.982,134.9Z" transform="translate(-84.722 11.447)" fill="#479d69"/>
      </g>
    </g>
  </g>
</svg>
