<svg xmlns="http://www.w3.org/2000/svg" width="114.201" height="42.477" viewBox="0 0 114.201 42.477">
  <g id="Grupo_53889" data-name="Grupo 53889" transform="translate(-1594.786 -1458.184)">
    <g id="Grupo_53886" data-name="Grupo 53886">
      <g id="Grupo_53811" data-name="Grupo 53811" opacity="0.18">
        <g id="Grupo_53810" data-name="Grupo 53810">
          <path id="Trazado_100542" data-name="Trazado 100542" d="M1601.4,1482.355c1.658-1.267,3.2-2.435,4.361-3.31a7.1,7.1,0,0,1,4.675-1.421l57.774,3.247,10.206-3.93,20.164,1-4.92,8.225,5.118.517-1.739,5.6-17.9,6.209-15.69-1.3.013-.054-56.061-3.284a5.66,5.66,0,0,1-.961-.14c-3.405-.8-11.809-3.074-11.648-5.941C1594.954,1484.819,1597.367,1485.437,1601.4,1482.355Z" fill="#c7beff"/>
        </g>
      </g>
      <g id="Grupo_53813" data-name="Grupo 53813">
        <g id="Grupo_53812" data-name="Grupo 53812">
          <path id="Trazado_100543" data-name="Trazado 100543" d="M1678.092,1476.969l20.633-18.785,10.262.577-11.495,21.367Z" fill="#d919d9"/>
        </g>
      </g>
      <g id="Grupo_53815" data-name="Grupo 53815">
        <g id="Grupo_53814" data-name="Grupo 53814">
          <path id="Trazado_100544" data-name="Trazado 100544" d="M1598.773,1484.041a9.1,9.1,0,0,1,1.4,4.386,12.366,12.366,0,0,1-.173,3.379c-2.821-1.07-5.3-2.462-5.213-4.032C1594.914,1485.532,1596.334,1485.346,1598.773,1484.041Z" fill="#d919d9"/>
        </g>
      </g>
      <g id="Grupo_53817" data-name="Grupo 53817" opacity="0.43">
        <g id="Grupo_53816" data-name="Grupo 53816">
          <path id="Trazado_100545" data-name="Trazado 100545" d="M1675.151,1491.687l.315-5.6a.81.81,0,0,1,.853-.762l1.958.11a.81.81,0,0,1,.762.853l-.315,5.6a.809.809,0,0,1-.852.762l-1.959-.11A.809.809,0,0,1,1675.151,1491.687Zm1.152-6.087a.533.533,0,0,0-.562.5l-.315,5.6a.533.533,0,0,0,.5.562l1.958.11a.533.533,0,0,0,.563-.5l.314-5.6a.533.533,0,0,0-.5-.562Z" fill="#0b0c0c"/>
        </g>
      </g>
      <g id="Grupo_53819" data-name="Grupo 53819" opacity="0.18">
        <g id="Grupo_53818" data-name="Grupo 53818">
          <path id="Trazado_100546" data-name="Trazado 100546" d="M1596.018,1488.006a33.287,33.287,0,0,0,3.729.449c3.53.263,7.058.551,10.589.81,15.3,1.125,30.639,1.428,45.936,2.543,7.562.551,15.107,1.273,22.68,1.689,4.406.242,8.818.41,13.231.467l-13.048,4.525-15.69-1.3.013-.054-56.061-3.284a5.66,5.66,0,0,1-.961-.14c-3.405-.8-11.809-3.074-11.648-5.941l0-.031C1595.216,1487.866,1595.656,1487.937,1596.018,1488.006Z" fill="#766abd"/>
        </g>
      </g>
      <g id="Grupo_53821" data-name="Grupo 53821">
        <g id="Grupo_53820" data-name="Grupo 53820">
          <path id="Trazado_100547" data-name="Trazado 100547" d="M1638.969,1498.908a13.51,13.51,0,0,0,5.486,1.739,14.816,14.816,0,0,0,5.854-1.136l.7-6.371s-6.92-3.215-11.246-1.046Z" fill="#f0f3fb"/>
        </g>
      </g>
      <g id="Grupo_53823" data-name="Grupo 53823">
        <g id="Grupo_53822" data-name="Grupo 53822">
          <rect id="Rectángulo_5149" data-name="Rectángulo 5149" width="2.225" height="7.708" transform="translate(1640.165 1499.699) rotate(-176.783)" fill="#766abd"/>
        </g>
      </g>
      <g id="Grupo_53825" data-name="Grupo 53825">
        <g id="Grupo_53824" data-name="Grupo 53824">
          <path id="Trazado_100548" data-name="Trazado 100548" d="M1650.916,1499.338l2.12-.111.539-6.312-2.568-.1Z" fill="#fff"/>
        </g>
      </g>
      <g id="Grupo_53827" data-name="Grupo 53827">
        <g id="Grupo_53826" data-name="Grupo 53826">
          <path id="Trazado_100549" data-name="Trazado 100549" d="M1697.689,1490.524l-15.28-.941a.407.407,0,0,1-.13-.782c3.938-1.612,14.484-5.477,23.07-4.556C1707.288,1484.454,1697.689,1490.524,1697.689,1490.524Z" fill="#d919d9"/>
        </g>
      </g>
      <g id="Grupo_53829" data-name="Grupo 53829">
        <g id="Grupo_53828" data-name="Grupo 53828">
          <rect id="Rectángulo_5150" data-name="Rectángulo 5150" width="1.136" height="6.882" transform="translate(1651.3 1499.67) rotate(-176.783)" fill="#766abd"/>
        </g>
      </g>
      <g id="Grupo_53831" data-name="Grupo 53831">
        <g id="Grupo_53830" data-name="Grupo 53830">
          <path id="Trazado_100550" data-name="Trazado 100550" d="M1637.138,1490.183l-.077.775a1.331,1.331,0,0,0,1.225,1.458l14.8,1.116,21.1-2.583.772-5.563-1.827-.194-1.952,3.658-17.726,1.394-15.109-1.075A1.129,1.129,0,0,0,1637.138,1490.183Z" fill="#d919d9"/>
        </g>
      </g>
      <g id="Grupo_53833" data-name="Grupo 53833">
        <g id="Grupo_53832" data-name="Grupo 53832">
          <path id="Trazado_100551" data-name="Trazado 100551" d="M1601.4,1482.355a17.118,17.118,0,0,0,8.226,1.427l1.136-3.038a15.333,15.333,0,0,1-5.869-1.053Z" fill="#5b5195"/>
        </g>
      </g>
      <g id="Grupo_53838" data-name="Grupo 53838">
        <g id="Grupo_53835" data-name="Grupo 53835">
          <g id="Grupo_53834" data-name="Grupo 53834">
            <path id="Trazado_100552" data-name="Trazado 100552" d="M1615.093,1488.312l.315-5.6a.809.809,0,0,1,.853-.762l1.958.11a.809.809,0,0,1,.762.852l-.315,5.6a.809.809,0,0,1-.852.762l-1.959-.11A.81.81,0,0,1,1615.093,1488.312Zm1.152-6.088a.534.534,0,0,0-.562.5l-.315,5.6a.535.535,0,0,0,.5.563l1.958.11a.535.535,0,0,0,.563-.5l.314-5.6a.534.534,0,0,0-.5-.563Z" fill="#3c251d"/>
          </g>
        </g>
        <g id="Grupo_53837" data-name="Grupo 53837">
          <g id="Grupo_53836" data-name="Grupo 53836">
            <path id="Trazado_100553" data-name="Trazado 100553" d="M1616.566,1483.569a.637.637,0,1,1,.6.672A.637.637,0,0,1,1616.566,1483.569Z" fill="#8f96ca"/>
          </g>
        </g>
      </g>
      <g id="Grupo_53881" data-name="Grupo 53881">
        <g id="Grupo_53840" data-name="Grupo 53840">
          <g id="Grupo_53839" data-name="Grupo 53839">
            <path id="Trazado_100554" data-name="Trazado 100554" d="M1625.056,1483.2l1.462.082a.025.025,0,0,1,.023.027l-.115,2.057a.026.026,0,0,1-.027.024l-1.461-.082a.026.026,0,0,1-.024-.027l.116-2.057Z" fill="#5b5195"/>
          </g>
        </g>
        <g id="Grupo_53842" data-name="Grupo 53842">
          <g id="Grupo_53841" data-name="Grupo 53841">
            <path id="Trazado_100555" data-name="Trazado 100555" d="M1627.324,1483.331l1.461.082.024.027-.116,2.056-.026.024-1.461-.082a.026.026,0,0,1-.024-.027l.115-2.056A.026.026,0,0,1,1627.324,1483.331Z" fill="#5b5195"/>
          </g>
        </g>
        <g id="Grupo_53844" data-name="Grupo 53844">
          <g id="Grupo_53843" data-name="Grupo 53843">
            <path id="Trazado_100556" data-name="Trazado 100556" d="M1629.592,1483.458l1.461.082a.026.026,0,0,1,.024.027l-.116,2.057a.026.026,0,0,1-.027.024l-1.461-.082-.024-.027.116-2.057Z" fill="#5b5195"/>
          </g>
        </g>
        <g id="Grupo_53846" data-name="Grupo 53846">
          <g id="Grupo_53845" data-name="Grupo 53845">
            <rect id="Rectángulo_5151" data-name="Rectángulo 5151" width="1.514" height="2.111" rx="0.025" transform="translate(1633.227 1485.776) rotate(-176.783)" fill="#5b5195"/>
          </g>
        </g>
        <g id="Grupo_53848" data-name="Grupo 53848">
          <g id="Grupo_53847" data-name="Grupo 53847">
            <path id="Trazado_100557" data-name="Trazado 100557" d="M1634.173,1483.716l1.461.082.024.026-.116,2.057a.025.025,0,0,1-.026.024l-1.462-.082a.026.026,0,0,1-.024-.027l.116-2.056A.026.026,0,0,1,1634.173,1483.716Z" fill="#5b5195"/>
          </g>
        </g>
        <g id="Grupo_53850" data-name="Grupo 53850">
          <g id="Grupo_53849" data-name="Grupo 53849">
            <rect id="Rectángulo_5152" data-name="Rectángulo 5152" width="1.514" height="2.111" rx="0.025" transform="translate(1637.808 1486.034) rotate(-176.783)" fill="#5b5195"/>
          </g>
        </g>
        <g id="Grupo_53852" data-name="Grupo 53852">
          <g id="Grupo_53851" data-name="Grupo 53851">
            <rect id="Rectángulo_5153" data-name="Rectángulo 5153" width="1.514" height="2.111" rx="0.025" transform="translate(1640.076 1486.161) rotate(-176.783)" fill="#5b5195"/>
          </g>
        </g>
        <g id="Grupo_53854" data-name="Grupo 53854">
          <g id="Grupo_53853" data-name="Grupo 53853">
            <path id="Trazado_100558" data-name="Trazado 100558" d="M1640.976,1484.1l1.461.082.024.027-.116,2.057-.027.024-1.461-.083a.025.025,0,0,1-.024-.026l.116-2.057A.026.026,0,0,1,1640.976,1484.1Z" fill="#5b5195"/>
          </g>
        </g>
        <g id="Grupo_53856" data-name="Grupo 53856">
          <g id="Grupo_53855" data-name="Grupo 53855">
            <rect id="Rectángulo_5154" data-name="Rectángulo 5154" width="1.514" height="2.111" rx="0.025" transform="translate(1647.36 1486.571) rotate(-176.783)" fill="#5b5195"/>
          </g>
        </g>
        <g id="Grupo_53858" data-name="Grupo 53858">
          <g id="Grupo_53857" data-name="Grupo 53857">
            <path id="Trazado_100559" data-name="Trazado 100559" d="M1648.259,1484.507l1.462.083a.025.025,0,0,1,.024.026l-.116,2.057-.027.024-1.461-.082a.026.026,0,0,1-.024-.027l.116-2.057A.026.026,0,0,1,1648.259,1484.507Z" fill="#5b5195"/>
          </g>
        </g>
        <g id="Grupo_53860" data-name="Grupo 53860">
          <g id="Grupo_53859" data-name="Grupo 53859">
            <path id="Trazado_100560" data-name="Trazado 100560" d="M1650.527,1484.635l1.461.082.024.027-.115,2.057-.027.023-1.461-.082a.025.025,0,0,1-.024-.026l.115-2.057Z" fill="#5b5195"/>
          </g>
        </g>
        <g id="Grupo_53862" data-name="Grupo 53862">
          <g id="Grupo_53861" data-name="Grupo 53861">
            <path id="Trazado_100561" data-name="Trazado 100561" d="M1652.8,1484.762l1.461.083a.024.024,0,0,1,.024.026l-.116,2.057-.026.024-1.462-.082a.026.026,0,0,1-.024-.027l.116-2.057A.027.027,0,0,1,1652.8,1484.762Z" fill="#5b5195"/>
          </g>
        </g>
        <g id="Grupo_53864" data-name="Grupo 53864">
          <g id="Grupo_53863" data-name="Grupo 53863">
            <path id="Trazado_100562" data-name="Trazado 100562" d="M1655.108,1484.892l1.461.083a.024.024,0,0,1,.024.026l-.115,2.057a.026.026,0,0,1-.027.024l-1.461-.082-.024-.027.116-2.057A.025.025,0,0,1,1655.108,1484.892Z" fill="#5b5195"/>
          </g>
        </g>
        <g id="Grupo_53866" data-name="Grupo 53866">
          <g id="Grupo_53865" data-name="Grupo 53865">
            <path id="Trazado_100563" data-name="Trazado 100563" d="M1657.376,1485.02l1.461.082.024.027-.116,2.056a.024.024,0,0,1-.026.024l-1.462-.082a.025.025,0,0,1-.023-.027l.115-2.056Z" fill="#5b5195"/>
          </g>
        </g>
        <g id="Grupo_53868" data-name="Grupo 53868">
          <g id="Grupo_53867" data-name="Grupo 53867">
            <path id="Trazado_100564" data-name="Trazado 100564" d="M1659.643,1485.147l1.462.082.024.027-.116,2.057a.026.026,0,0,1-.027.024l-1.461-.082-.024-.027.116-2.057A.026.026,0,0,1,1659.643,1485.147Z" fill="#5b5195"/>
          </g>
        </g>
        <g id="Grupo_53870" data-name="Grupo 53870">
          <g id="Grupo_53869" data-name="Grupo 53869">
            <path id="Trazado_100565" data-name="Trazado 100565" d="M1661.911,1485.275l1.461.082a.026.026,0,0,1,.024.027l-.115,2.056-.027.024-1.461-.082a.026.026,0,0,1-.024-.027l.115-2.056A.026.026,0,0,1,1661.911,1485.275Z" fill="#5b5195"/>
          </g>
        </g>
        <g id="Grupo_53872" data-name="Grupo 53872">
          <g id="Grupo_53871" data-name="Grupo 53871">
            <path id="Trazado_100566" data-name="Trazado 100566" d="M1664.339,1485.411l1.461.082a.026.026,0,0,1,.024.027l-.115,2.057a.026.026,0,0,1-.027.024l-1.461-.082-.024-.027.115-2.057Z" fill="#5b5195"/>
          </g>
        </g>
        <g id="Grupo_53874" data-name="Grupo 53874">
          <g id="Grupo_53873" data-name="Grupo 53873">
            <path id="Trazado_100567" data-name="Trazado 100567" d="M1666.607,1485.539l1.461.082a.025.025,0,0,1,.024.026l-.116,2.057-.026.024-1.462-.082-.024-.027.116-2.057Z" fill="#5b5195"/>
          </g>
        </g>
        <g id="Grupo_53876" data-name="Grupo 53876">
          <g id="Grupo_53875" data-name="Grupo 53875">
            <path id="Trazado_100568" data-name="Trazado 100568" d="M1668.874,1485.666l1.462.082.023.027-.115,2.057a.026.026,0,0,1-.027.024l-1.461-.083a.024.024,0,0,1-.024-.026l.116-2.057A.024.024,0,0,1,1668.874,1485.666Z" fill="#5b5195"/>
          </g>
        </g>
        <g id="Grupo_53878" data-name="Grupo 53878">
          <g id="Grupo_53877" data-name="Grupo 53877">
            <path id="Trazado_100569" data-name="Trazado 100569" d="M1620.613,1482.954l1.461.082a.024.024,0,0,1,.024.026l-.116,2.057a.025.025,0,0,1-.026.024l-1.462-.082a.026.026,0,0,1-.024-.027l.116-2.057Z" fill="#5b5195"/>
          </g>
        </g>
        <g id="Grupo_53880" data-name="Grupo 53880">
          <g id="Grupo_53879" data-name="Grupo 53879">
            <path id="Trazado_100570" data-name="Trazado 100570" d="M1622.88,1483.081l1.462.082a.025.025,0,0,1,.023.027l-.115,2.057a.025.025,0,0,1-.027.023l-1.461-.082-.024-.026.116-2.057A.024.024,0,0,1,1622.88,1483.081Z" fill="#5b5195"/>
          </g>
        </g>
      </g>
      <g id="Grupo_53883" data-name="Grupo 53883">
        <g id="Grupo_53882" data-name="Grupo 53882">
          <rect id="Rectángulo_5155" data-name="Rectángulo 5155" width="4.099" height="0.275" transform="translate(1606.804 1483.913) rotate(-63.016)" fill="#f0f3fb"/>
        </g>
      </g>
      <g id="Grupo_53885" data-name="Grupo 53885">
        <g id="Grupo_53884" data-name="Grupo 53884">
          <rect id="Rectángulo_5156" data-name="Rectángulo 5156" width="4.371" height="0.275" transform="matrix(0.597, -0.802, 0.802, 0.597, 1603.543, 1483.261)" fill="#f0f3fb"/>
        </g>
      </g>
    </g>
    <g id="Grupo_53888" data-name="Grupo 53888">
      <g id="Grupo_53887" data-name="Grupo 53887">
        <circle id="Elipse_4052" data-name="Elipse 4052" cx="3.166" cy="3.166" r="3.166" transform="translate(1692.974 1468.132)" fill="#fff"/>
      </g>
    </g>
  </g>
</svg>
