<svg xmlns="http://www.w3.org/2000/svg" xmlns:xlink="http://www.w3.org/1999/xlink" width="610" height="713" viewBox="0 0 610 713">
  <defs>
    <linearGradient id="linear-gradient" x1="0.5" x2="0.5" y2="1" gradientUnits="objectBoundingBox">
      <stop offset="0" stop-color="#766abd"/>
      <stop offset="1" stop-color="#aba2de"/>
    </linearGradient>
    <clipPath id="clip-path">
      <rect id="Rectángulo_37186" data-name="Rectángulo 37186" width="610" height="713" rx="20" transform="translate(180 949.998)" stroke="#707070" stroke-width="1" opacity="0.249" fill="url(#linear-gradient)"/>
    </clipPath>
    <filter id="Trazado_113183" x="-221.079" y="-77.417" width="432.079" height="417.917" filterUnits="userSpaceOnUse">
      <feOffset dx="6" dy="3" input="SourceAlpha"/>
      <feGaussianBlur stdDeviation="5" result="blur"/>
      <feFlood flood-opacity="0.161"/>
      <feComposite operator="in" in2="blur"/>
      <feComposite in="SourceGraphic"/>
    </filter>
    <filter id="Trazado_113184" x="408.921" y="361.216" width="432.079" height="417.917" filterUnits="userSpaceOnUse">
      <feOffset dx="6" dy="3" input="SourceAlpha"/>
      <feGaussianBlur stdDeviation="5" result="blur-2"/>
      <feFlood flood-opacity="0.161"/>
      <feComposite operator="in" in2="blur-2"/>
      <feComposite in="SourceGraphic"/>
    </filter>
  </defs>
  <g id="Enmascarar_grupo_66" data-name="Enmascarar grupo 66" transform="translate(-180 -949.998)" clip-path="url(#clip-path)">
    <g id="Grupo_111301" data-name="Grupo 111301" transform="matrix(0.766, -0.643, 0.643, 0.766, -32.079, 1101.727)">
      <g transform="matrix(0.77, 0.64, -0.64, 0.77, 259.99, 20.09)" filter="url(#Trazado_113183)">
        <path id="Trazado_113183-2" data-name="Trazado 113183" d="M142.93,11.347l19.449-3.919a2.036,2.036,0,0,0,.926-.025l7.684-1.321c.167-.029.334-.059.5-.08,2.859-.364,5.7-.842,8.552-1.244q4.7-.664,9.41-1.243c3.757-.462,7.525-.85,11.292-1.233q6.92-.7,13.861-1.175c8.1-.546,16.214-.93,24.346-1.053C250.26-.117,261.568.1,272.883.975a218.861,218.861,0,0,1,26,3.383A100.418,100.418,0,0,1,318,9.846a42.552,42.552,0,0,1,9.939,5.51,18.767,18.767,0,0,1,5.308,6.051,45.853,45.853,0,0,1,2.425,5.244,31.491,31.491,0,0,1,2.134,9.864,21.93,21.93,0,0,1-3.818,13.309,28.839,28.839,0,0,1-5.461,6.072,43.676,43.676,0,0,1-10.6,6.537,69.038,69.038,0,0,1-9.776,3.368,60.226,60.226,0,0,1-8.069,1.512,52.233,52.233,0,0,1-9.668.279,45.492,45.492,0,0,0-10.976.821,33.621,33.621,0,0,0-4.175,1.1A37.126,37.126,0,0,0,259.079,80.27a65.483,65.483,0,0,0-9.161,13.668,131.9,131.9,0,0,0-6.223,14.074,43.687,43.687,0,0,1-6.072,11.217,31.308,31.308,0,0,1-11.29,9.151,63.1,63.1,0,0,1-13.126,4.267c-3.57.853-7.174,1.564-10.71,2.565a63.041,63.041,0,0,0-6.592,2.21,38.873,38.873,0,0,0-12.835,8.715,92.3,92.3,0,0,0-13.032,16.574c-2.595,4.15-5.134,8.342-7.556,12.619-1.21,2.137-2.548,4.183-3.864,6.245q-1.808,2.833-3.748,5.556A89.256,89.256,0,0,1,143.7,200.067a81.176,81.176,0,0,1-10.561,8.584,78.667,78.667,0,0,1-24.321,10.775,2.333,2.333,0,0,0-.863.343l-9.974,2.01a1.877,1.877,0,0,0-.76,0,103.519,103.519,0,0,1-10.715,1.01,113.37,113.37,0,0,1-14.361-.206,110.668,110.668,0,0,1-21.067-3.607,75.9,75.9,0,0,1-17.9-7.254,40.425,40.425,0,0,1-9.4-7.209A85.829,85.829,0,0,1,3.319,167.7a10.522,10.522,0,0,0-.743-2.17l-1.6-7.958a7.778,7.778,0,0,0-.108-2.014c-.37-2.433-.568-4.88-.706-7.33A100.253,100.253,0,0,1,5.142,111.01a110.08,110.08,0,0,1,11.49-24.323Q19.952,81.4,23.725,76.5A131.618,131.618,0,0,1,34.49,64.251a149.471,149.471,0,0,1,15.462-13.54,167.524,167.524,0,0,1,20.39-13.4A201.2,201.2,0,0,1,93.758,26.33c7.875-3.116,15.874-5.847,23.973-8.27,4.385-1.312,8.789-2.556,13.217-3.7,3.664-.945,7.33-1.886,11.035-2.662A2.124,2.124,0,0,0,142.93,11.347Z" transform="matrix(0.77, -0.64, 0.64, 0.77, -212.08, 151.73)" fill="url(#linear-gradient)"/>
      </g>
    </g>
    <g id="Grupo_111302" data-name="Grupo 111302" transform="translate(1000 1493.984) rotate(140)">
      <g transform="matrix(-0.77, -0.64, 0.64, -0.77, 278.49, 943.8)" filter="url(#Trazado_113184)">
        <path id="Trazado_113184-2" data-name="Trazado 113184" d="M142.93,11.347l19.449-3.919a2.036,2.036,0,0,0,.926-.025l7.684-1.321c.167-.029.334-.059.5-.08,2.859-.364,5.7-.842,8.552-1.244q4.7-.664,9.41-1.243c3.757-.462,7.525-.85,11.292-1.233q6.92-.7,13.861-1.175c8.1-.546,16.214-.93,24.346-1.053C250.26-.117,261.568.1,272.883.975a218.848,218.848,0,0,1,26,3.383A100.415,100.415,0,0,1,318,9.846a42.552,42.552,0,0,1,9.939,5.51,18.767,18.767,0,0,1,5.308,6.051,45.85,45.85,0,0,1,2.425,5.244,31.49,31.49,0,0,1,2.133,9.864,21.93,21.93,0,0,1-3.818,13.309,28.84,28.84,0,0,1-5.461,6.072,43.676,43.676,0,0,1-10.6,6.537,69.039,69.039,0,0,1-9.776,3.368,60.22,60.22,0,0,1-8.069,1.511,52.234,52.234,0,0,1-9.668.279,45.494,45.494,0,0,0-10.976.821,33.628,33.628,0,0,0-4.175,1.1A37.125,37.125,0,0,0,259.079,80.27a65.483,65.483,0,0,0-9.161,13.668,131.909,131.909,0,0,0-6.223,14.074,43.688,43.688,0,0,1-6.072,11.217,31.308,31.308,0,0,1-11.29,9.151,63.094,63.094,0,0,1-13.126,4.267c-3.57.853-7.174,1.564-10.71,2.565a63.05,63.05,0,0,0-6.592,2.21,38.874,38.874,0,0,0-12.835,8.715,92.3,92.3,0,0,0-13.032,16.574c-2.595,4.15-5.134,8.342-7.556,12.619-1.21,2.137-2.548,4.183-3.864,6.245q-1.808,2.833-3.748,5.556A89.255,89.255,0,0,1,143.7,200.066a81.17,81.17,0,0,1-10.561,8.584,78.666,78.666,0,0,1-24.321,10.775,2.334,2.334,0,0,0-.863.343l-9.974,2.01a1.877,1.877,0,0,0-.76,0A103.52,103.52,0,0,1,86.5,222.787a113.376,113.376,0,0,1-14.361-.206,110.67,110.67,0,0,1-21.067-3.608,75.9,75.9,0,0,1-17.9-7.254,40.423,40.423,0,0,1-9.4-7.209A85.829,85.829,0,0,1,3.319,167.7a10.52,10.52,0,0,0-.743-2.17l-1.6-7.958a7.778,7.778,0,0,0-.108-2.014c-.37-2.433-.568-4.88-.706-7.33A100.253,100.253,0,0,1,5.142,111.01a110.08,110.08,0,0,1,11.49-24.323Q19.952,81.4,23.725,76.5A131.608,131.608,0,0,1,34.49,64.251a149.443,149.443,0,0,1,15.462-13.54,167.526,167.526,0,0,1,20.39-13.4A201.2,201.2,0,0,1,93.758,26.33c7.875-3.116,15.874-5.847,23.973-8.27,4.385-1.312,8.789-2.556,13.217-3.7,3.663-.945,7.33-1.886,11.035-2.662A2.124,2.124,0,0,0,142.93,11.347Z" transform="translate(820 543.99) rotate(140)" fill="url(#linear-gradient)"/>
      </g>
    </g>
  </g>
</svg>
