<svg xmlns="http://www.w3.org/2000/svg" width="85" height="84.947" viewBox="0 0 85 84.947">
  <path id="Trazado_113203" data-name="Trazado 113203" d="M1365.708-36.358h2.986c.268.056.543.091.8.171A25.227,25.227,0,0,1,1373.171-35c1.324.645,1.416,1.471.606,2.724a8.12,8.12,0,0,1-3.3,2.817c-.846.424-.578,1.165-.573,1.819,0,.591.48.657.94.713a32.7,32.7,0,0,1,17.209,7.36c.443.365.725.362,1.112-.037.961-.993,1.933-1.976,2.935-2.928a1.248,1.248,0,0,0,.392-1.526,7.376,7.376,0,0,1-.236-4.326,1.494,1.494,0,0,1,1.871-1.322,7.563,7.563,0,0,1,2.251.763,13.727,13.727,0,0,1,4.446,3.8,16.972,16.972,0,0,1,2.228,3.84c.563,1.341-.01,2.139-1.414,2.511a7.5,7.5,0,0,1-4.163-.279,1.22,1.22,0,0,0-1.4.358c-.935.979-1.881,1.952-2.877,2.867-.56.515-.481.88-.078,1.462,1.13,1.633,2.271,3.272,3.235,5a31.991,31.991,0,0,1,3.715,12.214.993.993,0,0,0,.342.68,1.779,1.779,0,0,0,2.193-.663A8.119,8.119,0,0,1,1405.45-.31a1.551,1.551,0,0,1,2.437.439,7.14,7.14,0,0,1,.922,1.925,14.181,14.181,0,0,1,.461,6.156,15.749,15.749,0,0,1-1.17,4.108c-.539,1.3-1.534,1.478-2.711.729A7.95,7.95,0,0,1,1402.652,10a1.577,1.577,0,0,0-2.055-.872c-.778.164-.61.852-.676,1.344a32.894,32.894,0,0,1-7.236,16.663c-.4.5-.408.827.041,1.262,1.033,1,2.014,2.053,3.072,3.024a1.562,1.562,0,0,0,1.081.286c1.038-.086,2.066-.37,3.1-.386,2.759-.043,3.489,1.162,2.3,3.664a14.116,14.116,0,0,1-4.259,5.115,15.755,15.755,0,0,1-3.71,2.11c-1.405.56-2.234-.083-2.544-1.584a7.646,7.646,0,0,1,.338-4.078,1.084,1.084,0,0,0-.327-1.309c-.961-.915-1.929-1.829-2.806-2.82-.582-.659-1-.586-1.634-.083a31.052,31.052,0,0,1-11.543,5.806c-1.68.436-3.413.661-5.114,1.019-.431.091-1.009.2-1.214.507a1.73,1.73,0,0,0,.7,2.176,12.242,12.242,0,0,1,2.516,1.976c1.612,1.88,1.237,3.111-1.121,3.927a15.315,15.315,0,0,1-9.458.182,6.8,6.8,0,0,1-1.713-.812,1.523,1.523,0,0,1-.585-2.388,7.726,7.726,0,0,1,3.12-2.893,1.619,1.619,0,0,0,.922-2.1c-.159-.819-.843-.529-1.332-.651-.107-.027-.217-.041-.327-.057a33.236,33.236,0,0,1-16.352-7.165c-.61-.5-.954-.406-1.436.108q-1.333,1.42-2.756,2.754a1.459,1.459,0,0,0-.421,1.611,12.66,12.66,0,0,1,.382,3.347c-.1,2.06-1.236,2.706-3.156,1.959-.154-.06-.3-.134-.453-.205a13.865,13.865,0,0,1-5.045-4.088,17.055,17.055,0,0,1-2.194-3.763c-.628-1.486-.033-2.28,1.536-2.6a8.167,8.167,0,0,1,4,.308,1.175,1.175,0,0,0,1.337-.326c.979-1.014,1.969-2.019,2.993-2.987.527-.5.417-.86.039-1.411a59.417,59.417,0,0,1-3.447-5.358,32.6,32.6,0,0,1-3.51-11.685,1.288,1.288,0,0,0-.308-.8,1.984,1.984,0,0,0-2.308.577,14.283,14.283,0,0,1-2.023,2.594c-1.785,1.6-3.1,1.2-3.885-1.09-.321-.936-.521-1.915-.776-2.874V3.783A27.365,27.365,0,0,1,1325.434.3c.781-1.782,2.119-2.023,3.517-.642a15.136,15.136,0,0,1,2.237,2.844c.524.854,1.231.568,1.9.58.65.012.687-.545.741-1.008a32.719,32.719,0,0,1,7.359-17.13c.306-.375.354-.625-.006-.976-1.108-1.081-2.174-2.206-3.307-3.26a1.456,1.456,0,0,0-1.016-.239c-1.175.1-2.344.39-3.516.4-2.122.015-2.851-1.112-2.082-3.083a13.888,13.888,0,0,1,4.01-5.309,10.161,10.161,0,0,1,4.326-2.524c1.3-.306,2.046.107,2.279,1.435a7.953,7.953,0,0,1-.251,4.174,1.145,1.145,0,0,0,.315,1.4c1.024.968,2.026,1.963,2.99,2.991.466.5.8.439,1.332.075,1.612-1.113,3.215-2.259,4.921-3.213a32.676,32.676,0,0,1,11.865-3.762c.489-.064,1.175.085,1.31-.717a1.6,1.6,0,0,0-.845-2,10.655,10.655,0,0,1-2.3-1.734c-1.834-2.056-1.452-3.361,1.191-4.209C1363.477-35.95,1364.606-36.113,1365.708-36.358Z" transform="translate(-1324.406 36.358)" fill="#766abd"/>
</svg>
