<svg xmlns="http://www.w3.org/2000/svg" xmlns:xlink="http://www.w3.org/1999/xlink" width="435" height="435" viewBox="0 0 435 435">
  <defs>
    <clipPath id="clip-path">
      <circle id="Elipse_4183" data-name="Elipse 4183" cx="217.5" cy="217.5" r="217.5" transform="translate(0 0)" fill="none"/>
    </clipPath>
  </defs>
  <g id="Grupo_125921" data-name="Grupo 125921" transform="translate(1346 5536)">
    <g id="Grupo_119038" data-name="Grupo 119038" transform="translate(-1422.875 -5797.917)">
      <g id="Grupo_119037" data-name="Grupo 119037" transform="translate(76.875 261.917)">
        <g id="Grupo_119036" data-name="Grupo 119036" transform="translate(0 0)" clip-path="url(#clip-path)">
          <g id="Grupo_119035" data-name="Grupo 119035" transform="translate(0 0)">
            <circle id="Elipse_4182" data-name="Elipse 4182" cx="217.5" cy="217.5" r="217.5" transform="translate(0 0)" fill="#766abd"/>
            <g id="Grupo_119034" data-name="Grupo 119034" transform="translate(81.343 72.482)">
              <g id="Grupo_119020" data-name="Grupo 119020" transform="translate(21.051)">
                <g id="Grupo_119018" data-name="Grupo 119018">
                  <path id="Trazado_143818" data-name="Trazado 143818" d="M201.63,622.131,112.035,611.1s5.48-131.007,1.132-140.11c-4.348-9.123-22.6-23.138-26-50.123-1.245-9.887-7.422-26.285-13.476-40.623-.853-2.034-1.711-4.01-2.539-5.926-4.186-9.6-7.971-17.589-9.549-20.883l-.015-.029a1.863,1.863,0,0,1,.843-2.461c3.794-1.779,13.628-5.1,22.76,2.726,11.623,9.956,17.358,19.358,19.642,25.922,0,0,8.5,19.785,14,19.231,7.2-.745,8.191-17.726,8.191-17.726-1.216-34.118-8.451-68.707-10.28-94.933-.255-3.623-.5-7.358.564-10.789s3.78-6.51,7.113-6.642c4.858-.2,8.069,5.348,10.03,10.211,7.5,18.677,21.481,80.168,25.505,78.457,4.471-1.985,9.809-70.084,17.353-103.056,1-4.3,6.74-14.593,13.735-13.971,9.858.868,9.936,19.437,10.069,25.608.623,29.8-4.618,99.315-.422,99.9,4.255.6,18.937-56.937,25.54-81.781,1.152-4.343,2.368-8.824,4.951-12.456s6.907-6.255,10.932-5.284c3.745.912,6.314,4.706,7.177,8.721s.333,8.289-.2,12.441c-3.177,24.917-15.853,90.109-10.172,89.6,5.451-.51,24.618-30.711,34.422-47.207,2.824-4.75,10.353-11.466,14.691-8.8,3.392,2.078,4.412,9.157,2.672,15.642-3.578,13.319-23.162,54.731-28.53,67.447-19.476,46.167-24.084,55.266-54.168,94.526Z" transform="translate(-61.408 -240.349)" fill="#ffaf9f"/>
                </g>
                <g id="Grupo_119019" data-name="Grupo 119019" transform="translate(24.047 64.824)">
                  <path id="Trazado_143819" data-name="Trazado 143819" d="M107.583,273.169c-1.931-1.6-4.858-1.27-6.917,1.593-2.5,3.48-.941,9.221,3.927,8.672C109.181,282.909,111.152,276.125,107.583,273.169Z" transform="translate(63.126 -180.831)" fill="#fff"/>
                  <path id="Trazado_143820" data-name="Trazado 143820" d="M87.9,253.83c-2.99.9-4.667,4.162-3.118,8.275,1.882,5,8.917,7.329,11.7,1.9C99.1,258.894,93.423,252.168,87.9,253.83Z" transform="translate(3.452 -253.572)" fill="#fff"/>
                  <path id="Trazado_143821" data-name="Trazado 143821" d="M104.531,262.3a6.235,6.235,0,0,1,6.142,5.956c.833-4.152,6.569-6.334,9.946-3.784s2.853,8.667-.912,10.6a6.689,6.689,0,0,1,8.623,2.711A7.181,7.181,0,0,1,126.2,286.7a7.771,7.771,0,0,1-9.284-.466c.814,3.8,1.422,8.172-.98,11.23a6.826,6.826,0,1,1-10.147-9.088,13.444,13.444,0,0,1-6.941,1.539,5.947,5.947,0,0,1-3.466-1.1,4.626,4.626,0,0,1-.99-5.461,7.361,7.361,0,0,1,4.559-3.623c-2.5-.216-5.128-.475-7.181-1.912s-3.226-4.471-1.784-6.53a4.91,4.91,0,0,1,4.75-1.7,14.274,14.274,0,0,1,4.745,1.941C96.291,268.129,100.477,262.4,104.531,262.3Z" transform="translate(23.545 -219.522)" fill="#fff"/>
                  <path id="Trazado_143822" data-name="Trazado 143822" d="M100.075,280a6.089,6.089,0,0,1-3.8,7.441c4.113-.417,7.794,4.319,6.382,8.2s-7.275,5.142-10.157,2.181a6.527,6.527,0,0,1-.059,8.824,7.009,7.009,0,0,1-8.936.564,7.576,7.576,0,0,1-2.226-8.8c-3.319,1.848-7.221,3.667-10.765,2.3a6.664,6.664,0,1,1,5.579-12.074,13.146,13.146,0,0,1-3.427-6.039,5.772,5.772,0,0,1,.034-3.549,4.513,4.513,0,0,1,4.814-2.49,7.194,7.194,0,0,1,4.686,3.216c-.515-2.392-1.024-4.917-.274-7.25s3.255-4.289,5.583-3.534a4.793,4.793,0,0,1,2.946,3.951,14.026,14.026,0,0,1-.451,4.98C92.276,273.984,98.825,276.249,100.075,280Z" transform="translate(-66.314 -194.019)" fill="#fff"/>
                  <path id="Trazado_143823" data-name="Trazado 143823" d="M94.826,257.695a8.2,8.2,0,0,1,8.083,7.829c1.088-5.456,8.637-8.329,13.079-4.976s3.745,11.4-1.2,13.941a8.784,8.784,0,0,1,11.333,3.564,9.45,9.45,0,0,1-2.8,11.731,10.216,10.216,0,0,1-12.211-.613c1.069,5,1.868,10.75-1.289,14.77a8.975,8.975,0,1,1-13.343-11.951,17.739,17.739,0,0,1-9.128,2.024,7.822,7.822,0,0,1-4.554-1.441,6.083,6.083,0,0,1-1.309-7.186,9.69,9.69,0,0,1,6-4.76c-3.284-.284-6.74-.628-9.446-2.515s-4.235-5.883-2.343-8.588c1.333-1.907,3.946-2.574,6.25-2.23a18.868,18.868,0,0,1,6.235,2.549C83.992,265.357,89.5,257.822,94.826,257.695Z" transform="translate(-32.991 -237.495)" fill="#fff"/>
                </g>
              </g>
              <g id="Grupo_119024" data-name="Grupo 119024" transform="translate(0 57.84)">
                <g id="Grupo_119021" data-name="Grupo 119021">
                  <path id="Trazado_143824" data-name="Trazado 143824" d="M249.323,284.9c-4.245,17.152-10.6,38.672-14.378,39.809-3.681,1.1-1.8-44.5-1.476-50.677,1.1-7.662-8.5-13.015-13.77-12.206A14.633,14.633,0,0,0,207.768,273.1c-4.093,23.618-8.8,47.447-11.481,47.609-2.784.167-4.936-26.5-7.324-55.251-.132-4.3-5.833-14.392-16.7-13.216-8.971.971-12.363,10.588-12.3,16.966,1.27,27.329,3.093,52.261.5,53.373-2.255.926-8.922-9.775-16.054-28.074a15.967,15.967,0,0,0-7.309-8.574,11.41,11.41,0,0,0-10.314-.034c-11.456,4.966-8.878,14.383-8.873,14.525,4.142,17.441,8.907,36.055,13.422,53.815,0,0,3,12.319-4.735,14.593-5.3,1.559-21.51-15.623-21.51-15.623-3.544-5.981-11.044-14.054-24.407-21.5-10.51-5.848-19.486-.647-22.848,1.858a1.857,1.857,0,0,0-.338,2.578l.02.029c2.206,2.907,7.5,9.98,13.51,18.559,1.2,1.716,2.426,3.481,3.672,5.3,8.784,12.848,18.1,27.692,21.29,37.133,8.7,25.765,29.373,35.873,35.452,43.947s18.476,136.7,18.476,136.7l90-7.015-4.157-121.625c21.672-44.466,21.652-58.913,24.275-108.953.529-10.1,6.686-35.662,10.265-54.04.9-5.824-6.52-10.382-10.417-10.476C256.147,275.63,250.784,279.3,249.323,284.9Z" transform="translate(-57.114 -252.148)" fill="#ffc0b1"/>
                </g>
                <g id="Grupo_119022" data-name="Grupo 119022" transform="translate(65.082 4.71)" opacity="0.5" style="mix-blend-mode: multiply;isolation: isolate">
                  <path id="Trazado_143825" data-name="Trazado 143825" d="M113.4,264.236c.049.4-4.755-2.789-8-3.25-.157-.02-.284-.044-.485-.074-2.975-.422-8.206,1.225-8.054.873a5.9,5.9,0,0,1,2.544-2.726,10.172,10.172,0,0,1,6.088-.912l.466.069a10.974,10.974,0,0,1,5.853,2.7A5.753,5.753,0,0,1,113.4,264.236Z" transform="translate(32.896 -233.92)" fill="#ffb1a7"/>
                  <path id="Trazado_143826" data-name="Trazado 143826" d="M108.549,263.286c.034.27-3.275-1.922-5.5-2.235-.1-.02-.2-.034-.328-.054-2.049-.289-5.647.843-5.544.6a4.071,4.071,0,0,1,1.75-1.873,7,7,0,0,1,4.191-.627l.319.049A7.594,7.594,0,0,1,107.461,261,4.026,4.026,0,0,1,108.549,263.286Z" transform="translate(34.103 -230.078)" fill="#ffb1a7"/>
                  <path id="Trazado_143827" data-name="Trazado 143827" d="M106.712,259.92c.142.412-5.652-2.054-9.172-1.922-.167,0-.309,0-.52.015-3.23.118-8.343,2.853-8.26,2.446a5.978,5.978,0,0,1,2.025-3.363,10.511,10.511,0,0,1,6.191-2.123l.5-.02a12.207,12.207,0,0,1,6.784,1.75A6.59,6.59,0,0,1,106.712,259.92Z" transform="translate(1.287 -245.933)" fill="#ffb1a7"/>
                  <path id="Trazado_143828" data-name="Trazado 143828" d="M102.469,259.735c.108.3-4.128-1.5-6.7-1.407l-.382.01c-2.363.088-6.1,2.088-6.039,1.794a4.4,4.4,0,0,1,1.485-2.461,7.713,7.713,0,0,1,4.52-1.554l.368-.01a8.935,8.935,0,0,1,4.961,1.275A4.807,4.807,0,0,1,102.469,259.735Z" transform="translate(3.594 -241.429)" fill="#ffb1a7"/>
                  <path id="Trazado_143829" data-name="Trazado 143829" d="M97.072,258.081c.142.412-5.652-2.054-9.167-1.922-.172,0-.309,0-.525.015-3.23.118-8.343,2.853-8.26,2.451a5.972,5.972,0,0,1,2.029-3.368,10.53,10.53,0,0,1,6.186-2.123l.5-.02a12.247,12.247,0,0,1,6.784,1.75A6.611,6.611,0,0,1,97.072,258.081Z" transform="translate(-36.328 -253.109)" fill="#ffb1a7"/>
                  <path id="Trazado_143830" data-name="Trazado 143830" d="M89.483,257.214c.074.216-2.985-1.083-4.843-1.015l-.275,0c-1.706.064-4.407,1.51-4.363,1.294a3.149,3.149,0,0,1,1.074-1.774,5.555,5.555,0,0,1,3.265-1.123l.265-.01a6.444,6.444,0,0,1,3.583.922A3.483,3.483,0,0,1,89.483,257.214Z" transform="translate(-32.886 -247.335)" fill="#ffb1a7"/>
                  <path id="Trazado_143831" data-name="Trazado 143831" d="M84.805,261.969c.221.3-5.083-.255-7.9.725-.132.044-.25.078-.422.142-2.583.9-6.039,4.382-6.074,4.034a5.058,5.058,0,0,1,.8-3.231,8.928,8.928,0,0,1,4.48-3.255l.407-.137a10.293,10.293,0,0,1,5.922-.275A5.586,5.586,0,0,1,84.805,261.969Z" transform="translate(-70.39 -227.544)" fill="#ffb1a7"/>
                  <path id="Trazado_143832" data-name="Trazado 143832" d="M80.415,262.39c.137.191-3.211-.162-4.99.456l-.265.093c-1.632.569-3.819,2.77-3.838,2.549a3.19,3.19,0,0,1,.5-2.039,5.646,5.646,0,0,1,2.833-2.059l.255-.088a6.555,6.555,0,0,1,3.745-.172A3.549,3.549,0,0,1,80.415,262.39Z" transform="translate(-66.814 -222.578)" fill="#ffb1a7"/>
                </g>
                <g id="Grupo_119023" data-name="Grupo 119023" transform="translate(0.373 82.618)">
                  <path id="Trazado_143833" data-name="Trazado 143833" d="M79.215,286.337l-.069.044-6.775,4.961c-1.083-1.588-2.2-3.108-3.24-4.6-5.245-7.485-10.02-13.74-11.941-16.28,8.613-4.843,17.339,3.24,22.834,11.618A3.166,3.166,0,0,1,79.215,286.337Z" transform="translate(-57.19 -269.002)" fill="#ffb1a7" opacity="0.4" style="mix-blend-mode: multiply;isolation: isolate"/>
                  <path id="Trazado_143834" data-name="Trazado 143834" d="M69.7,273.508l-6.78,4.971c-1.083-1.593-2.26-3.225-3.3-4.716C63.426,271.886,67.235,271.832,69.7,273.508Z" transform="translate(-47.739 -256.129)" fill="#fff" opacity="0.5"/>
                </g>
              </g>
              <g id="Grupo_119033" data-name="Grupo 119033" transform="translate(98.67 169.935)">
                <g id="Grupo_119028" data-name="Grupo 119028" transform="translate(9.046)">
                  <g id="Grupo_119027" data-name="Grupo 119027">
                    <g id="Grupo_119025" data-name="Grupo 119025" transform="translate(35.149)">
                      <path id="Trazado_143835" data-name="Trazado 143835" d="M98.479,297.982a2.533,2.533,0,0,1-.956-.186,2.593,2.593,0,0,1-1.461-3.363l4.833-12.221-12.461-2.044a2.6,2.6,0,1,1,.843-5.123l15.637,2.569a2.595,2.595,0,0,1,2,3.515L100.9,296.335A2.608,2.608,0,0,1,98.479,297.982Z" transform="translate(-86.258 -275.015)" fill="#d919d9"/>
                    </g>
                    <g id="Grupo_119026" data-name="Grupo 119026" transform="translate(0 6.197)">
                      <path id="Trazado_143836" data-name="Trazado 143836" d="M81.687,342.256a2.7,2.7,0,0,1-.4-.03,2.589,2.589,0,0,1-2.172-2.956c5.647-36.952,45.084-61.579,46.756-62.609a2.6,2.6,0,0,1,2.721,4.427c-.392.24-39.064,24.417-44.344,58.967A2.6,2.6,0,0,1,81.687,342.256Z" transform="translate(-79.088 -276.279)" fill="#d919d9"/>
                    </g>
                  </g>
                </g>
                <g id="Grupo_119032" data-name="Grupo 119032">
                  <g id="Grupo_119031" data-name="Grupo 119031">
                    <g id="Grupo_119029" data-name="Grupo 119029">
                      <path id="Trazado_143837" data-name="Trazado 143837" d="M85.853,297.982a2.6,2.6,0,0,1-2.417-1.647l-6.015-15.206a2.595,2.595,0,0,1,2-3.515l15.638-2.569a2.6,2.6,0,1,1,.843,5.123l-12.461,2.044,4.833,12.221a2.593,2.593,0,0,1-1.461,3.363A2.533,2.533,0,0,1,85.853,297.982Z" transform="translate(-77.242 -275.015)" fill="#d919d9"/>
                    </g>
                    <g id="Grupo_119030" data-name="Grupo 119030" transform="translate(5.237 6.197)">
                      <path id="Trazado_143838" data-name="Trazado 143838" d="M126.455,342.256a2.6,2.6,0,0,1-2.564-2.2c-5.28-34.55-43.952-58.726-44.344-58.967a2.6,2.6,0,0,1,2.721-4.427c1.672,1.029,41.108,25.657,46.756,62.609a2.6,2.6,0,0,1-2.177,2.956A2.684,2.684,0,0,1,126.455,342.256Z" transform="translate(-78.311 -276.279)" fill="#d919d9"/>
                    </g>
                  </g>
                </g>
              </g>
            </g>
          </g>
        </g>
      </g>
    </g>
    <g id="Grupo_119012" data-name="Grupo 119012" transform="translate(-1561 -11700)">
      <circle id="Elipse_4174" data-name="Elipse 4174" cx="39" cy="39" r="39" transform="translate(230 6188)" fill="#ffce26"/>
      <path id="Trazado_146938" data-name="Trazado 146938" d="M-8.98-13.2l1.651-13.819H8.461v4.824H-2.245l-.612,5.4a7.375,7.375,0,0,1,1.753-.69,8,8,0,0,1,2.125-.3,7.926,7.926,0,0,1,6.188,2.384A9.6,9.6,0,0,1,9.37-8.7,9.587,9.587,0,0,1,8.21-4,7.971,7.971,0,0,1,4.954-.761,10.281,10.281,0,0,1,0,.371,11.062,11.062,0,0,1-4.769-.676,8.555,8.555,0,0,1-8.257-3.55,6.983,6.983,0,0,1-9.5-7.675h6.271a3.547,3.547,0,0,0,.946,2.352,3,3,0,0,0,2.245.87q3.154,0,3.154-4.666,0-4.314-3.859-4.314a3.851,3.851,0,0,0-3.266,1.407Z" transform="translate(269 6240)" fill="#12263f"/>
    </g>
  </g>
</svg>
