<svg xmlns="http://www.w3.org/2000/svg" width="27" height="27" viewBox="0 0 27 27">
  <g id="Grupo_112587" data-name="Grupo 112587" transform="translate(-390 -9868)">
    <rect id="Rectángulo_37310" data-name="Rectángulo 37310" width="27" height="27" transform="translate(390 9868)" fill="#67cbc0"/>
    <g id="Grupo_112584" data-name="Grupo 112584" transform="translate(-496.143 9724.245)">
      <path id="Trazado_113644" data-name="Trazado 113644" d="M911.262,166.59c-.009-.372-.16-.513-.535-.523-.1,0-.191,0-.333,0v-.417q0-8.86,0-17.719c0-.557-.116-.673-.676-.674-1.46,0-12.245,0-15.284,0h0c-1.446,0-2.892,0-4.337,0-.606,0-.71.1-.71.7q0,8.844,0,17.687v.409c-.108,0-.171.009-.234.011-.519.009-.633.125-.636.649,0,.278,0,.555,0,.833,0,.617.087.7.7.7H906.2q2.242,0,4.485,0c.445,0,.572-.126.578-.571C911.269,167.316,911.271,166.953,911.262,166.59ZM909.5,148.337v8.527h-2.157c-.005-.113-.015-.217-.015-.32,0-2.359,0-4.718-.007-7.077a.362.362,0,0,1,.287-.406C908.227,148.838,908.838,148.592,909.5,148.337Zm0,9.437v8.082l-2.155-.825v-7.257Zm-14.779-9.625,0-.005h12.8c-.175.077-.266.121-.36.158l-2.835,1.091c-.442.17-.491.239-.491.7q0,3.493,0,6.986v.342a6.95,6.95,0,0,0-1.085.01,1.981,1.981,0,0,0-1.419,1,.356.356,0,0,1-.35.2A1.531,1.531,0,1,0,901,161.7c.927.009,1.855,0,2.831,0v.458c0,.652.012,1.3,0,1.955a.628.628,0,0,0,.472.692c1.05.384,2.09.8,3.133,1.2,0,.015,0,.031,0,.046H892.363l-.01-.042,2.672-1.031c1.018-.393.932-.248.932-1.331q0-4.246,0-8.492V154.7h.4c1.207,0,2.414.007,3.62,0a1.532,1.532,0,0,0,.233-3.055,2.209,2.209,0,0,0-.32,0,1.271,1.271,0,0,1-1.342-.548,1.926,1.926,0,0,0-2.264-.564l-.327.124c0-.21-.012-.385,0-.558a.612.612,0,0,0-.468-.7c-.951-.347-1.893-.721-2.838-1.085a.882.882,0,0,1-.287-.16Zm9.985,8.718v-.33c0-2.015.005-4.031-.007-6.046a.378.378,0,0,1,.3-.43c.471-.161.933-.352,1.429-.542v7.348Zm1.725.9v6.909c-.562-.217-1.1-.422-1.642-.64-.045-.018-.079-.122-.079-.185,0-2.018,0-4.036,0-6.083Zm-2.6,3.039c-1.015,0-1.985.01-2.955-.006a.63.63,0,0,1-.575-.626.655.655,0,0,1,.578-.657.643.643,0,0,1,.16-.008.859.859,0,0,0,1.04-.6,1.149,1.149,0,0,1,1.552-.542.561.561,0,0,1,.194.25c.026.05.005.126.005.19Zm-8.739,2.917a.345.345,0,0,1-.259.4c-.481.166-.953.357-1.465.551v-6.9h1.719v2.784C895.082,161.613,895.076,162.669,895.087,163.724Zm-.005-6.864h-1.72v-7.338c.547.209,1.082.408,1.612.622a.254.254,0,0,1,.1.2C895.082,152.507,895.081,154.671,895.081,156.861Zm.885-4.928a.486.486,0,0,1,.147-.27,1.221,1.221,0,0,1,2.035.356.685.685,0,0,0,.777.49,11.19,11.19,0,0,1,1.152,0,.651.651,0,0,1,0,1.3c-1.333.01-2.667,0-4,0a.508.508,0,0,1-.116-.037C895.96,153.165,895.954,152.549,895.967,151.932Zm-5.672-3.591c.408.157.8.305,1.194.459.316.124.75.171.911.4s.055.658.055,1q0,3.138,0,6.277v.389H890.3Zm-.01,9.432h2.155v7.262l-2.155.826Zm20.1,9.578H889.4v-.375h20.981Z" fill="#12263f"/>
      <path id="Trazado_113645" data-name="Trazado 113645" d="M992.989,324.194a.5.5,0,0,1-.48.5.488.488,0,0,1-.5-.476.494.494,0,0,1,.491-.515A.5.5,0,0,1,992.989,324.194Z" transform="translate(-94.636 -161.343)" fill="#12263f"/>
      <path id="Trazado_113646" data-name="Trazado 113646" d="M1033.278,334.02a.487.487,0,1,1-.5.472A.494.494,0,0,1,1033.278,334.02Z" transform="translate(-131.91 -170.78)" fill="#12263f"/>
      <path id="Trazado_113647" data-name="Trazado 113647" d="M1003.106,257.814a.5.5,0,1,1-.99,0,.5.5,0,0,1,.99,0Z" transform="translate(-103.876 -100.657)" fill="#12263f"/>
      <path id="Trazado_113648" data-name="Trazado 113648" d="M1038.406,242.941a.489.489,0,0,1-.49-.482.5.5,0,0,1,.511-.5.488.488,0,0,1,.469.5A.474.474,0,0,1,1038.406,242.941Z" transform="translate(-136.611 -86.602)" fill="#12263f"/>
    </g>
  </g>
</svg>
